<?xml version="1.0" encoding="UTF-8"?>
<svg id="Layer_1" data-name="Layer 1" xmlns="http://www.w3.org/2000/svg" viewBox="0 0 64 64">
  <defs>
    <style>
      .cls-1 {
        fill: none;
      }

      .cls-2 {
        fill: #060705;
      }

      .cls-3 {
        fill: #e9e62d;
      }

      .cls-4 {
        fill: #41c379;
      }
    </style>
  </defs>
  <path class="cls-1" d="M32.43,28.86s0,0,0,0c-.02-.35-.07-.72-.2-1.06.11.34.16.7.19,1.06Z"/>
  <path class="cls-1" d="M39.17,39.16c-.02-.18-.03-.35-.05-.51.01.16.03.33.05.51Z"/>
  <path class="cls-1" d="M37.78,32.31h.01s0,0-.01-.02v.02Z"/>
  <path class="cls-1" d="M24.67,21.86c2.46-.66,1.91-2.3,3.28-2.97,2.03-.98,2.98-.54,4.43-.71,1.01-.12,1.66-.85,2.35-1.49.7-.63,1.72-1.06,2.68-1.14.64-.05,1.94.57,2.65-.02.82-.69-.09-1.91,1.37-2.61,2.14-1.03,2.87-.06,4.24,1.38,2.38,2.52,4.03,5.61,4.84,8.93-.8-3.33-2.45-6.44-4.85-8.96-1.37-1.45-2.1-2.42-4.24-1.38-1.47.71-.55,1.93-1.37,2.61-.71.59-2.01-.03-2.65.02-.96.08-1.97.5-2.68,1.14-.71.64-1.34,1.37-2.35,1.49-1.47.17-2.42-.27-4.43.71-1.37.66-.82,2.3-3.28,2.97-.35.4-.73,1.15-.74,1.71,0,.2.04.39.09.57-.05-.17-.08-.35-.08-.54,0-.56.39-1.31.74-1.71Z"/>
  <path class="cls-1" d="M38.47,9.43s.01,0,.02-.02c-5.23-2.16-11.59-1.74-16.54.85l-.53.69s0,0,.01,0l.52-.67c4.96-2.59,11.29-3.02,16.52-.86Z"/>
  <path class="cls-1" d="M36.89,28.53c.09-.19.08-.46-.02-.68.08.22.09.47,0,.65-.61,1.29-1.56,1.19-1.41,2.22,0,.01,0,.02.01.03-.15-1.03.8-.93,1.41-2.21Z"/>
  <path class="cls-1" d="M39.2,39.42s0-.03,0-.05c0,.02,0,.03,0,.05Z"/>
  <path class="cls-1" d="M42.64,52.9c-.14-.17-.18-.32-.15-.46-.03.14,0,.29.15.47.52.61,1.29-.74,1.44-.49l1.01.49s0,0,0,0l-1.01-.5c-.15-.25-.92,1.11-1.44.49Z"/>
  <path class="cls-1" d="M49.39,34.63h.02,0c-.31,1.44-.83,2.64-1.75,3.77-1.94,2.39-3.09,1.21-3.99,2.82-.56.99-1.68,2.23-2.88,1.89-1.06-.3-1.76-1.11-2.21-2.1-.93-2.11-.07-3.02-1.52-3.97-1.76,1.2-3.67,1.88-5.77,1.8-4.7-.15-7.94-4.04-7.66-8.7.02-.32.35-.55.62-.51.19.03.45.37.43.62-.27,3.55,1.93,6.7,5.45,7.39,1.98.38,3.99-.03,5.75-1.12-.45-.51-.87-.93-1.06-1.52-.34-1.06.8-1.79,1.57-2.22-1.48-.27-2.39-1.61-1.84-2.98.18-.46.64-.79.96-1.18-.3,0-.65.03-.95.09-.34.82-1.06,1.45-1.94,1.42-.8-.02-1.33-.6-1.33-1.42-.53.37-.96.65-1.5.66-1.23.02-1.22-1.38-1.82-1.93s-1.42-.68-2.2-.77c-1.41-.18-2.59-1.13-2.91-2.54-.17-.75.15-1.49.45-2.14.82-1.8,1.87-.82,2.58-2.3.37-.77.9-1.44,1.69-1.83,1.18-.58,2.55-.84,3.87-.74,1.08.08,1.76-.37,2.48-1.12.84-.89,2.22-1.69,3.43-1.55l1.98.22c.12-1.97,1.07-2.64,2.91-3.27-.89-.61-1.79-1.13-2.74-1.54-.58.66-1.23,1.09-2.05,1.33-1.93.56-2.37-.07-2.89.37-1.29,1.12-2.86,1.74-4.59,1.66-.59-.03-1.32-.32-1.6-.84-.15-.26-.13-.77-.17-1.1l-3.84,1.19c-1.22.38-3.58.13-4.02-1.29l-1.26.89c.65.27,1.34.47,1.65,1.09.31.61-.11,1.31-.42,1.88.56.15,1.16.24,1.52.65.54.63.75,1.58.46,2.36-.33.91-1.12,1.4-1.85,1.95.11.54.46,1.19.28,1.72-.51,1.45-1.48,2.62-2.59,3.62-.9.81-1.78,1.56-2.82,2.16-.42.24-.79.64-.44,1.15l1.91-.26c.97-.14,1.71.45,2.14,1.23s.15,1.71-.46,2.51c.8.21,1.44.58,1.89,1.23.75,1.09.47,2.47-.59,3.3.39.42.75.77,1,1.15.69,1.04.31,2.31-.59,3.04-1.13.92.54,1.94-.63,3.37,1.12.77,2.26,1.42,3.47,1.97.35-.45.64-.95,1.14-1.13,2.26-.77,3.82.58,6.18-.51.81-.37,1.82-.26,2.61.18,2.22,1.26,2.47,0,4.94.26.63.06,1.03.56,1.31,1.15,6.36-2.81,10.79-8.78,11.65-15.61l-1.49-.37c1.89,1.74.24,3.37,0,4.42Z"/>
  <path class="cls-1" d="M48.45,30.91c.32.18.52.38.64.59-.12-.23-.32-.44-.65-.62-.19-.11-.46-.39-.52-.6,0,0,0,0,0,0,.04.2.33.51.53.62Z"/>
  <path class="cls-1" d="M8.43,20.24c-.09.07-.18.14-.27.19.1-.06.19-.12.27-.19Z"/>
  <path class="cls-1" d="M36.43,23.97c-.13-.19-.19-.41-.18-.63,0,.22.05.45.18.63Z"/>
  <path class="cls-1" d="M8.09,18.96s.02-.02.03-.04c0,.02-.02.03-.03.04Z"/>
  <path class="cls-1" d="M37.8,32.34v-.03h-.01c.43,1.39-1.85,1.54-1.91,2.23-.01.11.02.24.08.37-.05-.12-.07-.24-.06-.34.06-.69,2.34-.83,1.91-2.23Z"/>
  <path class="cls-1" d="M9.79,15.92c.07-.06.12-.14.18-.2-.06.07-.12.15-.18.2,0,0,0,0,0,0Z"/>
  <path class="cls-1" d="M41.18,29.49c.02.07.04.13.03.2-.19,2.59-1.41,4.88-3.25,6.64,0,0,.01.01.02.02,1.83-1.77,3.05-4.05,3.24-6.63,0-.08-.01-.16-.04-.23Z"/>
  <path class="cls-1" d="M44.94,54.04h0c-.03-.1-.04-.2-.04-.3,0,.11.01.21.04.3Z"/>
  <path class="cls-1" d="M25.65,23.24c.05-.24.21-.51.39-.67-.18.17-.35.43-.39.67Z"/>
  <path class="cls-1" d="M20.06,50.66c-.15,0-.32-.04-.45-.1l-.62-.28h0s.61.28.61.28c.14.06.31.11.47.1Z"/>
  <path class="cls-1" d="M14.48,29.69c-.23-.06-.42-.17-.51-.35h-.02c.1.19.29.3.53.35Z"/>
  <path class="cls-1" d="M15.53,53.89c.03.07.11.12.19.16-.07-.03-.14-.09-.17-.16-.14-.3-.03-.72.06-1.06h-.02c-.08.34-.19.78-.06,1.06Z"/>
  <path class="cls-1" d="M19.78,13.64c.11.52-.75.91-.53,1.75.22.84,1.47.74,1.78,1,.39.33.46,1.04.24,1.48-.57,1.12-2.39,1.25-1.69,2.83.22.51.16,1.02-.14,1.48l-.59.91c-.77,1.18-2.94,2.95-4.2,3.64-1.26.69-.99,2.11-.74,2.61h.02c-.26-.5-.45-1.96.74-2.61,1.26-.68,3.43-2.46,4.2-3.64l.59-.91c.3-.45.36-.97.14-1.48-.7-1.57,1.12-1.71,1.69-2.83.22-.43.16-1.15-.24-1.48-.32-.26-1.56-.16-1.78-1-.22-.84.64-1.22.53-1.75-.08-.35-.91-.48-1.57-.4.66-.07,1.48.06,1.55.4Z"/>
  <polygon class="cls-1" points="19.59 48.52 19.59 48.52 22.33 49.29 19.99 55.9 10.84 56.03 10.84 56.03 20.01 55.9 22.35 49.29 19.59 48.52"/>
  <path class="cls-1" d="M37.25,22.23c-.33.04-.6.26-.78.48.17-.22.45-.44.78-.48Z"/>
  <path class="cls-1" d="M45.59,54.19c.45-.27.3-.81.64-1.12l2.4-.03c.65,0,1.32.13,1.88.39.64.3.85.81.86,1.28-.01-.47-.22-.99-.86-1.29-.56-.26-1.22-.39-1.88-.39l-2.4.03c-.35.32-.19.84-.64,1.12-.13.07-.61,0-.65-.16h0c.04.17.53.24.65.17Z"/>
  <path class="cls-1" d="M6.53,19.25c.52.07,1.03.11,1.49-.2,0,0,0,0,0,0-.45.31-.97.27-1.48.2-1-.15-1.67-.85-1.91-1.9h-.01c.23,1.06.9,1.76,1.91,1.91Z"/>
  <polygon class="cls-1" points="22.74 48.27 23.04 47.35 20.27 45.93 19.87 47.49 22.74 48.28 22.74 48.27"/>
  <path class="cls-1" d="M18.54,53.07c-.47-.03-.58-.72-.84-.79.26.1.37.78.84.79Z"/>
  <path class="cls-1" d="M7.47,9.76c1.01.23,2.14.54,2.85,1.36.97,1.13.72,3.16-.13,4.35.86-1.2,1.12-3.23.14-4.36-.71-.82-1.83-1.13-2.85-1.36-1.57-.36-4.01.27-5.24,1.66,1.24-1.37,3.66-2.01,5.23-1.65Z"/>
  <path class="cls-1" d="M42.93,48.56c.05.11.08.19.09.26,0-.07-.03-.16-.09-.27-.06-.14-.44-.15-.61-.09l-2.14.69h0s2.14-.68,2.14-.68c.16-.05.54-.03.61.1Z"/>
  <path class="cls-1" d="M42.28,50.28c.22.05.51-.02.88-.15l.24,1.25s0,0,0,0l-.24-1.26c-.37.13-.65.21-.88.15-.17-.04-.39-.4-.34-.59h0c-.06.19.17.56.34.6Z"/>
  <path class="cls-1" d="M24.04,47.74l-1.97,5.46-.93,2.75h.01l19.07-.11c-.44-2.85-.88-5.53-1.51-8.26-4.85,1.85-9.91,1.84-14.67.16Z"/>
  <path class="cls-1" d="M4.17,14.66l1.12,1.3-.4.49h0s.41-.5.41-.5l-1.12-1.3c-.11-.12-.03-.53.1-.65,0,0,0,0,0,0-.14.11-.21.52-.11.65Z"/>
  <path class="cls-1" d="M3.22,16.38c-.06.13-.06.44.05.56.31.32.76.46,1.34.42h.01c-.57.03-1.03-.12-1.34-.43-.11-.12-.12-.43-.05-.56.01-.03.04-.06.08-.09-.04.03-.07.07-.09.1Z"/>
  <path class="cls-1" d="M6.3,16.54c.83-.47,1.95-.49,2.6.16.76.75.68,1.65.32,2.47-.19.44-.44.79-.74,1.04.3-.26.55-.61.75-1.05.37-.82.45-1.72-.32-2.47-.65-.63-1.76-.63-2.6-.16-.14.08-.28.22-.39.39.1-.16.25-.3.38-.38Z"/>
  <path class="cls-1" d="M38.18,46.62c-4.46,1.71-9.52,1.74-14.05.02.04-.12.1-.22.17-.31-.08.09-.14.19-.19.32,4.53,1.72,9.58,1.69,14.05-.02h.01Z"/>
  <polygon class="cls-1" points="42.55 45.64 39.79 47.14 39.97 48.05 41.7 47.55 41.69 47.55 42.8 47.2 42.55 45.64"/>
  <path class="cls-1" d="M37.57,24.26c.35-.16.61-.56.6-1.1,0,.53-.25.93-.6,1.1Z"/>
  <path class="cls-1" d="M59.29,14.81s.08-.01.13,0c-.05,0-.1,0-.13,0Z"/>
  <path class="cls-1" d="M57.05,19.04c-.45.25-.97.26-1.47,0,.5.27,1.01.26,1.47,0Z"/>
  <path class="cls-1" d="M57.94,9.36c.58,0,1.14.13,1.66.35-.52-.22-1.08-.34-1.66-.35Z"/>
  <path class="cls-1" d="M55.04,18.28s.02.04.03.06c0-.02-.02-.04-.03-.06Z"/>
  <path class="cls-1" d="M61.15,20.35c-.18.11-.42.17-.68.2.26-.03.51-.09.68-.2Z"/>
  <path class="cls-1" d="M56.88,17.33c.02.16.01.33-.03.5.04-.17.05-.34.03-.5Z"/>
  <path class="cls-1" d="M55.01,17.49c.07-.13.17-.24.28-.27-.11.03-.21.13-.28.27Z"/>
  <path class="cls-1" d="M55.57,17.2c.53.07.27.96.83.97-.54-.02-.3-.9-.83-.97Z"/>
  <path class="cls-1" d="M62.66,13.5s0,0,0-.01c0,0,0,0,0,.01.16.83.29,1.8.28,2.77.01-.97-.12-1.95-.28-2.77Z"/>
  <path class="cls-1" d="M53.61,17.03c-.44.61-.55,1.6-.15,2.39-.39-.79-.28-1.77.15-2.39Z"/>
  <path class="cls-1" d="M56.4,18.18c.14,0,.41-.19.45-.35-.04.15-.32.35-.45.35Z"/>
  <path class="cls-1" d="M60.18,17.19c.02.07.03.15.04.22,0-.07-.02-.15-.04-.22Z"/>
  <path class="cls-1" d="M7.65,27.32c-.63-.02-1.23-.24-1.54-.7-.34-.51-.41-1-.38-1.69l-2.33.04c-.07,1.41-.12,3.49,1.31,4.23,1.06.55,4.31.91,5.48.56l-.07-2.37-2.46-.07Z"/>
  <polygon class="cls-1" points="4.75 21.68 7.02 21.78 7.02 21.77 4.75 21.67 2.46 21.64 2.26 23.99 2.46 21.65 4.75 21.68"/>
  <path class="cls-1" d="M56.28,26.64c-.58.7-1.38.81-2.21.83l-1.89.06-.09,2.48c1.9.17,5.61.18,6.52-1.68.43-.9.52-1.83.65-2.94l-2.66-.03c-.03.5-.07.98-.33,1.28Z"/>
  <path class="cls-1" d="M19.74,39.93c.49-.43.51-1.23.09-1.73-.62-.75-1.26-.93-1.18-1.52.05-.53.94-.91,1.12-1.59.23-.93-.52-1.66-1.38-1.82-.4-.07-.77-.41-.88-.74-.28-.88,1.04-1.5.54-2.45-.17-.33-.59-.68-1.04-.61,0,0,0,0,0,0,.45-.05.85.29,1.03.61.51.95-.82,1.57-.54,2.45.11.33.47.66.88.74.87.17,1.61.89,1.38,1.82-.18.69-1.06,1.07-1.12,1.59-.06.59.56.77,1.18,1.52.41.5.39,1.3-.09,1.73-.63.57-1.14,1.39-.95,2.27.08.43.33.87-.16,1.28,0,0,0,0,.01,0,.51-.41.25-.85.17-1.29-.18-.88.32-1.71.95-2.27Z"/>
  <path class="cls-1" d="M57.76,21.7l2.33-.03s0,0,0-.01l-2.34.03c-.66,0-1.3.08-2.03.15l-.13,2.4s0,0,.01,0l.13-2.39c.73-.06,1.36-.15,2.03-.15Z"/>
  <path class="cls-2" d="M63.78,13.61c-.43-2.47-1.84-4.12-4.15-5.01-.94-.37-1.78-.37-2.77-.17-1.32.27-2.6.78-3.39,1.93-.9,1.29-1.56,4.32-.19,5.39-.37.46-.8.93-.97,1.49-.59,1.92.43,3.9,2.34,4.6l-.13,2.51c-.02.58.36.94.91,1.03.07.13.07.53-.02.64-.08.09-.32.26-.44.26l-.98.07c-.63.04-1.19.06-1.89-.02-.49-6.3-3.76-11.99-8.95-15.61-5-3.5-11.38-4.69-17.27-3.13-8.69,2.29-14.94,9.73-15.69,18.67l-2.46-.04c-.33,0-.75-.18-.84-.41-.11-.25-.12-.77.04-.9.51,0,.89-.2.92-.71l.18-2.55c1.83-.54,3.02-3.18,2.31-4.78,1.65-1.53,2.29-4.65.85-6.41-.88-1.07-2.26-1.5-3.54-1.77-2.21-.47-5.19.42-6.54,2.43C.38,12.25.14,13.54.02,14.87c-.14,1.65.4,3.17.98,4.7l.49,1.29-.3,3.38c-.02.21.16.6.31.71.15.11.55.13.79.13-.05,1.74.08,4.28,1.91,5.12.76.35,1.57.44,2.39.6,1.26.24,2.32.2,3.73.04.83,5.89,4.04,11.12,9.03,14.51-.41,1.63-1.06,4.58-2.15,5.83-.47.54-1.37.61-2.04.69l-2.28.25c-.72.07-1.51.27-2.11.71-1.16.83-1.48,2.45-.88,3.69.17.35.57.56.93.56l9.71-.07,21.68-.11h-.01v-.03l8.59-.07c.7,0,1.28-.39,1.51-1.09.38-1.12.09-2.23-.87-2.94-1.76-1.31-3.89-.54-5.98-.89-.69-.14-1.04-.56-1.14-1.22l-.78-5.72c4.53-3.36,7.55-8.29,8.4-13.86,2.54.26,6.56.15,7.76-2.56.42-.94.49-2.08.69-3.06.9,0,.72-3.14.75-3.86,2.98-1.45,3.18-5.04,2.67-7.97ZM1.78,12.05c.12-.23.28-.44.46-.64,1.23-1.38,3.67-2.02,5.24-1.66,1.02.23,2.14.54,2.85,1.36.97,1.13.72,3.17-.14,4.36-.07.09-.14.16-.21.24-.06.07-.12.15-.18.2,0,0,0,0,0,0,0,0,0,0,0,.01-1.04-.69-2.29-.92-3.5-.51l-1.33-1.42c-.12-.13-.53-.1-.67,0-.13.11-.21.52-.1.65l1.12,1.3-.41.5h0s0,.01,0,.01l-1.15-.34c-.1-.03-.3.06-.42.16-.04.03-.07.06-.08.09-.06.13-.05.44.05.56.31.32.77.46,1.34.42h.01c.24,1.03.91,1.74,1.91,1.89.52.07,1.03.12,1.48-.2.02-.02.04-.05.06-.09,0-.02.02-.02.03-.04.08-.18.11-.45.03-.55-.11-.14-.45-.25-.63-.19-.75.25-1.52.01-1.72-.78-.04-.14.03-.32.13-.48.1-.16.25-.31.39-.39.83-.47,1.94-.47,2.6.16.77.75.69,1.65.32,2.47-.2.45-.45.79-.75,1.05-.01.01-.03.02-.04.03-.09.07-.18.14-.27.19-.45.26-1,.37-1.66.31-1.3-.12-2.71-.13-4.02-.14l-.81-2.21c-.75-2.05-.94-4.38.12-6.35ZM2.26,23.99l.2-2.35,2.29.03,2.27.09h0s0,.01,0,.01l-.18,2.1-3.17.05-1.41.06ZM4.71,29.21c-1.42-.74-1.38-2.82-1.31-4.23l2.33-.04c-.03.69.04,1.18.38,1.69.31.45.91.68,1.54.7l2.46.07.07,2.37c-1.17.35-4.42-.01-5.48-.56ZM21.42,10.96l.53-.69c4.95-2.6,11.3-3.02,16.54-.85,0,0-.01,0-.02.02,0,0,.01,0,.02,0-.73.78-1.68.93-2.56,1.01-2.4-.63-2.16,1.71-5.45,1.71-.37,0-.76.05-1.11-.28v-.02l-.07-1c-.01-.17-.16-.46-.28-.56-.15-.12-.6-.16-.79-.09-1.48.49-2.86.97-4.34,1.35-.87.22-1.75,0-2.46-.57h.01s0-.02-.01-.02ZM18.79,42.2c.08.43.34.88-.17,1.29,0,0,0,0-.01,0,0,0,0,0,0,0-5.2-4.23-7.99-10.91-7.27-17.61.52-4.75,2.61-9.16,6.13-12.39.14-.13.44-.21.77-.24.67-.07,1.49.05,1.57.4.12.53-.75.91-.53,1.75.22.84,1.47.74,1.78,1,.4.33.46,1.04.24,1.48-.57,1.12-2.39,1.26-1.69,2.83.22.51.16,1.02-.14,1.48l-.59.91c-.77,1.18-2.94,2.97-4.2,3.64-1.19.64-1,2.11-.74,2.61h.02c.1.19.28.3.51.35.71.16,1.87-.14,2.5-.22,0,0,0,0,.01,0,0,0,0,0,0,0,.45-.06.88.28,1.04.61.51.95-.82,1.57-.54,2.45.11.33.47.66.88.74.87.16,1.61.89,1.38,1.82-.18.69-1.07,1.07-1.12,1.59-.07.59.56.77,1.18,1.52.41.5.39,1.3-.09,1.73-.63.56-1.13,1.39-.95,2.27ZM20.01,55.9l-9.17.14s0,0,0,0h-.02c-.45-.82-.18-1.76.52-2.33.6-.32,1.22-.51,1.91-.59l2.35-.27s0,0,0,0h.02c-.09.34-.2.76-.06,1.05.03.07.1.12.17.16.23.09.58.04.66-.16.14-.32.17-.64.22-1.18h.02c.18-.08.66-.32.93-.42.05-.02.1-.02.14,0,.26.07.37.76.84.79.07,0,.15,0,.24-.05.26-.1.38-.55.18-.82l-.58-.77.58-1.15h.02s0,0,0,0l.62.28c.13.06.3.1.45.1.15,0,.29-.06.35-.18.21-.38.07-.73-.3-.88l-.78-.32.23-.77h.02s0,0,0,0l2.77.77-2.34,6.61ZM19.87,47.49l.4-1.56,2.76,1.41-.3.92h0s-2.87-.77-2.87-.77ZM21.15,55.95h-.01l.93-2.75,1.97-5.46c4.76,1.68,9.81,1.69,14.67-.16.63,2.73,1.07,5.41,1.51,8.26l-19.07.11ZM24.13,46.65c.04-.13.11-.23.19-.32.53-.62,1.8-.41,2.44-.35.85.08,1.71.07,2.6.03,1.08-.05,1.77-1.1,3.24-.27,2.31,1.3,2.71.31,5.14.3.25,0,.49.32.46.57h-.01s-.01.02-.01.02c-4.46,1.71-9.52,1.74-14.05.02ZM41.7,47.55l-1.73.51-.18-.92,2.76-1.5.25,1.56-1.12.35h.01ZM44.07,52.41l1.01.5s0,0,0,0h0c-.09.18-.18.51-.18.82,0,.1.01.2.04.29h0c.04.15.53.22.65.15.45-.27.3-.8.64-1.12l2.4-.03c.65,0,1.32.13,1.88.39.65.3.85.82.86,1.29.01.47-.17.89-.29,1-.11.1-.42.02-.63.02l-9.12.09-.68-3.99-.47-2.68h0s0-.01,0-.01l2.14-.69c.17-.05.55-.04.61.09.06.11.09.2.09.27.07.51-.89.23-1.08.85-.05.19.17.55.34.59.22.06.51-.02.88-.15l.24,1.26s0,0,0,0h0c-.14.34-.82.64-.91,1.06-.03.14.01.29.15.46.52.62,1.29-.74,1.44-.49ZM39.23,46.19c-.27-.59-.68-1.09-1.31-1.15-2.47-.26-2.72.99-4.94-.26-.79-.44-1.79-.55-2.61-.18-2.36,1.09-3.93-.26-6.18.51-.5.18-.79.68-1.14,1.13-1.21-.55-2.35-1.2-3.47-1.97,1.17-1.42-.5-2.45.63-3.37.9-.73,1.28-1.99.59-3.04-.25-.38-.61-.73-1-1.15,1.07-.83,1.34-2.22.59-3.3-.45-.65-1.09-1.02-1.89-1.23.61-.8.9-1.73.46-2.51s-1.17-1.37-2.14-1.23l-1.91.26c-.35-.51.02-.91.44-1.15,1.03-.6,1.92-1.35,2.82-2.16,1.11-1,2.08-2.17,2.59-3.62.18-.53-.18-1.18-.28-1.72.73-.55,1.52-1.04,1.85-1.95.28-.78.07-1.73-.46-2.36-.36-.41-.96-.51-1.52-.65.32-.57.73-1.27.42-1.88-.31-.61-.99-.81-1.65-1.09l1.26-.89c.44,1.41,2.8,1.67,4.02,1.29l3.84-1.19c.04.33.02.83.17,1.1.28.53,1.01.81,1.6.84,1.73.08,3.3-.54,4.59-1.66.52-.44.96.19,2.89-.37.81-.24,1.47-.66,2.05-1.33.95.41,1.86.93,2.74,1.54-1.85.63-2.8,1.3-2.91,3.27l-1.98-.22c-1.21-.14-2.59.66-3.43,1.55-.72.75-1.4,1.2-2.48,1.12-1.32-.11-2.69.16-3.87.74-.79.39-1.32,1.06-1.69,1.83-.71,1.48-1.75.5-2.58,2.3-.31.65-.62,1.39-.45,2.14.33,1.41,1.5,2.36,2.91,2.54.77.09,1.6.22,2.2.77s.58,1.95,1.82,1.93c.54-.01.97-.3,1.5-.66,0,.82.53,1.4,1.33,1.42.89.02,1.6-.6,1.94-1.42.3-.06.65-.09.95-.09-.32.39-.78.72-.96,1.18-.55,1.36.36,2.7,1.84,2.98-.77.42-1.91,1.16-1.57,2.22.19.59.6,1.01,1.06,1.52-1.76,1.09-3.77,1.5-5.75,1.12-3.51-.69-5.72-3.84-5.45-7.39.02-.25-.24-.59-.43-.62-.27-.04-.6.19-.62.51-.27,4.65,2.97,8.55,7.66,8.7,2.1.07,4.01-.6,5.77-1.8,1.45.95.59,1.86,1.52,3.97.44.99,1.15,1.8,2.21,2.1,1.2.34,2.32-.9,2.88-1.89.9-1.6,2.05-.43,3.99-2.82.92-1.13,1.45-2.33,1.75-3.76h0s-.02-.01-.02-.01c.24-1.06,1.89-2.68,0-4.42l1.49.37c-.87,6.83-5.29,12.8-11.65,15.61ZM51.04,29.43c-.57.27-1.99-1.25-2.88,0-.15.21-.28.6-.23.85.06.21.32.49.52.6.33.19.54.4.65.62.53.92-.51,2.11-.72,3-.28,1.27-.7,2.31-1.53,3.3-1.77,2.11-2.84.69-4.16,3.11-.28.52-.8,1.14-1.44,1.15-.75.02-1.31-.68-1.61-1.3-.26-.53-.37-.96-.44-1.35,0-.02,0-.03,0-.05-.01-.07-.02-.14-.03-.21-.02-.18-.03-.35-.05-.51-.06-.72-.15-1.34-1.15-2.29,0,0,0,0,.01-.01,0,0-.01-.01-.02-.02,1.84-1.76,3.06-4.05,3.25-6.64,0-.07,0-.13-.03-.2-.08-.2-.27-.37-.42-.37-.38-.01-.59.23-.62.6-.21,2.36-1.37,4.5-3.18,6.04-.41,0-.84-.45-1-.85-.06-.13-.09-.26-.08-.37.06-.69,2.34-.83,1.91-2.23h-.01v-.02c-.3-.85-2.12-.27-2.3-1.55,0,0,0,0,0,0,0-.01,0-.02-.01-.03-.15-1.02.8-.93,1.41-2.22.09-.18.08-.43,0-.65-.09-.22-.27-.4-.5-.39-.69.02-1.32.07-2.03.17-.75.09-.89,1.96-1.91,1.27,0,0,0-.02,0-.03,0,0,0,0,0,0-.03-.35-.07-.72-.19-1.06-.12-.33-.3-.63-.6-.85-.14-.09-.53-.12-.7-.03-.46.23-.14.89-.62,1.22-.14.09-.57.15-.65.01-.31-.46-.53-1.21-.94-1.56-.82-.7-1.88-.9-2.91-1.03-.85-.11-1.57-.65-1.8-1.45-.05-.18-.09-.37-.09-.57.01-.56.39-1.31.74-1.71,2.46-.66,1.91-2.3,3.28-2.97,2.02-.98,2.97-.54,4.43-.71,1.01-.12,1.65-.84,2.35-1.49.71-.64,1.72-1.06,2.68-1.14.64-.05,1.94.57,2.65-.02.82-.68-.09-1.9,1.37-2.61,2.14-1.03,2.87-.06,4.24,1.38,2.4,2.52,4.05,5.63,4.85,8.96.49,2,.67,4.09.51,6.18ZM58.61,28.34c-.91,1.86-4.62,1.85-6.52,1.68l.09-2.48,1.89-.06c.82-.02,1.63-.14,2.21-.83.25-.3.3-.78.33-1.28l2.66.03c-.14,1.12-.22,2.05-.65,2.94ZM59.97,24.35h-3.41c-.27,0-.68-.08-.96-.11h0s0-.01-.01-.01l.13-2.4c.73-.06,1.36-.15,2.03-.15l2.34-.03s0,0,0,.01h.01c.02.82-.02,1.72-.13,2.68ZM61.15,20.35c-.18.11-.42.17-.68.2-.32.04-.66.05-.94.05l-4.41.16c-.79.03-1.38-.82-1.65-1.35-.4-.78-.3-1.77.15-2.39.3-.42.67-.73,1.08-.89.2-.08.42-.12.64-.11s.45.06.69.18c.45.21.8.64.86,1.13.02.16.02.33-.03.5-.04.16-.32.35-.45.35-.55-.02-.3-.9-.83-.97-.08-.01-.17,0-.28.02-.11.03-.21.13-.28.27-.07.13-.1.3-.07.44.03.12.06.23.1.35,0,.02.02.04.03.06.12.31.3.58.51.7.5.26,1.01.25,1.47,0,.5-.28.76-.68.92-1.29l1.56.13c.27.02.63-.06.68-.27.01-.05.01-.12,0-.19,0-.07-.02-.15-.04-.22-.04-.14-.11-.26-.2-.27l-2.18-.3c.56-.43,2.44-.65,2.03-1.58-.04-.09-.24-.21-.39-.24-.05,0-.1,0-.13,0l-2.14.85c-.87-.73-1.86-.88-2.87-.56-.56-.16-.66-.79-.66-1.3,0-1.33.27-2.68,1.41-3.49.78-.56,1.86-.97,2.91-.96.58,0,1.14.13,1.66.35,1.55.65,2.73,2.13,3.06,3.79,0,0,0,0,0,.01.16.82.29,1.8.28,2.77-.02,1.62-.44,3.22-1.79,4.08Z"/>
  <path class="cls-4" d="M48.14,29.4c.89-1.25,2.32.27,2.88,0,.15-2.08-.03-4.16-.5-6.15-.81-3.32-2.45-6.42-4.84-8.93-1.37-1.45-2.1-2.42-4.24-1.38-1.47.7-.55,1.92-1.37,2.61-.71.59-2.01-.03-2.65.02-.96.08-1.98.51-2.68,1.14-.7.63-1.34,1.37-2.35,1.49-1.46.17-2.41-.27-4.43.71-1.37.66-.82,2.3-3.28,2.97-.35.4-.74,1.15-.74,1.71,0,.19.03.37.08.54.24.78.96,1.3,1.79,1.42,1.02.14,2.1.35,2.91,1.03.41.35.64,1.1.94,1.56.09.14.52.08.65-.01.5-.34.16-.99.62-1.22.17-.08.56-.07.7.03.31.23.5.54.61.88.12.34.17.71.2,1.06,1.01.68,1.14-1.17,1.9-1.27.71-.09,1.34-.15,2.03-.17.24,0,.42.19.51.42.09.22.11.5.02.68-.61,1.29-1.56,1.18-1.41,2.21.21,1.24,2.03.66,2.3,1.53v.02s0,0,.01.02h.01v.03c.43,1.39-1.85,1.54-1.91,2.23,0,.1.02.22.06.34.17.4.59.83.99.82,1.8-1.54,2.97-3.67,3.18-6.04.03-.38.24-.62.62-.6.15,0,.35.19.43.4.03.08.05.15.04.23-.19,2.58-1.41,4.86-3.24,6.63,1,.95,1.08,1.57,1.14,2.3.01.16.03.33.05.51,0,.07.02.14.03.21,0,.02,0,.03,0,.05.06.38.18.8.42,1.31.31.62.87,1.32,1.61,1.3.63,0,1.15-.63,1.44-1.15,1.32-2.43,2.37-1,4.16-3.11.82-.98,1.25-2.04,1.53-3.3.19-.87,1.2-2.05.73-2.97-.12-.21-.33-.41-.64-.59-.2-.12-.49-.42-.53-.62,0,0,0,0,0,0,0,0,0-.02-.01-.02-.05-.23.07-.64.23-.85ZM27.38,23.81c-.26.53-.64.74-1.14.62-.5-.12-.71-.63-.59-1.19.05-.25.21-.51.39-.67.06-.06.13-.1.19-.13.39-.18.84-.04,1.04.2.3.35.3.79.11,1.17ZM37.57,24.26c-.38.18-.88.09-1.14-.28-.13-.19-.19-.41-.18-.63,0-.22.08-.44.22-.62.17-.22.45-.44.78-.48.11-.02.22-.01.34.02.33.07.58.52.58.91.01.54-.25.94-.6,1.1Z"/>
  <path class="cls-4" d="M51.03,29.4c-.56.27-1.99-1.25-2.88,0-.16.21-.28.62-.23.85,0,0,0,.02.01.02-.05-.24.09-.64.23-.85.89-1.25,2.31.27,2.88,0,.15-2.09-.03-4.18-.51-6.18.48,1.99.65,4.07.5,6.15Z"/>
  <path class="cls-4" d="M39.2,39.37c-.01-.07-.02-.14-.03-.21,0,.07.02.14.03.21Z"/>
  <path class="cls-4" d="M40.75,29.09c-.38-.02-.59.22-.62.6-.21,2.36-1.37,4.5-3.18,6.04-.4,0-.82-.43-.99-.82.16.4.59.85,1,.85,1.8-1.54,2.97-3.67,3.18-6.04.03-.37.24-.61.62-.6.15,0,.34.17.42.37-.08-.22-.28-.4-.43-.4Z"/>
  <path class="cls-4" d="M48.37,34.46c-.28,1.27-.71,2.32-1.53,3.3-1.78,2.11-2.84.69-4.16,3.11-.28.52-.8,1.15-1.44,1.15-.75.02-1.31-.68-1.61-1.3-.25-.51-.36-.94-.42-1.31.06.38.18.82.44,1.35.31.62.87,1.32,1.61,1.3.63-.01,1.15-.63,1.44-1.15,1.32-2.43,2.39-1,4.16-3.11.83-.99,1.25-2.04,1.53-3.3.21-.88,1.24-2.07.72-3,.48.92-.53,2.09-.73,2.97Z"/>
  <path class="cls-4" d="M36.37,27.42c-.69.02-1.32.07-2.03.17-.76.11-.9,1.95-1.9,1.27,0,0,0,.02,0,.03,1.02.7,1.16-1.17,1.91-1.27.71-.1,1.34-.15,2.03-.17.23,0,.4.17.5.39-.09-.24-.27-.43-.51-.42Z"/>
  <path class="cls-4" d="M30.93,26.88c-.46.23-.13.89-.62,1.22-.14.09-.56.15-.65.01-.3-.46-.53-1.21-.94-1.56-.81-.69-1.89-.9-2.91-1.03-.83-.11-1.55-.64-1.79-1.42.22.79.95,1.33,1.8,1.45,1.03.14,2.09.34,2.91,1.03.41.35.63,1.1.94,1.56.08.14.52.08.65-.01.49-.34.16-.99.62-1.22.17-.08.56-.06.7.03.3.22.48.52.6.85-.12-.34-.3-.65-.61-.88-.14-.11-.53-.12-.7-.03Z"/>
  <path class="cls-4" d="M35.48,30.75s0,0,0,0c.18,1.28,2,.7,2.3,1.55v-.02c-.27-.87-2.09-.29-2.3-1.53Z"/>
  <path class="cls-4" d="M37.97,36.36c1,.95,1.09,1.57,1.15,2.29-.06-.73-.14-1.35-1.14-2.3,0,0,0,0-.01.01Z"/>
  <path class="cls-3" d="M62.65,13.49c-.33-1.63-1.51-3.13-3.06-3.79-.52-.22-1.08-.34-1.66-.35-1.06,0-2.13.4-2.91.96-1.14.82-1.41,2.16-1.41,3.49,0,.51.12,1.14.66,1.3,1.01-.32,2.01-.17,2.87.56l2.14-.85s.08-.01.13,0c.16.03.36.14.39.24.41.93-1.47,1.15-2.03,1.58l2.18.3c.09.01.16.13.2.27.02.07.03.15.04.22s0,.14,0,.19c-.04.21-.4.3-.68.27l-1.56-.13c-.16.61-.41,1-.92,1.29-.45.26-.97.27-1.47,0-.22-.12-.39-.39-.51-.7,0-.02-.02-.04-.03-.06-.04-.11-.07-.23-.1-.35-.03-.14,0-.31.07-.44.07-.13.17-.24.28-.27.11-.03.2-.03.28-.02.53.07.28.96.83.97.14,0,.41-.2.45-.35.04-.17.05-.34.03-.5-.07-.48-.41-.91-.86-1.13-.23-.11-.47-.17-.69-.18s-.44.03-.64.11c-.41.16-.78.47-1.08.89-.43.61-.54,1.59-.15,2.39.26.53.85,1.38,1.65,1.35l4.41-.16c.28-.01.62-.01.94-.05.26-.03.51-.09.68-.2,1.34-.86,1.77-2.46,1.79-4.08.01-.97-.12-1.94-.28-2.77,0,0,0,0,0-.01Z"/>
  <path class="cls-3" d="M55.58,19.04c-.21-.12-.39-.39-.51-.7.12.31.29.58.51.7Z"/>
  <path class="cls-3" d="M57.97,17.76c-.16.61-.42,1-.92,1.29.51-.28.76-.68.92-1.29Z"/>
  <path class="cls-3" d="M56.88,17.33c-.07-.49-.41-.91-.86-1.13.45.21.79.64.86,1.13Z"/>
  <path class="cls-3" d="M61.15,20.35c1.35-.86,1.77-2.46,1.79-4.08-.02,1.62-.44,3.22-1.79,4.08Z"/>
  <path class="cls-3" d="M55.29,17.23c.11-.03.2-.03.28-.02-.08-.01-.17,0-.28.02Z"/>
  <path class="cls-3" d="M53.61,13.81c0,.51.11,1.14.66,1.3-.55-.16-.66-.79-.66-1.3Z"/>
  <path class="cls-3" d="M59.42,14.81c.16.03.36.14.39.24-.04-.09-.24-.21-.39-.24Z"/>
  <path class="cls-3" d="M55.03,10.32c-1.14.81-1.41,2.16-1.41,3.49,0-1.33.27-2.67,1.41-3.49Z"/>
  <path class="cls-3" d="M54.94,17.94c.03.12.06.23.1.35-.04-.11-.07-.23-.1-.35Z"/>
  <path class="cls-3" d="M62.65,13.49c-.33-1.66-1.51-3.14-3.06-3.79,1.55.65,2.73,2.16,3.06,3.79Z"/>
  <path class="cls-3" d="M60.46,20.55c-.32.04-.66.04-.94.05.28,0,.62-.01.94-.05Z"/>
  <path class="cls-3" d="M60.22,17.41c0,.07,0,.14,0,.19.01-.05.01-.12,0-.19Z"/>
  <path class="cls-3" d="M55.03,10.32c.78-.56,1.86-.96,2.91-.96-1.06-.01-2.13.4-2.91.96Z"/>
  <path class="cls-3" d="M54.69,16.14c.2-.08.42-.12.64-.11-.22,0-.44.03-.64.11Z"/>
  <path class="cls-3" d="M1.68,18.39l.81,2.21c1.31.01,2.69.02,4.02.14.66.06,1.2-.04,1.65-.3.1-.06.19-.12.27-.19.01-.01.03-.02.04-.03.3-.26.55-.6.74-1.04.36-.82.44-1.72-.32-2.47-.64-.64-1.76-.63-2.6-.16-.13.08-.27.22-.38.38-.1.16-.16.33-.12.47.2.8.97,1.04,1.72.78.18-.06.53.05.63.19.08.1.04.39-.04.56,0,.02-.02.03-.03.04-.02.03-.04.07-.06.08,0,0,0,0,0,0,0,0,0,0,0,0-.45.31-.97.27-1.49.2-1.01-.15-1.68-.85-1.91-1.9h0s-.01.01-.01.01c-.58.04-1.03-.11-1.34-.42-.12-.12-.12-.43-.05-.56.02-.03.05-.07.09-.1.12-.11.32-.2.43-.17l1.15.34.4-.49-1.12-1.3c-.11-.14-.03-.55.11-.65,0,0,0,0,0,0,0,0,0,0,0,0,.14-.11.55-.14.68-.01l1.33,1.42c1.21-.41,2.46-.18,3.5.51.07-.06.12-.14.18-.2.07-.08.15-.15.21-.24.85-1.19,1.1-3.23.13-4.35-.71-.82-1.84-1.13-2.85-1.36-1.57-.36-3.99.27-5.23,1.65-.18.2-.33.41-.45.63-1.06,1.97-.88,4.31-.12,6.35Z"/>
  <path class="cls-3" d="M8.09,18.96s-.04.07-.06.09c0,0,0,0,0,0,.02-.02.04-.05.06-.08Z"/>
  <path class="cls-3" d="M3.31,16.28c.12-.1.31-.19.42-.16l1.15.34h0s-1.15-.35-1.15-.35c-.11-.03-.31.07-.43.17Z"/>
  <path class="cls-3" d="M6.5,20.74c.65.06,1.2-.04,1.66-.31-.44.26-.99.36-1.65.3-1.33-.12-2.71-.13-4.02-.14l-.81-2.21c-.76-2.05-.94-4.38.12-6.35.12-.23.27-.44.45-.63-.18.2-.34.41-.46.64-1.06,1.97-.87,4.31-.12,6.35l.81,2.21c1.31.01,2.72.02,4.02.14Z"/>
  <path class="cls-3" d="M8.47,20.21s-.03.02-.04.03c.01-.01.03-.02.04-.03Z"/>
  <path class="cls-3" d="M10.19,15.47c-.07.09-.14.16-.21.24.07-.08.15-.15.21-.24Z"/>
  <path class="cls-3" d="M8.16,18.36c-.11-.14-.45-.25-.63-.19-.75.26-1.52.02-1.72-.78-.04-.14.02-.31.12-.47-.11.16-.17.34-.13.48.2.79.97,1.03,1.72.78.18-.06.53.05.63.19.08.1.05.37-.03.55.08-.18.12-.46.04-.56Z"/>
  <path class="cls-3" d="M6.29,15.41l-1.33-1.42c-.13-.13-.54-.09-.68.01,0,0,0,0,0,0,.14-.1.56-.13.67,0l1.33,1.42c1.21-.41,2.46-.18,3.5.51,0,0,0,0,0-.01-1.04-.69-2.29-.92-3.5-.51Z"/>
  <path class="cls-3" d="M22.33,49.29l-2.75-.76-.23.76.78.32c.37.15.51.5.3.88-.07.13-.21.18-.37.18-.16,0-.33-.03-.47-.1l-.61-.28-.58,1.14.58.77c.2.27.08.73-.18.82-.1.04-.19.05-.26.05-.47,0-.58-.69-.84-.79-.04-.01-.08-.01-.12,0-.25.11-.75.34-.93.42h-.02c-.05.54-.08.87-.22,1.18-.09.2-.45.26-.69.16-.09-.03-.16-.08-.19-.16-.13-.27-.02-.72.06-1.05l-2.33.27c-.69.08-1.31.26-1.91.59-.69.57-.97,1.51-.52,2.33l9.15-.14,2.34-6.61Z"/>
  <path class="cls-3" d="M18.81,53.02c.26-.09.38-.55.18-.82l-.58-.77.58-1.14h-.02s-.58,1.14-.58,1.14l.58.77c.2.27.08.73-.18.82-.09.04-.17.05-.24.05.08,0,.16,0,.26-.05Z"/>
  <path class="cls-3" d="M20.43,50.48c.21-.38.07-.73-.3-.88l-.78-.32.23-.76h-.02s-.23.76-.23.76l.78.32c.37.15.51.5.3.88-.07.12-.2.18-.35.18.16,0,.3-.05.37-.18Z"/>
  <path class="cls-3" d="M16.41,53.89c.14-.32.17-.64.22-1.18h-.02c-.05.54-.08.87-.22,1.18-.08.19-.43.25-.66.16.23.11.6.04.69-.16Z"/>
  <path class="cls-3" d="M11.36,53.7c.6-.33,1.22-.51,1.91-.59l2.33-.27s0,0,0,0l-2.35.27c-.69.08-1.31.27-1.91.59-.7.57-.97,1.51-.52,2.33h.02c-.45-.82-.17-1.76.52-2.33Z"/>
  <path class="cls-3" d="M17.58,52.29s.08-.02.12,0c-.04-.02-.09-.02-.14,0-.26.11-.75.34-.93.42h.02c.18-.08.68-.32.93-.42Z"/>
  <path class="cls-3" d="M42.64,52.91c-.15-.17-.18-.33-.15-.47.08-.42.76-.73.91-1.06l-.24-1.25c-.37.13-.65.2-.88.15-.17-.04-.4-.41-.34-.6h0s0,0,0-.01c.19-.62,1.13-.35,1.08-.84,0-.07-.04-.16-.09-.26-.07-.13-.45-.15-.61-.1l-2.14.69.47,2.67.68,3.99,9.12-.1c.21,0,.53.07.63-.02.13-.11.3-.53.29-.99-.01-.47-.22-.98-.86-1.28-.56-.26-1.22-.39-1.88-.39l-2.4.03c-.35.31-.19.84-.64,1.12-.13.07-.61,0-.65-.16h0c-.03-.08-.04-.19-.04-.29,0-.31.09-.63.18-.82l-1.01-.49c-.15-.25-.92,1.1-1.44.49Z"/>
  <path class="cls-3" d="M41.94,49.67s0,0,0,.01c.19-.62,1.15-.35,1.08-.85.05.49-.89.23-1.08.84Z"/>
  <path class="cls-3" d="M42.48,52.44c.09-.42.77-.72.91-1.05h0c-.15.33-.83.63-.91,1.05Z"/>
  <path class="cls-3" d="M44.9,53.74c0-.31.1-.64.18-.82h0c-.09.18-.18.51-.18.82Z"/>
  <path class="cls-3" d="M50.45,55.72l-9.12.1-.68-3.99-.47-2.67h0s.47,2.68.47,2.68l.68,3.99,9.12-.09c.21,0,.53.07.63-.02.13-.11.31-.53.29-1,.01.46-.17.88-.29.99-.11.09-.42.02-.63.02Z"/>
  <path class="cls-3" d="M57.76,21.7c-.66,0-1.3.08-2.03.15l-.13,2.39c.28.03.69.11.95.1h.01s3.4.01,3.4.01c.11-.97.15-1.86.13-2.68l-2.33.03Z"/>
  <path class="cls-3" d="M55.61,24.24h0c.28.03.69.11.96.11h-.01c-.26,0-.66-.08-.95-.11Z"/>
  <path class="cls-3" d="M59.96,24.35h.01c.11-.96.15-1.86.13-2.68h-.01c.02.82-.02,1.71-.13,2.68Z"/>
  <polygon class="cls-3" points="6.84 23.88 7.02 21.78 4.75 21.68 2.46 21.65 2.26 23.99 3.67 23.92 6.84 23.88"/>
  <polygon class="cls-3" points="7.02 21.78 7.02 21.78 6.84 23.88 7.02 21.78"/>
  <polygon class="cls-3" points="6.84 23.88 3.67 23.92 2.26 23.99 3.67 23.93 6.84 23.88"/>
  <path class="cls-2" d="M37.59,22.25c-.12-.03-.23-.03-.34-.02-.33.05-.6.26-.78.48-.14.18-.21.4-.22.62,0,.22.05.44.18.63.26.37.76.46,1.14.28.35-.17.6-.57.6-1.1,0-.39-.25-.83-.58-.91Z"/>
  <path class="cls-2" d="M36.25,23.34c0-.22.09-.44.22-.62-.14.18-.21.4-.22.62Z"/>
  <path class="cls-2" d="M36.43,23.97c.26.38.76.46,1.14.28-.38.18-.88.08-1.14-.28Z"/>
  <path class="cls-2" d="M37.25,22.23c.11-.01.22-.01.34.02-.12-.03-.23-.03-.34-.02Z"/>
  <path class="cls-2" d="M26.23,22.44c-.06.03-.13.07-.19.13-.18.16-.35.43-.39.67-.12.56.12,1.08.59,1.19.5.12.88-.09,1.14-.62.19-.38.19-.82-.11-1.17-.2-.24-.65-.38-1.04-.2Z"/>
  <path class="cls-2" d="M26.04,22.57c.06-.05.12-.1.19-.13-.06.03-.13.07-.19.13Z"/>
  <path class="cls-2" d="M25.65,23.24c-.12.56.09,1.08.59,1.19-.47-.12-.71-.63-.59-1.19Z"/>
  <path class="cls-4" d="M23.88,11.53c1.49-.38,2.86-.87,4.34-1.35.19-.06.64-.01.79.09.13.1.27.39.28.56l.07,1v.02c.35.34.74.27,1.11.28,3.29,0,3.05-2.33,5.45-1.71.89-.08,1.82-.23,2.55-1-5.23-2.16-11.57-1.73-16.52.86l-.52.67c.71.56,1.59.78,2.45.56Z"/>
  <path class="cls-4" d="M23.88,11.55c1.48-.38,2.86-.87,4.34-1.35.19-.06.64-.02.79.09.13.09.27.39.28.56l.07,1v-.02l-.07-1c-.01-.17-.16-.46-.28-.56-.15-.11-.6-.16-.79-.09-1.48.49-2.85.97-4.34,1.35-.86.22-1.74,0-2.45-.56h-.01c.71.58,1.59.81,2.46.58Z"/>
  <path class="cls-4" d="M30.48,12.14c-.37-.01-.76.05-1.11-.28v.02c.35.34.74.28,1.11.28,3.28,0,3.05-2.34,5.45-1.71.89-.08,1.84-.23,2.56-1.01,0,0-.01,0-.02,0-.73.77-1.66.91-2.55,1-2.4-.62-2.15,1.71-5.45,1.71Z"/>
  <path class="cls-4" d="M18.76,42.2c-.19-.88.32-1.7.95-2.27.49-.43.51-1.23.09-1.73-.62-.75-1.25-.93-1.18-1.52.06-.53.94-.91,1.12-1.59.23-.93-.52-1.65-1.38-1.82-.4-.07-.77-.41-.88-.74-.28-.88,1.04-1.5.54-2.45-.18-.32-.58-.66-1.03-.61-.64.09-1.81.39-2.52.22-.24-.06-.43-.16-.53-.35h-.02c-.25-.5-.52-1.92.74-2.61,1.26-.69,3.43-2.46,4.2-3.64l.59-.91c.3-.45.36-.97.14-1.48-.7-1.58,1.12-1.71,1.69-2.83.22-.43.15-1.15-.24-1.48-.32-.26-1.56-.16-1.78-1-.22-.84.63-1.23.53-1.75-.07-.34-.89-.47-1.55-.4-.32.04-.61.12-.75.24-3.52,3.22-5.62,7.64-6.13,12.39-.73,6.7,2.06,13.36,7.26,17.6.49-.41.24-.85.16-1.28Z"/>
  <path class="cls-4" d="M17,29.47s0,0-.01,0c-.63.08-1.79.38-2.5.22.71.18,1.88-.13,2.52-.22Z"/>
  <path class="cls-4" d="M11.35,25.87c.51-4.75,2.61-9.17,6.13-12.39.14-.13.43-.21.75-.24-.33.03-.63.11-.77.24-3.52,3.23-5.61,7.64-6.13,12.39-.72,6.7,2.07,13.38,7.27,17.61,0,0,0,0,0,0-5.2-4.24-7.99-10.91-7.26-17.6Z"/>
  <path class="cls-4" d="M38.18,46.62c.02-.25-.21-.57-.46-.57-2.43,0-2.83.99-5.14-.3-1.47-.82-2.16.22-3.24.27-.89.04-1.74.05-2.6-.03-.64-.06-1.89-.27-2.43.34-.07.09-.13.19-.17.31,4.53,1.72,9.58,1.69,14.05-.02Z"/>
  <path class="cls-4" d="M26.74,46c.85.08,1.71.07,2.6.03,1.08-.05,1.77-1.1,3.24-.27,2.31,1.29,2.71.3,5.14.3.25,0,.49.32.46.57h.01c.02-.26-.21-.58-.46-.58-2.43.01-2.83,1-5.14-.3-1.47-.82-2.16.22-3.24.27-.89.04-1.74.05-2.6-.03-.64-.06-1.91-.27-2.44.35.54-.61,1.8-.4,2.43-.34Z"/>
</svg>