<?xml version="1.0" encoding="UTF-8"?>
<svg id="Layer_1" xmlns="http://www.w3.org/2000/svg" version="1.1" viewBox="0 0 64 64">
  <!-- Generator: Adobe Illustrator 30.1.0, SVG Export Plug-In . SVG Version: 2.1.1 Build 136)  -->
  <defs>
    <style>
      .st0 {
        fill: #fbafce;
      }

      .st1 {
        fill: #fff;
      }

      .st2 {
        fill: #02f7fa;
      }
    </style>
  </defs>
  <path class="st2" d="M47.49,24.83c-1.25-.43-2.48-.03-3.49.74-1.19.91-2.86,1.43-4.25.67-.86-.47-1.41-1.48-2.04-2.28-.7.89-1.54,1.74-2.42,2.48.58,1.25,1.08,2.8,1.33,4.17.09.39.27.86.31,1.23l.19,1.73c2.86,1.1,8.76-1.95,11.15-3.6h.01c1.65-1.13.68-3.58.46-3.81l-1.26-1.33Z"/>
  <path class="st1" d="M37.88,11.72l2.79-6.66h-.01c-.96-.84-1.84-1.35-2.8-1.93-.88-.53-1.78-.88-2.72-1.33l-2.49-1.2c-.83-.4-1.74-.42-2.76-.59l-1.84,7.29-.68,2.32c3.44-1.34,7.81-.46,10.5,2.1Z"/>
  <path class="st1" d="M40.38,16.13c.41,2.48-.21,4.84-1.97,6.74.59.81,1.05,1.86,1.92,2.36.96.56,2.18-.03,2.95-.6.65-.48,1.25-.76,2.02-1.07-.41-.98-.45-1.94-.04-2.81.96-1.35,2.03-.47,2.59-.64.3-.1.41-.5.54-.79l1.51-3.9,1.19-3.34,1.34-3.34,1.61-4.21-6.85.5-5.05.68c-.5.06-.7.32-.88.74l-2.57,6.14c1.13,1,1.47,2.2,1.69,3.53Z"/>
  <path class="st1" d="M45.32,23.56s0,0-.01,0c0,0,0,0,0,0h.01Z"/>
  <path class="st1" d="M49.24,20.34l-.46,1.03c-.08.16-.38.47-.53.39l-.54-.29-.86-.46c-.25-.13-.69.35-.73.72h0c-.08.63.1,1.33.45,1.75,1.07.05,1.93.58,2.58,1.52,1-1.04,1.58-3.98.09-4.66Z"/>
  <path class="st0" d="M11.17,11.99c1.27.48,2.5,1.03,3.82,1.33,1.32.3,4.67,1.35,5.94,1.85.44.17.9.24,1.37.37.91.26,1.74.75,2.59,1.21.39,1.35.46,2.65.58,4.05.18,2.01.46,3.96.72,5.97l.52,4.03.73,5.87.6,5.91.29,2.72c.29,2.74.23,5.03.61,7.55.14.85.24,1.63.3,2.49l18.9-9.49-.05-5.32c-.05-.92-.09-1.8-.07-2.68v-.39c.02-.26.03-.53.05-.78.01-.17.11-.33.26-.42.87-.51,1.45-1.37,1.63-2.43.19-1.1-.09-2.25-.71-3.18-1.5,1.35-4.65,2.72-6.12,3.27h.02c-2.08.78-3.72,1.23-5.92.92v1.92c-.01.3-.29.68-.52.68-.19,0-.62-.3-.62-.52.11-2.13-.04-4.11-.56-6.21-.31-1.27-.56-2.53-1.25-3.67-.11-.17-.44-.41-.45-.58-.01-.17.17-.52.33-.64,3.11-2.47,1.92-2.06,3.8-4.21,1.32-1.51,1.5-3.47,1.28-5.38-.15-1.3-.63-2.12-1.45-3.01-1.16-1.27-2.41-2.15-4.07-2.66-3.01-.92-5.85-.19-8.64,1.1-.77.35-1.55.58-2.31,1.02-.23.13-.66.01-.79-.2-.44-.69.94-1.26,1.52-1.49-2.45-2.46-7.15-3.28-10.32-1.72-.32.16-.75-.01-.86-.29-.08-.2.05-.67.3-.81,1.73-.96,3.7-1.13,5.68-.87,1.08.15,2.2.39,3.15.91l1.69.94c.59.33,1.06.93,1.52,1.44.26-.12.82-.34.96-.58.33-.57.15-1.33.18-1.92.06-1.29-.55-2.05-1.48-2.75-1.04-.77-2.08-1.33-3.41-1.52-2.73-.4-6.01.58-8.4,1.92-1.23.7-2.56,1.26-3.61,2.2-1.3,1.17-1.14.77-2.64,1.89.46.3.87.63,1.33.81l3.58,1.35Z"/>
  <path class="st2" d="M51.1,46.43v2.43c.03.06.18.08.4.04.41-.07,1.01-.35,1.31-.9.38-.72.97-3.26.97-3.26l-2.67,1.69Z"/>
  <path class="st1" d="M58.86,43.61c-.47-.99-1.54-.87-2.39-.43,0,0-1.88,1.03-1.71,2.46.23,1.87-.99,3.88-.99,3.88,0,0,.57-.02,3.48-2.15,2.91-2.13,2.01-2.91,1.61-3.75Z"/>
  <path class="st1" d="M51.44,44.96l.46-.29c.74-.47,1.89-1.22,2.59-1.84.89-.8,1.05-1.41,1.12-2.22.02-.27.05-.67.07-1.08.07-3.07-.12-5.47-.78-8.29-.41-1.74-1.48-3.88-3.26-4.49,0,0-3.06-2.09-1.96-.68,1.44,1.85.52,4.36.52,4.36,0,0,0,0,.01-.01,1.52,1.92,1.21,5.08-1.15,6.48-.02.25-.03.5-.04.75,0,.13,0,.25-.01.38-.01.87.03,1.75.07,2.63l.03.71-.02,11.52s0,.04,0,.06c-.06.77-.64,1.44-1.18,1.7-.73.36-1.71.48-2.08.05-.48-.56-.62-1.3-.77-2.08-.07-.36-.14-.72-.24-1.08-.03-.11-.11-.21-.22-.26-.11-.05-.23-.04-.34,0l-6.55,3.17-2.79,1.55c-1.02.56-2.05,1.04-3.28,1.57-.13.06-.22.18-.24.33-.04.36-.06.76-.08,1.19-.11,2.35-.32,4.02-2.05,4.1h-.16c-.67.04-1.35.07-1.74-.42-.18-.22-.41-.7-.55-1.69l-.36-2.75c-.02-.14-.11-.26-.24-.31l-10.64-4.75c-.11-.05-.25-.05-.36.02-.11.06-.19.18-.2.3-.03.31-.05.62-.07.93-.03.53-.05,1.03-.18,1.46-.18.59-.88.86-1.48.93-.79.09-1.47-.18-1.81-.71-.24-.36-.31-1.03-.37-1.47l-.42-3.45c-.02-.15-.12-.28-.26-.33-.35-.13-.59-.24-.77-.37l-3.56-32.35c-.19-1.74-.41-3.72-.58-5.69-.04-.5.06-.77.41-1.03.18-.13.21-.39.08-.56-.13-.18-.38-.21-.56-.08-.57.43-.8.96-.73,1.74.17,1.98.39,3.96.58,5.71l3.58,32.51c.01.1.06.19.14.26.27.23.59.4.9.52l.39,3.21c.07.55.15,1.3.49,1.81.51.79,1.47,1.18,2.57,1.07.85-.09,1.87-.54,2.17-1.5.15-.52.18-1.09.21-1.65,0-.11.01-.22.02-.33l9.92,4.42.33,2.53c.13.96.36,1.64.72,2.08.5.64,1.24.75,1.89.75.18,0,.35,0,.51-.01h.16c2.6-.13,2.73-2.87,2.82-4.88.01-.32.03-.63.05-.91,1.16-.51,2.15-.97,3.13-1.51l2.77-1.54,6.08-2.94c.04.18.08.36.11.54.17.85.34,1.73.95,2.45.68.8,2.06.64,3.05.16.69-.33,1.47-1.16,1.62-2.21.02-.05.03-.1.03-.15v-7.08c.44-.26,1.13-.7,1.51-.93.01,0,.03-.02.04-.03Z"/>
</svg>