<svg width="1431" height="815" viewBox="0 0 1431 815" fill="none" xmlns="http://www.w3.org/2000/svg">
<path d="M868.246 597.977L795.254 761.44L945.456 710.358L951.132 640.4L868.246 597.977Z" fill="#FFFDF0" stroke="#E50146" stroke-width="12.5" stroke-linecap="round" stroke-linejoin="round"/>
<path d="M1233.93 807.982H1347.06L1415.92 725.627C1430.43 708.269 1426.09 682.062 1406.75 670.32C1395.6 663.551 1381.71 663.158 1370.2 669.286L1303.24 708.107L1233.93 807.982Z" fill="#E50146" stroke="#E50146" stroke-width="12.5" stroke-linecap="round" stroke-linejoin="round"/>
<path d="M1070.75 671.763C1070.75 671.763 1177.41 713.385 1236.57 807.982L1303.24 708.107C1303.24 708.107 1226.86 592.1 1046.49 560.517L999.904 582.136L1070.75 671.763Z" fill="#FFFDF0" stroke="#E50146" stroke-width="12.5" stroke-linecap="round" stroke-linejoin="round"/>
<path d="M1094.49 666.24L1129.82 804.884L1011.68 724.277C1023.64 727.495 1043.57 721.733 1062.37 708.565C1081.18 695.397 1093.42 678.587 1094.49 666.24Z" fill="#E50146" stroke="#E50146" stroke-width="12.5" stroke-linecap="round" stroke-linejoin="round"/>
<path d="M1054.97 511.302L1094.49 666.24C1093.42 678.587 1081.18 695.397 1062.38 708.565C1043.57 721.733 1023.65 727.495 1011.68 724.277L879.539 634.143L1054.97 511.302Z" fill="#FFFDF0" stroke="#E50146" stroke-width="12.5" stroke-linecap="round" stroke-linejoin="round"/>
<path d="M1051.09 502.495C1067.39 525.776 1040.64 572.634 991.341 607.155C942.041 641.676 888.859 650.787 872.558 627.506L534.637 144.905L713.171 19.8938L1051.09 502.495Z" fill="#E50146" stroke="#E50146" stroke-width="12.5" stroke-linecap="round" stroke-linejoin="round"/>
<path d="M674.101 80.5085L604.957 128.924L971.275 652.08L1040.42 603.665L674.101 80.5085Z" stroke="#FFFDF0" stroke-width="12.5" stroke-linecap="round" stroke-linejoin="round"/>
<path d="M713.171 19.8939C696.869 -3.38735 643.688 5.72446 594.387 40.2455C545.086 74.7665 518.335 121.624 534.636 144.905C550.938 168.186 604.119 159.075 653.42 124.554C702.721 90.0326 729.473 43.1747 713.171 19.8939Z" fill="#FFFDF0" stroke="#E50146" stroke-width="12.5" stroke-linecap="round" stroke-linejoin="round"/>
<path d="M666.767 47.2997C658.504 35.4974 631.544 40.1166 606.551 57.6166C581.558 75.1166 567.996 98.8709 576.261 110.673C584.525 122.475 611.485 117.856 636.477 100.356C661.471 82.8558 675.032 59.1019 666.767 47.2997Z" fill="#E50146" stroke="#FFFDF0" stroke-width="12.5" stroke-linecap="round" stroke-linejoin="round"/>
<path d="M553.32 807.982L517.717 710.445L564.369 578.68H713.456L868.246 711.917" fill="#FFFDF0"/>
<path d="M553.32 807.982L517.717 710.445L564.369 578.68H713.456L868.246 711.917" stroke="#E50146" stroke-width="12.5" stroke-linecap="round" stroke-linejoin="round"/>
<path d="M868.247 711.917L932.653 674.576C943.727 668.682 957.087 669.06 967.81 675.57C986.413 686.865 990.594 712.072 976.633 728.768L910.398 807.982H800.992L694.114 708.347L557.09 798.275" fill="#FFFDF0"/>
<path d="M868.247 711.917L932.653 674.576C943.727 668.682 957.087 669.06 967.81 675.57C986.413 686.865 990.594 712.072 976.633 728.768L910.398 807.982H800.992L694.114 708.347L557.09 798.275" stroke="#E50146" stroke-width="12.5" stroke-linecap="round" stroke-linejoin="round"/>
<path d="M73.5859 807.982H1300.76Z" fill="#E50146"/>
<path d="M73.5859 807.982H1300.76" stroke="#FFFDF0" stroke-width="12.5" stroke-linecap="round" stroke-linejoin="round"/>
<path d="M549.075 542.876L589.845 449.794C605.893 413.156 642.101 389.487 682.099 389.487L802.352 307.439C816.249 297.957 835.184 301.377 844.886 315.122C854.802 329.17 851.299 348.617 837.104 358.322L731.643 430.426L710.117 557.399C708.034 569.687 697.389 578.68 684.925 578.68H572.48C554.049 578.68 541.681 559.759 549.075 542.876Z" fill="#FFFDF0" stroke="#E50146" stroke-width="12.5" stroke-linecap="round" stroke-linejoin="round"/>
<path d="M691.988 363.179C691.988 386.971 672.697 406.304 648.863 406.304C629.405 406.304 612.988 393.429 607.655 375.804C606.405 371.804 605.738 367.554 605.738 363.179C605.738 339.346 625.03 320.012 648.863 320.012C649.405 320.012 649.988 320.012 650.53 320.054C673.613 320.929 691.988 339.888 691.988 363.179Z" fill="#FFFDF0" stroke="#E50146" stroke-width="12.5" stroke-linecap="round" stroke-linejoin="round"/>
<path d="M652.447 332.721C652.447 356.512 633.155 375.846 609.321 375.846C608.78 375.846 608.196 375.846 607.655 375.804C606.405 371.804 605.738 367.554 605.738 363.179C605.738 339.346 625.03 320.012 648.863 320.012C649.405 320.012 649.988 320.012 650.53 320.054C651.78 324.054 652.447 328.304 652.447 332.721Z" fill="#E50146" stroke="#E50146" stroke-width="12.5" stroke-linecap="round" stroke-linejoin="round"/>
<path d="M150.194 632.44L101.647 614.838C83.8345 608.379 64.1187 617.277 57.1773 634.906L9.71 755.459C-0.221154 780.68 18.3706 807.982 45.4771 807.982C58.1968 807.982 70.0928 801.689 77.251 791.176L106.758 747.837L150.194 632.44Z" fill="#FFFDF0" stroke="#E50146" stroke-width="12.5" stroke-linecap="round" stroke-linejoin="round"/>
<path d="M541.408 807.982H668.062L736.924 725.627C751.438 708.269 747.091 682.062 727.75 670.32C716.602 663.551 702.712 663.158 691.199 669.286L624.239 708.107" fill="#FFFDF0"/>
<path d="M541.408 807.982H668.062L736.924 725.627C751.438 708.269 747.091 682.062 727.75 670.32C716.602 663.551 702.712 663.158 691.199 669.286L624.239 708.107" stroke="#E50146" stroke-width="12.5" stroke-linecap="round" stroke-linejoin="round"/>
<path d="M106.758 747.837L225.734 800.501C238.163 805.452 251.251 807.982 264.437 807.982C317.296 807.982 363.653 768.313 377.722 711.039L388.386 667.625C388.386 667.625 494.029 710.358 541.409 807.982L624.24 708.107C624.24 708.107 538.205 594.895 420.154 582.136C348.209 574.359 304.74 582.136 304.74 582.136L275.983 682.937L150.194 632.44L106.758 747.837Z" fill="#E50146" stroke="#E50146" stroke-width="12.5" stroke-linecap="round" stroke-linejoin="round"/>
<path d="M319.083 472.106C289.697 472.106 265.787 448.198 265.787 418.812C265.787 389.426 289.697 365.518 319.083 365.518C334.932 365.518 349.869 372.545 360.062 384.797C365.368 391.177 373.144 394.994 381.44 395.291C381.787 395.303 382.136 395.309 382.482 395.309C390.405 395.309 398.005 392.084 403.515 386.351C412.467 377.036 424.475 371.904 437.329 371.904C463.195 371.904 484.236 392.947 484.236 418.812C484.236 444.677 463.195 465.717 437.329 465.717C424.475 465.717 412.467 460.588 403.523 451.274C398.014 445.539 390.409 442.312 382.486 442.312C382.141 442.312 381.794 442.319 381.449 442.331C373.152 442.626 365.376 446.443 360.066 452.823C349.869 465.077 334.932 472.106 319.083 472.106Z" fill="#E50146" stroke="#E50146" stroke-width="12.5"/>
<path d="M517.357 381.141C515.808 403.556 497.182 421.271 474.373 421.271C468.812 421.271 463.514 420.182 458.632 418.266C458.563 419.263 458.48 420.256 458.48 421.271C458.48 445.095 477.793 464.407 501.617 464.407C525.44 464.407 544.752 445.095 544.752 421.271C544.752 403.009 533.386 387.434 517.357 381.141Z" fill="#FFFDF0" stroke="#E50146" stroke-width="12.5"/>
<path d="M517.357 381.141C512.476 379.224 507.179 378.135 501.617 378.135C478.809 378.135 460.182 395.85 458.633 418.266C463.514 420.182 468.812 421.271 474.374 421.271C497.182 421.271 515.808 403.556 517.357 381.141Z" fill="#E50146" stroke="#E50146" stroke-width="12.5"/>
<path d="M470.959 440.615V566.199C470.959 578.734 460.798 588.896 448.263 588.896H316.183C299.228 588.896 288.259 570.983 295.965 555.882L490.395 174.879C497.984 160.008 515.801 153.564 531.146 160.14C546.933 166.906 554.468 185.007 548.145 200.976L487.414 354.363C476.542 381.819 470.959 411.084 470.959 440.615Z" fill="#FFFDF0" stroke="#E50146" stroke-width="12.5"/>
<path d="M1023.78 366.294C1051.55 435.266 1020.06 492.855 994.09 525.141C981.697 540.55 957.976 539.616 946.979 523.182C939.5 512.004 940.365 496.989 949.566 487.179C972.648 462.572 982.073 433.755 982.733 404.844L935.24 336.891L999.904 307.377L1023.78 366.294Z" fill="#FFFDF0" stroke="#E50146" stroke-width="12.5" stroke-linecap="round" stroke-linejoin="round"/>
<path d="M1014.32 314.084C1014.32 318.875 1013.53 323.5 1012.07 327.792C1006.36 344.875 990.237 357.208 971.195 357.208C947.362 357.208 928.07 337.875 928.07 314.084C928.07 290.25 947.362 270.917 971.195 270.917C973.779 270.917 976.279 271.125 978.737 271.584C998.945 275.125 1014.32 292.834 1014.32 314.084Z" fill="#FFFDF0" stroke="#E50146" stroke-width="12.5" stroke-linecap="round" stroke-linejoin="round"/>
<path d="M1014.32 314.084C1014.32 318.875 1013.53 323.5 1012.07 327.792C991.861 324.25 976.486 306.584 976.486 285.333C976.486 280.542 977.278 275.917 978.736 271.584C998.945 275.125 1014.32 292.834 1014.32 314.084Z" fill="#E50146" stroke="#E50146" stroke-width="12.5" stroke-linecap="round" stroke-linejoin="round"/>
<path d="M1048.48 267.54C1048.48 281.535 1037.13 292.881 1023.14 292.881C1009.14 292.881 997.799 281.535 997.799 267.54C997.799 253.546 1009.14 242.2 1023.14 242.2C1037.13 242.2 1048.48 253.546 1048.48 267.54Z" fill="#E50146" stroke="#E50146" stroke-width="12.5" stroke-linecap="round" stroke-linejoin="round"/>
<path d="M45.4766 807.982H1347.06Z" fill="#FFFDF0"/>
<path d="M45.4766 807.982H1347.06" stroke="#E50146" stroke-width="12.5" stroke-linecap="round" stroke-linejoin="round"/>
</svg>
