<svg width="716" height="408" viewBox="0 0 716 408" fill="none" xmlns="http://www.w3.org/2000/svg">
<path d="M616.711 404H673.208L707.597 362.873C714.845 354.204 712.674 341.117 703.016 335.253C697.448 331.873 690.512 331.677 684.762 334.737L651.323 354.124L616.711 404Z" fill="#FFFDF0" stroke="#FFFDF0" stroke-width="6.24234" stroke-linecap="round" stroke-linejoin="round"/>
<path d="M535.222 335.974C535.222 335.974 588.486 356.759 618.033 404L651.324 354.124C651.324 354.124 613.181 296.191 523.106 280.419L499.844 291.215L535.222 335.974Z" fill="#E50146" stroke="#FFFDF0" stroke-width="6.24234" stroke-linecap="round" stroke-linejoin="round"/>
<path d="M547.078 333.216L564.721 402.453L505.723 362.199C511.699 363.805 521.649 360.928 531.041 354.352C540.432 347.776 546.544 339.382 547.078 333.216Z" fill="#E50146" stroke="#FFFDF0" stroke-width="6.24234" stroke-linecap="round" stroke-linejoin="round"/>
<path d="M527.347 255.842L547.08 333.216C546.545 339.382 540.434 347.777 531.042 354.353C521.65 360.929 511.701 363.806 505.724 362.199L439.736 317.187L527.347 255.842Z" fill="#FFFDF0" stroke="#FFFDF0" stroke-width="6.24234" stroke-linecap="round" stroke-linejoin="round"/>
<path d="M525.407 251.443C533.548 263.069 520.189 286.47 495.569 303.709C470.948 320.948 444.39 325.499 436.249 313.872L267.496 72.8675L356.654 10.4385L525.407 251.443Z" fill="#E50146" stroke="#FFFDF0" stroke-width="6.24234" stroke-linecap="round" stroke-linejoin="round"/>
<path d="M356.654 10.439C348.513 -1.18731 321.955 3.36301 297.335 20.6024C272.714 37.8417 259.355 61.2417 267.496 72.868C275.637 84.4944 302.195 79.9441 326.815 62.7047C351.435 45.4654 364.795 22.0652 356.654 10.439Z" fill="#FFFDF0" stroke="#FFFDF0" stroke-width="6.24234" stroke-linecap="round" stroke-linejoin="round"/>
<path d="M333.48 24.1256C329.353 18.2317 315.89 20.5384 303.409 29.2777C290.928 38.017 284.155 49.8796 288.282 55.7735C292.409 61.6674 305.873 59.3606 318.354 50.6214C330.835 41.8818 337.607 30.0194 333.48 24.1256Z" fill="#E50146" stroke="#FFFDF0" stroke-width="6.24234" stroke-linecap="round" stroke-linejoin="round"/>
<path d="M337.143 40.709L302.613 64.8868L485.548 326.145L520.077 301.966L337.143 40.709Z" stroke="#FFFDF0" stroke-width="6.24234" stroke-linecap="round" stroke-linejoin="round"/>
<path d="M276.825 404L259.045 355.291L282.343 289.489H356.795L434.095 356.026" fill="#E50146"/>
<path d="M276.825 404L259.045 355.291L282.343 289.489H356.795L434.095 356.026" stroke="#FFFDF0" stroke-width="6.24234" stroke-linecap="round" stroke-linejoin="round"/>
<path d="M434.095 356.026L466.258 337.379C471.788 334.435 478.46 334.624 483.815 337.875C493.105 343.516 495.193 356.104 488.222 364.442L455.145 404H400.509L347.135 354.243L278.707 399.153" fill="#E50146"/>
<path d="M434.095 356.026L466.258 337.379C471.788 334.435 478.46 334.624 483.815 337.875C493.105 343.516 495.193 356.104 488.222 364.442L455.145 404H400.509L347.135 354.243L278.707 399.153" stroke="#FFFDF0" stroke-width="6.24234" stroke-linecap="round" stroke-linejoin="round"/>
<path d="M23.2148 404H650.087Z" fill="#E50146"/>
<path d="M23.2148 404H650.087" stroke="#FFFDF0" stroke-width="6.24234" stroke-linecap="round" stroke-linejoin="round"/>
<path d="M274.705 271.609L295.065 225.125C303.079 206.829 321.161 195.009 341.136 195.009L401.188 154.035C408.128 149.3 417.584 151.008 422.429 157.872C427.381 164.887 425.632 174.599 418.543 179.445L365.877 215.453L355.128 278.862C354.087 284.999 348.771 289.489 342.547 289.489H286.393C277.189 289.489 271.012 280.041 274.705 271.609Z" fill="#FFFDF0" stroke="#FFFDF0" stroke-width="6.24234" stroke-linecap="round" stroke-linejoin="round"/>
<path d="M75.5095 316.337L51.2652 307.547C42.3702 304.321 32.5244 308.765 29.058 317.568L5.35328 377.771C0.393915 390.366 9.67842 404 23.2149 404C29.567 404 35.5077 400.858 39.0825 395.607L53.8179 373.965L75.5095 316.337Z" fill="#E50146" stroke="#FFFDF0" stroke-width="6.24234" stroke-linecap="round" stroke-linejoin="round"/>
<path d="M270.877 404H334.127L368.515 362.873C375.763 354.204 373.592 341.117 363.934 335.253C358.367 331.873 351.43 331.677 345.681 334.737L312.242 354.124" fill="#E50146"/>
<path d="M270.877 404H334.127L368.515 362.873C375.763 354.204 373.592 341.117 363.934 335.253C358.367 331.873 351.43 331.677 345.681 334.737L312.242 354.124" stroke="#FFFDF0" stroke-width="6.24234" stroke-linecap="round" stroke-linejoin="round"/>
<path d="M53.8164 373.964L113.232 400.264C119.438 402.737 125.975 404 132.559 404C158.957 404 182.106 384.19 189.132 355.588L194.458 333.908C194.458 333.908 247.214 355.248 270.875 404L312.24 354.124C312.24 354.124 269.275 297.587 210.322 291.215C174.394 287.332 152.686 291.215 152.686 291.215L138.325 341.554L75.508 316.336L53.8164 373.964Z" fill="#FFFDF0" stroke="#FFFDF0" stroke-width="6.24234" stroke-linecap="round" stroke-linejoin="round"/>
<path d="M159.851 236.268C145.175 236.268 133.236 224.328 133.236 209.653C133.236 194.978 145.175 183.039 159.851 183.039C167.765 183.039 175.226 186.548 180.317 192.668C182.969 195.854 186.852 197.76 190.994 197.907C191.168 197.913 191.341 197.917 191.514 197.917C195.471 197.917 199.266 196.305 202.018 193.442C206.486 188.79 212.482 186.228 218.901 186.228C231.817 186.228 242.326 196.737 242.326 209.653C242.326 222.57 231.817 233.077 218.901 233.077C212.483 233.077 206.486 230.515 202.017 225.864C199.266 223 195.47 221.389 191.514 221.389C191.341 221.389 191.167 221.392 190.993 221.398C186.851 221.547 182.968 223.453 180.317 226.639C175.225 232.758 167.765 236.268 159.851 236.268Z" fill="#FFFDF0"/>
<path d="M159.851 236.268C145.175 236.268 133.236 224.328 133.236 209.653C133.236 194.978 145.175 183.039 159.851 183.039C167.765 183.039 175.226 186.548 180.317 192.668C182.969 195.854 186.852 197.76 190.994 197.907C191.168 197.913 191.341 197.917 191.514 197.917C195.471 197.917 199.266 196.305 202.018 193.442C206.486 188.79 212.482 186.228 218.901 186.228C231.817 186.228 242.326 196.737 242.326 209.653C242.326 222.57 231.817 233.077 218.901 233.077C212.483 233.077 206.486 230.515 202.017 225.864C199.266 223 195.47 221.389 191.514 221.389C191.341 221.389 191.167 221.392 190.993 221.398C186.851 221.547 182.968 223.453 180.317 226.639C175.225 232.758 167.765 236.268 159.851 236.268Z" stroke="#FFFDF0" stroke-width="6.24234"/>
<path d="M258.867 190.841C258.093 202.035 248.792 210.881 237.401 210.881C234.624 210.881 231.978 210.338 229.541 209.381C229.506 209.878 229.465 210.375 229.465 210.881C229.465 222.779 239.109 232.423 251.006 232.423C262.904 232.423 272.548 222.779 272.548 210.881C272.548 201.761 266.872 193.984 258.867 190.841Z" fill="#E50146" stroke="#FFFDF0" stroke-width="6.24234"/>
<path d="M258.867 190.841C256.43 189.884 253.784 189.34 251.007 189.34C239.616 189.34 230.315 198.187 229.541 209.38C231.979 210.338 234.624 210.881 237.402 210.881C248.792 210.881 258.093 202.034 258.867 190.841Z" fill="#FFFDF0" stroke="#FFFDF0" stroke-width="6.24234"/>
<path d="M235.696 220.541V283.256C235.696 289.517 230.621 294.591 224.361 294.591H158.402C149.936 294.591 144.458 285.646 148.306 278.104L245.402 87.8363C249.192 80.4099 258.089 77.1919 265.753 80.4762C273.636 83.8549 277.399 92.8943 274.242 100.869L243.913 177.468C238.484 191.18 235.696 205.794 235.696 220.541Z" fill="#E50146" stroke="#FFFDF0" stroke-width="6.24234"/>
<path d="M511.768 183.427C525.632 217.87 509.908 246.629 496.94 262.753C490.751 270.447 478.905 269.981 473.413 261.774C469.678 256.192 470.11 248.694 474.705 243.795C486.232 231.506 490.939 217.115 491.268 202.678L467.551 168.743L499.843 154.004L511.768 183.427Z" fill="#FFFDF0" stroke="#FFFDF0" stroke-width="6.24234" stroke-linecap="round" stroke-linejoin="round"/>
<path d="M507.043 157.354C507.043 159.747 506.648 162.056 505.919 164.2C503.068 172.731 495.016 178.89 485.507 178.89C473.605 178.89 463.971 169.235 463.971 157.354C463.971 145.452 473.605 135.797 485.507 135.797C486.797 135.797 488.045 135.901 489.273 136.13C499.365 137.899 507.043 146.742 507.043 157.354Z" fill="#E50146" stroke="#FFFDF0" stroke-width="6.24234" stroke-linecap="round" stroke-linejoin="round"/>
<path d="M507.042 157.354C507.042 159.747 506.647 162.056 505.918 164.199C495.827 162.431 488.148 153.608 488.148 142.996C488.148 140.603 488.544 138.294 489.272 136.13C499.364 137.898 507.042 146.742 507.042 157.354Z" fill="#FFFDF0" stroke="#FFFDF0" stroke-width="6.24234" stroke-linecap="round" stroke-linejoin="round"/>
<path d="M524.102 134.11C524.102 141.099 518.436 146.765 511.447 146.765C504.459 146.765 498.793 141.099 498.793 134.11C498.793 127.122 504.459 121.456 511.447 121.456C518.436 121.456 524.102 127.122 524.102 134.11Z" fill="#FFFDF0" stroke="#FFFDF0" stroke-width="6.24234" stroke-linecap="round" stroke-linejoin="round"/>
<path d="M346.074 181.871C346.074 193.753 336.44 203.408 324.538 203.408C314.821 203.408 306.623 196.978 303.959 188.176C303.335 186.179 303.002 184.056 303.002 181.871C303.002 169.969 312.636 160.314 324.538 160.314C324.808 160.314 325.1 160.314 325.37 160.335C336.898 160.772 346.074 170.24 346.074 181.871Z" fill="#E50146" stroke="#FFFDF0" stroke-width="6.24234" stroke-linecap="round" stroke-linejoin="round"/>
<path d="M326.327 166.661C326.327 178.542 316.694 188.197 304.791 188.197C304.521 188.197 304.229 188.197 303.959 188.176C303.335 186.179 303.002 184.056 303.002 181.871C303.002 169.969 312.636 160.314 324.538 160.314C324.808 160.314 325.1 160.314 325.37 160.335C325.994 162.333 326.327 164.455 326.327 166.661Z" fill="#FFFDF0" stroke="#FFFDF0" stroke-width="6.24234" stroke-linecap="round" stroke-linejoin="round"/>
</svg>
