<svg width="58" height="58" viewBox="0 0 58 58" fill="none" xmlns="http://www.w3.org/2000/svg">
<path d="M44.6847 41.3504C43.9948 41.3504 43.3296 40.9732 42.9933 40.3168C42.5154 39.3835 42.8843 38.2395 43.8178 37.7613L50.2154 34.4846C51.4039 33.8758 52.2263 32.7231 52.4152 31.4013L53.0963 26.6388C53.2654 25.4559 52.9134 24.2595 52.1305 23.3567C51.3476 22.4539 50.2133 21.936 49.0182 21.936H43.7678C42.7191 21.936 41.8691 21.086 41.8691 20.0373C41.8691 18.9887 42.7191 18.1387 43.7678 18.1387H49.0182C51.3147 18.1387 53.4948 19.1337 54.9995 20.8689C56.5041 22.6039 57.1805 24.903 56.8553 27.1764L56.1742 31.9388C55.8112 34.479 54.2307 36.6943 51.9465 37.8643L45.5488 41.1413C45.2719 41.283 44.976 41.3504 44.6847 41.3504Z" fill="#E50146" stroke="#FFFDF0" stroke-linecap="round" stroke-linejoin="round"/>
<path d="M41.314 45.9949H14.7035C12.6656 45.9949 11.0137 44.343 11.0137 42.3052V14.0123C11.0137 12.9036 11.9125 12.0049 13.0212 12.0049H42.9963C44.105 12.0049 45.0038 12.9036 45.0038 14.0123V42.3052C45.0038 44.343 43.3518 45.9949 41.314 45.9949Z" fill="#E50146" stroke="#FFFDF0" stroke-linecap="round" stroke-linejoin="round"/>
<path d="M36.928 38.8857L33.5946 31.7565C31.0794 31.8569 28.8439 31.3885 28.8439 31.3885V31.0296C32.9042 30.3149 36.6512 28.9797 36.6512 25.3939C36.6512 20.8561 32.5118 19.9041 27.7489 19.8828H17.916V20.6553L19.823 21.6803L20.194 22.4376V38.1283L19.823 38.8857L17.916 39.9106V40.6831H28.2417V39.9106L26.3347 38.8857L25.9332 38.1283V33.1617L27.5878 31.7505L31.2101 40.6831H38.835V39.9106L36.928 38.8857ZM26.9065 30.2085H25.9332V22.6901L28.1565 21.0872C29.5008 21.3397 30.5136 22.5593 30.5136 25.622C30.5136 29.1014 29.148 30.2085 26.9065 30.2085Z" fill="#FFFDF0"/>
<path d="M46.56 15.6529H10.1305C9.3307 15.6529 8.78427 14.8443 9.08264 14.1022L9.4486 13.1919C9.73696 12.4747 10.4323 12.0049 11.2052 12.0049H44.8137C45.5866 12.0049 46.2819 12.4747 46.5702 13.1919L47.1867 14.7253C47.3652 15.1693 47.0384 15.6529 46.56 15.6529Z" fill="#FFFDF0" stroke="#FFFDF0" stroke-linecap="round" stroke-linejoin="round"/>
</svg>
