<svg width="58" height="58" viewBox="0 0 58 58" fill="none" xmlns="http://www.w3.org/2000/svg">
<path d="M41.0878 52.9972H18.8283C15.5889 52.9972 12.9629 50.3711 12.9629 47.1318V21.0143C12.9629 19.9056 13.8617 19.0068 14.9704 19.0068H44.9457C46.0544 19.0068 46.9532 19.9056 46.9532 21.0143V47.1318C46.9532 50.3711 44.3272 52.9972 41.0878 52.9972Z" fill="#FFFDF0" stroke="#FFFDF0" stroke-linecap="round" stroke-linejoin="round"/>
<path d="M23.0234 8.31808H33.0657V5.00195H23.0234V8.31808Z" fill="#FFFDF0" stroke="#FFFDF0" stroke-linecap="round" stroke-linejoin="round"/>
<path d="M23.0232 5.00195L20.364 7.66108C19.9434 8.08175 19.707 8.65231 19.707 9.24724V20.6482H23.0232V5.00195Z" fill="#E50146" stroke="#FFFDF0" stroke-linecap="round" stroke-linejoin="round"/>
<path d="M33.0645 5.00195L35.7235 7.66108C36.1442 8.08175 36.3805 8.65231 36.3805 9.24724V20.6482H33.0645V5.00195Z" fill="#E50146" stroke="#FFFDF0" stroke-linecap="round" stroke-linejoin="round"/>
<path d="M39.1738 52.9972H16.9143C13.6749 52.9972 11.0488 50.3711 11.0488 47.1318V21.0143C11.0488 19.9056 11.9476 19.0068 13.0563 19.0068H43.0317C44.1404 19.0068 45.0392 19.9056 45.0392 21.0143V47.1318C45.0392 50.3711 42.4131 52.9972 39.1738 52.9972Z" fill="#E50146" stroke="#FFFDF0" stroke-linecap="round" stroke-linejoin="round"/>
<path d="M36.9633 44.6045L33.6298 37.4754C31.1146 37.5757 28.8791 37.1073 28.8791 37.1073V36.7485C32.9395 36.0337 36.6866 34.6985 36.6866 31.1127C36.6866 26.5748 32.5471 25.6228 27.7842 25.6016H17.9512V26.3741L19.8582 27.399L20.2293 28.1564V43.8472L19.8582 44.6045L17.9512 45.6295V46.402H28.2769V45.6295L26.3699 44.6045L25.9684 43.8472V38.8805L27.623 37.4693L31.2454 46.402H38.8703V45.6295L36.9633 44.6045ZM26.9417 35.9273H25.9684V28.4088L28.1917 26.806C29.5361 27.0584 30.5489 28.278 30.5489 31.3408C30.5489 34.8202 29.1832 35.9273 26.9417 35.9273Z" fill="#FFFDF0"/>
</svg>
