<svg width="58" height="58" viewBox="0 0 58 58" fill="none" xmlns="http://www.w3.org/2000/svg">
<path d="M44.6847 41.3499C43.9948 41.3499 43.3296 40.9727 42.9933 40.3163C42.5154 39.383 42.8843 38.239 43.8178 37.7608L50.2154 34.4841C51.4039 33.8753 52.2263 32.7226 52.4152 31.4008L53.0963 26.6383C53.2654 25.4554 52.9134 24.259 52.1305 23.3563C51.3476 22.4534 50.2133 21.9355 49.0182 21.9355H43.7678C42.7191 21.9355 41.8691 21.0855 41.8691 20.0369C41.8691 18.9882 42.7191 18.1382 43.7678 18.1382H49.0182C51.3147 18.1382 53.4948 19.1333 54.9995 20.8684C56.5041 22.6034 57.1805 24.9025 56.8553 27.176L56.1742 31.9383C55.8112 34.4785 54.2307 36.6939 51.9465 37.8638L45.5488 41.1408C45.2719 41.2825 44.976 41.3499 44.6847 41.3499Z" fill="#E50146" stroke="#FFFDF0" stroke-linecap="round" stroke-linejoin="round"/>
<path d="M41.314 45.9949H14.7035C12.6656 45.9949 11.0137 44.343 11.0137 42.3052V14.0123C11.0137 12.9036 11.9125 12.0049 13.0212 12.0049H42.9963C44.105 12.0049 45.0038 12.9036 45.0038 14.0123V42.3052C45.0038 44.343 43.3518 45.9949 41.314 45.9949Z" fill="#E50146" stroke="#FFFDF0" stroke-linecap="round" stroke-linejoin="round"/>
<path d="M36.928 38.8861L33.5946 31.757C31.0794 31.8574 28.8439 31.389 28.8439 31.389V31.0301C32.9042 30.3154 36.6512 28.9802 36.6512 25.3944C36.6512 20.8565 32.5118 19.9046 27.7489 19.8833H17.916V20.6558L19.823 21.6808L20.194 22.4381V38.1288L19.823 38.8861L17.916 39.9111V40.6836H28.2417V39.9111L26.3347 38.8861L25.9332 38.1288V33.1622L27.5878 31.7509L31.2101 40.6836H38.835V39.9111L36.928 38.8861ZM26.9065 30.2089H25.9332V22.6905L28.1565 21.0877C29.5008 21.3401 30.5136 22.5598 30.5136 25.6225C30.5136 29.1019 29.148 30.2089 26.9065 30.2089Z" fill="#FFFDF0"/>
<path d="M46.56 15.6529H10.1305C9.3307 15.6529 8.78427 14.8443 9.08264 14.1022L9.4486 13.1919C9.73696 12.4747 10.4323 12.0049 11.2052 12.0049H44.8137C45.5866 12.0049 46.2819 12.4747 46.5702 13.1919L47.1867 14.7253C47.3652 15.1693 47.0384 15.6529 46.56 15.6529Z" fill="#FFFDF0" stroke="#FFFDF0" stroke-linecap="round" stroke-linejoin="round"/>
</svg>
