<svg width="1200" height="1200" viewBox="0 0 1200 1200" fill="none" xmlns="http://www.w3.org/2000/svg">
<path d="M874.692 1145.4H368.796C295.174 1145.4 235.492 1085.72 235.492 1012.09V418.518C235.492 393.32 255.919 372.894 281.116 372.894H962.372C987.569 372.894 1008 393.32 1008 418.518V1012.09C1008 1085.72 948.314 1145.4 874.692 1145.4Z" fill="#FFFDF0" stroke="#FFFDF0" stroke-width="12.5" stroke-linecap="round" stroke-linejoin="round"/>
<path d="M464.141 129.968H692.373V54.6021H464.141V129.968Z" fill="#FFFDF0" stroke="#FFFDF0" stroke-width="12.5" stroke-linecap="round" stroke-linejoin="round"/>
<path d="M464.14 54.6021L403.705 115.037C394.145 124.597 388.773 137.564 388.773 151.085V410.197H464.14V54.6021Z" fill="#E50146" stroke="#FFFDF0" stroke-width="12.5" stroke-linecap="round" stroke-linejoin="round"/>
<path d="M692.371 54.6021L752.805 115.037C762.365 124.597 767.736 137.564 767.736 151.085V410.197H692.371V54.6021Z" fill="#E50146" stroke="#FFFDF0" stroke-width="12.5" stroke-linecap="round" stroke-linejoin="round"/>
<path d="M831.205 1145.4H325.309C251.687 1145.4 192.004 1085.72 192.004 1012.09V418.518C192.004 393.32 212.431 372.894 237.628 372.894H918.885C944.082 372.894 964.509 393.32 964.509 418.518V1012.09C964.509 1085.72 904.826 1145.4 831.205 1145.4Z" fill="#E50146" stroke="#FFFDF0" stroke-width="12.5" stroke-linecap="round" stroke-linejoin="round"/>
<path d="M780.965 954.662L705.205 792.636C648.041 794.917 597.234 784.272 597.234 784.272V776.116C689.516 759.872 774.676 729.526 774.676 648.03C774.676 544.897 680.598 523.261 572.35 522.778H348.873V540.335L392.215 563.629L400.647 580.841V937.45L392.215 954.662L348.873 977.957V995.514H583.548V977.957L540.207 954.662L531.082 937.45V824.571L568.686 792.498L651.014 995.514H824.307V977.957L780.965 954.662ZM553.203 757.452H531.082V586.579L581.612 550.15C612.165 555.888 635.184 583.606 635.184 653.214C635.184 732.292 604.146 757.452 553.203 757.452Z" fill="#FFFDF0"/>
</svg>
