<svg width="1200" height="1200" viewBox="0 0 1200 1200" fill="none" xmlns="http://www.w3.org/2000/svg">
<path d="M866.3 880.685C850.619 880.685 835.5 872.111 827.858 857.193C816.996 835.983 825.381 809.982 846.597 799.115L991.996 724.643C1019.01 710.807 1037.7 684.609 1041.99 654.568L1057.47 546.33C1061.32 519.444 1053.31 492.254 1035.52 471.737C1017.73 451.217 991.949 439.447 964.787 439.447H845.461C821.627 439.447 802.309 420.128 802.309 396.295C802.309 372.463 821.627 353.144 845.461 353.144H964.787C1016.98 353.144 1066.53 375.759 1100.73 415.193C1134.92 454.627 1150.29 506.879 1142.91 558.548L1127.43 666.784C1119.18 724.516 1083.25 774.865 1031.34 801.456L885.938 875.932C879.645 879.153 872.92 880.685 866.3 880.685Z" fill="#FFFDF0" stroke="#E50146" stroke-width="12.5" stroke-linecap="round" stroke-linejoin="round"/>
<path d="M789.705 986.252H184.918C138.604 986.252 101.059 948.708 101.059 902.394V259.372C101.059 234.174 121.486 213.748 146.684 213.748H827.939C853.137 213.748 873.563 234.174 873.563 259.372V902.394C873.563 948.708 836.02 986.252 789.705 986.252Z" fill="#FFFDF0" stroke="#E50146" stroke-width="12.5" stroke-linecap="round" stroke-linejoin="round"/>
<path d="M690.021 824.683L614.26 662.657C557.096 664.938 506.289 654.293 506.289 654.293V646.136C598.57 629.892 683.729 599.547 683.729 518.051C683.729 414.917 589.652 393.282 481.404 392.798H257.928V410.356L301.269 433.65L309.701 450.862V807.471L301.269 824.683L257.928 847.978V865.535H492.603V847.978L449.262 824.683L440.138 807.471V694.592L477.741 662.519L560.067 865.535H733.361V847.978L690.021 824.683ZM462.257 627.473H440.138V456.6L490.667 420.171C521.22 425.908 544.238 453.627 544.238 523.235C544.238 602.312 513.201 627.473 462.257 627.473Z" fill="#E50146"/>
<path d="M908.916 296.657H80.9709C62.7932 296.657 50.3743 278.281 57.1555 261.415L65.4729 240.725C72.0266 224.426 87.8293 213.748 105.396 213.748H869.228C886.794 213.748 902.596 224.426 909.15 240.725L923.161 275.577C927.217 285.666 919.789 296.657 908.916 296.657Z" fill="#E50146" stroke="#E50146" stroke-width="12.5" stroke-linecap="round" stroke-linejoin="round"/>
</svg>
