<svg width="58" height="58" viewBox="0 0 58 58" fill="none" xmlns="http://www.w3.org/2000/svg">
<path d="M41.0878 52.9976H18.8283C15.5889 52.9976 12.9629 50.3716 12.9629 47.1323V21.0148C12.9629 19.9061 13.8617 19.0073 14.9704 19.0073H44.9457C46.0544 19.0073 46.9532 19.9061 46.9532 21.0148V47.1323C46.9532 50.3716 44.3272 52.9976 41.0878 52.9976Z" fill="#FFFDF0" stroke="#FFFDF0" stroke-linecap="round" stroke-linejoin="round"/>
<path d="M23.0234 8.31857H33.0657V5.00244H23.0234V8.31857Z" fill="#FFFDF0" stroke="#FFFDF0" stroke-linecap="round" stroke-linejoin="round"/>
<path d="M23.0232 5.00244L20.364 7.66157C19.9434 8.08224 19.707 8.6528 19.707 9.24773V20.6487H23.0232V5.00244Z" fill="#E50146" stroke="#FFFDF0" stroke-linecap="round" stroke-linejoin="round"/>
<path d="M33.0645 5.00244L35.7235 7.66157C36.1442 8.08224 36.3805 8.6528 36.3805 9.24773V20.6487H33.0645V5.00244Z" fill="#E50146" stroke="#FFFDF0" stroke-linecap="round" stroke-linejoin="round"/>
<path d="M39.1738 52.9976H16.9143C13.6749 52.9976 11.0488 50.3716 11.0488 47.1323V21.0148C11.0488 19.9061 11.9476 19.0073 13.0563 19.0073H43.0317C44.1404 19.0073 45.0392 19.9061 45.0392 21.0148V47.1323C45.0392 50.3716 42.4131 52.9976 39.1738 52.9976Z" fill="#E50146" stroke="#FFFDF0" stroke-linecap="round" stroke-linejoin="round"/>
<path d="M36.9633 44.605L33.6298 37.4759C31.1146 37.5762 28.8791 37.1078 28.8791 37.1078V36.749C32.9395 36.0342 36.6866 34.699 36.6866 31.1132C36.6866 26.5753 32.5471 25.6233 27.7842 25.6021H17.9512V26.3746L19.8582 27.3995L20.2293 28.1569V43.8477L19.8582 44.605L17.9512 45.63V46.4025H28.2769V45.63L26.3699 44.605L25.9684 43.8477V38.881L27.623 37.4698L31.2454 46.4025H38.8703V45.63L36.9633 44.605ZM26.9417 35.9278H25.9684V28.4093L28.1917 26.8064C29.5361 27.0589 30.5489 28.2785 30.5489 31.3413C30.5489 34.8207 29.1832 35.9278 26.9417 35.9278Z" fill="#FFFDF0"/>
</svg>
