<?xml version="1.0" encoding="UTF-8"?>
<svg width="500px" height="500px" viewBox="0 0 500 500" version="1.1" xmlns="http://www.w3.org/2000/svg" xmlns:xlink="http://www.w3.org/1999/xlink">
    <title>50Jahre_Frauenwahlrecht_positiv</title>
    <g id="Page-1" stroke="none" stroke-width="1" fill="none" fill-rule="evenodd">
        <g id="50Jahre_Frauenwahlrecht_positiv" fill-rule="nonzero">
            <path d="M250,0 C388.071187,0 500,111.928813 500,250 C500,388.071187 388.071187,500 250,500 C111.928813,500 0,388.071187 0,250 C0,111.928813 111.928813,0 250,0 Z M234.75,83.34 L100.02,83.34 L86.76,207.89 L131.16,212.21 C135.78,195.87 147.19,186.62 163.84,186.62 C184.5,186.62 196.52,202.34 196.52,226.08 C196.52,229.945756 196.184349,233.551268 195.527185,236.875559 C195.020474,235.926667 194.366405,235.610365 193.53,236.23 C192.24,237.18 190.47,240.82 188.61,245.44 L188.61,245.44 L184.747058,256.351812 C184.674106,256.412225 184.600835,256.472267 184.525666,256.532243 C185.826156,252.74474 187.23633,248.831231 188.6,245.44 L188.6,245.44 L188.61,245.42 C188.757509,244.993433 194.235132,229.096316 191.62,228.07 C188.97,227.03 187.01,229.05 180.46,242.03 C176.147538,250.575916 171.236876,257.873414 167.885553,263.112113 C167.306345,263.176655 166.71926,263.229633 166.124526,263.270067 C166.423872,262.580078 166.724561,261.952491 167.01,261.45 C168.93,258.07 176.11,245.8 177.87,240.81 C179.63,235.81 180.37,225.47 175.58,229.6 C170.79,233.74 156.68,253.41 154.34,256.23 C153.66046,257.046029 152.496003,258.937308 151.134162,261.450786 C140.236793,257.566295 133.108785,248.047912 130.55,235.02 L130.55,235.02 L82.15,242.73 C86.9662868,271.604303 106.61982,291.655471 136.121216,299.064177 C134.454762,303.599011 133.190325,309.163526 133.5,317.42 C134.18,335.55 140.02,368.29 134.81,375.39 C132.23,378.91 106.47,410.29 86.79,435.3 C99.61,446.6 113.6,456.59 128.57,465.07 L128.57,465.07 L180.12,383.6 C180.574104,383.092025 202.4238,357.998 197.85,342.95 C193.23,327.75 188.8,322.2 194.56,312.66 C197.726623,307.41528 202.619021,300.139526 206.447951,293.240473 C231.595554,281.000874 245.84,256.86217 245.84,224.54 C245.84,178.61 220.26,150.55 177.71,150.55 C156.44,150.55 140.1,157.95 130.54,171.82 L130.54,171.82 L136.4,122.8 L234.75,122.8 L234.75,83.34 Z M398.35,52.5 C397.49,79.25 394.87,112.85 394.11,115.11 C392.2,120.69 390.74,128.07 374.83,138.46 C358.91,148.86 356,151.96 350.42,153 C344.982619,154.025 329.148577,158.032727 328.397658,158.22299 L328.37,158.23 C328.37,158.23 321.19,159.51 318.57,165.7 C315.95,171.89 309.59,187.2 307.69,190.02 C305.8,192.84 304.87,194.75 305.51,195.44 C306.16,196.13 307.94,196.92 311.45,193.62 C314.96,190.32 325.17,178.53 326.88,175.11 C328.59,171.69 329.82,168.85 332.9,168.54 C335.99,168.24 346.2,165.3 344.83,168.26 C343.61,170.88 330.62,182.45 325.03,191.44 C324.505868,192.281563 324.025334,193.106778 323.63551,193.893368 C279.945206,204.104999 254.82,243.357756 254.82,304.11 C254.82,375 289.33,416.66 347.79,416.66 C406.56,416.66 441.07,375 441.07,304.11 C441.07,244.538179 416.911466,205.646678 374.612294,194.526649 C375.252848,193.898633 375.854257,193.344131 376.4,192.89 C377.11,192.3 377.75,191.83 378.24,191.64 C381.56,190.34 394.76,185.2 394.55,187.6 C394.41,189.22 392.57,194.32 390.18,198.69 C394.16,200.59 397.98,202.8 401.55,205.27 C405.54,200.6 409.56,195.62 411.95,193.56 C416.9,189.3 429.32,177.25 428.11,158.29 C426.9,139.33 433.21,113.17 436.39,97.09 C436.42,96.93 437.5,94.08 438.76,90.75 C426.76,76.55 413.22,63.7 398.35,52.5 Z M347.79,230.11 C374.53,230.11 389.45,255.61 389.45,304.11 C389.45,352.3 374.52,377.8 347.79,377.8 C321.36,377.8 306.44,352.3 306.44,304.11 C306.44,279.172023 310.384644,260.314932 317.810158,247.881083 C318.125681,248.268419 318.572228,248.542102 319.19,248.64 C319.54,248.69 319.89,248.56 320.24,248.43 C322.18,247.71 324.2,244.5 325.99,241.16 C327.048415,239.179482 328.029678,237.186105 328.865661,235.706247 C329.931107,234.975191 331.032115,234.315112 332.167973,233.728211 C331.459013,235.123372 330.775837,236.438824 330.16,237.66 C327.86,242.23 326.54,245.48 328.63,246.38 C331.99,247.82 339.66,241.2 344.78,232.48 C345.228422,231.706252 345.684575,230.940235 346.097651,230.14549 C346.656401,230.121838 347.220529,230.11 347.79,230.11 Z M187.107312,299.813608 C185.81343,301.570111 184.726158,303.604045 184.04,305.68 C182.47,310.43 177.89,316.93 177.89,316.93 C177.89,316.93 175.11,320.11 175.92,316.03 C176.510599,313.05513 180.370769,306.31095 183.059251,300.60264 C184.160196,300.412364 185.248513,300.20572 186.324051,299.982873 L186.324051,299.982873 Z M165.603696,302.207108 C164.60841,303.579775 163.789477,303.969244 163.552881,302.229583 C163.955937,302.228571 164.357741,302.225723 164.758287,302.221042 L164.758287,302.221042 Z M355.87,176.02 L343.07,189.28 L340.986054,191.433674 L340.956017,191.436952 C341.619743,190.739184 342.306667,190.014933 343,189.28 C348.57,183.41 354.9,176.7 355.87,176.02 L355.87,176.02 Z" id="Combined-Shape" fill="#000000"></path>
            <path d="M197.85,342.95 C193.23,327.75 188.8,322.2 194.56,312.66 C200.32,303.12 211.79,286.86 212.18,278.36 C212.57,269.87 212.4,265.33 209.4,270.31 C206.4,275.28 196.16,293.41 192.72,294.91 C189.28,296.4 185.61,300.93 184.04,305.68 C182.47,310.43 177.89,316.93 177.89,316.93 C177.89,316.93 175.11,320.11 175.92,316.03 C176.73,311.95 183.69,300.78 185.34,294.91 C186.99,289.04 196.27,265.07 196.81,258.81 C197.35,252.55 197.62,233.2 193.53,236.23 C192.24,237.18 190.47,240.82 188.61,245.44 L182.11,263.8 C180.71,268.11 179.66,271.47 179.33,272.41 C178.22,275.56 171.49,288.47 170.11,292.67 C168.74,296.87 163.84,307.52 163.5,301.68 C163.16,295.84 165.92,294.21 172.78,281.24 C179.64,268.27 182.09,263.83 182.09,263.83 L182.1,263.8 C183.91,258.24 186.32,251.11 188.6,245.44 L188.61,245.42 C188.61,245.42 194.27,229.11 191.62,228.07 C188.97,227.03 187.01,229.05 180.46,242.03 C173.91,255.01 165.98,265.11 164.23,269.49 C162.48,273.87 165.09,264.83 167.01,261.45 C168.93,258.07 176.11,245.8 177.87,240.81 C179.63,235.81 180.37,225.47 175.58,229.6 C170.79,233.74 156.68,253.41 154.34,256.23 C152,259.04 143.91,274.6 141.82,284.37 C139.73,294.14 132.82,299.29 133.5,317.42 C134.18,335.55 140.02,368.29 134.81,375.39 C132.23,378.91 106.47,410.29 86.79,435.3 C99.61,446.6 113.6,456.59 128.57,465.07 L180.12,383.6 C180.13,383.6 202.47,358.15 197.85,342.95 Z" id="Path" stroke="#000000" stroke-width="2" stroke-linecap="round" stroke-linejoin="round"></path>
            <path d="M374.83,138.46 C358.91,148.86 356,151.96 350.42,153 C344.85,154.05 328.37,158.23 328.37,158.23 C328.37,158.23 321.19,159.51 318.57,165.7 C315.95,171.89 309.59,187.2 307.69,190.02 C305.8,192.84 304.87,194.75 305.51,195.44 C306.16,196.13 307.94,196.92 311.45,193.62 C314.96,190.32 325.17,178.53 326.88,175.11 C328.59,171.69 329.82,168.85 332.9,168.54 C335.99,168.24 346.2,165.3 344.83,168.26 C343.61,170.88 330.62,182.45 325.03,191.44 C324.32,192.58 323.69,193.69 323.26,194.72 C319.43,203.9 317.53,215.41 316.46,221.73 C315.39,228.05 313.97,232.75 316.37,233.1 C318.73,233.44 321.83,230.42 322.77,227.92 L323.03,227.22 C323.06,227.13 323.09,227.04 323.12,226.94 C323.22,226.63 324.01,224.09 325.12,220.63 C326.7,215.45 328.47,209.11 328.5,206.79 C328.55,202.98 332.05,200.21 334.6,197.95 C334.91,197.67 335.46,197.14 336.16,196.43 C337.58,194.88 338.72,193.78 338.73,193.78 C338.74,193.77 338.75,193.76 338.76,193.75 L338.74,193.78 L338.74,193.78 C337.76,194.81 336.88,195.71 336.17,196.43 C334.42,198.34 332.24,200.97 331.17,203.26 C329.96,205.85 327.11,214.5 325.14,220.63 C324.32,223.33 323.58,225.61 323.14,226.94 C323.13,226.96 323.09,227.1 323.09,227.1 L323.05,227.22 C322.99,227.41 322.89,227.69 322.85,227.82 C322.84,227.85 322.81,227.89 322.79,227.93 L317.88,241.31 C317.88,241.31 315.53,248.06 319.19,248.64 C319.54,248.69 319.89,248.56 320.24,248.43 C322.18,247.71 324.2,244.5 325.99,241.16 C327.31,238.69 328.51,236.2 329.46,234.71 C331.92,230.84 339.86,212.23 341.89,209.42 C343.92,206.61 350.89,199.8 351.57,199.42 C352.25,199.04 350.77,201.33 348.07,204.53 C345.08,207.52 340.47,214.39 336.12,225.22 C334.23,229.91 331.92,234.17 330.16,237.66 C327.86,242.23 326.54,245.48 328.63,246.38 C331.99,247.82 339.66,241.2 344.78,232.48 C345.29,231.6 345.81,230.73 346.27,229.82 C351.27,219.81 357.64,212.65 361.51,208.9 C364.81,205.69 372.23,196.36 376.4,192.89 C377.11,192.3 377.75,191.83 378.24,191.64 C381.56,190.34 394.76,185.2 394.55,187.6 C394.41,189.22 392.57,194.32 390.18,198.69 C394.16,200.59 397.98,202.8 401.55,205.27 C405.54,200.6 409.56,195.62 411.95,193.56 C416.9,189.3 429.32,177.25 428.11,158.29 C426.9,139.33 433.21,113.17 436.39,97.09 C436.42,96.93 437.5,94.08 438.76,90.75 C426.76,76.55 413.22,63.7 398.35,52.5 C397.49,79.25 394.87,112.85 394.11,115.11 C392.2,120.69 390.74,128.07 374.83,138.46 Z M343.07,189.28 L338.76,193.74 C340.03,192.41 341.5,190.87 343,189.28 C348.57,183.41 354.9,176.7 355.87,176.02 L343.07,189.28 Z" id="Shape" stroke="#000000" stroke-width="2" stroke-linecap="round" stroke-linejoin="round"></path>
        </g>
    </g>
</svg>