<svg width="185" height="200" viewBox="0 0 185 200" fill="none" xmlns="http://www.w3.org/2000/svg">
<g clip-path="url(#clip0_1271_127)">
<path d="M76.51 8.36C75.58 10.76 74.66 13.56 76.23 15.92C77.09 17.22 78.34 18.16 79.91 18.3C81.2 18.42 82.52 17.95 83.63 17.33C84.74 16.71 85.71 15.86 86.42 14.81C87.13 13.76 87.43 12.42 87.43 11.19C87.42 8.91 86.14 6.61 84.03 5.63C82.84 5.08 81.51 4.91 80.24 5.28C78.71 5.72 77.54 6.79 76.64 8.06C76.26 8.59 76.53 9.47 77.09 9.77C77.73 10.11 78.39 9.89 78.8 9.32C78.85 9.26 78.89 9.19 78.94 9.13C78.91 9.17 78.8 9.29 78.96 9.11C79.04 9.01 79.13 8.91 79.22 8.82C79.41 8.61 79.62 8.44 79.83 8.25C79.93 8.15 79.78 8.29 79.77 8.29C79.82 8.25 79.87 8.21 79.93 8.18C80.02 8.12 80.11 8.06 80.21 8C80.32 7.94 80.42 7.88 80.53 7.83C80.57 7.81 80.61 7.79 80.65 7.77C80.39 7.91 80.56 7.81 80.64 7.78C80.84 7.71 81.04 7.65 81.25 7.61C81.27 7.61 81.41 7.59 81.41 7.58C81.41 7.58 81.14 7.6 81.28 7.6C81.4 7.6 81.52 7.58 81.64 7.58C81.73 7.58 81.83 7.58 81.92 7.58C81.97 7.58 82.03 7.59 82.08 7.59C82.21 7.59 81.95 7.57 81.94 7.57C82.08 7.66 82.39 7.66 82.56 7.71C82.62 7.73 82.82 7.77 82.86 7.82C82.86 7.82 82.62 7.71 82.74 7.77C82.79 7.79 82.84 7.81 82.88 7.84C83.07 7.93 83.25 8.04 83.43 8.16C83.46 8.18 83.5 8.21 83.53 8.23C83.72 8.36 83.46 8.18 83.47 8.18C83.48 8.18 83.69 8.37 83.71 8.39C83.86 8.53 84 8.68 84.13 8.83C84.33 9.06 84.04 8.69 84.16 8.87C84.22 8.96 84.29 9.05 84.34 9.15C84.46 9.34 84.56 9.54 84.65 9.75C84.54 9.53 84.62 9.69 84.67 9.81C84.7 9.91 84.74 10 84.76 10.1C84.83 10.33 84.87 10.56 84.91 10.79C84.85 10.44 84.91 10.83 84.91 10.91C84.91 11.02 84.91 11.13 84.91 11.23C84.91 11.33 84.91 11.45 84.9 11.56C84.9 11.62 84.89 11.69 84.88 11.75C84.86 11.99 84.92 11.6 84.88 11.75C84.81 11.99 84.78 12.25 84.71 12.49C84.68 12.61 84.64 12.72 84.6 12.84C84.58 12.89 84.56 12.94 84.54 12.99C84.42 13.3 84.59 12.9 84.52 13.03C84.43 13.2 84.34 13.37 84.23 13.53C84.2 13.58 84.02 13.81 84.13 13.67C84.24 13.53 84.12 13.68 84.09 13.71C84.04 13.77 83.99 13.82 83.94 13.88C83.79 14.04 83.63 14.2 83.47 14.34C83.37 14.43 83.27 14.51 83.17 14.59C83.13 14.63 82.98 14.72 83.19 14.58C83.14 14.62 83.08 14.66 83.03 14.7C82.82 14.85 82.61 14.99 82.39 15.11C82.29 15.17 82.18 15.23 82.08 15.28C82.02 15.31 81.96 15.34 81.9 15.37C81.87 15.38 81.61 15.51 81.77 15.43C81.89 15.37 81.61 15.49 81.54 15.52C81.41 15.56 81.29 15.61 81.16 15.64C81.05 15.67 80.94 15.7 80.83 15.72C80.78 15.73 80.73 15.74 80.69 15.75C80.39 15.82 80.86 15.75 80.69 15.75C80.45 15.76 80.23 15.77 79.99 15.77C79.75 15.77 80.2 15.83 79.92 15.76C79.79 15.73 79.66 15.69 79.53 15.65C79.45 15.63 79.35 15.55 79.58 15.67C79.54 15.65 79.5 15.63 79.46 15.61C79.37 15.56 79.27 15.5 79.18 15.44C79.01 15.33 79.14 15.41 79.18 15.44C79.11 15.38 79.05 15.33 78.98 15.27C78.86 15.16 78.74 15.04 78.62 14.91C78.57 14.85 78.51 14.79 78.46 14.73C78.57 14.86 78.46 14.73 78.41 14.66C78.32 14.52 78.23 14.38 78.16 14.24C78.14 14.19 78.12 14.14 78.09 14.1C78.02 13.97 78.14 14.28 78.07 14.06C78.03 13.93 77.98 13.8 77.95 13.67C77.93 13.6 77.92 13.54 77.91 13.47C77.91 13.43 77.86 13.15 77.88 13.34C77.9 13.51 77.88 13.3 77.88 13.26C77.88 13.18 77.87 13.09 77.87 13.01C77.87 12.88 77.87 12.74 77.87 12.61C77.87 12.54 77.87 12.47 77.88 12.41C77.88 12.37 77.92 12.09 77.89 12.27C77.87 12.43 77.89 12.26 77.89 12.23C77.91 12.15 77.92 12.06 77.94 11.98C77.97 11.83 78 11.68 78.04 11.53C78.11 11.24 78.2 10.96 78.29 10.68C78.47 10.12 78.69 9.56 78.9 9.01C79.14 8.4 78.64 7.61 78.03 7.47C77.31 7.31 76.75 7.69 76.49 8.34L76.51 8.36Z" fill="#010201"/>
<path d="M115.85 45.13C113.11 45.23 110.35 44.84 107.68 44.27C104.52 43.6 101.32 42.65 98.52 41C96.68 39.91 94.24 37.87 94.58 35.42C94.83 33.61 97.57 33.56 98.95 33.58C101.37 33.62 104.07 34.1 106.21 35.28C107.39 35.93 108.39 34.67 107.92 33.57C107.25 32.02 106.79 29.76 108.39 28.6C109.99 27.44 112.43 28.05 114.14 28.73C115.27 29.18 115.95 27.76 115.55 26.89C115.15 26.02 114.97 25.38 116.01 25.16C116.99 24.95 118.07 25.16 119.02 25.41C119.97 25.66 120.75 24.8 120.56 23.87C120.18 22.06 123.07 20.93 124.43 20.79C124.98 20.73 125.99 20.69 126.1 21.38C126.25 22.27 124.97 23.62 124.47 24.24C119.77 30.02 115.34 36.03 111.03 42.11C103.77 52.34 96.29 62.61 86.34 70.42C75.84 78.66 63.05 83.48 49.65 83.31C38.92 83.17 23.52 80.48 20.08 68.42C18.75 63.74 19.44 58.73 20.88 54.16C22.49 49.09 25.04 43.84 28.6 39.85C36.02 31.55 48.56 28.07 58.95 32.55C64.6 34.99 69.08 39.58 71.69 45.11C74.3 50.64 75.05 57.23 74.73 63.44C74.05 76.69 69.12 90.65 60.43 100.78C53.08 109.35 42.02 113.83 30.91 114.83C25.41 115.32 19.76 114.96 14.52 113.13C10.13 111.6 5.10004 108.7 3.50004 104.05C1.90004 99.4 3.61004 94.79 5.84004 90.88C8.40004 86.4 11.99 82.47 16.03 79.27C19.85 76.25 24.48 73.74 29.46 73.69C34.44 73.64 38.11 76.56 39.97 80.94C41.67 84.94 42 90.05 41.09 94C40.35 97.18 39.12 100.26 37.94 103.29C34.72 111.56 31.16 119.74 28.8 128.32C27.07 134.6 24.94 143.44 29.25 149.18C31.69 152.43 35.49 153.24 39.33 153.69C46.41 154.53 53.55 153.57 60.32 151.41C67.23 149.21 73.74 145.93 80.22 142.71C87.38 139.14 94.38 135.3 101.5 131.66C104.89 129.93 108.36 128.39 111.78 126.74C113.82 125.76 117.33 123.88 118.73 126.72C119.61 128.5 119.37 130.83 119.09 132.72C118.71 135.35 117.97 137.93 117.14 140.45C115.44 145.59 113.07 150.46 111.42 155.61C109.03 163.06 107.28 170.88 106.24 178.64C105.79 182 105.36 185.3 103.85 188.38C103 190.11 102.39 191.86 103.97 193.39C105.74 195.12 108.61 195.99 110.92 196.71C113.73 197.59 116.62 198.22 119.52 198.69C124.76 199.55 130.28 200.13 135.57 199.28C136.33 199.16 136.75 198.06 136.32 197.44C134.05 194.26 130.99 191.84 128.36 188.98C127.35 187.88 126.15 186.61 125.74 185.13C125.45 184.08 125.77 183.04 126.08 182.03C128.6 173.89 130.52 165.59 132.58 157.33C134.75 148.62 137.44 140.08 139.77 131.42C140.94 127.08 141.97 122.7 142.93 118.31C143.81 114.25 145.36 110.39 146.56 106.42C148.26 100.79 149.34 94.14 146.34 88.73C144.16 84.79 140.06 82.53 135.79 81.54C130.99 80.42 125.94 80.57 121.08 81.21C115.02 82.01 109.09 83.59 103.47 86C96.87 88.83 90.88 92.86 85.42 97.5C82.62 99.88 79.78 102.36 77.37 105.14C74.96 107.92 72.82 111.27 70.49 114.29C69.31 115.82 68.04 117.27 66.63 118.58L68.59 120.09C78.44 106.16 90.58 93.64 104.59 83.86C114.61 76.86 125.81 71.27 137.4 67.38C142.98 65.51 148.77 64 154.65 63.48C159.86 63.02 165.38 63.26 170.22 65.41C175.06 67.56 179 71.88 180.86 77.02C182.9 82.66 182.28 88.76 179.44 94.01C173.94 104.19 161.1 111.12 149.59 108.09C148.14 107.71 146.75 107.17 145.42 106.49C143.99 105.76 142.72 107.92 144.16 108.65C155.84 114.6 170.3 109.7 178.37 100C182.33 95.24 184.87 89.21 184.58 82.95C184.29 76.69 181.44 70.68 176.81 66.65C167.74 58.77 154.28 60.18 143.49 62.96C131.8 65.97 120.38 71.08 110.06 77.32C94.68 86.63 81.34 99.27 70.4 113.48C69.04 115.24 67.73 117.03 66.44 118.84C65.59 120.04 67.4 121.28 68.4 120.35C71.09 117.86 73.21 114.86 75.33 111.89C77.57 108.76 79.94 105.92 82.74 103.27C87.84 98.45 93.36 94.05 99.54 90.68C105.3 87.55 111.53 85.43 117.97 84.22C122.72 83.33 127.67 82.88 132.48 83.47C136.51 83.97 140.86 85.36 143.4 88.74C146.85 93.34 145.89 99.77 144.42 104.9C143.32 108.74 141.8 112.46 140.84 116.35C139.79 120.6 138.93 124.89 137.81 129.13C135.58 137.64 132.87 146.01 130.72 154.55C128.57 163.09 126.9 171.36 124.28 179.54C123.53 181.9 122.61 184.22 123.66 186.64C125.01 189.76 127.97 192.14 130.35 194.45C131.72 195.78 133.06 197.14 134.17 198.69L134.92 196.85C129.15 197.78 122.86 196.88 117.19 195.71C114.34 195.12 111.47 194.39 108.77 193.27C107.78 192.86 106.23 192.35 105.6 191.45C105.27 190.97 105.65 190.39 105.92 189.83C107.42 186.73 108.1 183.61 108.55 180.2C109.11 176.03 109.9 171.9 110.8 167.79C111.7 163.68 112.74 159.59 114.06 155.59C115.03 152.63 116.24 149.78 117.41 146.9C119.37 142.1 121.17 137.07 121.71 131.89C121.94 129.73 121.93 127.31 120.86 125.35C119.38 122.65 116.38 122.26 113.68 123.19C112.3 123.66 111.02 124.36 109.7 124.96C107.82 125.82 105.93 126.67 104.07 127.57C100.24 129.44 96.47 131.44 92.71 133.44C85.48 137.29 78.21 141.06 70.79 144.52C64.08 147.65 57.03 150.39 49.62 151.21C45.73 151.64 41.76 151.58 37.89 150.97C36.07 150.69 34.27 150.27 32.76 149.16C30.33 147.37 29.51 144.3 29.38 141.42C29.2 137.38 30.06 133.34 31.1 129.46C33.51 120.48 37.28 111.95 40.62 103.29C41.81 100.22 43.09 97.07 43.7 93.82C44.61 88.92 44.03 83.38 41.8 78.89C39.57 74.4 35.4 71.45 30.38 71.18C25.05 70.9 19.88 73.31 15.69 76.4C11.5 79.49 7.48004 83.6 4.57004 88.16C1.89004 92.35 -0.139956 97.4 0.590044 102.45C1.32004 107.5 5.40004 111.44 9.92004 113.8C14.98 116.44 20.75 117.46 26.42 117.49C37.66 117.53 50.07 113.93 58.55 106.31C63.73 101.66 67.69 95.6 70.62 89.34C73.55 83.08 75.68 76.11 76.68 69.13C78.53 56.16 76.43 41.72 65.32 33.35C55.72 26.12 42.18 26.62 32.4 33.23C27.46 36.57 23.99 41.21 21.35 46.49C18.91 51.36 17.1 56.69 16.91 62.17C16.73 67.22 18.16 72.19 21.49 76.06C25.53 80.76 31.68 83.11 37.58 84.41C44.72 85.98 52.18 86.18 59.4 85.12C66.2001 84.12 72.78 81.66 78.79 78.37C90.3 72.07 99.2 62.33 106.99 51.96C111.67 45.72 116.08 39.28 120.76 33.03C122.01 31.36 123.24 29.65 124.54 28.02C125.36 27 126.25 26.04 127.04 24.99C128.36 23.22 129.67 20.34 127.23 18.83C123.71 16.66 117.27 20.21 118.18 24.51L119.72 22.97C118.03 22.53 115.88 22.23 114.28 23.13C112.34 24.23 112.63 26.38 113.43 28.12L114.84 26.28C112.22 25.24 108.81 24.85 106.54 26.89C104.27 28.93 104.7 32.22 105.8 34.8L107.51 33.09C105.13 31.78 102.24 31.21 99.56 31.07C97.2 30.95 94.03 31.24 92.68 33.5C91.13 36.09 92.87 39.52 94.85 41.34C97.49 43.77 101.1 45.1 104.5 46.04C108.15 47.05 112.08 47.75 115.89 47.61C117.49 47.55 117.5 45.05 115.89 45.11L115.85 45.13Z" fill="#010201"/>
<path d="M13.42 154.48C22.63 154.35 31.92 155.34 41.08 156.13C45.66 156.52 50.25 156.94 54.82 157.44C56.17 157.59 57.55 157.74 58.72 157.92C60.99 158.27 62.39 159.08 62.49 161.5C62.55 162.96 62.37 164.43 62.31 165.89C62.22 168.01 62.26 170.14 62.18 172.27C62 177.11 61.6 181.93 61.24 186.76L62.49 185.51C57.75 186.14 52.83 185.92 48.07 185.81C41.56 185.67 35.04 185.37 28.55 184.83C25.96 184.62 23.36 184.38 20.79 184C19.82 183.86 18.86 183.7 17.9 183.49C17.58 183.42 17.26 183.34 16.94 183.25C16.78 183.2 16.03 182.96 16.35 183.07C16.3 183.05 16.12 182.92 16.07 182.93C15.92 182.95 16.22 183.11 16.09 182.95C16.28 183.19 16.17 183.13 16.12 182.95C16.07 182.75 16.12 182.96 16.14 183C16.11 182.9 16.07 182.8 16.04 182.7C15.81 181.87 15.67 181.03 15.57 180.17C15.22 177.26 15.11 174.32 15.02 171.4C14.83 165.32 14.78 159.21 14.99 153.13C15.04 151.52 12.54 151.52 12.49 153.13C12.3 158.65 12.34 164.18 12.47 169.7C12.54 172.82 12.65 175.94 12.94 179.04C13.1 180.68 13.07 183.38 14.29 184.69C15.15 185.61 16.77 185.83 17.93 186.06C20.29 186.52 22.7 186.79 25.09 187.03C31.67 187.7 38.29 188.04 44.9 188.24C50.69 188.42 56.71 188.78 62.47 188.02C63.18 187.93 63.66 187.52 63.72 186.77C64.31 178.75 64.7 170.75 64.96 162.71C65.04 160.39 64.7 158 62.62 156.62C61.07 155.6 59.11 155.46 57.32 155.23C47.53 154.01 37.66 153.27 27.82 152.6C23.03 152.28 18.2 151.9 13.4 151.97C11.79 151.99 11.79 154.49 13.4 154.47L13.42 154.48Z" fill="#010201"/>
<path d="M127.26 19.89C128.88 17.83 129.95 15.42 130.92 12.99C131.12 12.5 130.79 11.82 130.35 11.58C124.57 8.40001 119.41 4.17001 113.36 1.45001C111.49 0.610015 108.21 -0.949985 106.38 0.800015C105.77 1.38001 105.43 2.33001 105.02 3.05001C104.29 4.33001 103.54 5.60001 102.79 6.86001C99.48 12.43 95.92 17.83 92.53 23.34C90.46 26.71 88.54 30.18 86.62 33.65C85.97 34.83 85.32 36.02 84.68 37.21C83.93 38.6 82.09 40.31 82.56 42.05C82.82 43.04 83.73 43.71 84.52 44.27C85.86 45.21 87.34 45.97 88.8 46.7C91.43 48 94.01 49.34 96.58 50.73C98.1 51.56 100 52.66 101.77 51.96C102.6 51.63 103.13 50.99 103.63 50.29C104.61 48.94 105.72 47.66 106.4 46.13C107.08 44.6 104.89 43.4 104.24 44.87C103.72 46.03 102.96 47 102.2 48.01C101.85 48.48 101.4 49.46 100.79 49.66C100.38 49.8 99.83 49.54 99.45 49.38C98.44 48.96 97.48 48.37 96.52 47.84C94.46 46.69 92.35 45.67 90.23 44.62C89.18 44.1 88.13 43.56 87.13 42.96C86.57 42.63 85.97 42.29 85.46 41.87C85.3 41.74 84.92 41.14 84.95 41.55C84.91 41.04 85.77 40.2 86.03 39.8C86.45 39.16 86.8 38.5 87.16 37.83C87.84 36.57 88.54 35.31 89.24 34.05C91 30.87 92.77 27.69 94.68 24.59C97.74 19.61 100.96 14.74 103.97 9.73001C105.29 7.54001 106.65 5.35001 107.85 3.09001C107.99 2.82001 108.16 2.55001 108.15 2.56001C108.04 2.67001 108.02 2.56001 108.24 2.56001C108.34 2.56001 108.36 2.53001 108.65 2.54001C109.58 2.59001 110.73 3.01001 111.68 3.42001C117.93 6.06001 123.18 10.49 129.09 13.74L128.52 12.33C127.73 14.32 126.84 16.42 125.51 18.12C124.53 19.37 126.28 21.15 127.28 19.89H127.26Z" fill="#010201"/>
</g>
<defs>
<clipPath id="clip0_1271_127">
<rect width="184.18" height="199.68" fill="white" transform="translate(0.410034)"/>
</clipPath>
</defs>
</svg>
