<?xml version="1.0" encoding="UTF-8"?>
<svg xmlns="http://www.w3.org/2000/svg" viewBox="0 0 64 64">
  <defs>
    <style>
      .cls-1 {
        fill: none;
      }

      .cls-2 {
        fill: #41c279;
      }

      .cls-3 {
        fill: #fff;
      }

      .cls-4 {
        fill: #c5c6c8;
      }
    </style>
  </defs>
  <rect width="64" height="64"/>
  <g id="Layer_1" data-name="Layer 1">
    <g>
      <path class="cls-1" d="M52.92,9.72c-.17-.24-.29-.37-.37-.39l-39.76.48-.29,31.93,40.3-.41.13-31.61ZM18.44,26.7c1.91-3.24,4.6-6.34,8.17-8.02-1.22,1.22-2.09,2.4-2.74,3.89-1.81,4.18-.46,8.99,3.36,11.8-3.5-.64-7.96-3.98-8.79-7.67ZM25.88,31.64c-2.35-3.13-2.25-7.69.09-10.73,1.75-2.26,4.29-3.46,6.99-3.43,0,0,.01,0,.02,0,.01,0,.02,0,.03,0,2.75.03,5.27,1.39,6.8,3.75,2.42,3.74,1.61,8.8-1.89,11.68-1.6,1.32-3.57,1.95-5.51,1.93-2.5-.01-4.95-1.1-6.53-3.2ZM46.26,29.19h-.01c-2.15,2.87-5.4,4.78-9.08,5.46,3.9-2.25,6.34-7.8,4.3-12.12-.43-1.53-1.37-2.7-2.54-3.83,2.84.3,8.45,6.16,8.43,8.2,0,.82-.53,1.53-1.1,2.29Z"/>
      <path class="cls-1" d="M3.59,51.54c-.03,1.09.02,2.11.17,3.13h56.57v-.02s.08-2.91.08-2.91l-56.82-.2Z"/>
      <polygon class="cls-1" points="52.45 42.33 52.43 42.33 59.3 49.65 52.45 42.33"/>
      <polygon class="cls-4" points="4.38 50.54 60.33 50.75 59.3 49.65 52.43 42.33 12.78 42.73 4.38 50.54"/>
      <path class="cls-2" d="M37.92,32.91c3.5-2.88,4.31-7.94,1.89-11.68-1.53-2.36-4.05-3.72-6.8-3.75-.01,0-.02,0-.03,0,2.69.04,5.25,1.38,6.78,3.75,2.41,3.74,1.61,8.8-1.89,11.68-1.59,1.31-3.53,1.94-5.46,1.93,1.94.02,3.91-.61,5.51-1.93Z"/>
      <polygon class="cls-3" points="61.21 55.67 61.22 55.66 61.21 55.66 61.21 55.67"/>
      <path class="cls-3" d="M61.41,50.48l-7.66-8.16h.04s.13-32.75.13-32.75v-.16s-.09-.13-.09-.13c-.22-.33-.64-.95-1.28-.95l-40.26.48-.5.06-.31,33.77-8.69,7.93c-.38,1.21-.17,2.31-.13,3.59-.03.47.21,1.5.9,1.5h57.64c.26-1.87.2-3.48.2-5.18ZM12.79,9.81l39.76-.48c.07.02.2.15.37.39l-.13,31.61-40.3.41.29-31.93ZM13.06,42.37l39.15-.27.22.23h.03s6.85,7.32,6.85,7.32l1.03,1.1-56.09-.2,8.82-8.18ZM60.33,54.67H3.76c-.15-1.02-.2-2.04-.17-3.13l56.82.2-.09,2.91v.02Z"/>
      <polygon class="cls-3" points="59.3 49.65 60.33 50.75 4.38 50.54 12.78 42.73 52.43 42.33 52.21 42.1 13.06 42.37 4.24 50.55 60.33 50.75 59.3 49.65"/>
      <path class="cls-1" d="M33.91,21.65c-2.1-.73-4.37.44-5.25,2.45-.34.77-.5,1.46-.43,2.19.02.24.08.49.16.75.65,2.08,2.27,3.4,4.45,3.32,2.04-.08,3.75-1.52,4.06-3.68h0c.02-.12.01-.22.02-.32.2-2.23-1-4.01-3.01-4.71Z"/>
      <path class="cls-1" d="M25.93,31.64c-2.35-3.13-2.25-7.7.09-10.73,1.73-2.25,4.22-3.45,6.96-3.43,0,0-.01,0-.02,0-2.7-.03-5.24,1.17-6.99,3.43-2.34,3.04-2.44,7.6-.09,10.73,1.58,2.1,4.04,3.19,6.53,3.2-2.48-.03-4.91-1.12-6.48-3.2Z"/>
      <path class="cls-2" d="M39.76,21.23c-1.53-2.36-4.09-3.71-6.78-3.75-2.74-.02-5.22,1.18-6.96,3.43-2.34,3.03-2.44,7.6-.09,10.73,1.57,2.09,4,3.18,6.48,3.2,1.92,0,3.87-.62,5.46-1.93,3.5-2.88,4.3-7.94,1.89-11.68ZM36.92,26.36c0,.11,0,.21-.02.31h0c-.31,2.17-2.02,3.61-4.06,3.69-2.18.08-3.8-1.24-4.45-3.32-.08-.26-.13-.51-.16-.75-.07-.73.09-1.41.43-2.19.88-2.01,3.15-3.18,5.25-2.45,2.01.7,3.21,2.48,3.01,4.71Z"/>
      <path class="cls-3" d="M38.93,18.7c1.17,1.13,2.11,2.3,2.54,3.83,2.04,4.32-.4,9.87-4.3,12.12,3.68-.68,6.93-2.59,9.08-5.45h.01c.57-.77,1.1-1.48,1.1-2.3.02-2.04-5.59-7.9-8.43-8.2Z"/>
      <path class="cls-3" d="M23.87,22.57c.65-1.49,1.52-2.67,2.74-3.89-3.57,1.68-6.26,4.78-8.17,8.02.83,3.69,5.29,7.03,8.79,7.67-3.82-2.81-5.17-7.62-3.36-11.8Z"/>
    </g>
  </g>
</svg>