<?xml version="1.0" encoding="UTF-8"?>
<svg id="Layer_1" data-name="Layer 1" xmlns="http://www.w3.org/2000/svg" viewBox="0 0 64 64">
  <defs>
    <style>
      .cls-1 {
        fill: none;
      }

      .cls-2 {
        fill: #030202;
      }

      .cls-3 {
        fill: #0c0308;
      }

      .cls-4 {
        fill: #c5c6c7;
      }

      .cls-5 {
        fill: #080205;
      }

      .cls-6 {
        fill: #f6f6f6;
      }

      .cls-7 {
        fill: #f4f4f4;
      }

      .cls-8 {
        fill: #0a0306;
      }

      .cls-9 {
        fill: #040102;
      }

      .cls-10 {
        fill: #060204;
      }

      .cls-11 {
        fill: #090205;
      }

      .cls-12 {
        fill: #fd449b;
      }

      .cls-13 {
        fill: #0b0307;
      }

      .cls-14 {
        fill: #050103;
      }

      .cls-15 {
        fill: #0d0308;
      }

      .cls-16 {
        fill: #070204;
      }
    </style>
  </defs>
  <path class="cls-1" d="M28.71,35.89c-.18-.29-1.05-1.16-1.41-1.06.34-.1,1.23.77,1.41,1.06Z"/>
  <path class="cls-1" d="M20.11,28.06s-.05.04-.08.05c.03,0,.06-.03.09-.05.25-.28.43-.74.92-.82h-.01c-.48.06-.67.53-.92.82Z"/>
  <path class="cls-1" d="M29.46,43.19c-.04.2-.04,1.3,0,1.49-.04-.2-.03-1.29,0-1.49Z"/>
  <path class="cls-1" d="M31.38,34.8c-.18.04-.32-.04-.49-.17-.11-.08-.94-.9-.96-.97-.18-.38.16-.66.57-.5-.41-.18-.76.1-.58.5.03.06.86.89.96.97.18.14.32.21.5.17Z"/>
  <path class="cls-1" d="M29.65,42.96c.1-.03.18-.03.25-.02-.07-.02-.15-.01-.25.02Z"/>
  <path class="cls-1" d="M27.3,34.83c-.34.1-.29.43-.12.67-.17-.24-.22-.57.12-.67Z"/>
  <path class="cls-1" d="M28.27,38.98c0-.06.03-.11.07-.15-.04.04-.06.09-.07.15Z"/>
  <path class="cls-1" d="M31.74,38.44s-.07-.02-.1-.02c.03,0,.07.02.1.02Z"/>
  <path class="cls-1" d="M29.87,40.36c0,.06-.03.11-.07.15.04-.04.06-.09.07-.15Z"/>
  <path class="cls-1" d="M29.83,45c.17,0,.34-.12.39-.4-.05.28-.22.4-.39.4Z"/>
  <path class="cls-1" d="M34.45,40.7c-.02.1-.07.17-.14.21.07-.04.13-.11.15-.21.04-.23.03-1.61-.09-1.73h-.01c.12.12.13,1.51.09,1.73Z"/>
  <path class="cls-1" d="M18.67,29.47c-.72-.42-1.19-1.13-1.84-1.66-.09.35.6,2.79.82,2.79.28-.41.55-.74,1.02-.94v-.19Z"/>
  <path class="cls-1" d="M34.36,38.97c-.06-.06-.13-.09-.21-.1.07.01.14.04.19.1h.01Z"/>
  <path class="cls-1" d="M34.99,44.52c0,.24,0,.44-.03.54.03-.1.04-.3.03-.54Z"/>
  <path class="cls-1" d="M32.32,43.19c-.08.02-.15.04-.23.05.07,0,.15-.02.23-.05Z"/>
  <path class="cls-1" d="M31.52,38.38c-.17-.08-.33-.25-.47-.43.14.18.3.35.47.43Z"/>
  <path class="cls-1" d="M31.74,41.33c.04-.05.2-.15.27-.16-.08.01-.23.11-.27.16Z"/>
  <path class="cls-1" d="M30.42,36.89c-.04.09-.05.2,0,.35-.05-.14-.04-.25,0-.35Z"/>
  <path class="cls-1" d="M31.99,38.39c.53-.33-.76-1.31-.9-1.62.14.31,1.42,1.29.9,1.62Z"/>
  <polygon class="cls-1" points="21.03 27.24 21.04 27.24 20.93 27.03 19.33 25.53 19.33 25.55 20.92 27.03 21.03 27.24"/>
  <path class="cls-1" d="M41.04,40.6c-.01.15-.02.29-.03.44,0-.15.02-.29.03-.44Z"/>
  <path class="cls-1" d="M28.34,28.92c.11.22.25.42.4.6-.14-.18-.28-.39-.4-.6Z"/>
  <path class="cls-1" d="M29.77,26.17c.88-.5,1.82-.28,2.6.26-.78-.54-1.7-.78-2.61-.27-1.04.58-1.28,1.91-.48,2.8l3.07,3.07-3.05-3.05c-.8-.88-.53-2.23.48-2.8Z"/>
  <path class="cls-1" d="M42.02,31.21c.92-.38,1.39-.91,2.16-1.41,1.05-.67,2.07-.45,2.62.19-.55-.65-1.57-.88-2.63-.2-.77.49-1.24,1.02-2.16,1.41-4.59,1.88-6.37-2.04-9.31-4.53-.06-.05-.13-.1-.2-.15.07.05.14.1.21.16,2.94,2.48,4.72,6.41,9.31,4.53Z"/>
  <path class="cls-1" d="M31.68,32.43c.43.32.85.17.68-.4h-.01c.17.56-.25.71-.68.39-.59-.45-2.14-2-2.75-2.68.61.68,2.17,2.24,2.76,2.69Z"/>
  <path class="cls-1" d="M28.5,36.55c.29-.04.42-.32.2-.66.21.33.07.62-.2.66Z"/>
  <path class="cls-1" d="M42.52,54.97c-1.18.62-2.76.83-4.11.97,1.34-.13,2.91-.33,4.11-.97Z"/>
  <path class="cls-1" d="M42.52,46.01c-1.7.58-3.53.81-5.31.92,1.8-.12,3.62-.34,5.31-.92Z"/>
  <path class="cls-1" d="M41.5,38.49c-.08.19-.14.38-.2.57.06-.19.12-.38.2-.57Z"/>
  <path class="cls-1" d="M41.99,37.59c-.11.16-.21.32-.3.49.09-.17.19-.33.3-.49Z"/>
  <path class="cls-1" d="M41.2,39.48c-.04.19-.08.38-.1.58.03-.2.06-.39.1-.58Z"/>
  <path class="cls-1" d="M24.94,36.54c-.25.06-.33.38-.19.6-.13-.23-.04-.54.19-.6Z"/>
  <path class="cls-1" d="M44.14,33.41c-.02.09-1.1,1.04-1.2,1.09-.07.03-.16.04-.25.03.09,0,.19,0,.26-.03.11-.04,1.17-1,1.2-1.09.09-.33-.15-.64-.46-.56.32-.07.55.25.45.56Z"/>
  <path class="cls-1" d="M24.94,36.54c.15-.04.25.02.38.1-.12-.08-.22-.14-.38-.1Z"/>
  <path class="cls-1" d="M25.96,38.24c.32.05.63-.22.44-.55.19.32-.12.59-.44.55Z"/>
  <path class="cls-1" d="M27.64,33.18c.43.25.8-.11.54-.54-1.15-1.32-2.75-2.44-3.86-3.77-1.22-1.46.34-3,1.95-2.52.31.09,1.04.59,1.45.99-.41-.4-1.15-.91-1.46-1-1.6-.48-3.16,1.05-1.95,2.52,1.11,1.33,2.71,2.46,3.86,3.77.25.43-.12.79-.54.54l-4.05-3.99s0,0,0,0l4.07,4Z"/>
  <path class="cls-1" d="M25,34.25h-.01c.1,1.16-.81.28-1.22-.09-.04-.03-.08-.07-.12-.11.04.04.09.08.13.12.41.37,1.31,1.25,1.22.08Z"/>
  <path class="cls-1" d="M22.36,27.75c.26.03.43.09.55.18-.12-.09-.29-.16-.56-.19-1.44-.15-2.36,1.15-1.54,2.39h.01c-.82-1.23.1-2.53,1.54-2.38Z"/>
  <path class="cls-1" d="M20.02,30.26s0,0,0-.01c-1.31-.28-2.27.89-1.65,2.11.65.69,1.31,1.37,1.98,2.05-.67-.67-1.32-1.35-1.97-2.04-.62-1.21.33-2.38,1.64-2.11Z"/>
  <path class="cls-1" d="M27.37,41.36s-.06-.08-.08-.12c.02.04.05.06.07.11.67,1.14.25,3.01.38,4.29,0,0,0,0,.01,0-.13-1.29.29-3.14-.38-4.28Z"/>
  <path class="cls-1" d="M31.74,41.33c-.1.13-.1,1.34-.06,1.58-.03-.24-.02-1.45.06-1.58Z"/>
  <path class="cls-1" d="M24.67,25.49c.05.06.1.08.06.18h.01c.02-.1-.01-.12-.06-.18-.23-.26-.71-.56-.97-.82-.15-.15-.27-.32-.4-.47.14.16.26.34.39.47.26.25.74.56.97.82Z"/>
  <path class="cls-1" d="M39.13,21.76c.68.02,1.36,0,2.03.08h0s-5.88-6.22-5.88-6.22c-1.37.85-2.04,2.27-3.9,1.84-1.04-.25-1.59-1.18-2.42-1.72-.09-.05-.19-.14-.3-.11l-5.83,6.21c1.4-.12,2.79-.11,4.17-.14,4.08-.1,8.07-.08,12.13.06Z"/>
  <path class="cls-1" d="M39.68,40.48c.09-.2.19-1.43.1-1.61.09.18-.02,1.41-.1,1.61Z"/>
  <path class="cls-1" d="M39.67,44.62c-.11.12-.23.18-.36.18.12,0,.25-.06.36-.18Z"/>
  <path class="cls-1" d="M39.54,36.77c-.02-.09-.02-.2.02-.33-.04.13-.04.24-.02.33Z"/>
  <path class="cls-1" d="M34.03,31.85c-.19-.28-.16-.6.19-.67-.35.06-.4.39-.19.67.1.13.92.97,1.04,1.02-.12-.06-.95-.89-1.04-1.02Z"/>
  <path class="cls-1" d="M34.25,43.34c-.11.17-.12,1.13-.05,1.53-.06-.39-.05-1.35.05-1.53Z"/>
  <path class="cls-1" d="M37.02,35.21c.01.42.58.57.77.12-.19.44-.75.3-.77-.12Z"/>
  <path class="cls-1" d="M39.07,38.89c.05-.12.23-.2.35-.22-.13,0-.3.09-.35.22Z"/>
  <path class="cls-1" d="M33.06,16.4l10.31-8.64h-22.77l10.28,8.59c.68.54,1.46.52,2.17.04Z"/>
  <path class="cls-1" d="M39.07,38.89c-.09.18-.17,1.45-.11,1.65-.05-.19.02-1.46.11-1.65Z"/>
  <path class="cls-1" d="M38.97,40.54c.05.17.19.25.34.23-.15.01-.29-.06-.34-.23Z"/>
  <path class="cls-1" d="M37.24,41.62c0-.24-.71-.24-.71,0h0c0-.23.71-.23.71.01,0,.34.04.85.03,1.27,0-.41-.03-.93-.03-1.28Z"/>
  <polygon class="cls-1" points="42.41 21.89 44.09 21.96 44.09 8.26 35.88 15.08 42.26 21.82 42.41 21.89"/>
  <path class="cls-1" d="M46.48,28.74l-.04.15c.54.11.91.58,1.25,1,.2,0,1.13-2.6,1.03-3l-1.03,1-1.2.85Z"/>
  <path class="cls-1" d="M38.96,42.91c.11-.12.23-.18.36-.18-.12,0-.25.06-.36.18Z"/>
  <path class="cls-1" d="M34.43,36.53c-.09-.08-.8-1.01-.84-1.1-.03-.07-.05-.17-.05-.27,0,.1.02.21.05.28.03.09.75,1.02.84,1.1.35.32.74.12.68-.29.05.41-.33.6-.68.28Z"/>
  <path class="cls-1" d="M27.57,15.68c.09-.1.54-.62.54-.68l-8.21-6.74v13.7l1.84-.09c1.85-2.14,3.94-4.09,5.83-6.19Z"/>
  <path class="cls-1" d="M38.01,33.76c.08.08.08.18.08.28,0,0,0,0,0,0,0,0,0,0,0,0,0-.1,0-.2-.08-.28Z"/>
  <path class="cls-1" d="M34.22,31.18c.05-.01.1-.01.14,0-.04,0-.09,0-.14,0Z"/>
  <path class="cls-1" d="M22.97,23.89s0,0,0,0c.02.01.03.03.05.04-.02-.01-.03-.04-.05-.05Z"/>
  <polygon class="cls-1" points="23.62 26.35 24.76 25.67 24.75 25.67 23.62 26.35 23.62 26.35"/>
  <path class="cls-2" d="M63.57,26.29c-1.28-1.57-5.99-2.56-7.98-2.94-3.54-.68-7.14-1-10.72-1.31h.01V7.23s-.22-.22-.22-.22h-25.33s-.22.22-.22.22v14.81c-4.89.48-10.03.83-14.76,2.27-1.39.42-5.61,1.82-4.01,3.9,1.25,1.62,5.5,2.55,7.47,2.95,3.2.63,6.47.96,9.73,1.3.3.69.9,1.15,1.41,1.68-.38.14-1.25-.19-1.22.43.04.75,1.65.19,2.12.46.18.11.51.55.68.72-.33-.01-.89-.04-.92.4-.05.7,1.42.23,1.85.42l.79.82c-.33-.01-.94-.08-.94.4,0,.67,1.32.28,1.74.41l.76.73c-.32.11-1-.14-1.05.37-.09.75,1.49.34,1.93.47l.98.99h-1.03c-.24,0-.24.71,0,.71h1.79c.17,0,.57.77.46,1h-1.46c-.38,0-.4.79-.14.79h1.57c.18.16.1.47.1.7-.53.18-1.15.35-1.43.87v10.46c.29.71,2.42,1.1,3.13,1.22,3.87.63,9.23.52,13.2.38,1.51-.05,5.87-.38,6.92-1.29,1.04-.91-.51-1.57-1.27-1.8-1.36-.4-2.79-.45-4.19-.63v-8.16c-.09-.54-1.01-.9-1.49-1.04v-.7h1.39c.37,0,.27-.79-.08-.79h-1.32v-1h1.39c.24,0,.24-.71,0-.71h-1.28c-.17,0,0-.79,0-.94.17-.25,1.63.24,1.74-.47.02-.1-.24-.38-.24-.38h-1.25c-.01-.17.22-.69.35-.75.35-.17,1.63.24,1.63-.43,0-.45-.61-.42-.92-.4l.82-.86h1.65c.05,0,.17-.18.18-.26.11-.65-.69-.49-1.08-.57l.76-.73c.55-.16,2.23.4,1.69-.73l-.88-.1c.57-.53,1.05-1.11,1.43-1.79,4-.54,8.1-.88,11.97-2.09,1.47-.46,5.54-1.84,3.8-3.98ZM27,21.7c-1.39.03-2.77.02-4.17.14l5.83-6.21c.11-.03.22.05.3.11.83.54,1.38,1.47,2.42,1.72,1.86.43,2.54-.99,3.9-1.84l5.88,6.21h0c-.68-.06-1.36-.04-2.03-.06-4.07-.14-8.06-.16-12.13-.06ZM29.38,25.43c.03.12-.96.7-.92,1.03-.12.09-.43-.97-.46-1.08-.15-.52-.27-1.04-.32-1.57l1.71,1.61ZM22.97,23.89s.03.03.05.05c.11.07.2.16.29.27.13.16.26.33.4.47.26.26.74.56.97.82.05.06.09.09.06.18h.01l-1.14.68s0,0,0,0h0c-.38-.75-.59-1.62-.65-2.46,0,0,0,0,.01,0,0,0,0,0,0,0ZM35.88,15.08l8.21-6.82v13.7l-1.68-.08-.15-.06-6.38-6.74ZM43.38,7.77l-10.31,8.64c-.71.47-1.49.49-2.17-.04l-10.28-8.59h22.77ZM19.9,8.26l8.21,6.74c0,.05-.45.58-.54.68-1.89,2.11-3.98,4.05-5.83,6.19l-1.84.09v-13.7ZM19.33,25.53l1.6,1.49.11.22h.01c-.49.08-.68.54-.92.82-.03.02-.06.04-.09.05-.03.01-.06.01-.07,0-.3-.83-.6-1.68-.65-2.57h.01s0,0,0,0ZM17.65,30.6c-.22,0-.9-2.43-.82-2.79.65.53,1.12,1.24,1.84,1.66v.19c-.47.19-.74.53-1.02.94ZM42.52,46.01v8.96c-1.19.63-2.76.84-4.11.97-2.5.25-5.5.25-7.99,0-1.37-.13-2.96-.31-4.17-.97v-8.96c1.18.42,2.43.65,3.68.79,2.33.25,4.95.29,7.28.14,1.79-.12,3.61-.34,5.31-.92ZM46.62,32.75c-1.3,1.61-3.24,3.01-4.5,4.64-.05.07-.09.14-.14.21-.11.16-.21.32-.3.49-.07.13-.13.27-.19.4-.08.19-.14.37-.2.57-.04.14-.08.28-.11.43-.04.19-.08.38-.1.58-.02.18-.04.36-.06.54-.01.15-.02.29-.03.44-.07,1.55.13,3.18,0,4.61h-.01c-4.36.77-8.9.79-13.26-.01,0,0,0,0,0,0,0,0,0,0-.01,0-.13-1.28.29-3.15-.38-4.29-.02-.04-.05-.07-.07-.11-.26-.38-.55-.54-.86-.86-2.01-2-4.08-3.96-6.08-5.98-.67-.67-1.33-1.36-1.98-2.05-.62-1.22.33-2.39,1.65-2.11,0,0,0,0,0,.01,0,0,0,0,0,0,.04.14.09.24.18.34.92,1.06,2.36,2.47,3.44,3.45.04.03.08.07.12.11.41.37,1.31,1.25,1.22.08l-4.16-4.1s0,0,0,0h-.01c-.82-1.25.1-2.55,1.54-2.4.27.03.44.09.56.19.36.26.25.76.66,1.25l4.05,3.99c.42.25.79-.11.54-.54-1.15-1.31-2.75-2.44-3.86-3.77-1.22-1.46.34-3,1.95-2.52.31.09,1.05.6,1.46,1,.14.13.24.26.28.35.1.23.09.67.22,1,.03.07.08.16.13.24.12.22.26.43.4.6.03.04.06.08.09.12.02.03.06.07.09.1.61.68,2.16,2.23,2.75,2.68.43.32.85.17.68-.4l-3.07-3.07c-.8-.88-.56-2.22.48-2.8.91-.51,1.83-.27,2.61.27.04.03.08.06.13.1.07.05.13.1.2.15,2.95,2.48,4.72,6.41,9.31,4.53.92-.39,1.39-.91,2.16-1.41,1.06-.67,2.08-.45,2.63.2.56.65.65,1.73-.18,2.75ZM47.69,29.89c-.33-.42-.71-.89-1.25-1l.04-.15,1.2-.85,1.03-1c.1.4-.83,3-1.03,3Z"/>
  <path class="cls-12" d="M46.61,32.74c.82-1.02.74-2.09.19-2.74-.55-.64-1.57-.86-2.62-.19-.77.49-1.24,1.03-2.16,1.41-4.59,1.88-6.38-2.04-9.31-4.53-.07-.06-.14-.11-.21-.16-.04-.03-.08-.07-.13-.1-.78-.54-1.72-.75-2.6-.26-1.01.57-1.28,1.91-.48,2.8l3.05,3.05h.01c.17.58-.25.73-.68.41-.6-.45-2.16-2.01-2.76-2.69-.03-.03-.07-.08-.1-.11-.02-.03-.05-.07-.08-.1-.15-.18-.29-.39-.4-.6-.05-.08-.1-.17-.14-.25-.13-.33-.12-.77-.22-1-.04-.09-.14-.2-.27-.33-.41-.4-1.15-.9-1.45-.99-1.6-.48-3.16,1.05-1.95,2.52,1.11,1.33,2.71,2.45,3.86,3.77.26.43-.11.79-.54.54l-4.07-4s0,0,0,0h-.01c-.41-.5-.31-.99-.65-1.25-.12-.09-.29-.15-.55-.18-1.44-.15-2.36,1.15-1.54,2.39l4.16,4.1h0s.01.01.01.01c.1,1.17-.81.29-1.22-.08-.04-.04-.09-.08-.13-.12-1.09-.98-2.53-2.39-3.45-3.46-.09-.1-.14-.2-.18-.33-1.31-.27-2.26.9-1.64,2.11.64.69,1.3,1.37,1.97,2.04,2,2.01,4.06,3.97,6.07,5.97.31.31.62.48.87.87.03.04.06.07.08.12.67,1.14.25,2.99.38,4.28,4.35.79,8.9.78,13.25,0h.01c.12-1.42-.07-3.04,0-4.59,0-.15.02-.29.03-.44.01-.18.03-.36.06-.54.03-.2.06-.39.1-.58.03-.14.07-.29.11-.43.06-.19.12-.38.2-.57.06-.14.12-.27.19-.4.09-.17.19-.33.3-.49.05-.07.08-.15.13-.22,1.26-1.62,3.19-3.02,4.5-4.64ZM42.39,34.01c.03-.12,1.15-1.13,1.27-1.16.01,0,.02,0,.03,0,.31-.08.56.23.46.56-.03.09-1.1,1.04-1.2,1.09-.07.03-.17.04-.26.03-.09,0-.18-.03-.24-.09h.01c-.09-.09-.11-.31-.08-.43ZM25.96,38.24s-.09-.02-.13-.04c-.06-.03-1.03-1-1.08-1.06-.14-.23-.05-.54.19-.6.16-.04.26.02.38.1.1.06,1.03.98,1.08,1.06.2.33-.12.59-.44.55ZM27.18,35.49c-.17-.24-.23-.57.12-.67.35-.1,1.23.77,1.41,1.06.22.33.08.62-.2.66-.09.01-.2,0-.32-.05-.06-.03-.92-.89-1-1ZM29.07,40.31c-.22-.23-.86-.94-.8-1.34,0-.06.03-.11.07-.15.37-.22.49-.05.73.19.22.23.86.94.8,1.34,0,.06-.03.11-.07.15-.37.22-.49.05-.73-.19ZM30.22,44.6c-.05.28-.22.4-.39.4-.17,0-.33-.12-.37-.31-.04-.19-.04-1.29,0-1.49.02-.12.08-.2.19-.24.1-.03.18-.03.25-.02.5.12.39,1.26.32,1.66ZM29.92,33.67c-.18-.4.17-.68.58-.5.06.02.12.06.19.1.28.2,1.26,1.1.91,1.45h-.01c-.08.04-.14.07-.21.08-.18.04-.33-.03-.5-.17-.1-.08-.92-.9-.96-.97ZM30.43,37.24c-.05-.14-.04-.25,0-.35.08-.23.37-.3.66-.13.14.31,1.43,1.29.9,1.62-.09.04-.17.05-.25.05-.04,0-.07-.02-.1-.02-.04,0-.08-.01-.12-.03-.18-.08-.33-.24-.47-.43-.21-.26-.4-.56-.62-.72ZM32.32,43.19c-.08.02-.15.04-.23.05-.22.02-.39-.04-.42-.33-.03-.24-.03-1.45.06-1.58.04-.05.19-.15.27-.16.29-.04.42.2.45.45.03.26.05,1.45-.14,1.57ZM33.66,40.62c-.04-.22-.03-1.2.01-1.41.05-.22.27-.38.48-.35.07,0,.14.04.21.1h.01c.12.12.13,1.51.09,1.73-.02.1-.08.17-.15.21-.21.13-.59.01-.64-.29ZM34.96,45.05c-.06.24-.59.28-.73-.05-.01-.03-.02-.07-.03-.13-.07-.4-.06-1.36.05-1.53.18-.29.71-.19.71.06,0,.22.03.71.03,1.11,0,.24,0,.44-.03.54ZM34.43,36.54c-.09-.08-.81-1.01-.84-1.1-.03-.08-.05-.18-.05-.28,0-.1.02-.2.08-.27h0c.18-.17.46-.05.62.1.06.06.77.99.81,1.05.03.07.05.14.05.2.06.41-.33.61-.68.29ZM35.57,32.82c-.15.16-.31.15-.49.05-.12-.05-.95-.89-1.04-1.02-.2-.28-.16-.6.19-.67.05-.01.09-.02.14,0,.05,0,.09.02.13.06.26.35,1.55,1.08,1.08,1.58ZM36.53,37.7c.1-.34.71-.2.71,0v1.79c0,.24-.71.24-.71,0,0-.38-.08-1.53,0-1.79ZM37.24,43.28h0c-.05.3-.54.3-.71.06h0v-1.71h0c0-.25.71-.25.71-.01,0,.35.04.86.03,1.28,0,.14-.01.27-.03.38ZM37.79,35.33c-.19.45-.76.3-.77-.12,0-.19.28-1.36.4-1.47.16-.16.43-.14.59.02.08.08.08.18.08.28,0,0,0,0,0,0,0,.18-.22,1.13-.29,1.29ZM39.67,44.62c-.11.12-.23.18-.36.18-.13,0-.25-.06-.35-.18v-1.71c.11-.12.23-.18.36-.18.13,0,.25.06.35.18v1.71ZM39.68,40.48c-.07.18-.22.28-.37.29-.15.01-.29-.06-.34-.23-.06-.19.02-1.46.11-1.65.05-.13.23-.22.35-.22.11,0,.3.1.34.19.1.18-.01,1.41-.1,1.61ZM40.99,35.67c-.02.08-.76,1.19-.82,1.25-.18.16-.37.16-.5.07-.06-.05-.11-.12-.13-.21s-.02-.2.02-.33c.03-.11.62-1.02.72-1.13.17-.18.43-.35.66-.13.11.11.1.34.05.48Z"/>
  <path class="cls-12" d="M27.75,45.64s0,0,0,0c4.36.8,8.9.79,13.26,0h-.01c-4.35.77-8.9.78-13.25,0Z"/>
  <path class="cls-12" d="M26.42,40.37c-2.01-2-4.07-3.95-6.07-5.97,2,2.02,4.07,3.97,6.08,5.98.31.32.6.49.86.86-.26-.39-.56-.56-.87-.87Z"/>
  <path class="cls-12" d="M41.01,45.65h.01c.12-1.42-.08-3.05,0-4.6-.07,1.55.11,3.17,0,4.6Z"/>
  <path class="cls-12" d="M28.2,28.68c.03.07.09.16.14.25-.04-.08-.1-.16-.13-.24-.13-.33-.12-.77-.22-1-.04-.09-.14-.21-.28-.35.13.13.23.25.27.33.1.23.09.67.22,1Z"/>
  <path class="cls-12" d="M46.8,30c.55.65.63,1.72-.19,2.74-1.3,1.61-3.24,3.01-4.5,4.64-.05.07-.08.15-.13.22.05-.07.09-.14.14-.21,1.26-1.62,3.19-3.02,4.5-4.64.83-1.03.74-2.11.18-2.75Z"/>
  <path class="cls-12" d="M41.1,40.06c-.02.18-.04.36-.06.54.01-.18.03-.36.06-.54Z"/>
  <path class="cls-12" d="M41.31,39.06c-.04.14-.08.28-.11.43.03-.14.07-.29.11-.43Z"/>
  <path class="cls-12" d="M41.69,38.09c-.07.13-.13.27-.19.4.06-.14.12-.27.19-.4Z"/>
  <path class="cls-12" d="M23.58,29.18c-.41-.49-.3-.99-.66-1.25.35.27.25.76.65,1.24h.01Z"/>
  <polygon class="cls-12" points="20.82 30.14 20.82 30.14 24.99 34.24 24.99 34.24 20.82 30.14"/>
  <path class="cls-12" d="M23.65,34.05c-1.09-.99-2.52-2.4-3.44-3.45-.1-.11-.14-.2-.18-.34,0,0,0,0,0,0,.04.13.08.23.18.33.93,1.07,2.37,2.49,3.45,3.46Z"/>
  <path class="cls-12" d="M32.37,26.43s.08.06.13.1c-.04-.03-.08-.07-.13-.1Z"/>
  <path class="cls-12" d="M28.91,29.74s-.06-.07-.09-.1c-.03-.03-.06-.08-.09-.12.03.03.05.08.08.1.03.03.07.07.1.11Z"/>
  <path class="cls-4" d="M29.92,46.8c-1.25-.14-2.5-.37-3.68-.79v8.96c1.22.65,2.81.83,4.17.97,2.5.25,5.5.25,7.99,0,1.34-.14,2.93-.34,4.11-.97v-8.96c-1.69.58-3.52.81-5.31.92-2.33.15-4.95.11-7.28-.14Z"/>
  <path class="cls-4" d="M30.42,55.94c-1.37-.14-2.96-.32-4.17-.97,1.22.66,2.81.84,4.17.97Z"/>
  <path class="cls-6" d="M24.75,25.67h-.01c.03-.11-.01-.12-.06-.18-.23-.26-.71-.57-.97-.82-.14-.14-.26-.31-.39-.47-.08-.1-.18-.19-.29-.27-.02-.01-.03-.03-.05-.04.05.83.27,1.7.64,2.45l1.13-.67Z"/>
  <path class="cls-6" d="M23.03,23.94c.11.07.2.16.29.27-.09-.1-.18-.19-.29-.27Z"/>
  <path class="cls-6" d="M23.61,26.35h0c-.37-.75-.59-1.62-.64-2.45,0,0,0,0-.01,0,.05.84.27,1.71.65,2.46Z"/>
  <path class="cls-7" d="M28.46,26.46c-.03-.33.96-.91.92-1.03l-1.71-1.61c.05.53.17,1.05.32,1.57.03.11.34,1.15.46,1.08Z"/>
  <path class="cls-7" d="M28,25.38c.03.11.34,1.16.46,1.08-.12.08-.43-.97-.46-1.08Z"/>
  <path class="cls-7" d="M20.04,28.11s.05-.02.08-.05c.26-.29.44-.75.92-.82h-.01l-.11-.22-1.59-1.48c.05.89.34,1.73.64,2.56.02.02.04.01.06,0Z"/>
  <path class="cls-7" d="M19.96,28.11s.04.02.07,0c-.03,0-.05,0-.06,0-.3-.82-.6-1.67-.64-2.56h-.01c.04.88.34,1.73.65,2.56Z"/>
  <path class="cls-8" d="M28.71,35.89c-.18-.29-1.06-1.16-1.41-1.06-.33.1-.29.43-.12.67.08.11.94.97,1,1,.12.05.23.06.32.05.28-.04.41-.33.2-.66Z"/>
  <path class="cls-8" d="M28.5,36.55c-.09.01-.2,0-.32-.05.12.05.23.07.32.05Z"/>
  <path class="cls-11" d="M29.93,33.67c.02.06.85.89.96.97.17.13.31.21.49.17.06-.01.12-.04.2-.08h.01c.34-.34-.63-1.24-.91-1.45-.06-.04-.12-.08-.17-.1-.4-.16-.75.12-.57.5Z"/>
  <path class="cls-11" d="M31.38,34.8c.06-.01.13-.04.21-.08h-.01c-.07.04-.14.07-.2.08Z"/>
  <path class="cls-11" d="M31.59,34.72h.01c.34-.35-.63-1.25-.91-1.45-.06-.05-.12-.08-.19-.1.06.02.12.06.17.1.28.22,1.26,1.11.91,1.45Z"/>
  <path class="cls-5" d="M34.49,31.23s-.09-.06-.13-.06c-.04,0-.09,0-.14,0-.35.06-.39.39-.19.67.1.13.92.96,1.04,1.02.18.1.34.1.49-.05.47-.51-.82-1.23-1.08-1.58Z"/>
  <path class="cls-5" d="M35.07,32.87c.18.1.34.11.49-.05-.15.15-.31.15-.49.05Z"/>
  <path class="cls-5" d="M34.36,31.17s.09.03.13.06c-.04-.04-.08-.06-.13-.06Z"/>
  <path class="cls-16" d="M29.8,40.51s.06-.09.07-.15c.06-.39-.59-1.11-.8-1.34-.24-.25-.37-.41-.73-.19-.04.04-.06.09-.07.15-.06.39.59,1.11.8,1.34.24.25.37.41.73.19Z"/>
  <path class="cls-16" d="M29.07,40.31c-.22-.23-.86-.94-.8-1.34-.06.4.59,1.11.8,1.34Z"/>
  <path class="cls-16" d="M29.07,39.02c.22.23.86.94.8,1.34.06-.4-.59-1.11-.8-1.34Z"/>
  <path class="cls-16" d="M42.4,34.01c-.03.11,0,.34.08.43h-.01c.05.05.14.08.23.09.09,0,.18,0,.25-.03.11-.04,1.18-1,1.2-1.09.1-.31-.13-.63-.45-.56,0,0-.01,0-.02,0-.12.03-1.24,1.05-1.27,1.16Z"/>
  <path class="cls-16" d="M42.45,34.44c.06.06.14.08.24.09-.09,0-.17-.03-.23-.09h-.01Z"/>
  <path class="cls-16" d="M42.47,34.44c-.08-.09-.11-.32-.08-.43.03-.11,1.15-1.13,1.27-1.16,0,0,.01,0,.02,0-.01,0-.02,0-.03,0-.12.03-1.24,1.04-1.27,1.16-.03.12-.01.34.08.43h.01Z"/>
  <path class="cls-16" d="M31.52,38.38s.08.02.12.03c.03,0,.07.02.1.02.08,0,.16-.01.25-.05.52-.33-.76-1.31-.9-1.62-.29-.17-.57-.09-.66.13-.03.09-.04.2,0,.35.21.16.41.46.62.72.15.18.3.35.47.43Z"/>
  <path class="cls-16" d="M31.08,36.76c-.29-.18-.57-.1-.66.13.09-.22.37-.29.66-.13Z"/>
  <path class="cls-16" d="M30.43,37.24c.21.16.41.46.62.72-.21-.26-.4-.56-.62-.72Z"/>
  <path class="cls-16" d="M31.99,38.39c-.09.04-.17.05-.25.05.08,0,.16-.01.25-.05Z"/>
  <path class="cls-16" d="M31.64,38.41s-.08-.01-.12-.03c.04.02.08.02.12.03Z"/>
  <path class="cls-5" d="M40.28,35.31c-.1.11-.69,1.03-.72,1.13-.04.13-.04.24-.02.33.02.09.07.17.13.21.13.09.32.09.5-.07.05-.05.8-1.17.82-1.25.04-.14.05-.38-.05-.48-.23-.23-.48-.05-.66.13Z"/>
  <path class="cls-5" d="M39.56,36.44c.03-.1.62-1.02.72-1.13-.1.11-.69,1.02-.72,1.13Z"/>
  <path class="cls-5" d="M39.68,36.98c-.06-.05-.11-.12-.13-.21.02.09.07.17.13.21Z"/>
  <path class="cls-10" d="M34.25,35c-.16-.15-.44-.27-.62-.09h0c-.06.05-.08.14-.08.24,0,.1.02.2.05.27.04.09.75,1.02.84,1.1.34.32.73.12.68-.28,0-.06-.03-.12-.05-.19-.02-.06-.73-.99-.81-1.05Z"/>
  <path class="cls-10" d="M33.62,34.89c-.06.07-.08.16-.08.27,0-.1.03-.2.08-.25h0Z"/>
  <path class="cls-10" d="M35.05,36.04c-.03-.06-.74-.99-.81-1.05-.16-.15-.44-.27-.62-.09h0c.18-.17.46-.05.62.1.08.06.79.99.81,1.05.03.07.05.13.05.19,0-.06-.02-.13-.05-.2Z"/>
  <path class="cls-14" d="M26.39,37.7c-.05-.09-.98-1-1.08-1.06-.13-.08-.23-.14-.38-.1-.24.06-.32.38-.19.6.04.06,1.01,1.03,1.08,1.06.04.02.09.03.13.04.31.04.62-.23.44-.55Z"/>
  <path class="cls-14" d="M26.39,37.7c-.04-.09-.98-1-1.08-1.06.1.06,1.02.98,1.08,1.06Z"/>
  <path class="cls-14" d="M25.96,38.24s-.09-.02-.13-.04c.04.02.09.03.13.04Z"/>
  <path class="cls-3" d="M33.69,39.21c-.04.2-.05,1.19-.01,1.41.06.29.42.41.63.29.07-.04.12-.11.14-.21.04-.23.03-1.61-.09-1.73h-.01c-.06-.06-.13-.09-.19-.1-.21-.03-.42.13-.47.35Z"/>
  <path class="cls-3" d="M34.31,40.91c-.21.12-.58,0-.63-.29-.04-.22-.03-1.2.01-1.41.05-.21.27-.37.47-.35-.21-.03-.43.13-.48.35-.04.2-.05,1.19-.01,1.41.06.3.43.42.64.29Z"/>
  <path class="cls-3" d="M32.01,41.17c-.06.01-.23.11-.27.16-.09.13-.1,1.34-.06,1.58.04.28.21.35.42.33.07,0,.15-.02.23-.05.19-.12.17-1.31.14-1.57-.03-.25-.16-.49-.45-.45Z"/>
  <path class="cls-3" d="M31.68,42.91c.03.28.2.35.42.33-.21.02-.38-.04-.42-.33Z"/>
  <path class="cls-15" d="M34.25,43.34c-.1.18-.12,1.14-.05,1.53,0,.06.02.1.03.13.14.33.67.29.73.05.03-.1.04-.3.03-.54,0-.39-.03-.88-.03-1.11,0-.26-.53-.35-.71-.06Z"/>
  <path class="cls-15" d="M34.22,45s-.02-.07-.03-.13c0,.06.02.1.03.13Z"/>
  <path class="cls-15" d="M34.96,43.41c0,.23.03.71.03,1.11,0-.4-.03-.88-.03-1.11Z"/>
  <path class="cls-5" d="M39.77,38.87c-.04-.1-.24-.19-.34-.19-.13.01-.3.1-.35.22-.09.18-.16,1.45-.11,1.65.05.17.19.25.34.23.14-.01.29-.11.37-.29.08-.2.18-1.43.1-1.61Z"/>
  <path class="cls-5" d="M39.31,40.77c.15-.01.3-.11.37-.29-.08.18-.22.28-.37.29Z"/>
  <path class="cls-13" d="M29.9,42.94c-.07-.02-.15-.01-.25.02-.12.03-.17.13-.19.24-.03.2-.04,1.29,0,1.49.04.19.2.31.37.31.17,0,.34-.12.39-.4.08-.4.18-1.54-.32-1.66Z"/>
  <path class="cls-13" d="M29.65,42.96c-.12.03-.17.12-.19.24.02-.11.08-.2.19-.24Z"/>
  <path class="cls-13" d="M29.9,42.94c.49.12.39,1.26.32,1.66.08-.41.18-1.54-.32-1.66Z"/>
  <path class="cls-13" d="M29.46,44.69c.04.19.2.31.37.31-.17,0-.33-.12-.37-.31Z"/>
  <path class="cls-9" d="M37.24,39.48v-1.79c0-.2-.61-.34-.71,0-.08.26,0,1.41,0,1.79,0,.24.71.24.71,0Z"/>
  <path class="cls-11" d="M38.01,33.76c-.16-.16-.43-.18-.59-.02-.12.12-.4,1.28-.4,1.47.02.42.58.56.77.12.06-.15.28-1.1.29-1.29,0,0,0,0,0,0,0-.1,0-.2-.08-.28Z"/>
  <path class="cls-11" d="M38.08,34.04c-.01.19-.23,1.14-.29,1.29.08-.16.29-1.11.29-1.29Z"/>
  <path class="cls-14" d="M36.53,41.63v1.7c.17.25.67.24.71-.08h0c.02-.09.02-.22.03-.36,0-.41-.03-.92-.03-1.27,0-.24-.71-.24-.71,0Z"/>
  <path class="cls-14" d="M37.24,43.28c.02-.11.02-.24.03-.38,0,.14-.01.26-.03.37h0Z"/>
  <path class="cls-14" d="M36.53,43.33h0c.17.25.66.25.71-.06h0c-.04.3-.54.31-.71.06Z"/>
  <path class="cls-14" d="M38.96,42.91v1.71c.11.12.23.18.35.18.12,0,.25-.06.36-.18v-1.71c-.11-.12-.23-.18-.35-.18-.12,0-.25.06-.36.18Z"/>
  <path class="cls-14" d="M39.31,44.8c-.12,0-.25-.06-.35-.18.1.12.23.18.35.18Z"/>
  <path class="cls-14" d="M39.31,42.74c.12,0,.25.06.35.18-.1-.12-.23-.18-.35-.18Z"/>
</svg>