<?xml version="1.0" encoding="UTF-8"?>
<svg id="Layer_1" data-name="Layer 1" xmlns="http://www.w3.org/2000/svg" viewBox="0 0 64 64">
  <defs>
    <style>
      .cls-1 {
        fill: none;
      }

      .cls-2 {
        fill: #41c279;
      }

      .cls-3 {
        fill: #020202;
      }

      .cls-4 {
        fill: #c5c6c8;
      }
    </style>
  </defs>
  <path class="cls-1" d="M33.16,34.56c-.28.02-.55.04-.83.03.28,0,.55,0,.83-.03Z"/>
  <path class="cls-1" d="M27.18,34.12c-3.82-2.81-5.17-7.62-3.36-11.8.65-1.49,1.52-2.67,2.74-3.89-3.57,1.68-6.26,4.78-8.17,8.02.83,3.69,5.29,7.03,8.79,7.67Z"/>
  <path class="cls-1" d="M36.8,26.42c.02-.11.01-.21.02-.31,0,.1,0,.2-.02.3h0Z"/>
  <path class="cls-1" d="M25.83,31.39c-1.17-1.56-1.74-3.49-1.71-5.4-.02,1.91.54,3.83,1.71,5.4Z"/>
  <path class="cls-1" d="M28.29,26.79c.65,2.08,2.27,3.4,4.45,3.32,2.04-.08,3.75-1.52,4.06-3.68h0c-.31,2.15-2.02,3.59-4.06,3.67-2.18.09-3.79-1.24-4.45-3.32-.08-.25-.13-.5-.16-.74.02.24.08.49.16.75Z"/>
  <path class="cls-1" d="M38.96,20.01c.27.3.52.62.75.97-.23-.35-.48-.67-.75-.97Z"/>
  <path class="cls-1" d="M3.69,51.29c-.03,1.09.02,2.11.17,3.13h56.37v-.02s.08-2.91.08-2.91l-56.62-.2Z"/>
  <polygon class="cls-1" points="52.16 41.85 60.23 50.5 60.23 50.5 52.16 41.84 13.25 42.11 4.48 50.29 4.49 50.29 13.25 42.12 52.16 41.85"/>
  <path class="cls-1" d="M37.12,34.4c3.68-.68,6.93-2.59,9.08-5.45h.01c.57-.77,1.1-1.48,1.1-2.3.02-2.04-5.59-7.9-8.43-8.2,1.17,1.13,2.11,2.3,2.54,3.83,2.04,4.32-.4,9.87-4.3,12.12Z"/>
  <polygon class="cls-3" points="61.11 55.42 61.12 55.41 61.11 55.41 61.11 55.42"/>
  <path class="cls-3" d="M61.31,50.23l-8.06-8.62.13-32.3c-.19-.28-.5-.73-.86-.73l-40.21.48h-.06v.06l-.3,32.92-9.04,8.28c-.38,1.21-.17,2.31-.13,3.59-.03.47.21,1.5.9,1.5h57.43c.26-1.87.2-3.48.2-5.18ZM47.31,26.65c0,.82-.53,1.53-1.1,2.29h-.01c-2.15,2.87-5.4,4.78-9.08,5.46,3.9-2.25,6.34-7.8,4.3-12.12-.43-1.53-1.37-2.7-2.54-3.83,2.84.3,8.45,6.16,8.43,8.2ZM32.91,17.23c2.34.03,4.51,1.02,6.05,2.78.27.3.52.62.75.97,2.42,3.74,1.61,8.8-1.89,11.68-1.37,1.13-3,1.76-4.66,1.9-.28.02-.55.04-.83.03-.83,0-1.65-.13-2.44-.37-1.58-.48-3.01-1.44-4.06-2.83-1.18-1.57-1.74-3.49-1.71-5.4.02-1.91.63-3.81,1.8-5.33,1.74-2.26,4.24-3.46,6.99-3.43ZM26.56,18.43c-1.22,1.22-2.09,2.4-2.74,3.89-1.81,4.18-.46,8.99,3.36,11.8,0,0,0,0,.01,0h-.01s0,0,0,0c-3.5-.64-7.96-3.98-8.79-7.67,1.91-3.24,4.6-6.34,8.17-8.02ZM4.48,50.29l8.77-8.18,38.91-.27,8.07,8.66h.01s0,0,0,0l-55.75-.2h.01s-.01,0-.01,0ZM60.23,54.42H3.86c-.15-1.02-.2-2.04-.17-3.13l56.62.2-.09,2.91v.02Z"/>
  <polygon class="cls-3" points="60.24 50.5 60.23 50.5 60.23 50.5 60.24 50.5"/>
  <polygon class="cls-3" points="60.23 50.5 60.23 50.5 60.23 50.5 60.23 50.5"/>
  <path class="cls-3" d="M27.19,34.12s0,0-.01,0c0,0,0,0,0,0h.01Z"/>
  <polygon class="cls-4" points="52.16 41.85 13.25 42.12 4.49 50.29 60.23 50.5 52.16 41.85"/>
  <polygon class="cls-4" points="60.23 50.5 60.23 50.5 4.49 50.29 4.48 50.3 60.23 50.5"/>
  <path class="cls-2" d="M25.92,20.66c-1.17,1.52-1.78,3.42-1.8,5.33-.02,1.91.54,3.84,1.71,5.4,1.05,1.39,2.49,2.35,4.06,2.83.79.24,1.61.37,2.44.37.28,0,.55,0,.83-.03,1.66-.15,3.29-.77,4.66-1.9,3.5-2.88,4.3-7.94,1.89-11.68-.23-.35-.48-.67-.75-.97-1.55-1.76-3.75-2.75-6.05-2.78-2.7-.03-5.24,1.17-6.99,3.43ZM28.56,23.85c.88-2.01,3.15-3.18,5.25-2.45,2.01.7,3.21,2.48,3.01,4.71,0,.11,0,.21-.02.31h0c-.31,2.17-2.02,3.61-4.06,3.69-2.18.08-3.8-1.24-4.45-3.32-.08-.26-.13-.51-.16-.75-.07-.73.09-1.41.43-2.19Z"/>
  <path class="cls-2" d="M32.33,34.59c-.83,0-1.65-.13-2.44-.37.79.24,1.61.37,2.44.37Z"/>
  <path class="cls-2" d="M24.12,25.99c.02-1.91.63-3.81,1.8-5.33-1.17,1.52-1.78,3.42-1.8,5.33Z"/>
  <path class="cls-2" d="M37.82,32.66c3.5-2.88,4.31-7.94,1.89-11.68,2.41,3.74,1.61,8.8-1.89,11.68Z"/>
  <path class="cls-2" d="M32.91,17.23c-2.75-.03-5.25,1.17-6.99,3.43,1.75-2.26,4.29-3.46,6.99-3.43Z"/>
  <path class="cls-2" d="M38.96,20.01c-1.54-1.75-3.71-2.75-6.05-2.78,2.3.03,4.5,1.02,6.05,2.78Z"/>
  <path class="cls-3" d="M32.74,30.1c2.04-.08,3.75-1.52,4.06-3.68h0c.02-.11.01-.21.02-.31.19-2.21-.99-3.99-3.01-4.7-2.12-.74-4.36.43-5.25,2.45-.34.77-.5,1.45-.43,2.18.02.24.08.49.16.74.66,2.08,2.27,3.41,4.45,3.32Z"/>
  <path class="cls-3" d="M33.81,21.41c2.02.71,3.2,2.48,3.01,4.7.2-2.23-1-4.01-3.01-4.71-2.1-.73-4.37.44-5.25,2.45-.34.77-.5,1.46-.43,2.19-.07-.73.09-1.41.43-2.18.89-2.02,3.13-3.19,5.25-2.45Z"/>
</svg>