<?xml version="1.0" encoding="UTF-8"?>
<svg xmlns="http://www.w3.org/2000/svg" viewBox="0 0 64 64">
  <defs>
    <style>
      .cls-1 {
        fill: none;
      }

      .cls-2 {
        fill: #0c0308;
      }

      .cls-3 {
        fill: #c5c6c7;
      }

      .cls-4 {
        fill: #080205;
      }

      .cls-5 {
        fill: #f6f6f6;
      }

      .cls-6 {
        fill: #f4f4f4;
      }

      .cls-7 {
        fill: #0a0306;
      }

      .cls-8 {
        fill: #040102;
      }

      .cls-9 {
        fill: #060204;
      }

      .cls-10 {
        fill: #090205;
      }

      .cls-11 {
        fill: #fff;
      }

      .cls-12 {
        fill: #fd449b;
      }

      .cls-13 {
        fill: #0b0307;
      }

      .cls-14 {
        fill: #050103;
      }

      .cls-15 {
        fill: #0d0308;
      }

      .cls-16 {
        fill: #070204;
      }
    </style>
  </defs>
  <rect width="64" height="64"/>
  <g id="Layer_1" data-name="Layer 1">
    <g>
      <path class="cls-1" d="M29.7,43.77c.1-.03.18-.03.25-.02-.07-.02-.15-.01-.25.02Z"/>
      <path class="cls-1" d="M29.87,45.8c.17,0,.34-.12.39-.4-.05.28-.22.4-.39.4Z"/>
      <path class="cls-1" d="M34.19,32.03c-.35.06-.39.39-.19.66-.19-.28-.16-.6.19-.66Z"/>
      <path class="cls-1" d="M34.4,37.36c-.08-.08-.78-1.01-.83-1.09-.03-.07-.05-.17-.05-.27,0,.1.02.21.05.28.03.09.74,1.02.83,1.09.34.32.73.12.67-.29.05.41-.33.6-.67.28Z"/>
      <path class="cls-1" d="M29.51,44c-.04.2-.04,1.3,0,1.49-.04-.2-.03-1.29,0-1.49Z"/>
      <path class="cls-1" d="M34.19,32.03c.05-.01.1-.01.14,0-.04,0-.09,0-.14,0Z"/>
      <path class="cls-1" d="M37.16,42.44c0-.24-.7-.24-.7,0h0c0-.23.7-.23.7.01,0,.34.03.85.03,1.26,0-.41-.03-.93-.03-1.27Z"/>
      <path class="cls-1" d="M36.94,36.05c.01.42.57.57.76.12-.19.44-.74.3-.76-.12Z"/>
      <path class="cls-1" d="M28.34,39.8c0-.06.03-.11.07-.15-.04.04-.06.09-.07.15Z"/>
      <path class="cls-1" d="M29.92,41.17c0,.06-.03.11-.07.15.04-.04.06-.09.07-.15Z"/>
      <path class="cls-1" d="M34,32.69c.1.13.91.96,1.03,1.02-.12-.06-.93-.89-1.03-1.02Z"/>
      <path class="cls-1" d="M31.99,39.21c.52-.33-.75-1.31-.89-1.62.14.31,1.4,1.29.89,1.62Z"/>
      <path class="cls-1" d="M31.75,42.15c-.1.13-.1,1.34-.06,1.58-.03-.24-.02-1.45.06-1.58Z"/>
      <path class="cls-1" d="M30.46,37.72c-.04.09-.05.2,0,.34-.05-.14-.04-.25,0-.34Z"/>
      <path class="cls-1" d="M31.53,39.21c-.17-.08-.32-.24-.46-.43.14.18.29.35.46.43Z"/>
      <path class="cls-1" d="M32.32,44c-.08.02-.15.04-.22.05.07,0,.15-.02.22-.05Z"/>
      <path class="cls-1" d="M39.55,45.43c-.11.12-.23.18-.35.18.12,0,.24-.06.35-.18Z"/>
      <path class="cls-1" d="M34.95,45.32c0,.24,0,.44-.03.54.03-.1.03-.3.03-.54Z"/>
      <path class="cls-1" d="M31.4,35.64c-.18.04-.31-.04-.49-.17-.11-.08-.92-.9-.94-.96-.17-.38.16-.66.56-.5-.4-.18-.74.1-.57.5.03.06.85.89.94.96.18.14.32.21.5.17Z"/>
      <path class="cls-1" d="M34.22,44.15c-.11.17-.12,1.13-.05,1.52-.06-.39-.05-1.34.05-1.52Z"/>
      <path class="cls-1" d="M34.33,39.79c-.06-.06-.13-.09-.2-.1.07.01.13.04.19.1h.01Z"/>
      <path class="cls-1" d="M31.75,39.26s-.07-.02-.1-.02c.03,0,.06.02.1.02Z"/>
      <path class="cls-1" d="M34.42,41.52c-.02.1-.07.17-.14.21.07-.04.13-.11.15-.21.04-.23.03-1.61-.08-1.73h-.01c.12.12.13,1.5.08,1.73Z"/>
      <path class="cls-1" d="M31.75,42.15c.04-.05.2-.15.26-.16-.07.01-.22.11-.26.16Z"/>
      <path class="cls-1" d="M38.96,39.71c-.08.18-.17,1.45-.11,1.64-.05-.19.02-1.46.11-1.64Z"/>
      <path class="cls-1" d="M38.96,39.71c.05-.12.22-.2.35-.21-.13,0-.3.09-.35.21Z"/>
      <path class="cls-1" d="M26.07,39.07c.31.05.62-.21.43-.54.18.32-.12.59-.43.54Z"/>
      <path class="cls-1" d="M38.86,41.35c.05.17.19.25.33.23-.14.01-.28-.06-.33-.23Z"/>
      <path class="cls-1" d="M39.56,41.3c.08-.2.19-1.43.1-1.61.08.18-.02,1.4-.1,1.61Z"/>
      <path class="cls-1" d="M25.07,37.37c-.24.06-.33.38-.19.6-.13-.23-.04-.54.19-.6Z"/>
      <path class="cls-1" d="M25.07,37.37c.15-.04.24.02.37.1-.12-.08-.21-.14-.37-.1Z"/>
      <path class="cls-1" d="M43.51,33.69c.31-.07.54.25.44.56-.02.09-1.08,1.04-1.18,1.08-.07.03-.16.04-.24.03.09,0,.18,0,.25-.03.11-.04,1.15-1,1.18-1.08.09-.32-.14-.63-.45-.56Z"/>
      <path class="cls-1" d="M28.57,37.38c.28-.04.42-.32.2-.65.21.33.07.62-.2.65Z"/>
      <path class="cls-1" d="M27.38,35.66c-.34.1-.29.43-.12.66-.17-.24-.21-.57.12-.66Z"/>
      <path class="cls-1" d="M38.85,43.72c.11-.12.23-.18.35-.18-.12,0-.24.06-.35.18Z"/>
      <path class="cls-1" d="M28.77,36.72c-.18-.29-1.04-1.16-1.39-1.06.34-.1,1.21.77,1.39,1.06Z"/>
      <path class="cls-12" d="M43.99,30.65c-.76.49-1.22,1.03-2.13,1.4-4.52,1.88-6.27-2.04-9.16-4.51-.82-.72-1.89-1.08-2.89-.51-.99.57-1.26,1.91-.48,2.79l3.01,3.06c.17.57-.24.72-.67.4-.61-.47-2.27-2.15-2.8-2.78-.22-.25-.49-.64-.6-.95-.13-.33-.12-.77-.21-1-.15-.35-1.3-1.21-1.7-1.33-1.58-.48-3.11,1.05-1.91,2.51,1.09,1.33,2.67,2.44,3.8,3.76.25.43-.11.78-.53.54l-4-3.99c-.54-.65-.17-1.32-1.2-1.43-1.42-.15-2.32,1.15-1.51,2.38l4.1,4.1c.1,1.17-.79.29-1.2-.08-1.08-.99-2.57-2.47-3.51-3.56-.1-.11-.14-.2-.18-.34-1.29-.28-2.23.89-1.62,2.1,2.54,2.74,5.28,5.33,7.91,7.99.34.35.66.5.93.98.66,1.14.24,2.99.37,4.28,4.28.79,8.76.78,13.04,0h.01c.21-2.65-.63-5.98,1.09-8.23,1.24-1.62,3.14-3.01,4.42-4.62,1.62-2.04-.32-4.28-2.4-2.94ZM26.07,39.07s-.09-.02-.13-.04c-.06-.03-1.02-1-1.06-1.06-.14-.23-.05-.54.19-.6.16-.04.25.02.37.1.1.06,1.02.98,1.06,1.06.19.33-.11.59-.43.54ZM27.93,37.02c-.05-.05-.11-.11-.17-.17-.11-.12-.23-.23-.32-.33-.09-.1-.16-.17-.18-.2-.17-.24-.22-.57.12-.66.35-.1,1.21.77,1.39,1.06.22.33.08.62-.2.65-.09.01-.2,0-.32-.05-.02-.01-.16-.14-.32-.3ZM29.13,41.13c-.21-.23-.85-.94-.79-1.33,0-.06.03-.11.07-.15.36-.21.49-.05.72.19.21.23.85.94.79,1.33,0,.06-.03.11-.07.15-.36.21-.49.05-.72-.19ZM30.26,45.41c-.05.28-.22.4-.39.4-.17,0-.33-.12-.37-.31-.04-.19-.04-1.29,0-1.49.02-.12.07-.2.19-.24.1-.03.18-.03.25-.02.49.12.39,1.25.31,1.66ZM29.96,34.5c-.18-.39.17-.67.57-.5.06.02.12.06.18.1.28.2,1.24,1.09.9,1.45h-.01c-.07.04-.14.07-.2.08-.18.04-.32-.03-.5-.17-.1-.08-.91-.9-.94-.96ZM30.46,38.06c-.05-.14-.04-.25,0-.34.08-.23.36-.3.65-.13.14.31,1.41,1.29.89,1.62-.09.04-.17.05-.25.05-.03,0-.07-.02-.1-.02-.04,0-.08-.01-.12-.03-.17-.08-.32-.24-.46-.43-.21-.26-.4-.56-.61-.72ZM32.32,44c-.08.02-.15.04-.22.05-.21.02-.38-.04-.41-.32-.03-.24-.03-1.45.06-1.58.04-.05.19-.15.26-.16.29-.04.41.2.44.45.03.26.05,1.45-.14,1.57ZM33.64,41.44c-.04-.21-.03-1.2.01-1.4.05-.22.27-.38.48-.35.07,0,.14.04.2.1h.01c.12.12.13,1.5.08,1.73-.02.1-.08.17-.15.21-.21.13-.58.01-.63-.29ZM34.91,45.86c-.06.24-.58.28-.72-.05-.01-.03-.02-.07-.03-.13-.06-.39-.06-1.35.05-1.52.18-.29.7-.19.7.06,0,.22.03.71.03,1.1,0,.24,0,.44-.03.54ZM34.4,37.37c-.08-.08-.79-1.01-.83-1.09-.03-.08-.05-.18-.05-.28,0-.1.02-.2.08-.26h0c.18-.17.45-.05.61.1.06.06.76.99.79,1.05.03.07.05.14.05.2.06.41-.32.61-.67.29ZM35.52,33.66c-.15.16-.31.15-.49.05-.12-.05-.93-.89-1.03-1.02-.2-.28-.16-.6.19-.66.05-.01.09-.02.14,0,.05,0,.09.02.13.06.25.35,1.52,1.07,1.06,1.58ZM36.46,38.52c.1-.34.7-.2.7,0v1.78c0,.24-.7.24-.7,0,0-.38-.07-1.52,0-1.78ZM37.16,44.09h0c-.05.3-.53.3-.7.06h0v-1.7h0c0-.25.7-.25.7-.01,0,.35.04.86.03,1.27,0,.14-.01.27-.03.38ZM37.71,36.17c-.19.45-.75.3-.76-.12,0-.19.28-1.35.39-1.47.16-.16.42-.14.58.02.07.08.07.18.07.28,0,.17-.21,1.13-.29,1.29ZM39.55,45.43c-.11.12-.23.18-.35.18-.12,0-.25-.06-.35-.18v-1.7c.11-.12.23-.18.35-.18.12,0,.25.06.35.18v1.7ZM39.56,41.3c-.07.18-.22.28-.36.29-.14.01-.28-.06-.33-.23-.06-.19.02-1.46.11-1.64.05-.13.22-.21.35-.21.11,0,.3.1.34.19.1.18-.01,1.4-.1,1.61ZM40.85,36.5c-.02.07-.75,1.19-.8,1.24-.35.31-.75.03-.6-.47.03-.11.61-1.02.71-1.13.17-.18.42-.35.65-.13.11.11.1.34.05.48ZM43.96,34.25c-.03.09-1.08,1.04-1.18,1.08-.07.03-.16.04-.25.03-.09,0-.18-.03-.23-.09h.01c-.08-.09-.11-.31-.07-.43.03-.12,1.13-1.13,1.25-1.16.01,0,.03,0,.04,0,.3-.08.54.24.45.56Z"/>
      <path class="cls-3" d="M29.96,47.59c-1.23-.14-2.45-.36-3.62-.78v8.93c1.2.65,2.76.84,4.1.96,2.45.25,5.4.25,7.86,0,1.32-.14,2.88-.34,4.04-.96v-8.93c-1.66.58-3.46.8-5.23.92-2.3.15-4.87.11-7.16-.14Z"/>
      <path class="cls-5" d="M24.88,26.54h-.01c.03-.11-.01-.12-.06-.18-.22-.26-.7-.57-.95-.81-.23-.24-.41-.6-.73-.78.05.84.26,1.7.63,2.46l1.12-.68Z"/>
      <path class="cls-6" d="M28.53,27.32c-.03-.33.94-.91.91-1.03l-1.68-1.61c.05.53.17,1.05.32,1.57.03.11.34,1.16.45,1.07Z"/>
      <path class="cls-6" d="M20.32,28.92c.25-.29.43-.75.91-.81h-.01l-.11-.21-1.58-1.49c.04.89.34,1.74.63,2.56.03.03.1.01.15-.04Z"/>
      <path class="cls-7" d="M28.77,36.72c-.18-.29-1.05-1.16-1.39-1.06-.33.1-.29.43-.12.66.02.03.09.1.18.2.09.1.21.21.32.33.06.06.11.12.17.17.16.16.3.29.32.3.12.05.23.06.32.05.27-.04.41-.32.2-.65Z"/>
      <path class="cls-7" d="M28.57,37.38c-.09.01-.2,0-.32-.05.12.05.23.07.32.05Z"/>
      <path class="cls-7" d="M27.76,36.85c-.11-.12-.23-.23-.32-.33.09.1.21.21.32.33Z"/>
      <path class="cls-7" d="M28.25,37.32s-.16-.14-.32-.3c.16.16.3.29.32.3Z"/>
      <path class="cls-10" d="M29.97,34.5c.02.06.84.89.94.96.17.13.31.21.49.17.06-.01.12-.04.19-.08h.01c.34-.34-.62-1.23-.9-1.45-.06-.04-.12-.08-.17-.1-.4-.16-.73.12-.56.5Z"/>
      <path class="cls-10" d="M31.4,35.64c.06-.01.13-.04.2-.08h-.01c-.07.04-.13.07-.19.08Z"/>
      <path class="cls-10" d="M31.6,35.55h.01c.34-.35-.62-1.24-.9-1.45-.06-.05-.12-.08-.18-.1.06.02.11.06.17.1.28.21,1.24,1.1.9,1.45Z"/>
      <path class="cls-4" d="M34.46,32.08s-.08-.06-.13-.06c-.04,0-.09,0-.14,0-.35.06-.38.39-.19.66.1.13.91.95,1.03,1.02.18.1.34.1.49-.05.47-.5-.8-1.22-1.06-1.58Z"/>
      <path class="cls-4" d="M34.33,32.02s.09.03.13.06c-.04-.04-.08-.06-.13-.06Z"/>
      <path class="cls-4" d="M35.03,33.71c.18.1.34.11.49-.05-.15.15-.31.15-.49.05Z"/>
      <path class="cls-16" d="M29.85,41.32s.06-.09.07-.15c.05-.39-.58-1.11-.79-1.33-.23-.25-.36-.41-.72-.19-.04.04-.06.09-.07.15-.05.39.58,1.11.79,1.33.23.25.36.41.72.19Z"/>
      <path class="cls-16" d="M29.13,39.84c.21.22.84.94.79,1.33.06-.4-.58-1.11-.79-1.33Z"/>
      <path class="cls-16" d="M29.13,41.13c-.21-.22-.84-.94-.79-1.33-.06.4.58,1.11.79,1.33Z"/>
      <path class="cls-16" d="M43.95,34.25c.1-.31-.13-.62-.44-.56-.01,0-.02,0-.03,0-.12.03-1.22,1.05-1.25,1.16-.03.11,0,.34.07.43h-.01c.05.05.14.08.22.09.09,0,.18,0,.24-.03.11-.04,1.16-1,1.18-1.08Z"/>
      <path class="cls-16" d="M42.23,34.85c.03-.11,1.13-1.13,1.25-1.16.01,0,.02,0,.03,0-.01,0-.03,0-.04,0-.12.03-1.22,1.04-1.25,1.16-.03.12-.01.34.07.43h.01c-.07-.09-.11-.32-.07-.43Z"/>
      <path class="cls-16" d="M42.29,35.28c.05.06.14.08.23.09-.09,0-.17-.03-.22-.09h-.01Z"/>
      <path class="cls-16" d="M31.53,39.21s.08.02.12.03c.03,0,.06.02.1.02.08,0,.16-.01.25-.05.51-.33-.75-1.31-.89-1.62-.28-.17-.56-.09-.65.13-.03.09-.04.2,0,.34.21.16.4.46.61.72.14.18.29.35.46.43Z"/>
      <path class="cls-16" d="M31.99,39.21c-.09.04-.17.05-.25.05.08,0,.16-.01.25-.05Z"/>
      <path class="cls-16" d="M30.46,38.06c.21.16.4.46.61.72-.21-.26-.39-.56-.61-.72Z"/>
      <path class="cls-16" d="M31.65,39.24s-.08-.01-.12-.03c.04.02.08.02.12.03Z"/>
      <path class="cls-16" d="M31.11,37.59c-.29-.18-.57-.1-.65.13.09-.22.36-.29.65-.13Z"/>
      <path class="cls-4" d="M40.15,36.14c-.1.11-.68,1.03-.71,1.13-.15.5.25.78.6.47.05-.05.78-1.17.8-1.24.04-.14.05-.38-.05-.48-.22-.23-.48-.05-.65.13Z"/>
      <path class="cls-4" d="M39.44,37.27c.03-.1.61-1.02.71-1.13-.1.11-.68,1.02-.71,1.13Z"/>
      <path class="cls-9" d="M34.22,35.83c-.16-.15-.43-.27-.61-.09h0c-.06.05-.08.14-.08.24,0,.1.02.2.05.27.04.09.74,1.02.83,1.09.34.32.72.12.67-.28,0-.06-.03-.12-.05-.19-.02-.06-.72-.99-.79-1.05Z"/>
      <path class="cls-9" d="M35.01,36.87c-.03-.06-.73-.99-.79-1.05-.16-.15-.43-.27-.61-.09h0c.18-.17.45-.05.61.1.07.06.77.99.79,1.05.03.07.05.13.05.19,0-.06-.02-.13-.05-.2Z"/>
      <path class="cls-9" d="M33.6,35.73c-.06.07-.08.16-.08.26,0-.1.02-.2.08-.25h0Z"/>
      <path class="cls-14" d="M26.49,38.52c-.05-.09-.96-1-1.06-1.06-.13-.08-.22-.14-.37-.1-.23.06-.32.38-.19.6.04.06.99,1.03,1.06,1.06.04.02.09.03.13.04.31.04.61-.23.43-.54Z"/>
      <path class="cls-14" d="M26.07,39.07s-.09-.02-.13-.04c.04.02.09.03.13.04Z"/>
      <path class="cls-14" d="M26.49,38.52c-.04-.09-.96-1-1.06-1.06.1.06,1,.98,1.06,1.06Z"/>
      <path class="cls-2" d="M33.67,40.04c-.04.2-.05,1.19-.01,1.4.05.29.41.41.62.29.07-.04.12-.11.14-.21.04-.23.03-1.61-.08-1.73h-.01c-.06-.06-.12-.09-.19-.1-.2-.03-.42.13-.46.35Z"/>
      <path class="cls-2" d="M34.28,41.73c-.21.12-.57,0-.62-.29-.04-.21-.03-1.2.01-1.4.05-.21.26-.37.46-.35-.21-.03-.43.13-.48.35-.04.2-.05,1.19-.01,1.4.06.3.42.42.63.29Z"/>
      <path class="cls-2" d="M32.02,41.99c-.06.01-.22.11-.26.16-.08.13-.1,1.34-.06,1.58.04.28.2.35.41.32.07,0,.15-.02.22-.05.19-.12.17-1.31.14-1.57-.03-.25-.16-.49-.44-.45Z"/>
      <path class="cls-2" d="M31.69,43.72c.03.28.2.35.41.32-.21.02-.37-.04-.41-.32Z"/>
      <path class="cls-15" d="M34.22,44.15c-.1.18-.11,1.13-.05,1.52,0,.06.02.1.03.13.14.33.66.29.72.05.03-.1.03-.3.03-.54,0-.39-.03-.88-.03-1.1,0-.26-.52-.35-.7-.06Z"/>
      <path class="cls-15" d="M34.91,44.22c0,.23.03.71.03,1.1,0-.4-.03-.88-.03-1.1Z"/>
      <path class="cls-15" d="M34.19,45.8s-.02-.07-.03-.13c0,.06.02.1.03.13Z"/>
      <path class="cls-4" d="M39.65,39.69c-.04-.1-.23-.19-.34-.19-.13.01-.3.1-.35.21-.08.18-.16,1.45-.11,1.64.05.17.19.24.33.23.14-.01.29-.11.36-.29.07-.2.18-1.43.1-1.61Z"/>
      <path class="cls-4" d="M39.19,41.59c.14-.01.29-.11.36-.29-.07.18-.22.27-.36.29Z"/>
      <path class="cls-13" d="M29.95,43.75c-.07-.02-.15-.01-.25.02-.12.03-.17.13-.19.24-.03.2-.04,1.29,0,1.49.04.19.2.31.37.31.16,0,.33-.12.39-.4.07-.4.17-1.54-.31-1.66Z"/>
      <path class="cls-13" d="M29.51,45.49c.04.19.2.31.37.31-.17,0-.33-.12-.37-.31Z"/>
      <path class="cls-13" d="M29.95,43.75c.49.12.39,1.25.31,1.66.07-.4.18-1.54-.31-1.66Z"/>
      <path class="cls-13" d="M29.7,43.77c-.12.03-.17.12-.19.24.02-.11.07-.2.19-.24Z"/>
      <path class="cls-8" d="M37.16,40.3v-1.78c0-.2-.6-.34-.7,0-.07.26,0,1.4,0,1.78,0,.24.7.24.7,0Z"/>
      <path class="cls-10" d="M37.34,34.58c-.12.12-.39,1.28-.39,1.47.02.42.57.56.76.12.06-.15.27-1.1.29-1.29,0-.1,0-.2-.07-.28-.16-.16-.42-.18-.58-.02Z"/>
      <path class="cls-10" d="M37.99,34.88c-.01.18-.22,1.14-.29,1.29.07-.16.29-1.12.29-1.29Z"/>
      <path class="cls-14" d="M36.46,42.45v1.69c.17.25.66.24.7-.08h0c.02-.09.02-.22.03-.36,0-.41-.03-.92-.03-1.26,0-.24-.7-.24-.7,0Z"/>
      <path class="cls-14" d="M37.16,44.09c.02-.11.02-.24.03-.38,0,.14-.01.26-.03.37h0Z"/>
      <path class="cls-14" d="M36.46,44.14h0c.17.25.65.25.7-.06h0c-.04.3-.53.31-.7.06Z"/>
      <path class="cls-14" d="M38.85,43.72v1.7c.11.12.23.18.35.18.12,0,.25-.06.35-.18v-1.7c-.11-.12-.23-.18-.35-.18-.12,0-.25.06-.35.18Z"/>
      <path class="cls-14" d="M39.2,43.55c.12,0,.24.06.35.18-.1-.12-.22-.18-.35-.18Z"/>
      <path class="cls-14" d="M39.2,45.61c-.12,0-.24-.06-.35-.18.1.12.22.18.35.18Z"/>
      <path class="cls-11" d="M63.46,26.68c-.98-1.22-3.72-2.27-8.16-3.11-3.41-.66-6.94-.99-10.11-1.27l-5.53-.33.02.03-.66-.02c-4.01-.14-7.92-.16-11.96-.06-1.37.03-4.1.13-4.1.13l-2.07.1-3.43.29c-4.27.41-8.68.83-12.78,2.1-2.68.82-4.23,1.82-4.59,2.95-.13.41-.17,1.05.38,1.78,1.26,1.67,4.98,2.59,7.67,3.14,2.97.6,6.02.92,8.98,1.24l.15.02s.04,0,.06,0c.27,0,.5-.2.52-.48.03-.3-.18-.56-.47-.59l-.15-.02c-2.93-.31-5.97-.64-8.89-1.22-3.89-.79-6.26-1.71-7.04-2.74-.29-.39-.26-.64-.21-.8.11-.35.72-1.28,3.89-2.26,4.01-1.24,8.36-1.66,12.58-2.06l1.82-.18,3.63-.22s2.72-.09,4.09-.13c4.02-.1,7.91-.08,11.9.06l4.85.2.77.07h0c3.26.29,6.96.62,10.49,1.3,4.01.77,6.75,1.77,7.54,2.74.35.44.32.72.27.89-.13.43-.78,1.28-3.75,2.23-3.05.96-6.31,1.37-9.46,1.77l-1.73.22c-.29.04-.49.31-.46.6.04.29.31.5.59.46l1.72-.22c3.2-.4,6.5-.82,9.64-1.81,2.66-.84,4.11-1.81,4.45-2.94.13-.43.15-1.11-.46-1.88Z"/>
      <path class="cls-6" d="M18.9,30.32c-.71-.42-1.17-1.13-1.81-1.65-.08.35.59,2.78.8,2.78.28-.41.54-.74,1-.93v-.19Z"/>
      <path class="cls-11" d="M33.05,15.72l10.14-8.61h-22.39l10.11,8.57c.67.54,1.44.51,2.14.04Z"/>
      <polygon class="cls-11" points="42.24 21.18 43.89 21.26 43.89 7.6 35.82 14.4 42.1 21.12 42.24 21.18"/>
      <path class="cls-11" d="M31.39,16.77c-1.03-.25-1.57-1.18-2.38-1.72-.08-.05-.19-.14-.3-.11l-5.73,6.19c1.38-.12,2.74-.11,4.1-.14,4.01-.1,7.93-.08,11.93.06.67.02,1.33,0,2,.08h0s-5.79-6.2-5.79-6.2c-1.34.85-2.01,2.26-3.84,1.83Z"/>
      <path class="cls-11" d="M27.52,15c.08-.1.53-.62.53-.68l-8.07-6.72v13.66l1.81-.09c1.82-2.13,3.87-4.07,5.73-6.18Z"/>
      <path class="cls-6" d="M47.44,28.75l-1.18.85-.04.15c.53.11.9.58,1.23,1,.2,0,1.11-2.59,1.02-2.99l-1.02,1Z"/>
    </g>
  </g>
</svg>