<?xml version="1.0" encoding="UTF-8"?>
<svg xmlns="http://www.w3.org/2000/svg" viewBox="0 0 64 64">
  <defs>
    <style>
      .cls-1 {
        fill: none;
      }

      .cls-2 {
        fill: #c6c7c8;
      }

      .cls-3 {
        fill: #fff;
      }

      .cls-4 {
        fill: #3bfaff;
      }
    </style>
  </defs>
  <rect width="64" height="64"/>
  <g id="Layer_1" data-name="Layer 1">
    <g>
      <path class="cls-1" d="M25.55,45.85c-.71.13-.58,1.33.25,1.19.7-.11.57-1.33-.25-1.19Z"/>
      <path class="cls-3" d="M29.22,22.98h1.24c.1,0,.75.31.86.4.68.5.81,1.36.64,2.14-.43,1.97-4.21,5.09-5.57,6.83-1.87,2.4.81,4.76,2.99,3.31.72-.5,1.76-1.57,2.45-2.2.3-.28,1.88-1.9,2.1-1.93.64.14,1.23.57,1.85.83,3.68,1.51,7.36,1.05,10.54-1.32h5.83c.18-.06.38-1.31.42-1.56.62-3.58.63-8.7-.41-12.17-.16-.57-.59-1.94-1.26-2.04h-13.64l-8.04,7.72Z"/>
      <path class="cls-2" d="M28.01,22.9l14.24-13.66c-4.33,1.47-9.01,2.04-13.44,2.21-4.44.17-8.86.04-13.25-.65-2.19-.35-4.34-.87-6.45-1.57l14.25,13.66c.67.43,3.99.43,4.66,0Z"/>
      <path class="cls-2" d="M42.26,9.24h0s.01,0,.02,0h-.01Z"/>
      <path class="cls-2" d="M53.53,29c-.23,1.5-.57,2.97-1.24,4.33h9.75c.27,0,.68-.87.79-1.11,1.54-3.52,1.46-11.27.33-14.94-.15-.52-.64-1.94-1.2-2.04h0s-9.68.01-9.68.01c.86,1.79,1.24,3.81,1.43,5.8.23,2.57.19,5.4-.18,7.95Z"/>
      <path class="cls-2" d="M27.89,29.4v-5.56c-1.45.39-2.95.23-4.42.08v15.95c1.44.35,2.98.36,4.42,0v-2.91c-1.24-.11-2.42-.8-2.84-2.02-.84-2.42,1.58-3.89,2.84-5.53h0Z"/>
      <path class="cls-3" d="M22.59,32.24v-8.76l-2.64-2.65-.23-.06h0c-.68.55-1,1.44-1.08,2.31-.23,2.84.17,5.97,0,8.85.24,2.66,3.46,2.98,3.94.31Z"/>
      <path class="cls-3" d="M27.25,41.76c-1,.16-2.13.14-3.14,0,.05.71,0,1.24-.29,1.89-.68,1.5-1.23,1.67-1.01,3.62.16,1.55,1.9,2.23,2.04,3.89.06.72-.15,2.03.04,2.65.22.7,1.36.74,1.58,0,.23-.74-.06-2.12.09-2.98.27-1.47,2.02-2.1,2.09-4.03.09-2.12-1.6-3.02-1.39-5.04ZM25.8,47.05c-.84.14-.96-1.06-.25-1.19.82-.14.95,1.08.25,1.19Z"/>
      <path class="cls-3" d="M.51,6c.33.23,1.35.56,1.73.56h2.25c-.4-.81-.48-1.69.07-2.44h-2.09c-.22,0-.83.13-1.08.18-.91.21-2.07.87-.87,1.7Z"/>
      <polygon class="cls-3" points="4.56 4.1 4.56 4.12 4.56 4.12 4.56 4.1"/>
      <path class="cls-3" d="M35.62,33.16l-1.58-.67-3.79,3.55c1.51.89,2.58-.26,3.63-1.19.59-.52,1.2-1.12,1.74-1.7Z"/>
      <path class="cls-3" d="M38.38,33.95s-1.84-.38-1.84-.38l-2.74,2.47c1.94,1.08,3.34-.92,4.58-2.1Z"/>
      <path class="cls-3" d="M42.1,33.88c-.83.15-1.7.26-2.53.19l-2.13,1.98c1.97,1.1,3.39-.99,4.66-2.17Z"/>
      <path class="cls-4" d="M25.57,55.87c-.39.78-2.01,4.93-2.07,5.64-.23,3.35,4.98,3.16,4.33-.37l-2.06-5.41c-.26-.05-.15.03-.2.14Z"/>
      <path class="cls-3" d="M6.55,7.24c.63.4,1.32.72,1.9.96.07-.22.21-.41.29-.51,2.51-3.24,14.09-3.75,14.21-3.76h0c5.05-.21,15.57.22,19.15,3.26.43.35.65.66.74.94.38-.22.76-.46,1.11-.77.67-.58.95-1.07.92-1.57-.05-.78-.88-1.73-2.47-2.82-2.95-2.02-8.32-2.97-16.9-2.97C18.59,0,7.96,1.72,6.16,3.55c-.72.74-1.05,1.41-.98,2.01.07.59.53,1.15,1.37,1.68Z"/>
      <path class="cls-4" d="M36.68,9.83c1.19-.22,3.95-.73,5.41-1.44-.05-.09-.18-.25-.48-.51-3.52-3-14.62-3.23-18.6-3.08-4.36.18-11.92,1.27-13.6,3.44-.06.08-.1.14-.13.18.55.22,3.06.9,3.86,1.09,6.98,1.57,16,1.69,23.55.31Z"/>
    </g>
  </g>
</svg>