<svg width="80" height="80" viewBox="0 0 80 80" fill="none" xmlns="http://www.w3.org/2000/svg">
<path d="M38.23 9.61996C38.84 9.33996 39.49 9.05996 40.16 9.10996C40.66 9.13996 41.12 9.34996 41.58 9.55996C50.13 13.46 58.69 17.38 66.81 22.11C68.46 23.07 70.17 24.15 71.03 25.85C71.68 27.13 71.77 28.6 71.84 30.03C72.36 40.46 72.62 50.9 72.62 61.35C72.62 61.99 72.61 62.67 72.25 63.2C72.02 63.55 71.66 63.8 71.3 64.03C63.98 68.92 56.33 73.32 48.43 77.19C47.38 77.7 46.3 78.21 45.14 78.28C43.75 78.37 42.41 77.82 41.13 77.27C30.78 72.81 20.75 67.6 11.16 61.69C10.44 61.25 9.68 60.75 9.34 59.97C9.12 59.46 9.1 58.89 9.09 58.33C8.96 52.14 8.83 45.94 8.7 39.75C8.62 35.79 6.99 28.62 8.69 24.95C10.39 21.28 18.27 19.1 21.64 17.44C27.12 14.74 32.66 12.13 38.23 9.61996Z" fill="#FD9F68"/>
<path d="M74.6 59.87C74.6 59.87 74.6 59.83 74.6 59.8C74.6 59.66 74.6 59.52 74.6 59.38C74.6 59.32 74.59 59.26 74.58 59.21C74.57 59.07 74.56 58.93 74.56 58.8C74.56 58.63 74.56 58.47 74.56 58.31C74.56 58.14 74.54 57.96 74.54 57.79C74.54 57.72 74.54 57.65 74.54 57.58C74.5 56.09 74.45 54.61 74.4 53.12C74.28 44.46 73.97 35.81 73.78 27.16C73.78 27.11 73.78 27.06 73.78 27.01C73.78 26.88 73.78 26.75 73.78 26.62C73.78 26.51 73.78 26.4 73.79 26.3C73.79 26.28 73.79 26.27 73.79 26.25C73.79 26.23 73.79 26.2 73.79 26.18C73.79 26.16 73.79 26.14 73.79 26.11V26.06C73.79 26.06 73.79 25.98 73.79 25.94C73.79 25.92 73.79 25.91 73.79 25.89C73.79 25.86 73.79 25.84 73.79 25.81C73.79 25.75 73.79 25.68 73.79 25.62C73.79 25.62 73.79 25.62 73.79 25.61C73.79 25.61 73.79 25.6 73.79 25.59C73.79 25.55 73.79 25.51 73.79 25.47C73.79 25.44 73.79 25.42 73.79 25.39C73.79 25.37 73.79 25.35 73.79 25.33C73.79 25.3 73.78 25.27 73.77 25.25C73.77 25.22 73.76 25.19 73.75 25.16C73.74 25.12 73.72 25.08 73.7 25.04C73.7 25.02 73.68 25 73.68 24.98C73.68 24.96 73.66 24.93 73.65 24.91C73.63 24.87 73.62 24.82 73.6 24.78C73.58 24.74 73.55 24.69 73.52 24.65C73.51 24.64 73.5 24.62 73.49 24.61C73.47 24.58 73.44 24.54 73.41 24.51C73.39 24.48 73.36 24.46 73.34 24.44C73.3 24.4 73.27 24.36 73.23 24.32C73.23 24.32 73.23 24.32 73.22 24.32C73.17 24.29 73.13 24.27 73.08 24.23C73.03 24.19 72.99 24.15 72.94 24.11C70.42 22.77 67.92 21.37 65.35 20.11C62.61 18.73 59.89 17.3 57.18 15.84C58.75 10.17 54.07 3.94996 45.89 9.69996C47.69 -4.74004 25.34 0.889963 29.2 11.61C27.77 12.31 26.08 13.17 23.52 14.54H23.53C17.77 17.56 12.07 20.7 6.29999 23.76C6.05999 23.88 5.80999 23.98 5.57999 24.11C5.43999 24.19 5.28999 24.28 5.14999 24.37C5.10999 24.39 5.06999 24.42 5.01999 24.44C4.94999 24.49 4.86999 24.55 4.79999 24.6C4.75999 24.63 4.71999 24.66 4.67999 24.69C4.67999 24.69 4.65999 24.7 4.64999 24.71C4.64999 24.71 4.62999 24.73 4.60999 24.74C4.60999 24.74 4.59999 24.75 4.58999 24.75C4.57999 24.76 4.55999 24.77 4.54999 24.78C4.50999 24.81 4.46999 24.84 4.41999 24.87C4.39999 24.89 4.38999 24.91 4.36999 24.93C4.30999 25.01 4.24999 25.09 4.19999 25.18C4.16999 25.23 4.14999 25.28 4.12999 25.33C4.10999 25.38 4.08999 25.44 4.07999 25.49C4.05999 25.57 4.04999 25.66 4.03999 25.74C4.03999 25.74 4.03999 25.76 4.03999 25.77C4.02999 25.87 4.01999 25.97 4.01999 26.07C4.01999 26.2 4.01999 26.33 4.01999 26.46C4.01999 26.71 4.01999 26.96 4.01999 27.22C4.01999 27.22 4.02999 27.22 4.03999 27.22C3.96999 31.22 4.20999 35.22 4.16999 39.22C4.18999 43.69 4.23999 48.17 4.23999 52.64C4.23999 54.15 4.25999 55.65 4.19999 57.16C4.21999 58.35 3.61999 60.26 4.97999 60.75C6.28999 62.19 8.55999 62.68 10.21 63.64C16.65 66.53 22.99 69.63 29.22 72.95C31.91 74.34 34.36 76.14 37.04 77.53C37.04 77.57 37.04 77.62 37.04 77.66C37.07 78.78 38.15 79.17 38.98 78.9C39.02 78.9 39.07 78.91 39.11 78.91C39.96 78.91 40.8 78.06 41.6 77.72C42.99 76.97 44.41 76.27 45.85 75.6C50.06 73.67 54.32 71.77 58.07 68.99C61.7 66.36 65.87 64.64 69.83 62.58C70.24 62.4 70.65 62.21 71.06 62.02C71.07 62.01 71.09 61.99 71.1 61.98C71.2 61.9 71.32 61.86 71.44 61.82C71.51 61.79 71.57 61.76 71.64 61.74C71.83 61.64 72.02 61.54 72.21 61.44C72.21 61.44 72.23 61.46 72.24 61.47C72.26 61.46 72.29 61.45 72.31 61.44C72.52 61.35 72.72 61.25 72.93 61.16C73.16 61.05 73.4 60.95 73.63 60.83C73.74 60.78 73.84 60.72 73.95 60.66C74.07 60.59 74.19 60.51 74.31 60.43C74.37 60.39 74.42 60.35 74.47 60.31C74.47 60.29 74.49 60.28 74.5 60.26C74.5 60.24 74.52 60.22 74.52 60.2C74.52 60.2 74.52 60.2 74.52 60.19V60.17C74.52 60.17 74.52 60.15 74.53 60.14C74.55 60.09 74.57 60.05 74.58 60C74.59 59.96 74.61 59.93 74.62 59.89L74.6 59.87ZM50.96 10.24C53.88 10.06 55.04 12.15 54.59 14.43C52.65 13.38 50.72 12.32 48.79 11.27C48.76 11.26 48.72 11.24 48.69 11.23C49.4 10.83 50.15 10.49 50.95 10.24H50.96ZM45.95 13.22C48.4 14.51 50.86 15.79 53.31 17.07C52.1 18.56 50.1 19.74 47.36 19.84C45.08 20.08 42.81 19.66 40.62 19.07C42.31 17.11 43.98 14.96 45.95 13.22ZM38.56 16.78C38.42 16.64 38.25 16.53 38.06 16.46C37.81 16.36 37.53 16.34 37.26 16.4C35.88 15.68 34.31 14.37 33.18 12.84C34.46 12.06 37.42 10.92 39.44 9.75996C39.52 9.81996 39.61 9.87996 39.69 9.93996C39.74 9.95996 39.78 9.97996 39.82 10.01C39.82 10.01 39.82 10.01 39.83 10.01C40.7 10.46 41.55 10.91 42.42 11.37C42.33 11.59 42.24 11.8 42.15 11.99C41.37 13.89 39.86 15.25 38.56 16.79V16.78ZM40.39 25.46C40.32 25.49 40.24 25.49 40.16 25.49C39.01 25.43 38.9 23.93 39.14 23.07C39.8 23.67 40.44 24.53 40.38 25.47L40.39 25.46ZM29.81 24.38C27.47 24.09 28.83 20.84 30.3 20.2C32.25 19.32 34.46 20.15 36.39 20.75C34.19 21.89 32.38 24.13 29.82 24.38H29.81ZM33.59 5.60996C35.82 4.17996 38.92 3.11996 41.43 4.42996C42.78 5.25996 43.21 6.65996 43.15 8.13996C41.99 7.50996 40.87 6.97996 40 6.76996C39.95 6.74996 39.91 6.73996 39.86 6.72996C39.8 6.71996 39.75 6.70996 39.69 6.69996C39.67 6.69996 39.64 6.69996 39.62 6.69996C39.51 6.68996 39.4 6.66996 39.31 6.66996C39.15 6.66996 39 6.68996 38.87 6.72996C38.76 6.76996 38.66 6.80996 38.57 6.85996C38.57 6.88996 38.57 6.92996 38.57 6.95996C38.55 6.96996 38.53 6.97996 38.51 6.98996C38.51 6.98996 38.51 6.98996 38.51 6.99996C35.35 8.62996 33.5 9.51996 31.86 10.3C31.35 8.58996 31.69 6.86996 33.6 5.59996L33.59 5.60996ZM37.01 74.29C36.85 74.2 36.69 74.11 36.54 74.01C27.36 68.05 17.14 63.96 7.38999 59.07C7.31999 58.75 7.17999 58.52 6.99999 58.35C6.99999 58.17 6.99999 58 7.00999 57.83C7.07999 56.49 7.07999 55.14 7.07999 53.8C7.13999 45.11 6.90999 36.43 6.90999 27.74C7.67999 28.17 8.48999 28.54 9.24999 28.93C18.59 33.6 28.14 37.77 37.49 42.43C37.33 53.03 36.99 63.66 37.01 74.28V74.29ZM33.41 37.38C25.43 33.17 16.9 29.94 8.98999 25.57C10.59 24.65 12.18 23.65 13.09 23.27C17.94 20.61 22.91 18.07 27.87 15.56C30.99 13.88 30.23 14.27 30.55 14.13C31.23 15.08 32.11 16.06 33.24 17.06C22.31 16.2 23.95 31.81 33.97 25.84C33.51 26.36 33.04 26.87 32.54 27.35C31.61 28.36 29.37 29.82 31.03 31.19C32.32 32.09 33.31 30.54 34.15 29.75C35.17 28.78 36.12 27.74 37 26.65C37.32 27.1 37.71 27.49 38.18 27.79C40.15 29.08 43.33 28 43.26 25.4C46.02 26.58 49.1 27.79 52.2 27.58C54.34 27.01 53.31 24.25 51.25 24.8C48.75 24.56 46.42 23.73 44.1 22.66C50.2 23.22 54 21.19 55.92 18.44C56.99 18.99 58.05 19.55 59.12 20.1C62.83 22.01 66.53 23.94 70.21 25.89C67.67 27.46 65.05 28.87 62.36 30.18C57.05 32.69 51.76 35.27 46.43 37.73C44.43 38.56 42.44 39.4 40.48 40.33C40.34 40.4 40.18 40.47 40.01 40.54C37.85 39.4 35.64 38.39 33.4 37.39L33.41 37.38ZM71.26 58.73C69.79 59.53 68.22 60.13 66.73 60.89C64.37 62.32 61.76 63.29 59.38 64.69C56.82 66.26 54.47 68.15 51.83 69.58C48.56 71.3 45.14 72.7 41.85 74.38C41.38 74.7 40.6 75.02 39.85 75.4C39.84 73.7 39.87 72 39.87 70.3C39.96 61.38 40.26 52.47 40.29 43.56C40.64 43.4 40.99 43.22 41.31 43.09C43.35 42.13 45.42 41.23 47.51 40.38C54.77 36.98 62.06 33.64 69.15 29.89C69.79 29.55 70.4 29.17 71.01 28.78C71.07 38.68 71.56 48.61 71.7 58.52C71.56 58.6 71.42 58.68 71.28 58.74L71.26 58.73Z" fill="black"/>
</svg>
