<svg width="87" height="85" viewBox="0 0 87 85" fill="none" xmlns="http://www.w3.org/2000/svg">
<g clip-path="url(#clip0_87_38)">
<path d="M72.1782 50.0257C72.6396 50.0905 73.0564 50.336 73.3368 50.7082C73.6173 51.0803 73.7384 51.5486 73.6735 52.0101C73.6087 52.4715 73.3632 52.8883 72.991 53.1688C72.6189 53.4492 72.1506 53.5703 71.6891 53.5055C71.2277 53.4406 70.8109 53.1951 70.5304 52.823C70.25 52.4508 70.1289 51.9825 70.1937 51.521C70.2586 51.0596 70.5041 50.6428 70.8762 50.3624C71.2484 50.0819 71.7167 49.9608 72.1782 50.0257ZM65.9048 49.144C66.3663 49.2089 66.783 49.4544 67.0635 49.8265C67.3439 50.1987 67.465 50.667 67.4002 51.1284C67.3353 51.5899 67.0898 52.0067 66.7177 52.2871C66.3455 52.5675 65.8772 52.6887 65.4158 52.6238C64.9543 52.559 64.5375 52.3134 64.2571 51.9413C63.9766 51.5691 63.8555 51.1008 63.9204 50.6394C63.9852 50.1779 64.2307 49.7611 64.6029 49.4807C64.975 49.2003 65.4434 49.0791 65.9048 49.144ZM78.4525 50.9075C78.9139 50.9723 79.3307 51.2178 79.6112 51.59C79.8916 51.9621 80.0127 52.4304 79.9479 52.8919C79.883 53.3533 79.6375 53.7701 79.2654 54.0506C78.8932 54.331 78.4249 54.4521 77.9634 54.3873C77.502 54.3224 77.0852 54.0769 76.8048 53.7048C76.5243 53.3326 76.4032 52.8643 76.4681 52.4028C76.5329 51.9414 76.7784 51.5246 77.1506 51.2442C77.5227 50.9637 77.991 50.8426 78.4525 50.9075ZM75.0312 29.7393C80.6758 30.5326 84.6869 35.2023 83.9888 40.1695C83.2907 45.1367 78.1477 48.5208 72.5032 47.7275C70.9634 47.5157 69.4829 46.9925 68.1518 46.19L62.8512 46.7507L64.5606 42.5275C63.6779 40.9473 63.2863 39.1422 63.5457 37.2964C64.2438 32.3292 69.3867 28.946 75.0312 29.7393ZM74.4409 33.933C74.0604 33.8793 73.673 33.9012 73.301 33.9973C72.929 34.0934 72.5795 34.2618 72.2725 34.4929C71.9656 34.7241 71.7072 35.0134 71.512 35.3444C71.3169 35.6754 71.1889 36.0416 71.1353 36.4221L70.9724 37.5807L70.8585 37.5647C70.7974 37.5561 70.7352 37.5597 70.6755 37.5751C70.6157 37.5906 70.5596 37.6177 70.5103 37.6548C70.461 37.692 70.4195 37.7384 70.3882 37.7916C70.3568 37.8448 70.3363 37.9036 70.3277 37.9648L69.7535 42.0506C69.7173 42.3081 69.8959 42.5462 70.1534 42.5824L76.1801 43.4294C76.4376 43.4656 76.6748 43.2869 76.711 43.0294L77.2856 38.9406C77.303 38.8172 77.2706 38.6919 77.1955 38.5923C77.1205 38.4928 77.009 38.4271 76.8856 38.4098L76.7717 38.3938L76.9345 37.2351C76.9876 36.8545 76.9653 36.467 76.8686 36.095C76.772 35.723 76.6031 35.3736 76.3714 35.0668C76.1398 34.7601 75.85 34.502 75.5186 34.3072C75.1872 34.1125 74.8207 33.9849 74.44 33.9318L74.4409 33.933ZM74.278 35.0916C75.2406 35.2268 75.9095 36.1146 75.7748 37.0732L75.612 38.2318L72.1322 37.7427L72.295 36.5841C72.4297 35.6255 73.3175 34.9566 74.278 35.0916Z" fill="white" fill-opacity="0.8"/>
</g>
<g clip-path="url(#clip1_87_38)">
<path d="M61.1579 80.4848C63.582 82.246 66.971 81.7093 68.7322 79.2851C70.2908 77.1399 70.0693 74.1832 68.2097 72.2946L68.1596 72.2418C67.6936 71.7688 66.9335 71.7639 66.4643 72.2293C65.995 72.6947 65.9864 73.4554 66.4518 73.9246L66.502 73.9774C67.5384 75.032 67.6626 76.6791 66.7923 77.8725C65.8104 79.224 63.9215 79.5231 62.57 78.5412L57.7487 75.0449C56.3972 74.063 56.098 72.174 57.0799 70.8225C57.9496 69.6255 59.5545 69.2346 60.874 69.8951L60.9398 69.9264C61.5335 70.2235 62.2543 69.9802 62.5483 69.3907C62.8422 68.8012 62.602 68.0761 62.0125 67.7822L61.9468 67.7509C59.5791 66.5616 56.6986 67.2646 55.14 69.4098C53.3788 71.834 53.9156 75.223 56.3397 76.9842L61.1579 80.4848ZM58.9765 61.1024C56.5523 59.3412 53.1633 59.878 51.4021 62.3021C49.8435 64.4473 50.065 67.4041 51.9246 69.2927L51.9747 69.3455C52.4407 69.8184 53.2008 69.8233 53.6701 69.3579C54.1393 68.8925 54.1479 68.1318 53.6825 67.6626L53.6324 67.6098C52.5959 66.5552 52.4717 64.9081 53.342 63.7148C54.3276 62.3627 56.2166 62.0635 57.5681 63.0454L62.3857 66.5423C63.7372 67.5242 64.0363 69.4132 63.0544 70.7647C62.1847 71.9617 60.5799 72.3526 59.2566 71.6927L59.1909 71.6614C58.5971 71.3644 57.8763 71.6076 57.5824 72.1971C57.2885 72.7866 57.5286 73.5117 58.1181 73.8056L58.1838 73.837C60.5552 75.0256 63.4357 74.3226 64.9943 72.1774C66.7555 69.7533 66.2188 66.3643 63.7946 64.603L58.9765 61.1024Z" fill="white" fill-opacity="0.6"/>
</g>
<g clip-path="url(#clip2_87_38)">
<path d="M24.5149 31.1845C24.3455 28.5884 22.2258 26.4032 19.5728 25.8227C19.1246 25.7242 17.4277 25.363 13.4584 25.0854L13.4285 25.0833C9.45815 24.8057 8.58835 24.9875 8.13178 25.0227C5.49843 25.2225 2.99086 26.8776 2.23128 29.4399C1.86532 30.7024 1.73599 32.1218 1.69576 33.4282C1.63886 35.3028 1.52231 37.1702 1.56372 39.0437C1.59494 40.2889 1.71563 41.5303 1.92551 42.758C2.31813 45.0279 4.40988 47.0397 6.53462 47.9491C8.80968 48.9022 11.3074 49.2081 13.7464 48.8344C14.015 48.792 14.2814 48.7394 14.5454 48.6767C15.1418 48.534 15.8395 48.3763 16.3676 48.0493C16.3747 48.0448 16.3807 48.0387 16.3852 48.0316C16.3897 48.0244 16.3925 48.0164 16.3935 48.008L16.5197 46.2034C16.5203 46.1955 16.519 46.1876 16.5161 46.1803C16.5131 46.173 16.5085 46.1664 16.5026 46.1611C16.4966 46.1556 16.4894 46.1515 16.4816 46.1492C16.4737 46.1469 16.4655 46.1465 16.4574 46.1479C14.8928 46.4045 13.3034 46.4767 11.7219 46.3631C8.99854 46.1727 8.35689 44.8407 8.18366 44.2933C8.04743 43.821 7.97405 43.3329 7.9654 42.8415C7.96556 42.8332 7.96767 42.8251 7.97156 42.8177C7.97545 42.8104 7.981 42.8041 7.98777 42.7993C7.99454 42.7945 8.00234 42.7914 8.01054 42.7901C8.01875 42.7889 8.02713 42.7896 8.035 42.7922C9.52299 43.2602 11.0614 43.5512 12.6176 43.66C12.9927 43.6862 13.3658 43.7123 13.7406 43.7285C15.3098 43.7941 16.9654 43.8297 18.5264 43.6401C18.5649 43.6348 18.6043 43.6306 18.6378 43.6239C21.0993 43.3309 23.5132 42.0401 24.0056 38.3815C24.0237 38.2375 24.1415 36.8673 24.152 36.7177C24.1897 36.2071 24.5718 33.1082 24.5149 31.1845ZM20.1346 40.0957L17.5798 39.917L18.0136 33.7142C18.1049 32.4084 17.6027 31.7046 16.4855 31.6265C15.2585 31.5407 14.5889 32.2858 14.48 33.842L14.2427 37.2367L11.7029 37.0591L11.9403 33.6634C12.0491 32.1072 11.4887 31.2761 10.2607 31.1902C9.15145 31.1127 8.55021 31.7403 8.4569 33.0459L8.02315 39.2488L5.47238 39.0704L5.91924 32.68C6.01062 31.3732 6.41935 30.3592 7.14542 29.6381C7.89344 28.9186 8.8307 28.5891 9.95994 28.6681C11.2677 28.7596 12.2215 29.3275 12.8102 30.3691L13.3727 31.471L14.0831 30.4581C14.8112 29.5076 15.8336 29.0788 17.1404 29.1702C18.2677 29.249 19.1509 29.7068 19.7925 30.5225C20.4122 31.3377 20.6758 32.3987 20.5844 33.7055L20.1346 40.0957Z" fill="white" fill-opacity="0.2"/>
</g>
<g clip-path="url(#clip3_87_38)">
<path d="M43.8403 12.8913C42.3699 11.0235 38.7136 7.7215 35.6417 6.34029C32.699 5.01645 31.7739 5.5243 31.1841 5.94355C30.5005 6.42584 30.5877 7.60283 30.719 8.27819C30.8506 8.95551 32.1681 13.7523 32.5678 14.5191C33.8898 17.0493 36.9109 17.4034 39.4754 16.6033C39.6051 16.5578 39.7379 16.5126 39.8721 16.4692C39.7408 16.5171 39.6088 16.5611 39.4754 16.6033C35.7459 17.9191 32.6067 19.981 38.0479 24.0913C43.9591 28.2294 44.5793 21.6879 44.9052 18.3697C46.4503 21.3242 48.6865 27.0792 53.3181 21.1231C56.6847 16.08 53.2287 14.5208 49.2779 14.6979C49.1388 14.7093 48.9994 14.7174 48.8598 14.7221C49.0005 14.7121 49.1406 14.7042 49.2779 14.6979C51.9555 14.48 54.6238 13.019 54.9017 10.1778C54.9852 9.31807 54.4095 4.37511 54.2782 3.69975C54.1466 3.02243 53.7867 1.89947 52.9719 1.70639C52.2681 1.53961 51.2201 1.41529 48.9875 3.74409C46.6572 6.17846 44.5041 10.6097 43.8403 12.8913Z" fill="white"/>
</g>
<g clip-path="url(#clip4_87_38)">
<path d="M18.6429 65.3904L14.2593 64.8521C14.0647 64.8283 13.8877 64.9666 13.8638 65.1611L12.1347 79.2438C12.1108 79.4383 12.2491 79.6153 12.4436 79.6392L16.8272 80.1774C17.0218 80.2013 17.1988 80.063 17.2227 79.8685L18.9518 65.7858C18.9757 65.5913 18.8374 65.4143 18.6429 65.3904Z" fill="white" fill-opacity="0.4"/>
<path d="M17.3122 58.1206C15.7172 57.9248 14.2604 59.0617 14.0648 60.6549C13.8691 62.2489 15.0075 63.7049 16.6025 63.9007C18.1963 64.0964 19.6521 62.9589 19.8478 61.365C20.0435 59.7717 18.906 58.3163 17.3122 58.1206Z" fill="white" fill-opacity="0.4"/>
<path d="M29.8359 66.4094C28.0753 66.1932 26.6808 66.7903 25.7858 67.5534L25.8981 66.6387C25.922 66.4442 25.7837 66.2672 25.5892 66.2433L21.3911 65.7278C21.1966 65.7039 21.0196 65.8423 20.9957 66.0368L19.2665 80.1195C19.2427 80.314 19.3809 80.491 19.5755 80.5149L23.9495 81.052C24.1441 81.0758 24.3211 80.9376 24.345 80.743L25.2005 73.7753C25.4888 71.4274 26.2388 70.591 27.8756 70.792C29.6581 71.0108 29.6197 72.4946 29.3843 74.4117L28.5436 81.2586C28.5197 81.4532 28.658 81.6302 28.8525 81.654L33.2282 82.1913C33.4228 82.2152 33.5998 82.0769 33.6236 81.8824L34.5721 74.1578C35.0008 70.6665 34.7733 67.0157 29.8359 66.4094Z" fill="white" fill-opacity="0.4"/>
</g>
<defs>
<clipPath id="clip0_87_38">
<rect width="24" height="24" fill="white" transform="translate(63.148 28.0692) rotate(8)"/>
</clipPath>
<clipPath id="clip1_87_38">
<rect width="24" height="19.2" fill="white" transform="translate(67.7715 58.0692) rotate(81)"/>
</clipPath>
<clipPath id="clip2_87_38">
<rect width="24" height="24" fill="white" transform="translate(1.67415 24.2614) rotate(4)"/>
</clipPath>
<clipPath id="clip3_87_38">
<rect width="24" height="24" fill="white" transform="translate(30 4.57941) rotate(-11)"/>
</clipPath>
<clipPath id="clip4_87_38">
<rect width="22" height="22" fill="white" transform="translate(14.4225 57.7414) rotate(7)"/>
</clipPath>
</defs>
</svg>
