<?xml version="1.0" encoding="utf-8"?>
<!-- Generator: Adobe Illustrator 26.0.3, SVG Export Plug-In . SVG Version: 6.00 Build 0)  -->
<svg version="1.1" id="Ebene_1" xmlns="http://www.w3.org/2000/svg" xmlns:xlink="http://www.w3.org/1999/xlink" x="0px" y="0px"
	 viewBox="0 0 66 66" style="enable-background:new 0 0 66 66;" xml:space="preserve">
<g>
	<circle style="fill:#FFFFFF;" cx="26.704" cy="15.75" r="4"/>
	<path style="fill:#FFFFFF;" d="M23.148,19.708L23.148,19.708c1.228,0.921,1.728,2.523,1.243,3.979l0,0
		c-0.12,0.36-0.092,0.753,0.078,1.093l0.031,0.062c0.346,0.692,1.269,0.842,1.816,0.295l4.979-4.979
		c0.502-0.502,1.315-0.502,1.817,0l0.043,0.043c0.595,0.595,0.643,1.545,0.11,2.197l-7.573,9.256
		c-0.308,0.377-0.77,0.596-1.257,0.596h-0.317c-0.552,0-1.048-0.336-1.253-0.848l-0.958-2.394c-0.314-0.785-1.358-0.94-1.886-0.279
		l-2.034,2.543c-0.414,0.518-0.277,1.282,0.292,1.624l2.301,1.381c0.96,0.576,1.42,1.721,1.126,2.801l-2.03,8.445
		c-0.256,0.938-1.248,1.469-2.17,1.162l-0.025-0.008c-0.713-0.238-1.113-0.995-0.906-1.718l1.339-5.688
		c0.175-0.614-0.046-1.272-0.557-1.655l-2.074-1.555c-0.409-0.306-0.986,0.023-0.929,0.531l0.733,6.595
		c0.077,0.691-0.075,1.388-0.433,1.984l-4.411,7.351c-0.565,0.942-1.803,1.22-2.717,0.611h0c-0.736-0.491-0.948-1.477-0.48-2.227
		l3.565-5.704c0.378-0.605,0.487-1.341,0.299-2.03L8.87,35.694c-0.423-1.553-0.154-3.213,0.739-4.552l3.869-5.803
		c0.482-0.722,1.06-1.375,1.719-1.94l4.161-3.567C20.436,18.908,22.012,18.856,23.148,19.708z"/>
	<path style="fill:#7F7F7F;" d="M13.283,63.25h44.92c0.552,0,1-0.448,1-1v-52c0-2.209-1.791-4-4-4h-1.892
		c-0.725,0-1.436,0.197-2.058,0.57l-8.192,4.915c-0.563,0.338-1.034,0.809-1.372,1.372l-4.886,8.144
		c-0.391,0.652-0.961,1.18-1.641,1.52l-1.952,0.976c-0.658,0.329-1.213,0.834-1.603,1.458l-3.967,6.348
		c-0.288,0.461-0.479,0.975-0.561,1.512l-1.471,9.559c-0.245,1.592-1.421,2.882-2.983,3.272l-0.943,0.236
		c-0.317,0.079-0.643,0.119-0.97,0.119h-2.508c-1.259,0-2.445,0.593-3.2,1.6l-1.101,1.468c-0.456,0.609-0.73,1.335-0.788,2.093
		l-0.828,10.762C12.242,62.754,12.701,63.25,13.283,63.25z"/>
	
		<line style="fill:none;stroke:#D72728;stroke-linecap:round;stroke-linejoin:round;stroke-miterlimit:10;" x1="12.204" y1="27.25" x2="18.204" y2="31.25"/>
	<path style="fill:none;stroke:#D72728;stroke-linecap:round;stroke-linejoin:round;stroke-miterlimit:10;" d="M16.078,29.887
		c0,0-1.374,2.863,1.626,3.863s5-1,5-1l17-19c0,0,10-11,15-11v3.599"/>
	<polygon style="fill:#D62728;" points="54.704,2.75 58,4 54.599,5.105 	"/>
</g>
</svg>
