<?xml version="1.0" encoding="utf-8"?>
<!-- Generator: Adobe Illustrator 26.0.3, SVG Export Plug-In . SVG Version: 6.00 Build 0)  -->
<svg version="1.1" id="Ebene_1" xmlns="http://www.w3.org/2000/svg" xmlns:xlink="http://www.w3.org/1999/xlink" x="0px" y="0px"
	 viewBox="0 0 66 66" style="enable-background:new 0 0 66 66;" xml:space="preserve">
<path style="fill:#7F7F7F;" d="M34.832,9.757l-6.196,4.103c-0.633,0.419-0.806,1.271-0.387,1.904l4.551,6.872
	c0.419,0.633,1.271,0.806,1.904,0.387L56.467,8.611c0.633-0.419,0.806-1.271,0.387-1.904L55.59,4.799
	c-0.33-0.499-0.945-0.726-1.52-0.563L35.215,9.581C35.079,9.619,34.95,9.679,34.832,9.757z"/>
<path style="fill:#7F7F7F;" d="M65.531,43.866l-2.831,1.875c-0.495,0.328-1.163,0.192-1.491-0.303l-18.417-27.81
	c-0.328-0.495-0.192-1.163,0.303-1.491l2.831-1.875c0.495-0.328,1.163-0.192,1.491,0.303l18.417,27.81
	C66.162,42.87,66.026,43.537,65.531,43.866z"/>
<path style="fill:#F4C9E7;" d="M41.625,39.658c0-0.562-0.04-1.114-0.087-1.664h-3.523v-5.548l-3.329-2.219v-4.438h-6.658
	l-0.694-4.857c-1.958-0.535-4.037-0.778-6.19-0.663c-2.166,0.115-4.242,0.612-6.178,1.401c-2.108-1.855-7.585-6.079-10.24-2.538
	c-3.329,4.438-5.548,9.987-4.438,9.987c0.818,0,3.448,0.599,6.108-0.866c0.052-0.029,0.104,0.023,0.069,0.071
	C4.521,31,3.242,34.185,2.892,37.631c-0.526,5.174,0.988,9.98,3.826,13.729c0.385,0.508,0.562,1.142,0.452,1.77l-1.124,6.427
	c-0.105,0.602,0.298,1.176,0.9,1.281l5.496,0.961c0.604,0.106,1.179-0.298,1.284-0.902l0.351-2.007
	c0.131-0.747,0.899-1.203,1.614-0.947c2.037,0.73,4.228,1.133,6.516,1.133c2.268,0,4.441-0.397,6.463-1.115
	c0.743-0.264,1.54,0.208,1.676,0.984l0.341,1.952c0.106,0.604,0.681,1.007,1.284,0.902l5.494-0.961
	c0.604-0.106,1.007-0.681,0.902-1.284l-1.124-6.429c-0.109-0.625,0.067-1.257,0.451-1.763
	C40.158,48.108,41.625,44.056,41.625,39.658z"/>
<path style="fill:#F4C9E7;" d="M41.3,54.836l2.935,1.58l2.686-3.64l-0.536-0.396C44.558,52.818,42.817,53.638,41.3,54.836z"/>
<path style="fill:#F4C9E7;" d="M52.546,54.685l-0.969,0.152l-4.385,0.689l-1.676,3.633l2.393,0.761
	C49.764,58.464,51.334,56.689,52.546,54.685z"/>
<circle style="fill:#E992CE;" cx="21.649" cy="40.213" r="6.658"/>
<g>
	<circle style="fill:#1D1D1B;" cx="19.984" cy="39.104" r="1.11"/>
	<circle style="fill:#1D1D1B;" cx="23.313" cy="39.104" r="1.11"/>
</g>
<g>
	<circle style="fill:#FFFFFF;" cx="17.281" cy="32.198" r="1.773"/>
</g>
<g>
	<circle style="fill:#FFFFFF;" cx="27.173" cy="32.156" r="1.773"/>
</g>
<circle style="fill:#1D1D1B;" cx="26.72" cy="32.235" r="0.886"/>
<circle style="fill:#1D1D1B;" cx="16.801" cy="32.278" r="0.886"/>
</svg>
