<?xml version="1.0" encoding="utf-8"?>
<!-- Generator: Adobe Illustrator 26.0.3, SVG Export Plug-In . SVG Version: 6.00 Build 0)  -->
<svg version="1.1" id="Ebene_1" xmlns="http://www.w3.org/2000/svg" xmlns:xlink="http://www.w3.org/1999/xlink" x="0px" y="0px"
	 viewBox="0 0 66 66" style="enable-background:new 0 0 66 66;" xml:space="preserve">
<g>
	<ellipse style="fill:#8E67B7;" cx="33.897" cy="21.128" rx="6.575" ry="4.782"/>
	<g>
		<circle style="fill:#FFFFFF;" cx="36.885" cy="19.932" r="1.195"/>
		<circle style="fill:#1D1D1B;" cx="36.885" cy="19.334" r="0.598"/>
	</g>
	<path style="fill:#8E67B7;" d="M27.628,22.185c0.028-0.087,0.045-0.178,0.065-0.268c0.018-0.079,0.039-0.157,0.051-0.238
		c0.003-0.019,0.01-0.037,0.012-0.056l-0.007-0.004c0.044-0.318,0.052-0.648,0.007-0.987c-0.188-1.405-1.265-2.588-2.632-2.964
		c-0.528-0.145-1.032-0.159-1.503-0.076c-0.441,0.077-0.64,0.624-0.345,0.961c0.136,0.155,0.258,0.327,0.367,0.51
		c0.023,0.039,0.041,0.081,0.063,0.121c0.077,0.14,0.146,0.285,0.206,0.437c0.025,0.064,0.047,0.129,0.069,0.195
		c0.048,0.143,0.087,0.292,0.12,0.444c0.014,0.065,0.03,0.129,0.041,0.196c0.035,0.218,0.059,0.442,0.059,0.672
		c0,0.257-0.024,0.508-0.067,0.749c-0.015,0.081-0.044,0.155-0.063,0.234c-0.038,0.156-0.073,0.313-0.127,0.459
		c-0.16,0.428-0.387,0.813-0.667,1.133c-0.295,0.337-0.096,0.884,0.345,0.961c0.471,0.082,0.975,0.069,1.503-0.076
		c0.992-0.273,1.826-0.973,2.283-1.872l0.012,0c0.012-0.025,0.02-0.052,0.031-0.077c0.015-0.031,0.025-0.064,0.039-0.095
		C27.541,22.426,27.59,22.308,27.628,22.185z"/>
	<ellipse style="fill:#8E67B7;" cx="53.437" cy="34.195" rx="9.749" ry="7.09"/>
	<g>
		<circle style="fill:#FFFFFF;" cx="57.868" cy="32.423" r="1.773"/>
		<circle style="fill:#1D1D1B;" cx="57.868" cy="31.537" r="0.886"/>
	</g>
	<path style="fill:#8E67B7;" d="M44.141,35.764c0.041-0.13,0.067-0.264,0.097-0.397c0.027-0.117,0.057-0.233,0.076-0.353
		c0.004-0.028,0.014-0.055,0.018-0.083l-0.01-0.006c0.065-0.472,0.077-0.961,0.01-1.464c-0.279-2.083-1.875-3.837-3.903-4.395
		c-0.783-0.215-1.53-0.235-2.228-0.113c-0.654,0.114-0.949,0.926-0.511,1.425c0.201,0.23,0.382,0.485,0.545,0.756
		c0.034,0.057,0.061,0.121,0.093,0.179c0.114,0.207,0.217,0.422,0.306,0.648c0.037,0.094,0.07,0.191,0.103,0.289
		c0.071,0.213,0.129,0.433,0.177,0.658c0.02,0.097,0.044,0.192,0.06,0.291c0.052,0.323,0.087,0.655,0.087,0.997
		c0,0.382-0.035,0.753-0.099,1.111c-0.022,0.12-0.065,0.229-0.093,0.346c-0.056,0.231-0.108,0.465-0.188,0.681
		c-0.237,0.635-0.574,1.205-0.99,1.68c-0.437,0.499-0.142,1.31,0.511,1.425c0.698,0.122,1.446,0.102,2.228-0.113
		c1.471-0.404,2.707-1.443,3.386-2.776l0.018,0.001c0.018-0.037,0.029-0.077,0.047-0.114c0.022-0.046,0.037-0.094,0.057-0.141
		C44.012,36.121,44.085,35.946,44.141,35.764z"/>
	<ellipse style="fill:#8E67B7;" cx="18.768" cy="56.91" rx="9.749" ry="7.09"/>
	<g>
		<circle style="fill:#FFFFFF;" cx="23.199" cy="55.137" r="1.773"/>
		<circle style="fill:#1D1D1B;" cx="23.199" cy="54.251" r="0.886"/>
	</g>
	<path style="fill:#8E67B7;" d="M9.473,58.478c0.041-0.13,0.067-0.264,0.097-0.397c0.027-0.117,0.057-0.233,0.076-0.353
		C9.65,57.7,9.66,57.673,9.664,57.645l-0.01-0.006c0.065-0.472,0.077-0.961,0.01-1.464c-0.279-2.083-1.875-3.837-3.903-4.395
		c-0.783-0.215-1.53-0.235-2.228-0.113c-0.654,0.114-0.949,0.926-0.511,1.425c0.201,0.23,0.382,0.485,0.545,0.756
		c0.034,0.057,0.061,0.121,0.093,0.179c0.114,0.207,0.217,0.422,0.306,0.648c0.037,0.094,0.07,0.191,0.103,0.289
		c0.071,0.213,0.129,0.433,0.177,0.658c0.02,0.097,0.044,0.192,0.06,0.291c0.052,0.323,0.087,0.655,0.087,0.997
		c0,0.382-0.035,0.753-0.099,1.111c-0.022,0.12-0.065,0.229-0.093,0.346c-0.056,0.231-0.108,0.465-0.188,0.681
		c-0.237,0.635-0.574,1.205-0.99,1.68c-0.437,0.499-0.142,1.31,0.511,1.425c0.698,0.122,1.446,0.102,2.228-0.113
		c1.471-0.404,2.707-1.443,3.386-2.776l0.018,0.001c0.018-0.037,0.029-0.077,0.047-0.114c0.022-0.046,0.037-0.094,0.057-0.141
		C9.343,58.835,9.416,58.66,9.473,58.478z"/>
	<ellipse style="fill:#8E67B7;" cx="22.354" cy="9.09" rx="9.749" ry="7.09"/>
	<g>
		<circle style="fill:#FFFFFF;" cx="26.786" cy="7.318" r="1.773"/>
		<circle style="fill:#1D1D1B;" cx="26.786" cy="6.432" r="0.886"/>
	</g>
	<path style="fill:#8E67B7;" d="M13.059,10.659c0.041-0.13,0.067-0.264,0.097-0.397c0.027-0.117,0.057-0.233,0.076-0.353
		c0.004-0.028,0.014-0.055,0.018-0.083l-0.01-0.006c0.065-0.472,0.077-0.961,0.01-1.464c-0.279-2.083-1.875-3.837-3.903-4.395
		c-0.783-0.215-1.53-0.235-2.228-0.113C6.465,3.962,6.17,4.773,6.608,5.272c0.201,0.23,0.382,0.485,0.545,0.756
		c0.034,0.057,0.061,0.121,0.093,0.179C7.359,6.414,7.463,6.63,7.552,6.855c0.037,0.094,0.07,0.191,0.103,0.289
		c0.071,0.213,0.129,0.433,0.177,0.658c0.02,0.097,0.044,0.192,0.06,0.291C7.944,8.417,7.978,8.748,7.978,9.09
		c0,0.382-0.035,0.753-0.099,1.111c-0.022,0.12-0.065,0.229-0.093,0.346c-0.056,0.231-0.108,0.465-0.188,0.681
		c-0.237,0.635-0.574,1.205-0.99,1.68c-0.437,0.499-0.142,1.31,0.511,1.425c0.698,0.122,1.446,0.102,2.228-0.113
		c1.471-0.404,2.707-1.443,3.386-2.776l0.018,0.001c0.018-0.037,0.029-0.077,0.047-0.114c0.022-0.046,0.037-0.094,0.057-0.141
		C12.93,11.016,13.003,10.841,13.059,10.659z"/>
	<ellipse style="fill:#8E67B7;" cx="37.483" cy="47.428" rx="6.575" ry="4.782"/>
	<g>
		<circle style="fill:#FFFFFF;" cx="40.472" cy="46.233" r="1.195"/>
		<circle style="fill:#1D1D1B;" cx="40.472" cy="45.635" r="0.598"/>
	</g>
	<path style="fill:#8E67B7;" d="M31.214,48.486c0.028-0.087,0.045-0.178,0.065-0.268c0.018-0.079,0.039-0.157,0.051-0.238
		c0.003-0.019,0.01-0.037,0.012-0.056l-0.007-0.004c0.044-0.318,0.052-0.648,0.007-0.987c-0.188-1.405-1.265-2.588-2.632-2.964
		c-0.528-0.145-1.032-0.159-1.503-0.076c-0.441,0.077-0.64,0.624-0.345,0.961c0.136,0.155,0.258,0.327,0.367,0.51
		c0.023,0.039,0.041,0.081,0.063,0.121c0.077,0.14,0.146,0.285,0.206,0.437c0.025,0.064,0.047,0.129,0.069,0.195
		c0.048,0.143,0.087,0.292,0.12,0.444c0.014,0.065,0.03,0.129,0.041,0.196c0.035,0.218,0.059,0.442,0.059,0.672
		c0,0.257-0.024,0.508-0.067,0.749c-0.015,0.081-0.044,0.155-0.063,0.234c-0.038,0.156-0.073,0.313-0.127,0.459
		c-0.16,0.428-0.387,0.813-0.667,1.133c-0.295,0.337-0.096,0.884,0.345,0.961c0.471,0.082,0.975,0.069,1.503-0.076
		c0.992-0.273,1.826-0.973,2.283-1.872l0.012,0c0.012-0.025,0.02-0.052,0.031-0.077c0.015-0.031,0.025-0.064,0.039-0.095
		C31.127,48.727,31.176,48.609,31.214,48.486z"/>
	<ellipse style="fill:#8E67B7;" cx="25.528" cy="35.473" rx="6.575" ry="4.782"/>
	<g>
		<circle style="fill:#FFFFFF;" cx="28.517" cy="34.278" r="1.195"/>
		<circle style="fill:#1D1D1B;" cx="28.517" cy="33.68" r="0.598"/>
	</g>
	<path style="fill:#8E67B7;" d="M19.259,36.531c0.028-0.087,0.045-0.178,0.065-0.268c0.018-0.079,0.039-0.157,0.051-0.238
		c0.003-0.019,0.01-0.037,0.012-0.056l-0.007-0.004c0.044-0.318,0.052-0.648,0.007-0.987c-0.188-1.405-1.265-2.588-2.632-2.964
		c-0.528-0.145-1.032-0.159-1.503-0.076c-0.441,0.077-0.64,0.624-0.345,0.961c0.136,0.155,0.258,0.327,0.367,0.51
		c0.023,0.039,0.041,0.081,0.063,0.121c0.077,0.14,0.146,0.285,0.206,0.437c0.025,0.064,0.047,0.129,0.069,0.195
		c0.048,0.143,0.087,0.292,0.12,0.444c0.014,0.065,0.03,0.129,0.041,0.196c0.035,0.218,0.059,0.442,0.059,0.672
		c0,0.257-0.024,0.508-0.067,0.749c-0.015,0.081-0.044,0.155-0.063,0.234c-0.038,0.156-0.073,0.313-0.127,0.459
		c-0.16,0.428-0.387,0.813-0.667,1.133c-0.295,0.337-0.096,0.884,0.345,0.961c0.471,0.082,0.975,0.069,1.503-0.076
		c0.992-0.273,1.826-0.973,2.283-1.872l0.012,0c0.012-0.025,0.02-0.052,0.031-0.077c0.015-0.031,0.025-0.064,0.039-0.095
		C19.172,36.772,19.221,36.654,19.259,36.531z"/>
</g>
</svg>
