<?xml version="1.0" encoding="utf-8"?>
<!-- Generator: Adobe Illustrator 27.1.1, SVG Export Plug-In . SVG Version: 6.00 Build 0)  -->
<svg version="1.1" id="Ebene_1" xmlns="http://www.w3.org/2000/svg" xmlns:xlink="http://www.w3.org/1999/xlink" x="0px" y="0px"
	 viewBox="0 0 66 66" style="enable-background:new 0 0 66 66;" xml:space="preserve">
<style type="text/css">
	.st0{fill:#FFFFFF;}
	.st1{fill:#7F7F7F;}
	.st2{fill:none;stroke:#D72728;stroke-linecap:round;stroke-linejoin:round;stroke-miterlimit:10;}
	.st3{fill:#D62728;}
</style>
<g>
	<circle class="st0" cx="26.7" cy="15.75" r="4"/>
	<path class="st0" d="M23.15,19.71L23.15,19.71c1.23,0.92,1.73,2.52,1.24,3.98l0,0c-0.12,0.36-0.09,0.75,0.08,1.09l0.03,0.06
		c0.35,0.69,1.27,0.84,1.82,0.29l4.98-4.98c0.5-0.5,1.31-0.5,1.82,0l0.04,0.04c0.6,0.6,0.64,1.55,0.11,2.2l-7.57,9.26
		c-0.31,0.38-0.77,0.6-1.26,0.6h-0.32c-0.55,0-1.05-0.34-1.25-0.85l-0.96-2.39c-0.31-0.78-1.36-0.94-1.89-0.28l-2.03,2.54
		c-0.41,0.52-0.28,1.28,0.29,1.62l2.3,1.38c0.96,0.58,1.42,1.72,1.13,2.8l-2.03,8.45c-0.26,0.94-1.25,1.47-2.17,1.16l-0.03-0.01
		c-0.71-0.24-1.11-1-0.91-1.72l1.34-5.69c0.18-0.61-0.05-1.27-0.56-1.66l-2.07-1.56c-0.41-0.31-0.99,0.02-0.93,0.53l0.73,6.6
		c0.08,0.69-0.08,1.39-0.43,1.98l-4.41,7.35c-0.57,0.94-1.8,1.22-2.72,0.61h0c-0.74-0.49-0.95-1.48-0.48-2.23l3.56-5.7
		c0.38-0.61,0.49-1.34,0.3-2.03l-2.04-7.48c-0.42-1.55-0.15-3.21,0.74-4.55l3.87-5.8c0.48-0.72,1.06-1.38,1.72-1.94l4.16-3.57
		C20.44,18.91,22.01,18.86,23.15,19.71z"/>
	<path class="st1" d="M13.28,63.25H58.2c0.55,0,1-0.45,1-1v-52c0-2.21-1.79-4-4-4h-1.89c-0.72,0-1.44,0.2-2.06,0.57l-8.19,4.92
		c-0.56,0.34-1.03,0.81-1.37,1.37l-4.89,8.14c-0.39,0.65-0.96,1.18-1.64,1.52l-1.95,0.98c-0.66,0.33-1.21,0.83-1.6,1.46l-3.97,6.35
		c-0.29,0.46-0.48,0.97-0.56,1.51l-1.47,9.56c-0.24,1.59-1.42,2.88-2.98,3.27l-0.94,0.24c-0.32,0.08-0.64,0.12-0.97,0.12H18.2
		c-1.26,0-2.44,0.59-3.2,1.6l-1.1,1.47c-0.46,0.61-0.73,1.33-0.79,2.09l-0.83,10.76C12.24,62.75,12.7,63.25,13.28,63.25z"/>
	<line class="st2" x1="12.2" y1="27.25" x2="18.2" y2="31.25"/>
	<path class="st2" d="M16.08,29.89c0,0-1.37,2.86,1.63,3.86s5-1,5-1l17-19c0,0,10-11,15-11v3.6"/>
	<polygon class="st3" points="54.7,2.75 58,4 54.6,5.1 	"/>
</g>
</svg>
