<?xml version="1.0" encoding="utf-8"?>
<!-- Generator: Adobe Illustrator 26.0.3, SVG Export Plug-In . SVG Version: 6.00 Build 0)  -->
<svg version="1.1" id="Ebene_1" xmlns="http://www.w3.org/2000/svg" xmlns:xlink="http://www.w3.org/1999/xlink" x="0px" y="0px"
	 viewBox="0 0 66 66" style="enable-background:new 0 0 66 66;" xml:space="preserve">
<g>
	<polygon style="fill:#FF7F0E;" points="55.238,58.991 45.694,54.414 41.962,65.929 29.711,30.818 42.987,23.88 	"/>
	<polygon style="fill:#FF7F0E;" points="10.762,58.991 20.306,54.414 24.038,65.929 36.289,30.818 23.013,23.88 	"/>
</g>
<g>
	<path style="fill:#FFCC9F;" d="M57.259,23.985c0,1.751-2.909,3.152-3.281,4.79c-0.385,1.692,1.619,4.213,0.883,5.739
		c-0.748,1.551-3.976,1.551-5.04,2.884c-1.069,1.339-0.356,4.485-1.695,5.554c-1.332,1.064-4.24-0.328-5.791,0.42
		c-1.526,0.736-2.245,3.884-3.937,4.268c-1.638,0.372-3.647-2.143-5.398-2.143c-1.751,0-3.761,2.515-5.399,2.143
		c-1.692-0.385-2.411-3.532-3.937-4.269c-1.551-0.748-4.459,0.643-5.791-0.421c-1.339-1.069-0.625-4.215-1.694-5.554
		c-1.064-1.332-4.292-1.333-5.04-2.884c-0.736-1.526,1.268-4.047,0.883-5.739c-0.372-1.638-3.281-3.039-3.281-4.79
		c0-1.751,2.909-3.152,3.281-4.79c0.385-1.692-1.619-4.213-0.883-5.739c0.748-1.551,3.976-1.551,5.04-2.884
		c1.069-1.339,0.356-4.485,1.695-5.554c1.332-1.064,4.24,0.328,5.791-0.42c1.526-0.736,2.245-3.884,3.937-4.268
		C29.24-0.043,31.249,2.472,33,2.472c1.751,0,3.761-2.515,5.399-2.143c1.692,0.385,2.411,3.532,3.937,4.269
		c1.551,0.748,4.459-0.643,5.791,0.421c1.339,1.069,0.625,4.215,1.694,5.554c1.064,1.332,4.292,1.333,5.04,2.884
		c0.736,1.526-1.268,4.047-0.883,5.739C54.35,20.833,57.259,22.234,57.259,23.985z"/>
</g>
<circle style="fill:#FF7F0E;" cx="33" cy="23.985" r="17.848"/>
<path style="fill:#FFFFFF;" d="M32.968,13.406c1.467,0.274,2.573,1.607,2.573,4.943c0,3.796-1.491,5.003-3.934,5.003h-1.063v-8.2
	L32.968,13.406z M42.533,32.812l-3.634-7.773c-2.745,0.109-5.18-0.402-5.18-0.402v-0.39c4.426-0.779,8.512-2.234,8.512-6.144
	c0-4.95-4.513-5.986-9.707-6.009l-0.001-0.002H21.8v0.843l2.08,1.118l0.404,0.824v17.111l-0.404,0.824l-2.08,1.118v0.843h11.26
	v-0.843l-2.079-1.118l-0.437-0.824V26.57l1.805-1.537l3.95,9.74h8.313v-0.843L42.533,32.812z"/>
</svg>
