<?xml version="1.0" encoding="utf-8"?>
<!-- Generator: Adobe Illustrator 26.0.3, SVG Export Plug-In . SVG Version: 6.00 Build 0)  -->
<svg version="1.1" id="Ebene_1" xmlns="http://www.w3.org/2000/svg" xmlns:xlink="http://www.w3.org/1999/xlink" x="0px" y="0px"
	 viewBox="0 0 66 66" style="enable-background:new 0 0 66 66;" xml:space="preserve">
<g>
	<circle style="fill:#FFFFFF;stroke:#D12728;stroke-width:2.5;stroke-miterlimit:10;" cx="25.734" cy="33.067" r="23.826"/>
	<circle style="fill:none;stroke:#D12728;stroke-width:2.5;stroke-miterlimit:10;" cx="25.734" cy="33.067" r="8.778"/>
	<circle style="fill:none;stroke:#D12728;stroke-width:2.5;stroke-miterlimit:10;" cx="25.734" cy="33.067" r="16.302"/>
	
		<line style="fill:none;stroke:#1D1D1B;stroke-width:1.5;stroke-linecap:round;stroke-linejoin:round;stroke-miterlimit:10;" x1="27.52" y1="30.741" x2="24.52" y2="33.741"/>
	
		<line style="fill:none;stroke:#1D1D1B;stroke-width:1.5;stroke-linecap:round;stroke-linejoin:round;stroke-miterlimit:10;" x1="24.52" y1="30.741" x2="27.52" y2="33.741"/>
</g>
<g>
	<path style="fill:#7F7F7F;" d="M59,41l0.846-0.522L66,36.887l-11.35-2.985c-3.122-0.821-6.28,0.543-7.928,3.124
		c-0.123,0.193-0.259,0.377-0.365,0.584c-0.01,0.232,0.018,0.459,0.03,0.688c0.166,3.058,2.244,5.799,5.366,6.619l11.35,2.984
		l-3.59-6.152L59,41z"/>
	<path style="fill:#1D1D1B;" d="M60.946,40.296l-1.824-0.48l-32.615-8.785c-0.494-0.13-0.999,0.165-1.129,0.659
		c-0.13,0.494,0.165,0.999,0.659,1.129l32.617,8.785l1.823,0.479c0.247,0.065,0.497,0.024,0.701-0.095
		c0.204-0.119,0.363-0.316,0.428-0.563C61.735,40.93,61.44,40.425,60.946,40.296z"/>
</g>
</svg>
