<?xml version="1.0" encoding="utf-8"?>
<!-- Generator: Adobe Illustrator 26.0.3, SVG Export Plug-In . SVG Version: 6.00 Build 0)  -->
<svg version="1.1" id="Ebene_1" xmlns="http://www.w3.org/2000/svg" xmlns:xlink="http://www.w3.org/1999/xlink" x="0px" y="0px"
	 viewBox="0 0 66 66" style="enable-background:new 0 0 66 66;" xml:space="preserve">
<path style="fill:#1F77B2;" d="M62.615,4.431c-3.422-3.665-13.252-0.047-21.956,8.08c-7.341,6.855-11.515,14.714-10.596,19.21
	l8.608-8.037l3.098,3.318l-8.608,8.037c4.423,1.225,12.55-2.402,19.89-9.257C61.755,17.655,66.037,8.096,62.615,4.431z"/>
<circle style="fill:#FFFFFF;" cx="51.613" cy="14.554" r="4.059"/>
<g>
	<path style="fill:#7F7F7F;" d="M19.755,19.781l1.521-1.421l14.017-0.155c-1.768,2.289-3.19,4.611-4.127,6.738L19.755,19.781z"/>
	<path style="fill:#7F7F7F;" d="M35.036,18.333c-1.669,2.189-3.021,4.403-3.934,6.444l-11.125-5.033l1.314-1.227L35.036,18.333
		 M35.55,18.076l-14.359,0.192l-1.659,1.549l11.697,5.292C32.188,22.897,33.657,20.497,35.55,18.076L35.55,18.076z"/>
</g>
<g>
	<path style="fill:#7F7F7F;" d="M39.999,34.404c2.187-0.789,4.601-2.05,7.005-3.656l-1.153,14.054l-1.481,1.342L39.999,34.404z"/>
	<path style="fill:#7F7F7F;" d="M46.858,30.994l-1.123,13.7l-1.314,1.227l-4.26-11.443C42.259,33.707,44.56,32.51,46.858,30.994
		 M47.15,30.499c-2.544,1.723-5.039,3.024-7.311,3.83l4.479,12.031l1.659-1.549L47.15,30.499L47.15,30.499z"/>
</g>
<g>
	
		<rect x="27.576" y="28.233" transform="matrix(0.7309 -0.6825 0.6825 0.7309 -11.36 31.944)" style="fill:#7F7F7F;" width="14.503" height="4.289"/>
	<path style="fill:#7F7F7F;" d="M38.658,24.037l2.757,2.952l-10.418,9.728l-2.757-2.952L38.658,24.037 M38.67,23.684L27.887,33.753
		l3.098,3.318l10.783-10.069L38.67,23.684L38.67,23.684z"/>
</g>
<polygon style="fill:#FF7F0E;" points="31.776,27.298 3.52,48.813 18.412,44.587 2.757,63.412 21.848,48.428 16.885,63.412 
	38.649,33.061 "/>
<path style="fill:#1F77B2;" d="M62.615,4.431c-3.422-3.665-13.252-0.047-21.956,8.08c-7.341,6.855-11.515,14.714-10.596,19.21
	l8.608-8.037l3.098,3.318l-8.608,8.037c4.423,1.225,12.55-2.402,19.89-9.257C61.755,17.655,66.037,8.096,62.615,4.431z"/>
<circle style="fill:#FFFFFF;" cx="51.613" cy="14.554" r="4.059"/>
<g>
	<path style="fill:#7F7F7F;" d="M19.755,19.781l1.521-1.421l14.017-0.155c-1.768,2.289-3.19,4.611-4.127,6.738L19.755,19.781z"/>
	<path style="fill:#7F7F7F;" d="M35.036,18.333c-1.669,2.189-3.021,4.403-3.934,6.444l-11.125-5.033l1.314-1.227L35.036,18.333
		 M35.55,18.076l-14.359,0.192l-1.659,1.549l11.697,5.292C32.188,22.897,33.657,20.497,35.55,18.076L35.55,18.076z"/>
</g>
<g>
	<path style="fill:#7F7F7F;" d="M39.999,34.404c2.187-0.789,4.601-2.05,7.005-3.656l-1.153,14.054l-1.481,1.342L39.999,34.404z"/>
	<path style="fill:#7F7F7F;" d="M46.858,30.994l-1.123,13.7l-1.314,1.227l-4.26-11.443C42.259,33.707,44.56,32.51,46.858,30.994
		 M47.15,30.499c-2.544,1.723-5.039,3.024-7.311,3.83l4.479,12.031l1.659-1.549L47.15,30.499L47.15,30.499z"/>
</g>
<g>
	
		<rect x="27.576" y="28.233" transform="matrix(0.7309 -0.6825 0.6825 0.7309 -11.36 31.9441)" style="fill:#7F7F7F;" width="14.503" height="4.289"/>
	<path style="fill:#7F7F7F;" d="M38.658,24.037l2.757,2.952l-10.418,9.728l-2.757-2.952L38.658,24.037 M38.67,23.684L27.887,33.753
		l3.098,3.318l10.783-10.069L38.67,23.684L38.67,23.684z"/>
</g>
</svg>
