<?xml version="1.0" encoding="utf-8"?>
<!-- Generator: Adobe Illustrator 16.0.0, SVG Export Plug-In . SVG Version: 6.00 Build 0)  -->
<!DOCTYPE svg PUBLIC "-//W3C//DTD SVG 1.1//EN" "http://www.w3.org/Graphics/SVG/1.1/DTD/svg11.dtd" [
	<!ENTITY ns_flows "http://ns.adobe.com/Flows/1.0/">
	<!ENTITY ns_extend "http://ns.adobe.com/Extensibility/1.0/">
	<!ENTITY ns_ai "http://ns.adobe.com/AdobeIllustrator/10.0/">
	<!ENTITY ns_graphs "http://ns.adobe.com/Graphs/1.0/">
]>
<svg version="1.1" id="Ebene_1" xmlns:x="&ns_extend;" xmlns:i="&ns_ai;" xmlns:graph="&ns_graphs;"
	 xmlns="http://www.w3.org/2000/svg" xmlns:xlink="http://www.w3.org/1999/xlink" xmlns:a="http://ns.adobe.com/AdobeSVGViewerExtensions/3.0/"
	 x="0px" y="0px" width="1280px" height="1280px" viewBox="0 0 1280 1280" enable-background="new 0 0 1280 1280"
	 xml:space="preserve">
<g>
	<g>
		<path fill="#1D1D1B" d="M640.007812,1280C287.106445,1280,0,992.911133,0,640C0,287.103516,287.106445,0,640.007812,0
			C992.908203,0,1280,287.103516,1280,640C1280,992.911133,992.908203,1280,640.007812,1280z M640.007812,135.529297
			c-278.165527,0-504.477051,226.30957-504.477051,504.470703c0,278.176758,226.311523,504.470703,504.477051,504.470703
			c278.164062,0,504.460938-226.293945,504.460938-504.470703C1144.46875,361.838867,918.171875,135.529297,640.007812,135.529297z"
			/>
	</g>
	<g>
		<g>
			<path fill="#1D1D1B" d="M372.29834,361.132812c21.691406,0,92.163086,2.706055,126.486816,2.706055
				c68.677734,0,118.369141-2.706055,171.678711-2.706055c111.118164,0,171.648438,56.911133,171.648438,138.234375
				c0,70.470703-46.05957,112.926758-105.707031,136.427734c-0.881836,0.896484-1.823242,5.410156-0.881836,7.219727
				c17.146484,33.456055,99.353516,155.397461,143.648438,197.867188c31.618164,30.707031,37.029297,33.412109,83.118164,38.853516
				c1.824219,2.706055-2.705078,29.793945-6.323242,32.529297c-53.324219,4.5-145.472656,0-182.501953-16.264648
				c-21.706055-10.823242-39.765625-29.823242-45.176758-37.941406C692.140625,813.764648,649.668945,737,620.756836,689.118164
				c-6.323242-9.941406-13.543945-15.382812-26.191406-16.294922h-21.691406c-1.808594,0-3.617188,3.647461-3.617188,5.412109
				c0,56.058594,0.911133,112.058594,1.808594,150.911133c0.912109,26.206055,6.323242,37.030273,25.30957,42.442383
				c16.25,4.529297,24.381836,5.44043,47.882812,9.058594c4.514648,0.881836,3.602539,28.881836-1.80957,30.705078
				c-19.881836,0-63.25-2.706055-134.619141-2.706055c-75.000488,0-115.647949,2.706055-134.633789,2.706055
				c-3.603027-3.587891-5.411621-27.117188-0.896973-30.705078c16.265137-1.823242,29.809082-4.529297,41.55957-7.235352
				c18.970703-4.529297,25.294434-16.264648,26.206055-44.265625c1.808594-28.02832,2.705566-149.969727,2.705566-205.999023
				c0-87.647461,0-142.750977-1.808594-182.514648c-0.896973-24.382812-9.029297-37.044922-25.294434-40.647461
				c-10.838379-2.720703-28.912109-6.324219-46.074219-8.132812C365.974609,386.425781,367.783691,362.941406,372.29834,361.132812z
				 M577.388672,403.587891c-3.602539,2.720703-6.323242,9.941406-6.323242,13.55957
				c-1.808594,19.881836-1.808594,86.734375-1.808594,206c0,3.617188,2.720703,7.220703,5.425781,7.220703
				c38.853516,1.808594,81.310547-1.808594,97.575195-10.838867c23.5-11.75,40.676758-35.235352,40.676758-92.161133
				c0-74.985352-41.588867-127.382812-111.148438-127.382812C595.462891,399.985352,583.712891,400.881836,577.388672,403.587891z"
				/>
		</g>
	</g>
</g>
</svg>
