<?xml version="1.0" encoding="UTF-8"?>
<svg id="Layer_1" xmlns="http://www.w3.org/2000/svg" version="1.1" viewBox="0 0 64 64">
  <!-- Generator: Adobe Illustrator 30.1.0, SVG Export Plug-In . SVG Version: 2.1.1 Build 136)  -->
  <defs>
    <style>
      .st0 {
        fill: #ece92b;
      }

      .st1 {
        fill: #fff;
      }
    </style>
  </defs>
  <path class="st0" d="M28.93,22.25c-4.86.39-10.34.75-15.06-.6-.94-.27-1.87-.62-2.77-1-.11,7.61-.51,15.23-.47,22.86.02,3.52.21,7.08.18,10.61.58.92,1.61,1.43,2.58,1.89,6.04,2.85,12.43,2.96,18.96,1.95,2.45-.38,6.86-1.71,8.65-3.31h0c.12-.11.34-.05.48-.32.31-.59.11-3.19.14-4.05.3-8.41.22-16.82.47-25.22.06-1.92.24-3.89.38-5.81-.29.17-.59.33-.91.44-3.95,1.47-8.42,2.21-12.63,2.54Z"/>
  <path class="st0" d="M54.92,27.61c-1.42-3.42-5.55-5.74-9.24-5.38-.24.02-1.82.42-1.91.51l-.28,4.8c2.98-.78,6.86.71,7.52,4.07.65,3.36-1.04,6.56-4.2,7.86-1.13.47-2.21.61-3.41.83h0s-.06,5.03-.06,5.03c.04.07,1.04,0,1.21,0,8.52-.99,13.69-9.67,10.36-17.7Z"/>
  <path class="st1" d="M30.72,14.26c.78,1.24,2.11,2.25,1.37,3.91,1.57.35,3.21.35,4.76.85.23.07.93.34,1.1.44.22.14.32.42.35.43h0c.18.09,3.42-1.11,3.66-1.36.77-.81.1-1.32-.55-1.79-1.1-.79-2.63-1.21-3.94-1.52-.81-.19-6.42-1.23-6.74-.95Z"/>
  <polygon class="st1" points="20.01 15.09 20.01 15.09 20.01 15.09 20.01 15.09"/>
  <path class="st1" d="M14.47,20.82c2.91-1.53,6.25-2.55,9.56-2.59.01-.25-.28-.4-.45-.52-1.16-.85-2.87-1.15-3.57-2.62-3.04.69-6.75,1.52-8.73,4.13-.1.92,2.52,1.41,3.19,1.61Z"/>
  <path class="st1" d="M28.38,12.31c-.16,1.24.56,2.23,1.2,3.11.89,1.23,1.31,1.92.34,2.88-.21.2-1.97,1.39-2.27,1.52-.23.07-.37.3-.31.54.05.21.24.36.45.36.03,0,.07,0,.1-.01.38-.09,2.49-1.57,2.68-1.76,1.58-1.56.57-2.95-.24-4.07-.59-.81-1.15-1.58-1.03-2.45.27-2.14,2.34-2.99,4.52-3.9,1.52-.63,3.08-1.28,4.01-2.41.14-.17.23-.34.31-.5.04-.07.07-.14.11-.2.14-.21.07-.5-.14-.63-.21-.13-.5-.08-.63.14-.05.08-.1.18-.15.27-.06.12-.12.24-.2.33-.78.96-2.18,1.53-3.66,2.14-2.22.92-4.74,1.96-5.08,4.63Z"/>
  <path class="st1" d="M23.08,16.63c.8.45,1.56.88,1.73,1.46.26.86,0,1.15-.8,1.88-.19.17-.2.46-.03.65.09.1.21.15.34.15.11,0,.22-.04.31-.12.78-.7,1.51-1.36,1.06-2.82-.28-.92-1.23-1.46-2.16-1.99-1.68-.95-2.68-1.64-1.87-3.54.86-2.03,2.87-2.91,4.99-3.85,1.68-.74,3.41-1.5,4.52-2.89.18-.23.7-1.01.74-1.62.01-.25-.18-.47-.43-.48-.27,0-.47.18-.48.43-.02.27-.34.84-.54,1.1-.97,1.21-2.52,1.9-4.17,2.62-2.19.96-4.46,1.96-5.46,4.33-1.17,2.75.81,3.88,2.26,4.69Z"/>
</svg>