<?xml version="1.0" encoding="UTF-8"?>
<svg id="Layer_1" xmlns="http://www.w3.org/2000/svg" version="1.1" viewBox="0 0 64 64">
  <!-- Generator: Adobe Illustrator 30.1.0, SVG Export Plug-In . SVG Version: 2.1.1 Build 136)  -->
  <defs>
    <style>
      .st0 {
        fill: #060705;
      }

      .st1 {
        fill: #dbdb00;
      }

      .st2 {
        fill: #fff;
      }

      .st3 {
        fill: #e9e62d;
      }

      .st4 {
        fill: #41c379;
      }
    </style>
  </defs>
  <path class="st2" d="M43,41.15c-.21.39-.56.83-.98,1.05.45-.2.82-.68,1.04-1.08.42-.77.81-1.16,1.21-1.4-.42.24-.83.63-1.26,1.43Z"/>
  <path class="st2" d="M48.64,29.3c-.15.22-.29.63-.24.88.04.21.34.52.54.64,1.74.98.19,2.58-.08,3.7-.29,1.31-.72,2.39-1.58,3.41-.4.47-.76.77-1.1.98.36-.21.74-.51,1.16-1.01.85-1.01,1.29-2.1,1.58-3.41.25-1.12,1.81-2.73.08-3.7-.21-.12-.5-.42-.54-.64-.05-.24.08-.66.24-.88.11-.15.23-.27.35-.35-.14.08-.28.2-.41.38Z"/>
  <path class="st2" d="M10.59,27.81s0,.1,0,.15c0-.12,0-.25,0-.37,0,.08-.01.15-.01.22Z"/>
  <path class="st2" d="M10.69,25.84c0-.06,0-.12.01-.18,0,.06,0,.12-.01.18Z"/>
  <path class="st2" d="M11.71,34.45c-.12-.35-.23-.7-.33-1.05.1.35.21.7.33,1.05Z"/>
  <path class="st2" d="M12.6,36.64c-.31-.64-.58-1.3-.82-1.97.24.68.51,1.33.82,1.97Z"/>
  <path class="st2" d="M40.36,29.61c-.22,2.42-1.4,4.61-3.24,6.19,0,0,.01,0,.02,0,1.86-1.59,3.06-3.79,3.28-6.23.02-.19.08-.35.18-.46-.14.11-.22.27-.24.49Z"/>
  <path class="st2" d="M43.01,11.02c.45.32.9.65,1.32,1.01-.42-.36-.87-.69-1.32-1.01Z"/>
  <path class="st2" d="M51.61,29.28s.01,0,.02,0c.03-.49.07-.97.07-1.47,0-3.93-1.12-7.58-3.02-10.7,2.19,3.62,3.23,7.88,2.93,12.18Z"/>
  <path class="st2" d="M33.25,28.73c.4-.32.64-1.1,1.1-1.27-.47.11-.71.91-1.1,1.27Z"/>
  <path class="st2" d="M38.71,8.69c.34.13.67.28,1,.43-.33-.15-.66-.3-1-.43Z"/>
  <path class="st2" d="M41.77,12.24s-.02.02-.04.02c1.34-.64,2.14-.52,2.89.02-.07-.06-.14-.13-.21-.19-.68-.38-1.44-.43-2.64.15Z"/>
  <path class="st2" d="M47.44,15.29c-.58-.76-1.2-1.48-1.88-2.15.17.18.35.37.53.56.48.51.93,1.03,1.35,1.58Z"/>
  <path class="st2" d="M18.08,43.69s0,0,0,0c0,0,0,0,0,0Z"/>
  <path class="st2" d="M16.77,42.5c-.08-.08-.17-.16-.25-.25.08.08.17.17.25.25Z"/>
  <path class="st2" d="M33.13,28.82s0,0-.01,0c0,0,0,0,.01,0Z"/>
  <path class="st2" d="M16.51,13.37c.07-.07.13-.14.2-.2-.07.07-.13.14-.2.2Z"/>
  <path class="st2" d="M24.46,21.46s0,.01-.01.02c.45-.13.81-.28,1.09-.46-.28.17-.63.33-1.08.45Z"/>
  <path class="st2" d="M11.49,21.79c.03-.11.08-.22.11-.33-.04.11-.08.22-.11.33Z"/>
  <path class="st2" d="M47.53,15.41c.41.54.79,1.09,1.13,1.66-.35-.57-.73-1.13-1.13-1.66Z"/>
  <path class="st2" d="M36.57,34.04c.19-.1.4-.21.61-.32-.21.12-.42.22-.61.32Z"/>
  <path class="st2" d="M23.78,47c-.3-.11-.6-.23-.9-.36.3.13.6.24.9.36Z"/>
  <path class="st2" d="M11,23.76c.04-.21.1-.41.15-.62-.05.21-.11.41-.15.62Z"/>
  <path class="st2" d="M14.43,39.75c-.63-.88-1.19-1.81-1.67-2.78.48.97,1.04,1.9,1.67,2.78Z"/>
  <path class="st2" d="M11.21,32.74c-.11-.44-.2-.88-.28-1.33.08.45.18.89.28,1.33Z"/>
  <path class="st2" d="M30.25,27.96s.03-.01.04-.02c.5-.34.19-.98.61-1.24,0,0-.02,0-.02,0-.47.24-.15.9-.63,1.25Z"/>
  <path class="st2" d="M32.37,17.7c.28-.03.53-.12.77-.23-.22.1-.45.17-.71.19-1.51.17-2.49-.28-4.57.73-.02,0-.03.02-.05.03,2.09-1.01,3.07-.55,4.57-.73Z"/>
  <path class="st2" d="M15.41,41.03c-.13-.16-.26-.33-.39-.49.13.16.25.33.39.49Z"/>
  <path class="st2" d="M40.05,15.11c-.75.28-1.85-.2-2.43-.15-.75.07-1.53.33-2.19.74.64-.39,1.4-.64,2.13-.71.6-.05,1.73.46,2.49.12Z"/>
  <path class="st2" d="M13.63,29.44c-.09-.06-.17-.14-.22-.23h0c.05.1.13.17.22.23Z"/>
  <path class="st2" d="M26.4,7.81c.4-.09.81-.18,1.21-.25-.41.07-.81.15-1.21.25Z"/>
  <path class="st2" d="M18.39,42.48c-.19-.9.33-1.76.98-2.34.5-.45.52-1.27.1-1.79-.64-.77-1.3-.96-1.22-1.57.05-.54.97-.94,1.15-1.64.24-.96-.53-1.71-1.43-1.87-.41-.08-.8-.42-.9-.76-.29-.9,1.08-1.55.56-2.53-.17-.34-.61-.7-1.08-.63,0,0,0,0,0,0,.47-.06.89.29,1.07.63.52.98-.85,1.62-.56,2.53.11.34.49.69.9.76.89.17,1.67.92,1.43,1.87-.19.71-1.09,1.1-1.15,1.64-.07.61.58.8,1.22,1.57.42.51.4,1.34-.1,1.79-.65.59-1.18,1.44-.98,2.34.09.44.34.9-.16,1.32,0,0,0,0,0,0,.51-.42.25-.88.17-1.32Z"/>
  <path class="st2" d="M34.62,48.08c-.53.09-1.06.17-1.59.22.54-.05,1.06-.13,1.59-.22Z"/>
  <path class="st2" d="M23.97,45.48c2.33-.8,3.94.6,6.38-.52.84-.38,1.87-.27,2.69.19,2.29,1.3,2.55,0,5.1.27.65.07,1.07.58,1.35,1.19l-.9.38c6.87-2.68,11.94-8.93,12.93-16.49l-1.53-.38c1.95,1.8.25,3.47,0,4.56h.02c-.32,1.48-.86,2.72-1.81,3.89-2,2.46-3.19,1.25-4.12,2.91-.58,1.02-1.73,2.3-2.97,1.95-1.09-.3-1.82-1.14-2.28-2.17-.96-2.18-.08-3.12-1.57-4.1-1.82,1.24-3.79,1.94-5.96,1.86-4.85-.15-8.19-4.17-7.91-8.98.02-.33.36-.57.64-.52.2.03.47.38.45.64-.28,3.66,1.99,6.92,5.62,7.62,2.05.39,4.12-.03,5.94-1.15-.47-.52-.89-.96-1.09-1.57-.35-1.09.83-1.85,1.62-2.29-1.52-.28-2.46-1.67-1.9-3.07.19-.48.66-.82.99-1.22-.31,0-.68.03-.98.1-.35.85-1.09,1.49-2,1.47-.83-.02-1.37-.62-1.37-1.47-.54.38-.99.68-1.55.69-1.27.02-1.26-1.43-1.87-1.99-.61-.57-1.47-.7-2.27-.8-1.46-.19-2.67-1.17-3.01-2.63-.17-.77.15-1.54.47-2.21.85-1.86,1.93-.85,2.66-2.37.38-.8.93-1.48,1.74-1.88,1.22-.6,2.64-.87,4-.76,1.11.09,1.82-.38,2.56-1.15.87-.92,2.29-1.74,3.54-1.6l2.05.23c.12-2.03,1.09-2.72,2.98-3.37-.89-.6-1.85-1.12-2.83-1.57-.59.67-1.26,1.1-2.09,1.35-1.99.58-2.45-.08-2.98.38-1.33,1.15-2.95,1.8-4.74,1.71-.61-.03-1.36-.33-1.66-.87-.15-.27-.13-.8-.17-1.13l-3.96,1.23c-1.26.39-3.66.13-4.14-1.3.51-.33,1.03-.64,1.57-.92l-.5.64s0,0,0,0l.51-.66c-1.65.86-3.15,1.95-4.5,3.2,0,0,0,0,0,0,.52-.48,1.06-.94,1.62-1.36.67.28,1.36.49,1.67,1.11.32.63-.11,1.35-.44,1.94.58.15,1.2.25,1.57.68.56.65.77,1.63.48,2.44-.34.94-1.15,1.45-1.91,2.02.11.56.48,1.23.29,1.78-.52,1.49-1.52,2.7-2.67,3.74-.93.84-1.84,1.61-2.91,2.23-.44.25-.82.66-.46,1.19l1.97-.27c1-.14,1.76.47,2.21,1.27s.15,1.76-.48,2.59c.83.22,1.48.6,1.95,1.27.77,1.12.49,2.55-.61,3.41.4.44.77.8,1.03,1.19.71,1.08.32,2.39-.61,3.14-1.15.94.52,1.98-.62,3.43,1.12.8,2.31,1.49,3.58,2.05.35-.46.65-.95,1.15-1.14ZM19.61,10.79s.04-.03.06-.05c-.02.01-.04.03-.06.05Z"/>
  <path class="st2" d="M36.57,47.64c-.56.15-1.12.28-1.68.39.57-.11,1.13-.24,1.68-.39Z"/>
  <path class="st2" d="M23,8.92c.11-.05.22-.09.33-.14-.11.05-.22.09-.33.14Z"/>
  <path class="st2" d="M24.78,8.25c.23-.07.45-.14.68-.2-.23.07-.46.13-.68.2Z"/>
  <path class="st2" d="M10.76,30.3c-.02-.2-.05-.4-.07-.6.02.2.05.4.07.6Z"/>
  <path class="st2" d="M28.37,7.44c.4-.05.8-.1,1.2-.13-.41.03-.81.08-1.2.13Z"/>
  <path class="st2" d="M30.41,48.35c.25,0,.49.04.74.04.5,0,.99-.04,1.48-.07-.74.05-1.48.06-2.22.04Z"/>
  <path class="st2" d="M38.28,46.65c.09.11.14.26.13.38h-.01c-.57.23-1.14.42-1.73.58.59-.17,1.18-.36,1.75-.57,0-.13-.04-.28-.14-.39Z"/>
  <path class="st2" d="M19.43,13.01c.11.53-.77.94-.54,1.81.23.87,1.51.76,1.84,1.03.4.34.48,1.08.25,1.52-.59,1.15-2.46,1.29-1.74,2.92.23.52.16,1.06-.14,1.52l-.61.94c-.8,1.22-3.04,3.05-4.34,3.76-1.3.71-1.02,2.18-.76,2.69h0c-.27-.51-.47-2.03.76-2.69,1.3-.7,3.54-2.54,4.34-3.76l.61-.94c.31-.47.37-1,.14-1.52-.72-1.62,1.15-1.76,1.74-2.92.23-.45.16-1.19-.25-1.52-.33-.27-1.61-.16-1.84-1.03-.23-.87.66-1.26.54-1.81-.06-.27-.54-.41-1.07-.43.52.03,1.01.17,1.06.43Z"/>
  <path class="st2" d="M31.31,7.24c-.05,0-.11,0-.16,0-.1,0-.2.01-.31.02.16,0,.31,0,.47,0Z"/>
  <path class="st2" d="M17.69,12.61s.03,0,.04,0c-.01,0-.03,0-.04,0Z"/>
  <path class="st2" d="M18.02,12.58c.08,0,.17,0,.25,0-.08,0-.17,0-.25,0Z"/>
  <path class="st2" d="M25.38,47.55c-.32-.09-.64-.2-.95-.31.31.11.63.22.95.31Z"/>
  <path class="st2" d="M29.22,48.29c-.29-.03-.58-.08-.87-.12.29.04.58.09.87.12Z"/>
  <path class="st2" d="M27.26,48.01c-.3-.06-.6-.13-.9-.2.3.07.59.15.9.2Z"/>
  <path class="st2" d="M51.6,29.9s0,.02,0,.02c0,0,0-.02,0-.02Z"/>
  <path class="st3" d="M63.65,12.87c-.45-2.29-2.47-4.26-4.87-4.28-1.09-.01-2.2.41-3.01.99-1.18.84-1.46,2.23-1.46,3.61,0,.52.11,1.18.69,1.34,1.05-.33,2.07-.17,2.96.58l2.21-.88c.14-.05.49.11.54.24.42.96-1.51,1.19-2.09,1.63l2.25.31c.2.02.28.49.24.71-.04.22-.41.31-.7.28l-1.61-.13c-.16.63-.44,1.03-.95,1.33-.47.27-1,.28-1.51,0-.32-.17-.56-.65-.66-1.14-.07-.29.14-.68.36-.73.93-.23.5.96,1.14.98.14,0,.42-.21.47-.36.19-.71-.24-1.38-.86-1.68-.97-.46-1.86-.01-2.48.85-.45.63-.56,1.64-.15,2.46.27.54.88,1.43,1.7,1.39l4.55-.16c.53-.01,1.27-.01,1.68-.26,2.22-1.42,2-4.78,1.56-7.07Z"/>
  <path class="st3" d="M5.69,20.34c1.34.12,2.27-.41,2.8-1.62.37-.85.46-1.78-.33-2.55-.66-.66-1.82-.65-2.68-.16-.27.16-.6.6-.52.88.21.82,1,1.07,1.78.81.19-.07.54.05.65.2.11.14.02.6-.13.71-.47.32-1,.28-1.54.21-1.05-.15-1.73-.88-1.97-1.96h0s-.01.01-.01.01c-.6.04-1.07-.11-1.38-.44-.12-.12-.12-.45-.05-.58s.38-.32.52-.27l1.19.35.42-.51-1.15-1.34c-.11-.14-.03-.57.11-.68.14-.11.58-.14.7-.01l1.37,1.47c1.25-.42,2.54-.19,3.62.52,1.2-1.08,1.7-3.64.56-4.97-.73-.85-1.9-1.17-2.94-1.41-1.85-.42-4.87.49-5.87,2.36-1.09,2.04-.89,4.44-.12,6.56l.84,2.28c1.35.01,2.81.02,4.15.14Z"/>
  <path class="st3" d="M18.93,49.81l.81.33c.38.15.52.51.31.9-.14.26-.57.22-.85.09l-.64-.29-.6,1.19.6.8c.21.28.09.75-.19.85-.81.32-.83-.95-1.26-.76-.27.11-.77.35-.96.44h-.02c-.05.56-.09.89-.23,1.22-.12.27-.75.28-.88,0s-.02-.74.07-1.09l-2.43.28c-.71.09-1.35.28-1.97.61-.72.59-1,1.56-.53,2.41l9.47-.14,2.42-6.82-2.85-.8-.24.8Z"/>
  <path class="st3" d="M51.11,54.08c-.58-.27-1.26-.4-1.94-.4l-2.47.03c-.36.32-.2.87-.66,1.15-.13.08-.63,0-.68-.16h0c-.11-.37.03-.89.15-1.14l-1.05-.51c-.15-.26-.95,1.13-1.48.5-.6-.71.59-1.11.78-1.57l-.25-1.3c-.38.13-.68.21-.9.15-.17-.04-.41-.42-.35-.62.23-.73,1.48-.26,1.02-1.15-.08-.13-.47-.15-.63-.1l-2.21.71.49,2.77.7,4.12,9.41-.1c.22,0,.54.08.65-.02.26-.23.74-1.73-.59-2.35Z"/>
  <path class="st3" d="M56.5,21.49l-.13,2.47c.29.02.71.11.99.11h3.52c.11-.99.15-1.92.13-2.77l-2.42.03c-.69,0-1.34.09-2.09.15Z"/>
  <polygon class="st1" points="6.04 23.58 6.22 21.41 3.88 21.31 1.52 21.28 1.31 23.7 2.77 23.63 6.04 23.58"/>
  <path class="st2" d="M6.88,27.13c-.65-.02-1.27-.25-1.59-.72-.35-.52-.42-1.03-.39-1.74l-2.41.04c-.08,1.46-.12,3.61,1.35,4.37,1.09.57,4.44.94,5.65.58l-.08-2.45-2.54-.08Z"/>
  <path class="st2" d="M57.07,26.43c-.6.72-1.43.84-2.28.86l-1.95.07s-.1,2.56-.1,2.56c1.96.17,5.79.19,6.73-1.73.45-.93.53-1.88.68-3.04l-2.74-.03c-.03.51-.08,1.01-.34,1.32Z"/>
  <polygon class="st2" points="42 48.01 43.16 47.65 42.9 46.04 40.04 47.59 40.23 48.53 42.02 48.01 42 48.01"/>
  <polygon class="st2" points="19.49 47.96 22.45 48.76 22.45 48.75 22.76 47.8 19.9 46.34 19.49 47.96"/>
  <path d="M39.79,9.15s-.05-.02-.08-.03c.02.01.05.02.07.04,0,0,0,0,0,0Z"/>
  <polygon points="38.71 8.69 38.71 8.68 38.71 8.69 38.71 8.69"/>
  <path d="M36.07,9.72c-2.47-.65-2.23,1.76-5.62,1.76-.38,0-.78.05-1.14-.29v-.02l-.08-1.03c-.01-.17-.16-.48-.29-.58-.15-.12-.62-.16-.82-.1-1.52.5-2.95,1-4.48,1.39-.89.23-1.81,0-2.54-.59v-.02s.01,0,0,0l.5-.64c-.54.28-1.06.59-1.57.92.48,1.43,2.88,1.69,4.14,1.3l3.96-1.23c.04.34.02.86.17,1.13.29.54,1.05.84,1.66.87,1.79.09,3.41-.56,4.74-1.71.53-.46.99.2,2.98-.38.83-.25,1.5-.68,2.09-1.35-.02-.01-.05-.02-.07-.04-.33-.15-.66-.3-1-.43,0,0,0,0,0,0-.75.79-1.72.95-2.63,1.03Z"/>
  <path d="M18.22,43.81c.33.27.67.51,1.02.76,0,0,0,0,0,0-.34-.25-.69-.49-1.01-.76,0,0,0,0,0,0Z"/>
  <path d="M19.87,41.13c.93-.75,1.32-2.06.61-3.14-.26-.39-.63-.75-1.03-1.19,1.1-.86,1.38-2.29.61-3.41-.47-.68-1.12-1.06-1.95-1.27.63-.83.93-1.79.48-2.59s-1.21-1.42-2.21-1.27l-1.97.27c-.36-.52.02-.94.46-1.19,1.07-.62,1.98-1.39,2.91-2.23,1.14-1.03,2.15-2.24,2.67-3.74.19-.54-.19-1.22-.29-1.78.75-.57,1.57-1.08,1.91-2.02.29-.81.08-1.79-.48-2.44-.37-.42-.99-.52-1.57-.68.33-.59.75-1.31.44-1.94-.31-.62-1-.83-1.67-1.11-.56.43-1.11.88-1.62,1.36.13-.08.32-.14.55-.17.01,0,.03,0,.04,0,.09-.01.19-.02.29-.03.08,0,.17,0,.25,0,.03,0,.07,0,.1,0,.52.02,1.01.16,1.07.43.12.54-.77.94-.54,1.81.23.87,1.51.76,1.84,1.03.41.34.48,1.08.25,1.52-.59,1.15-2.46,1.3-1.74,2.92.23.52.16,1.06-.14,1.52l-.61.94c-.8,1.22-3.04,3.06-4.34,3.76-1.23.66-1.03,2.18-.76,2.69h.02c.05.1.13.17.22.23.65.41,2.15,0,2.91-.09,0,0,0,0,0,0,0,0,0,0,0,0,.47-.07.9.29,1.08.63.52.98-.85,1.62-.56,2.53.11.34.49.69.9.76.89.16,1.67.92,1.43,1.87-.19.71-1.1,1.1-1.15,1.64-.08.61.58.8,1.22,1.57.42.51.4,1.34-.1,1.79-.65.58-1.17,1.44-.98,2.34.09.44.34.9-.17,1.32.33.27.67.51,1.01.76,1.14-1.45-.53-2.49.62-3.43Z"/>
  <path d="M42.62,10.73s0,0,0,0c.14.09.26.2.4.29-.13-.09-.25-.2-.39-.3Z"/>
  <path d="M44.44,12.11s-.07-.05-.11-.08c.03.02.05.05.08.07.01,0,.02,0,.03.01Z"/>
  <path d="M51.67,29.27s-.02,0-.03,0c-.01.21-.01.42-.03.62.02-.21.05-.42.06-.63Z"/>
  <path d="M51.52,30.49h.03c.02-.18.04-.37.06-.56-.02.19-.06.37-.09.56h0Z"/>
  <path d="M39.64,14.1l-2.05-.23c-1.25-.14-2.67.69-3.54,1.6-.74.77-1.45,1.24-2.56,1.15-1.36-.11-2.78.16-4,.76-.82.4-1.36,1.09-1.74,1.88-.73,1.52-1.81.51-2.66,2.37-.32.68-.64,1.44-.47,2.21.34,1.46,1.55,2.44,3.01,2.63.8.1,1.66.23,2.27.8.61.57.6,2.02,1.87,1.99.56-.01,1-.31,1.55-.69,0,.85.54,1.45,1.37,1.47.91.02,1.66-.62,2-1.47.31-.07.68-.1.98-.1-.33.4-.81.74-.99,1.22-.57,1.41.37,2.79,1.9,3.07-.8.44-1.97,1.2-1.62,2.29.2.61.62,1.05,1.09,1.57-1.82,1.12-3.89,1.55-5.94,1.15-3.63-.71-5.9-3.96-5.62-7.62.02-.26-.25-.61-.45-.64-.28-.04-.62.2-.64.52-.28,4.8,3.06,8.82,7.91,8.98,2.17.08,4.14-.62,5.96-1.86,1.49.98.61,1.92,1.57,4.1.46,1.02,1.19,1.86,2.28,2.17,1.24.35,2.4-.93,2.97-1.95.93-1.66,2.11-.45,4.12-2.91.95-1.17,1.49-2.41,1.81-3.88h0s-.02-.01-.02-.01c.25-1.09,1.95-2.77,0-4.56l1.53.38c.02-.19.07-.37.09-.56,0,0,0-.02,0-.02.02-.21.02-.42.03-.62,0,0-.01,0-.02,0,0,0,0,.01,0,.02-.51.24-1.67-.88-2.56-.38-.12.08-.24.19-.35.35-.16.22-.29.64-.24.88.04.22.34.52.54.64,1.73.97.17,2.58-.08,3.7-.29,1.31-.73,2.4-1.58,3.41-.42.5-.8.8-1.16,1.01-.72.44-1.33.46-1.93.8-.4.24-.79.63-1.21,1.4-.22.41-.59.88-1.04,1.08-.16.08-.32.13-.5.14-.77.02-1.35-.7-1.67-1.34-1.03-2.12.13-2.79-1.72-4.54,1.9-1.83,3.16-4.18,3.35-6.85.02-.29-.26-.62-.48-.62-.17,0-.3.05-.4.13-.1.11-.17.27-.18.46-.22,2.44-1.42,4.64-3.28,6.23,0,0-.01,0-.02,0-.01.01-.02.02-.04.04-.56,0-1.14-.8-1.1-1.23.02-.22.27-.39.59-.56.19-.1.4-.21.61-.32.53-.3,1-.7.78-1.41v-.03h-.01c-.28-.9-2.2-.28-2.39-1.61-.15-1.07.83-.96,1.46-2.29.19-.38-.05-1.12-.53-1.11-.71.02-1.36.08-2.09.17-.02,0-.03,0-.05.01-.46.17-.7.95-1.1,1.27-.04.04-.08.07-.12.09,0,0,0,0-.01,0-.18.11-.4.12-.69-.08-.04-.73-.2-1.54-.83-2-.14-.09-.51-.12-.7-.04-.42.26-.11.9-.61,1.24,0,0-.03.01-.04.02,0,0,0,.01-.02.02-.14.1-.59.15-.68.01-.32-.48-.54-1.25-.97-1.61-.85-.72-1.94-.93-3.01-1.07-1.07-.14-1.95-.93-1.94-2.05,0-.58.4-1.35.76-1.76.02,0,.03,0,.04-.01,0,0,0-.01.01-.02.45-.12.79-.27,1.08-.45,1.26-.81,1.1-2.02,2.25-2.58,0,0,0,0,0,0,.02,0,.03-.02.05-.03,2.08-1.01,3.06-.56,4.57-.73.26-.03.49-.1.71-.19.64-.3,1.14-.83,1.66-1.31.19-.17.41-.33.64-.47.65-.41,1.43-.67,2.19-.74.58-.05,1.68.44,2.43.15.09-.04.17-.08.24-.14.85-.71-.1-1.97,1.42-2.69,0,0,.01,0,.02,0,.02,0,.02-.02.04-.02,1.2-.58,1.96-.53,2.64-.15-.03-.02-.05-.05-.08-.07-.42-.36-.87-.68-1.32-1.01-.13-.1-.26-.2-.4-.29-1.89.65-2.86,1.34-2.98,3.37Z"/>
  <path d="M23.78,47s.08.03.13.05c0,0,0,0,0,0-.04-.02-.09-.03-.13-.05Z"/>
  <path d="M22.82,46.62s.04.02.06.03c-.02,0-.04-.02-.06-.03h0Z"/>
  <path d="M38.4,47.06l.18-.08c-.06.02-.12.04-.17.06,0,0,0,0,0,0h-.01Z"/>
  <path d="M39.49,46.6c-.28-.61-.7-1.12-1.35-1.19-2.55-.27-2.81,1.02-5.1-.27-.82-.46-1.85-.57-2.69-.19-2.44,1.12-4.05-.27-6.38.52-.5.18-.8.68-1.15,1.14.02,0,.04.02.06.03.3.13.6.25.9.36.04.02.09.03.13.05.36-1,1.95-.73,2.69-.66.88.09,1.76.08,2.68.03,1.11-.05,1.83-1.13,3.34-.28,2.39,1.34,2.8.32,5.3.31.13,0,.26.09.35.2.09.11.15.26.14.39.06-.02.12-.04.17-.06l.9-.38Z"/>
  <path class="st4" d="M44.62,12.29c.32.28.64.56.94.85-.33-.34-.63-.63-.94-.85Z"/>
  <path class="st4" d="M47.44,15.29s.06.08.09.12c-.03-.04-.06-.08-.09-.12Z"/>
  <path class="st4" d="M48.66,17.07s.01.02.02.04c0-.01-.01-.02-.02-.04Z"/>
  <path class="st4" d="M41.73,12.27c-1.45.73-.54,1.98-1.38,2.67-.09.08-.19.13-.3.17-.76.34-1.89-.17-2.49-.12-.73.06-1.49.32-2.13.71-.21.13-.4.28-.58.44-.55.5-1.06,1.05-1.72,1.34-.24.11-.49.2-.77.23-1.5.17-2.48-.28-4.57.73-1.1.58-.96,1.79-2.26,2.58-.28.18-.64.34-1.09.46-.36.42-.74,1.18-.75,1.75-.01,1.12.88,1.91,1.94,2.05,1.06.14,2.17.36,3.01,1.07.42.36.66,1.13.97,1.61.09.13.47.09.63,0,.47-.35.15-1.01.63-1.25,0,0,.02,0,.02,0,.01,0,.02-.02.03-.03.17-.09.58-.08.72.03.63.47.77,1.26.83,2,.26.18.46.19.64.11,0,0,0,0,.01,0,.04-.02.08-.06.12-.09.39-.36.62-1.16,1.1-1.27.04-.01.07-.04.1-.05.73-.1,1.38-.15,2.09-.17.48-.01.72.73.53,1.11-.63,1.33-1.61,1.23-1.46,2.29.19,1.33,2.1.71,2.39,1.61v.03h.01c.23.74-.28,1.13-.83,1.44-.2.12-.42.22-.61.32-.29.16-.51.32-.53.53-.04.43.53,1.22,1.08,1.23,1.84-1.59,3.02-3.77,3.24-6.19.02-.22.1-.38.24-.49.11-.11.26-.17.46-.16.21,0,.5.33.48.62-.2,2.67-1.46,5.03-3.35,6.85,1.86,1.75.7,2.42,1.72,4.54.32.64.89,1.36,1.67,1.34.15,0,.3-.04.44-.1.42-.22.77-.66.98-1.05.44-.8.85-1.2,1.26-1.43.6-.36,1.21-.38,1.93-.8.34-.21.7-.5,1.1-.98.86-1.02,1.29-2.1,1.58-3.41.26-1.12,1.82-2.72.08-3.7-.21-.12-.5-.44-.54-.64-.05-.25.09-.66.24-.88.13-.18.27-.3.41-.38.87-.57,2.03.51,2.56.36.31-4.29-.73-8.56-2.93-12.18,0-.01-.01-.02-.02-.04-.35-.57-.73-1.13-1.13-1.66-.03-.04-.06-.08-.09-.12-.42-.55-.87-1.08-1.35-1.58-.19-.2-.36-.39-.53-.56-.3-.3-.62-.58-.94-.85-.74-.53-1.55-.66-2.89-.02ZM27.19,23.51c-.27.54-.66.76-1.18.64-.51-.12-.73-.65-.61-1.23.07-.34.35-.72.6-.83.4-.19.87-.04,1.08.21.31.36.31.82.11,1.21ZM37.71,23.96c-.39.19-.9.1-1.18-.29-.27-.39-.24-.93.04-1.3.24-.3.66-.6,1.15-.48.34.08.6.53.6.94,0,.54-.26.96-.62,1.13Z"/>
  <path class="st4" d="M27.8,18.43s0,0,0,0c-1.15.56-.99,1.78-2.25,2.58,1.3-.79,1.15-2.01,2.26-2.58Z"/>
  <path class="st4" d="M29.61,27.95c-.31-.48-.54-1.25-.97-1.61-.84-.71-1.95-.93-3.01-1.07-1.06-.14-1.95-.93-1.94-2.05.01-.57.39-1.33.75-1.75-.02,0-.03,0-.04.01-.36.41-.76,1.19-.76,1.76-.01,1.12.87,1.91,1.94,2.05,1.07.14,2.16.35,3.01,1.07.42.36.65,1.13.97,1.61.09.14.53.09.68-.01,0,0,0-.01.02-.02-.17.08-.54.13-.63,0Z"/>
  <path class="st4" d="M41.73,12.27s-.01,0-.02,0c-1.51.72-.57,1.98-1.42,2.69-.07.06-.16.1-.24.14.11-.04.21-.1.3-.17.84-.69-.07-1.93,1.38-2.67Z"/>
  <path class="st4" d="M32.48,28.71c-.05-.74-.2-1.54-.83-2-.14-.11-.54-.12-.72-.03-.01,0-.02.02-.03.03.18-.08.56-.06.7.04.63.47.78,1.27.83,2,.29.2.51.19.69.08-.17.08-.38.06-.64-.11Z"/>
  <path class="st4" d="M35.43,15.7c-.23.14-.45.3-.64.47-.53.48-1.02,1.01-1.66,1.31.66-.29,1.17-.84,1.72-1.34.18-.16.37-.31.58-.44Z"/>
  <path class="st4" d="M49.05,28.92c.9-.5,2.06.62,2.56.38,0,0,0-.01,0-.02-.54.15-1.69-.93-2.56-.36Z"/>
  <path class="st4" d="M38.01,32.28h-.01v-.03c-.28-.9-2.2-.28-2.39-1.61-.15-1.06.83-.96,1.46-2.29.19-.38-.05-1.12-.53-1.11-.71.02-1.36.08-2.09.17-.04,0-.07.03-.1.05.02,0,.03-.01.05-.01.73-.1,1.38-.15,2.09-.17.48-.01.72.73.53,1.11-.63,1.33-1.61,1.22-1.46,2.29.19,1.33,2.1.71,2.39,1.61h.01v.03c.22.71-.24,1.11-.78,1.41.56-.31,1.06-.71.83-1.44Z"/>
  <path class="st4" d="M36.04,34.57c.02-.21.24-.37.53-.53-.32.17-.57.34-.59.56-.04.44.54,1.23,1.1,1.23.01-.01.02-.02.04-.04-.55,0-1.12-.8-1.08-1.23Z"/>
  <path class="st4" d="M39.91,40.97c-1.02-2.12.14-2.79-1.72-4.54,1.9-1.82,3.16-4.18,3.35-6.85.02-.29-.27-.62-.48-.62-.2-.01-.35.05-.46.16.1-.08.23-.13.4-.13.22,0,.5.33.48.62-.2,2.67-1.46,5.02-3.35,6.85,1.85,1.75.69,2.42,1.72,4.54.32.64.89,1.36,1.67,1.34.18,0,.34-.06.5-.14-.14.06-.29.1-.44.1-.77.02-1.35-.7-1.67-1.34Z"/>
  <path class="st4" d="M33.25,28.73s-.08.07-.12.09c.04-.03.08-.06.12-.09Z"/>
  <path class="st4" d="M46.19,38.92c-.72.42-1.33.44-1.93.8.6-.34,1.21-.36,1.93-.8Z"/>
  <path class="st4" d="M25.46,8.05c.31-.09.63-.17.94-.24-.32.07-.63.15-.94.24Z"/>
  <path class="st4" d="M27.62,7.56c.25-.04.5-.08.75-.11-.25.03-.5.07-.75.11Z"/>
  <path class="st4" d="M38.69,8.68s0,0,.01,0c0,0,.01,0,.02-.01-2.33-.96-4.86-1.43-7.41-1.43,2.61.02,5.09.54,7.38,1.44,0,0,0,0,0,0Z"/>
  <path class="st4" d="M23.32,8.79c.48-.2.96-.37,1.46-.53-.49.16-.98.34-1.46.53Z"/>
  <path class="st4" d="M29.57,7.31c.42-.03.84-.06,1.27-.06-.42,0-.85.03-1.27.06Z"/>
  <path class="st4" d="M21.65,9.55l-.02.03c.45-.23.9-.46,1.37-.66-.46.2-.91.4-1.34.63Z"/>
  <path class="st4" d="M23.66,10.83c1.54-.39,2.95-.89,4.48-1.39.2-.07.66-.01.82.1.13.1.28.4.29.58l.08,1.03v.02c.36.35.76.28,1.14.29,3.4,0,3.15-2.41,5.62-1.76.91-.09,1.86-.24,2.61-1.01-2.29-.91-4.77-1.42-7.38-1.44-.16,0-.31,0-.47,0-.43,0-.85.03-1.27.06-.4.03-.8.08-1.2.13-.25.03-.5.07-.75.11-.41.07-.81.15-1.21.25-.32.07-.63.15-.94.24-.23.06-.46.13-.68.2-.49.16-.98.34-1.46.53-.11.04-.22.09-.33.14-.47.2-.92.42-1.37.66l-.51.66c.73.59,1.64.81,2.53.59Z"/>
  <path class="st4" d="M38.69,8.68s0,0,.01,0c0,0,0,0,0,0,0,0,0,0-.01,0,0,0,0,0,0,0Z"/>
  <path class="st4" d="M23.65,10.85c1.52-.39,2.95-.89,4.48-1.39.2-.07.66-.02.82.1.13.1.28.4.29.58l.08,1.03v.02c.36.35.76.29,1.14.29,3.39,0,3.15-2.42,5.62-1.76.91-.09,1.88-.24,2.63-1.03,0,0,0,0-.01,0-.75.77-1.7.93-2.61,1.01-2.47-.64-2.22,1.76-5.62,1.76-.38-.01-.78.05-1.14-.29v-.02l-.08-1.03c-.01-.17-.16-.48-.29-.58-.15-.11-.62-.16-.82-.1-1.52.5-2.94,1-4.48,1.39-.89.23-1.8,0-2.53-.59v.02c.72.59,1.63.82,2.52.59Z"/>
  <path class="st4" d="M17.04,12.84c-.11.1-.21.22-.32.33.14-.13.28-.25.42-.38-.03.02-.07.04-.1.06Z"/>
  <path class="st4" d="M16.52,42.25c-.39-.39-.76-.8-1.11-1.22.35.42.72.83,1.11,1.22Z"/>
  <path class="st4" d="M11.14,23.15c.11-.46.21-.91.35-1.36-.13.45-.24.9-.35,1.36Z"/>
  <path class="st4" d="M18.07,43.69c-.45-.37-.88-.77-1.3-1.18.42.41.85.81,1.3,1.18Z"/>
  <path class="st4" d="M16.45,13.44s0,0,0,0c.02-.02.03-.04.05-.06-2.29,2.27-3.94,5.04-4.91,8.08.99-3.05,2.67-5.79,4.86-8.03,0,0,0,0,0,0Z"/>
  <path class="st4" d="M18.21,43.81s0,0,0,0c-.05-.04-.1-.07-.15-.11.05.04.09.08.14.12Z"/>
  <path class="st4" d="M11.79,34.66c-.03-.07-.05-.15-.08-.22.03.07.05.15.08.22Z"/>
  <path class="st4" d="M10.69,29.7c-.05-.57-.08-1.16-.09-1.74,0,.58.03,1.17.09,1.74Z"/>
  <path class="st4" d="M10.61,27.59c0-.59.03-1.17.09-1.75-.06.58-.08,1.17-.09,1.75Z"/>
  <path class="st4" d="M10.93,31.41c-.06-.37-.12-.74-.17-1.11.05.37.1.74.17,1.11Z"/>
  <path class="st4" d="M11.38,33.4c-.06-.22-.11-.43-.17-.65.05.22.11.44.17.65Z"/>
  <path class="st4" d="M10.71,25.63s0,.02,0,.03c.07-.64.17-1.28.29-1.9-.12.62-.22,1.24-.29,1.87Z"/>
  <path class="st4" d="M15.02,40.54c-.2-.26-.4-.52-.59-.79.19.27.39.53.59.79Z"/>
  <path class="st4" d="M12.76,36.98c-.06-.11-.11-.22-.16-.34.05.11.11.22.16.34Z"/>
  <path class="st4" d="M18.39,42.48c-.2-.9.33-1.75.98-2.34.5-.45.52-1.27.1-1.79-.64-.77-1.29-.96-1.22-1.57.07-.54.97-.94,1.15-1.64.24-.96-.53-1.7-1.43-1.87-.41-.08-.8-.42-.9-.76-.29-.9,1.08-1.55.56-2.53-.18-.34-.61-.69-1.07-.63-.76.11-2.28.52-2.92.09-.09-.06-.17-.14-.22-.23h-.02c-.26-.51-.53-1.98.76-2.69,1.3-.71,3.54-2.54,4.34-3.76l.61-.94c.31-.47.37-1,.14-1.52-.72-1.63,1.15-1.76,1.74-2.92.23-.45.15-1.19-.25-1.52-.33-.27-1.61-.16-1.84-1.03-.23-.87.65-1.27.54-1.81-.05-.26-.54-.4-1.06-.43-.03,0-.07,0-.1,0-.08,0-.17,0-.25,0-.1,0-.2.01-.29.03-.01,0-.03,0-.04,0-.23.04-.43.1-.56.18,0,0,0,0,.01-.01,0,0,0,0,0,0-.14.13-.29.25-.42.38-.07.07-.13.14-.2.2-.02.02-.03.04-.05.06.1-.1.2-.2.3-.31-.1.1-.2.2-.3.31-2.19,2.24-3.87,4.98-4.86,8.03-.04.11-.08.22-.11.33-.14.44-.24.9-.35,1.36-.05.21-.11.41-.15.62-.12.62-.22,1.26-.29,1.9,0,.06,0,.12-.01.18-.05.58-.08,1.16-.09,1.75,0,.12,0,.25,0,.37,0,.59.04,1.17.09,1.74.02.2.04.4.07.6.05.37.1.74.17,1.11.08.45.18.89.28,1.33.05.22.11.44.17.65.1.35.21.7.33,1.05.03.07.05.15.08.22.24.67.51,1.33.82,1.97.05.11.11.22.16.34.48.97,1.04,1.89,1.67,2.78.19.27.38.53.59.79.13.16.25.33.39.49.35.42.72.83,1.11,1.22.08.08.17.17.25.25.42.41.85.81,1.3,1.18,0,0,0,0,0,0,.05.04.1.07.15.11.51-.42.25-.88.16-1.32Z"/>
  <path class="st4" d="M16.55,29.35s0,0,0,0c-.76.1-2.27.51-2.91.09.64.43,2.15.01,2.92-.09Z"/>
  <path class="st4" d="M17.69,12.61c-.23.03-.41.09-.55.17,0,0,0,0-.01.01.13-.09.33-.15.56-.18Z"/>
  <path class="st4" d="M17.73,12.6c.09-.01.19-.02.29-.03-.1,0-.19.02-.29.03Z"/>
  <path class="st4" d="M18.27,12.57s.07,0,.1,0c-.03,0-.07,0-.1,0Z"/>
  <path class="st4" d="M23.92,47.06s0,0-.01,0c0,0,0,0,0,.01.17.07.35.11.53.17-.17-.06-.34-.12-.51-.19,0,0,0,0,0,0Z"/>
  <path class="st4" d="M36.67,47.62s-.07.02-.1.03c.03,0,.07-.02.1-.03Z"/>
  <path class="st4" d="M34.89,48.03c-.09.02-.18.03-.27.04.09-.02.18-.02.27-.04Z"/>
  <path class="st4" d="M28.35,48.18c-.36-.05-.73-.1-1.08-.17.36.07.72.12,1.08.17Z"/>
  <path class="st4" d="M26.37,47.81c-.33-.08-.66-.16-.99-.25.33.1.66.18.99.25Z"/>
  <path class="st4" d="M30.41,48.35c-.4-.01-.8-.02-1.2-.06.4.04.8.05,1.2.06Z"/>
  <path class="st4" d="M33.03,48.3c-.13.01-.26.01-.39.02.13,0,.26,0,.39-.02Z"/>
  <path class="st4" d="M38.41,47.04c.01-.13-.04-.27-.13-.38-.09-.11-.21-.19-.34-.19-2.51,0-2.92,1.02-5.3-.3-1.51-.85-2.23.23-3.34.28-.92.04-1.8.05-2.68-.03-.74-.08-2.31-.34-2.69.65.17.06.34.13.51.19.32.11.63.22.95.31.33.1.66.18.99.25.3.07.59.15.9.2.36.07.72.12,1.08.17.29.04.58.09.87.12.4.04.8.05,1.2.06.74.03,1.48.02,2.22-.04.13,0,.26,0,.39-.02.53-.05,1.06-.13,1.59-.22.09-.02.18-.02.27-.04.57-.11,1.13-.24,1.68-.39.03,0,.07-.02.1-.03.58-.16,1.16-.35,1.73-.57h.01Z"/>
  <polygon class="st4" points="23.92 47.06 23.91 47.05 23.91 47.05 23.92 47.06 23.92 47.06"/>
  <path class="st4" d="M26.61,46.4c.88.09,1.76.08,2.68.03,1.11-.05,1.83-1.13,3.34-.28,2.39,1.33,2.8.3,5.3.3.13,0,.25.08.34.19-.09-.12-.22-.2-.35-.2-2.51.01-2.92,1.03-5.3-.31-1.51-.85-2.23.23-3.34.28-.91.04-1.8.05-2.68-.03-.75-.08-2.33-.34-2.69.66,0,0,0,0,.01,0,.38-.99,1.94-.73,2.69-.65Z"/>
  <path class="st0" d="M37.74,21.9c-.49-.12-.92.17-1.15.48-.28.37-.32.9-.04,1.3.27.39.78.48,1.18.29.36-.17.62-.59.62-1.13,0-.4-.26-.86-.6-.94Z"/>
  <path class="st0" d="M26.01,22.09c-.25.11-.53.49-.6.83-.12.58.1,1.11.61,1.23.51.12.9-.1,1.18-.64.2-.39.2-.85-.11-1.21-.21-.25-.68-.39-1.08-.21Z"/>
</svg>