<svg width="27" height="31" viewBox="0 0 27 31" fill="none" xmlns="http://www.w3.org/2000/svg">
<path d="M27 31V29.8648L24.1041 28.3803L23.5931 27.2451V3.75493L24.1041 2.61972L27 1.13521V0H12.265C8.48896 0 5.50789 0.829577 3.32177 2.48873C1.10726 4.14789 1.90735e-06 6.44742 1.90735e-06 9.38732C1.90735e-06 11.9488 0.809151 14.0592 2.42745 15.7183C4.04574 17.3775 6.18928 18.3962 8.85805 18.7746L14.0536 17.6394L15.3312 18.9493V27.2451L14.8202 28.3803L11.4984 29.8648V31H17.069L17.6897 29.8648V2.50505L18.6207 1.72222H19.5517H20.4828L21.4138 2.50505V29.8648L22.0345 31H27ZM13.5 15.238C11.9385 15.238 10.7319 14.685 9.88013 13.5789C9 12.4437 8.55994 10.7554 8.55994 8.51408C8.55994 6.65117 8.97161 5.15211 9.79495 4.0169C10.5899 2.88169 11.5836 2.22676 12.776 2.05211L15.3312 4.67183V15.238H13.5Z" fill="white"/>
</svg>