<?xml version="1.0" encoding="UTF-8"?>
<svg id="Logo" xmlns="http://www.w3.org/2000/svg" viewBox="0 0 394.24 123.28">
  <defs>
    <style>
      .cls-1 {
        fill: #1d1d1b;
      }

      .cls-2 {
        fill: #ffffff;
      }
    </style>
  </defs>
  <g>
    <g>
      <path class="cls-2" d="m148.64,78.14h4.2c3.67,0,6.07,2.58,6.07,6.37s-2.38,6.41-6.1,6.41h-4.16v-12.78Zm4.12,11.34c2.75,0,4.32-2.23,4.32-4.97s-1.53-4.93-4.29-4.93h-2.45v9.9h2.41Z"/>
      <path class="cls-2" d="m160.52,88.49c0-.9.45-1.67,1.26-2.12.68-.34,1.55-.56,3.03-.74l1.67-.2v-.14c0-1.66-.59-2.32-1.98-2.32-1.22,0-1.98.65-2.05,1.78h-1.64c.13-1.84,1.57-3.04,3.67-3.04,2.47,0,3.55,1.12,3.55,3.75v2.43c0,1.39.09,2.34.31,3.04h-1.6c-.07-.47-.13-1.06-.14-1.64-.41,1.15-1.55,1.85-3.02,1.85-1.84,0-3.04-1.04-3.04-2.65Zm5.98-1.49v-.45l-2.45.36c-1.33.2-1.91.67-1.91,1.55s.67,1.42,1.76,1.42c1.57,0,2.59-1.13,2.59-2.88Z"/>
      <path class="cls-2" d="m170.13,88.15l1.55-.27c.23,1.31,1.08,2,2.41,2,1.21,0,1.87-.5,1.87-1.35,0-.9-.47-1.3-1.44-1.4l-1.46-.16c-1.78-.2-2.63-1.21-2.63-2.59,0-1.64,1.3-2.67,3.42-2.67s3.44,1.08,3.64,2.74l-1.51.34c-.2-1.08-.94-1.84-2.16-1.84s-1.89.49-1.89,1.35c0,.77.5,1.24,1.62,1.37l1.44.16c1.78.2,2.48,1.13,2.48,2.56,0,1.71-1.26,2.75-3.46,2.75s-3.57-1.06-3.89-2.99Z"/>
      <path class="cls-2" d="m183.43,81.92h1.58l1.62,6.43c.07.32.14.7.2,1.06h.04c.05-.36.16-.74.23-1.06l1.64-6.43h1.66l1.64,6.43c.07.32.18.7.23,1.06h.04c.05-.36.13-.74.2-1.06l1.62-6.43h1.58l-2.54,9h-1.67l-1.71-6.48c-.07-.29-.16-.74-.2-1.01h-.04c-.04.27-.13.72-.2,1.01l-1.71,6.48h-1.67l-2.54-9Z"/>
      <path class="cls-2" d="m196.97,88.49c0-.9.45-1.67,1.26-2.12.68-.34,1.55-.56,3.03-.74l1.67-.2v-.14c0-1.66-.59-2.32-1.98-2.32-1.22,0-1.98.65-2.05,1.78h-1.64c.13-1.84,1.57-3.04,3.67-3.04,2.47,0,3.55,1.12,3.55,3.75v2.43c0,1.39.09,2.34.31,3.04h-1.6c-.07-.47-.13-1.06-.14-1.64-.41,1.15-1.55,1.85-3.02,1.85-1.84,0-3.04-1.04-3.04-2.65Zm5.98-1.49v-.45l-2.45.36c-1.33.2-1.91.67-1.91,1.55s.67,1.42,1.76,1.42c1.57,0,2.59-1.13,2.59-2.88Z"/>
      <path class="cls-2" d="m211.64,81.7c.11,0,.22,0,.32.02v1.5h-.07c-.94,0-1.55.27-1.98.7-.86.86-.9,2.07-.9,3.15v3.85h-1.53v-9h1.42v2.05c.43-1.26,1.37-2.27,2.74-2.27Z"/>
      <path class="cls-2" d="m225.73,86.87h-6.39c.02,1.76,1.08,2.92,2.68,2.92,1.15,0,2-.61,2.39-1.71l1.26.56c-.63,1.64-1.94,2.5-3.76,2.5-2.57,0-4.1-1.64-4.1-4.61s1.51-4.83,4.09-4.83c2.43,0,3.83,1.39,3.83,4.09v1.08Zm-1.55-1.44c0-1.66-.85-2.52-2.32-2.52-1.58,0-2.48,1.03-2.52,2.72h4.84v-.2Z"/>
      <path class="cls-2" d="m232.41,81.7c.11,0,.22,0,.32.02v1.5h-.07c-.94,0-1.55.27-1.98.7-.86.86-.9,2.07-.9,3.15v3.85h-1.53v-9h1.42v2.05c.43-1.26,1.37-2.27,2.74-2.27Z"/>
      <path class="cls-2" d="m233.81,88.15l1.55-.27c.23,1.31,1.08,2,2.41,2,1.21,0,1.87-.5,1.87-1.35,0-.9-.47-1.3-1.44-1.4l-1.46-.16c-1.78-.2-2.63-1.21-2.63-2.59,0-1.64,1.3-2.67,3.42-2.67s3.44,1.08,3.64,2.74l-1.51.34c-.2-1.08-.94-1.84-2.16-1.84s-1.89.49-1.89,1.35c0,.77.5,1.24,1.62,1.37l1.44.16c1.78.2,2.48,1.13,2.48,2.56,0,1.71-1.26,2.75-3.46,2.75s-3.57-1.06-3.89-2.99Z"/>
      <path class="cls-2" d="m242.25,81.92h1.67v-2.36l1.53-.65v3.01h2.25v1.26h-2.25v4.99c0,1.03.4,1.48,1.31,1.48.4,0,.63-.05.94-.13v1.4c-.4.11-.76.16-1.33.16-1.95,0-2.45-1.19-2.45-2.86v-5.04h-1.67v-1.26Z"/>
      <path class="cls-2" d="m253.83,86.42c0-2.77,1.58-4.72,3.83-4.72,1.19,0,2.07.49,2.65,1.55v-5.38h1.53v13.05h-1.44v-1.67c-.54,1.21-1.51,1.89-2.92,1.89-2.18,0-3.66-1.89-3.66-4.72Zm6.52.22v-.41c0-1.96-.94-3.17-2.45-3.17s-2.45,1.24-2.45,3.37.92,3.37,2.45,3.37,2.45-1.22,2.45-3.15Z"/>
      <path class="cls-2" d="m272.28,86.87h-6.39c.02,1.76,1.08,2.92,2.68,2.92,1.15,0,2-.61,2.39-1.71l1.26.56c-.63,1.64-1.94,2.5-3.76,2.5-2.57,0-4.1-1.64-4.1-4.61s1.51-4.83,4.09-4.83c2.43,0,3.83,1.39,3.83,4.09v1.08Zm-1.55-1.44c0-1.66-.85-2.52-2.32-2.52-1.58,0-2.48,1.03-2.52,2.72h4.84v-.2Z"/>
      <path class="cls-2" d="m278.95,81.7c.11,0,.22,0,.32.02v1.5h-.07c-.94,0-1.55.27-1.98.7-.86.86-.9,2.07-.9,3.15v3.85h-1.53v-9h1.42v2.05c.43-1.26,1.37-2.27,2.74-2.27Z"/>
      <path class="cls-2" d="m292.98,87.23h-5.22l-1.31,3.69h-1.76l4.84-12.78h1.69l4.84,12.78h-1.76l-1.31-3.69Zm-.5-1.44l-1.78-4.99c-.11-.29-.22-.59-.31-.97h-.04c-.09.38-.2.68-.31.97l-1.78,4.99h4.21Z"/>
      <path class="cls-2" d="m298.03,81.92h1.44v1.78c.59-1.37,1.58-2.04,3.01-2.04,1.98,0,3.01,1.24,3.01,3.66v5.6h-1.53v-5.51c0-1.58-.67-2.39-1.98-2.39-1.49,0-2.41,1.21-2.41,3.21v4.7h-1.53v-9Z"/>
      <path class="cls-2" d="m312.63,83.18h-2.25v7.74h-1.53v-7.74h-1.66v-1.26h1.66v-1.42c0-1.64,1.03-2.74,2.63-2.74.43,0,.81.04,1.15.13v1.31c-.32-.05-.67-.09-.95-.09-.92,0-1.3.5-1.3,1.6v1.21h2.25v1.26Z"/>
      <path class="cls-2" d="m313.89,88.49c0-.9.45-1.67,1.26-2.12.68-.34,1.55-.56,3.03-.74l1.67-.2v-.14c0-1.66-.59-2.32-1.98-2.32-1.22,0-1.98.65-2.05,1.78h-1.64c.13-1.84,1.57-3.04,3.67-3.04,2.47,0,3.55,1.12,3.55,3.75v2.43c0,1.39.09,2.34.31,3.04h-1.6c-.07-.47-.13-1.06-.14-1.64-.41,1.15-1.55,1.85-3.02,1.85-1.84,0-3.04-1.04-3.04-2.65Zm5.98-1.49v-.45l-2.45.36c-1.33.2-1.91.67-1.91,1.55s.67,1.42,1.76,1.42c1.57,0,2.59-1.13,2.59-2.88Z"/>
      <path class="cls-2" d="m324.4,81.92h1.44v1.78c.59-1.37,1.58-2.04,3.01-2.04,1.98,0,3.01,1.24,3.01,3.66v5.6h-1.53v-5.51c0-1.58-.67-2.39-1.98-2.39-1.49,0-2.41,1.21-2.41,3.21v4.7h-1.53v-9Z"/>
      <path class="cls-2" d="m340.39,82.62c.54.54.83,1.28.83,2.12,0,1.75-1.24,3.08-3.33,3.08-.67,0-1.24-.14-1.73-.38-.38.16-.65.47-.65.88,0,.5.38.92,1.49.92h2.2c2.03,0,3.06.92,3.06,2.54s-1.33,2.86-4.46,2.86-4.05-1.19-4.05-2.47c0-.85.5-1.57,1.46-1.87-.76-.34-1.04-.92-1.04-1.57,0-.9.52-1.51,1.28-1.8-.58-.56-.88-1.31-.88-2.2,0-1.75,1.24-3.04,3.33-3.04.68,0,1.26.14,1.76.38.27-.92.94-1.64,2.14-1.64.2,0,.4.02.59.07v1.33c-.18-.04-.4-.07-.65-.07-.68,0-1.13.27-1.35.85Zm-3.44,7.98c-.27,0-.52-.02-.76-.04-.65.29-.96.81-.96,1.35,0,1.12,1.12,1.48,2.74,1.48,2.2,0,2.75-.68,2.75-1.49s-.63-1.3-1.87-1.3h-1.91Zm2.83-5.83c0-1.1-.74-1.89-1.89-1.89s-1.89.77-1.89,1.87.74,1.91,1.89,1.91,1.89-.79,1.89-1.89Z"/>
    </g>
    <g>
      <polygon class="cls-2" points="310.43 64.24 310.43 63.05 313.37 61.46 313.95 60.3 313.95 36.08 313.37 34.91 310.43 33.33 310.43 32.14 326.37 32.14 326.37 33.33 323.42 34.91 322.8 36.08 322.8 60.3 323.42 61.46 326.37 63.05 326.37 64.24 310.43 64.24"/>
      <path class="cls-2" d="m235.02,65.01c8.83,0,11.81-5.19,11.81-11.85v-16.11l.62-1.17,4.51-2.56v-1.19h-12.94v1.19l4.56,2.56.57,1.17v16.02c0,6.02-2.55,8.63-6.36,8.63s-6.11-2.89-6.11-8.82v-16.81l.62-1.17,2.94-1.58v-1.19h-15.94v1.19l2.94,1.58.57,1.17v16.95c0,8.45,4.57,11.99,12.21,11.99"/>
      <polygon class="cls-2" points="308.8 52.43 301.59 61.79 295.72 61.79 295.72 36.08 296.34 34.91 299.28 33.33 299.28 32.14 283.34 32.14 283.34 33.33 286.29 34.91 286.86 36.08 286.86 60.3 286.29 61.46 283.34 63.05 283.34 64.24 308.36 64.24 309.99 52.43 308.8 52.43"/>
      <path class="cls-2" d="m205.03,49.41h-2.04v-12.93l3.45-2.5c2.12.73,3.62,2.95,3.62,7.5,0,5.76-2.8,7.93-5.03,7.93m.76-17.27h0s0,0,0,0h-15.18v1.19l2.94,1.58.57,1.17v24.22l-.57,1.17-2.94,1.58v1.19h15.94v-1.19l-2.94-1.58-.62-1.17v-8.05l1.39-1.23,4.95,1.84c5.43-.61,10.2-4.96,10.2-10.13,0-7.26-5.74-10.52-13.74-10.59"/>
      <polygon class="cls-2" points="184.21 30.31 182.74 32.14 160.36 32.14 160.36 33.33 163.3 34.91 163.88 36.08 163.88 60.3 163.3 61.46 160.72 63.05 160.72 64.24 186.13 64.24 187.94 52.43 186.68 52.43 179.39 61.79 172.74 61.79 172.74 49.08 175.54 49.08 176.65 50.01 179.24 54.12 180.51 54.12 180.51 41.64 179.24 41.64 176.65 45.75 175.54 46.68 172.74 46.68 172.74 36.9 175.97 34.58 179.02 34.58 186.13 43.44 187.39 43.44 185.53 30.31 184.21 30.31"/>
      <polyline class="cls-2" points="349.56 43.2 358.39 34.5 360.75 33.33 360.75 32.14 349.26 32.14 349.26 39.9 342.94 46.08 341.21 46.08 341.21 36.08 341.83 34.91 344.77 33.33 344.77 32.14 328.84 32.14 328.84 33.33 331.78 34.91 332.35 36.08 332.35 60.3 331.78 61.46 328.84 63.05 328.84 64.24 344.77 64.24 344.77 63.05 341.83 61.46 341.21 60.3 341.21 51.44 342.63 50.03 350.35 64.24 362.1 64.24 362.1 63.05 359.16 61.46"/>
      <g>
        <path class="cls-2" d="m143.19,34c2.08.39,3.64,2.27,3.64,7,0,5.37-2.11,7.08-5.57,7.08h-1.5v-11.61l3.43-2.47Zm13.54,27.47l-5.14-11c-3.89.15-7.33-.57-7.33-.57v-.55c6.26-1.1,12.05-3.16,12.05-8.7,0-7.01-6.39-8.47-13.74-8.51h0s-15.18,0-15.18,0v1.19l2.94,1.58.57,1.17v24.22l-.57,1.17-2.94,1.58v1.19h15.94v-1.19l-2.94-1.58-.62-1.17v-7.67l2.56-2.18,5.59,13.79h11.77v-1.19l-2.94-1.58Z"/>
        <path class="cls-2" d="m266.42,61.79h-1.53v-10.17l3.63-2.6c2.6.64,4.16,2.5,4.16,6.43,0,5.08-2.44,6.35-6.26,6.35m1.97-27.85c1.92.62,3.4,2.47,3.4,6.42,0,5.07-2.13,6.68-5.55,6.68h-1.34v-10.59l3.49-2.52Zm3.27,13.93v-.54c5.62-1.14,9.36-3.49,9.36-7.68,0-4.77-4.23-7.52-11.52-7.52h-16.97v1.19l2.94,1.58.57,1.17v24.22l-.57,1.17-2.94,1.58v1.19h17.35c6.67-.18,12.03-2.56,12.03-8.53,0-5.46-4.45-7.33-10.25-7.83"/>
      </g>
    </g>
  </g>
  <g>
    <g>
      <rect class="cls-2" x="32.14" y="32.1" width="68.4" height="58.82"/>
      <path class="cls-1" d="m64.98,88.12c-25.98,0-29.32-11.53-29.32-16.6v-.49h17.09c.21.76,1.32,5.14,13.83,5.14s13.34-3.47,13.34-6.32v-.42c0-2.85-1.46-6.32-13.34-6.32s-13.89,3.68-14.03,4.17h-16.92v-31.75h61.15v12.02h-44.1v9.24c.97-.76,5.77-4.79,18.41-4.79h.63c20.5,0,25.15,7.92,25.15,17.37v.42c0,8.41-5,18.34-28.62,18.34h-3.27Z"/>
    </g>
    <g>
      <rect class="cls-2" x="41.72" y="40.4" width="49.11" height="42.23"/>
      <path class="cls-1" d="m65.29,80.62c-18.65,0-21.05-8.28-21.05-11.92v-.35h12.27c.15.55.95,3.69,9.93,3.69s9.58-2.49,9.58-4.54v-.3c0-2.04-1.05-4.54-9.58-4.54s-9.98,2.64-10.07,2.99h-12.15v-22.79h43.9v8.63h-31.66v6.63c.7-.55,4.14-3.44,13.22-3.44h.45c14.71,0,18.06,5.69,18.06,12.47v.3c0,6.03-3.59,13.17-20.55,13.17h-2.34Z"/>
    </g>
  </g>
</svg>