<?xml version="1.0" encoding="UTF-8"?>
<svg id="Logo" xmlns="http://www.w3.org/2000/svg" viewBox="0 0 68.4 58.82">
  <defs>
    <style>
      .cls-1 {
        fill: #fff;
      }

      .cls-2 {
        fill: #1d1d1b;
      }
    </style>
  </defs>
  <g>
    <rect class="cls-1" width="68.4" height="58.82"/>
    <path class="cls-2" d="m32.84,56.02c-25.98,0-29.32-11.53-29.32-16.6v-.49h17.09c.21.76,1.32,5.14,13.83,5.14s13.34-3.47,13.34-6.32v-.42c0-2.85-1.46-6.32-13.34-6.32s-13.89,3.68-14.03,4.17H3.49V3.43h61.15v12.02H20.55v9.24c.97-.76,5.77-4.79,18.41-4.79h.63c20.5,0,25.15,7.92,25.15,17.37v.42c0,8.41-5,18.34-28.62,18.34h-3.27Z"/>
  </g>
  <g>
    <rect class="cls-1" x="9.58" y="8.3" width="49.11" height="42.23"/>
    <path class="cls-2" d="m33.16,48.51c-18.65,0-21.05-8.28-21.05-11.92v-.35h12.27c.15.55.95,3.69,9.93,3.69s9.58-2.49,9.58-4.54v-.3c0-2.04-1.05-4.54-9.58-4.54s-9.98,2.64-10.07,2.99h-12.15V10.76h43.9v8.63h-31.66v6.63c.7-.55,4.14-3.44,13.22-3.44h.45c14.71,0,18.06,5.69,18.06,12.47v.3c0,6.03-3.59,13.17-20.55,13.17h-2.34Z"/>
  </g>
</svg>