<?xml version="1.0" encoding="UTF-8"?>
<svg id="Logo" xmlns="http://www.w3.org/2000/svg" viewBox="0 0 229.71 197.53">
  <defs>
    <style>
      .cls-1 {
        fill: #fff;
      }

      .cls-2 {
        fill: #1d1d1b;
      }
    </style>
  </defs>
  <g>
    <rect class="cls-1" width="229.71" height="197.53"/>
    <path class="cls-2" d="m110.29,188.13c-87.26,0-98.46-38.73-98.46-55.76v-1.63h57.39c.7,2.57,4.43,17.26,46.43,17.26s44.79-11.67,44.79-21.23v-1.4c0-9.57-4.9-21.23-44.79-21.23s-46.66,12.37-47.13,14H11.71V11.51h205.36v40.36H69v31.03c3.27-2.57,19.36-16.1,61.83-16.1h2.1c68.83,0,84.46,26.6,84.46,58.33v1.4c0,28.23-16.8,61.59-96.12,61.59h-10.97Z"/>
  </g>
  <g>
    <rect class="cls-1" x="32.03" y="27.96" width="164.85" height="141.75"/>
    <path class="cls-2" d="m111.18,162.97c-62.62,0-70.65-27.79-70.65-40.02v-1.17h41.19c.5,1.84,3.18,12.39,33.32,12.39s32.15-8.37,32.15-15.24v-1c0-6.86-3.52-15.24-32.15-15.24s-33.49,8.87-33.82,10.05h-40.77V36.22h147.37v28.97h-106.26v22.27c2.34-1.84,13.9-11.55,44.37-11.55h1.51c49.39,0,60.61,19.09,60.61,41.86v1c0,20.26-12.05,44.2-68.98,44.2h-7.87Z"/>
  </g>
  <g>
    <rect class="cls-1" x="54.97" y="47.73" width="118.44" height="101.85"/>
    <path class="cls-2" d="m111.84,144.73c-44.99,0-50.77-19.97-50.77-28.75v-.84h29.59c.36,1.32,2.29,8.9,23.94,8.9s23.1-6.02,23.1-10.95v-.72c0-4.93-2.53-10.95-23.1-10.95s-24.06,6.38-24.3,7.22h-29.3v-54.98h105.89v20.81h-76.35v16c1.68-1.32,9.98-8.3,31.88-8.3h1.08c35.49,0,43.55,13.71,43.55,30.07v.72c0,14.56-8.66,31.76-49.56,31.76h-5.65Z"/>
  </g>
  <g>
    <rect class="cls-1" x="71.56" y="62.1" width="85.03" height="73.12"/>
    <path class="cls-2" d="m112.38,131.73c-32.3,0-36.44-14.34-36.44-20.64v-.6h21.24c.26.95,1.64,6.39,17.19,6.39s16.58-4.32,16.58-7.86v-.52c0-3.54-1.81-7.86-16.58-7.86s-17.27,4.58-17.44,5.18h-21.03v-39.47h76.02v14.94h-54.81v11.49c1.21-.95,7.17-5.96,22.89-5.96h.78c25.48,0,31.26,9.85,31.26,21.59v.52c0,10.45-6.22,22.8-35.58,22.8h-4.06Z"/>
  </g>
  <g>
    <rect class="cls-1" x="83.52" y="72.61" width="60.86" height="52.33"/>
    <path class="cls-2" d="m112.74,122.45c-23.12,0-26.09-10.26-26.09-14.77v-.43h15.21c.19.68,1.17,4.57,12.3,4.57s11.87-3.09,11.87-5.63v-.37c0-2.53-1.3-5.63-11.87-5.63s-12.36,3.28-12.49,3.71h-15.05v-28.25h54.41v10.69h-39.23v8.22c.87-.68,5.13-4.27,16.38-4.27h.56c18.24,0,22.38,7.05,22.38,15.45v.37c0,7.48-4.45,16.32-25.47,16.32h-2.91Z"/>
  </g>
</svg>