<?xml version="1.0" encoding="utf-8"?>
<!-- Generator: Adobe Illustrator 27.8.1, SVG Export Plug-In . SVG Version: 6.00 Build 0)  -->
<svg version="1.1" id="Layer_1" xmlns="http://www.w3.org/2000/svg" xmlns:xlink="http://www.w3.org/1999/xlink" x="0px" y="0px"
	 viewBox="0 0 462.1329651 295.0658875" style="enable-background:new 0 0 462.1329651 295.0658875;" xml:space="preserve" fill="currentColor">
<g>
	<g>
		<g>
			<path d="M61.2604141,123.1772461l15.3203125-2.4267578l0.0263672,25.4077148
				c-0.1337891,10.871582-2.3867188,22.7924805-16.5927734,25.0424805l-3.6201172,0.5732422
				c-15.1806641,2.4042969-20.5439453-8.0244141-20.4980469-19.453125l-0.0605469-64.3774414
				c-0.1435547-10.8271484,2.7978516-22.0004883,16.5859375-24.184082l3.6201172-0.5732422
				c16.8525391-2.6694336,20.3759766,8.7646484,20.4990234,19.4526367l0.0380859,18.2680664l-15.3203125,2.4262695
				l0.0566406-18.5683594c-0.03125-4.706543-1.7763672-6.7138672-5.3984375-6.1401367
				c-3.7597656,0.5952148-4.4980469,3.1396484-4.4892578,7.7060547l0.0664062,63.5200195
				c0.0605469,3.9868164,1.359375,6.7797852,5.1201172,6.1845703c3.7597656-0.5957031,4.5947266-3.440918,4.6074219-7.8676758
				L61.2604141,123.1772461z"/>
			<path d="M104.914711,162.6611328l-15.3193359,2.4262695l0.0234375-106.2197266l15.3193359-2.4267578l0.0273438,42.5400391
				l10.3066406-1.6323242l-0.0283203-42.5395508l15.3203201-2.4267578l-0.0224609,106.2202148l-15.3203201,2.4262695
				l0.0292969-46.6879883l-10.3066406,1.6323242L104.914711,162.6611328z"/>
			<path d="M167.8385468,132.7084961l-11.1416016,1.7646484l-1.9257812,20.2919922l-14.0664062,2.2275391l12.4179688-108.1831055
				l18.2451172-2.8891602l13.2070312,104.1240234l-14.6230469,2.3164062L167.8385468,132.7084961z M166.2262421,117.1171875
				l-4.109375-39.4658203l-3.96875,40.7456055L166.2262421,117.1171875z"/>
			<path d="M307.8385315,24.3056641l0.015625,15.4160156l-19.359375,3.065918l-0.015625,27.8417969l15.1796875-2.4042969
				l-0.0136719,16.1347656l-15.1806641,2.4042969l0.0068359,30.6933594l20.1943359-3.1982422l-0.0146484,16.1342773
				l-35.5136719,5.6245117l0.0234375-106.2197266L307.8385315,24.3056641z"/>
			<path d="M331.9293518,20.4902344l13.4345703,55.9770508l-0.0644531-58.0947266l13.7880859-2.1835938l-0.0224609,106.2202148
				l-12.5351562,1.9848633l-14.6816406-59.3481445l-0.0810547,61.6865234l-13.7880859,2.1835938l0.0234375-106.2202148
				L331.9293518,20.4902344z"/>
			<path d="M387.6920471,119.3032227c-10.0283203,1.5878906-15.6396484-6.8027344-15.6376953-18.5102539l0.0126953-64.8168945
				c-0.0195312-11.8466797,2.5996094-23.2539062,16.3876953-25.4375l3.203125-0.5073242
				c16.4335938-2.6030273,20.4042969,8.0463867,20.5576172,20.7290039l-0.0175781,10.7094727l-15.0410156,2.3823242
				l-0.0205078-11.8466797c0.1591797-5.3071289-2.1220703-7.0869141-5.3251953-6.5800781
				c-3.203125,0.5078125-4.3085938,2.5385742-4.4238281,8.1240234l-0.0078125,61.2470703
				c-0.1142578,5.5869141,2.2548828,7.9238281,5.7363281,7.3725586c4.0390625-0.6396484,5.2460938-3.8291016,5.2587891-8.2568359
				l0.0244141-25.9868164l-7.1015625,1.125l-0.0078125-16.2744141l21.8652344-3.4628906l-0.0585938,64.5385742l-8.2167969,1.3012695
				c-0.8359375-2.5800781-1.4833984-5.7607422-3.1416016-9.9238281c-0.9150391,4.1420898-5.4111328,12.706543-13.2109375,13.9418945
				L387.6920471,119.3032227z"/>
			<path d="M461.3058167,0l0.0146484,15.4155273l-19.3588867,3.0664062l-0.015625,27.8413086l15.1801758-2.4042969
				l-0.0146484,16.1347656l-15.1801758,2.4042969l0.0068359,30.6933594l20.1948242-3.1982422l-0.0146484,16.1342773
				l-35.5141602,5.625L426.627594,5.4921875L461.3058167,0z"/>
			<path d="M72.086586,236.578125l15.4589844-2.4482422l3.7939453,23.9545898
				c1.7646484,11.1416016-0.2089844,23.0175781-15.25,25.3999023l-3.4814453,0.5512695
				c-16.0166016,2.5371094-21.1669922-8.3535156-22.8212891-18.7988281l-10.0146484-63.2290039
				c-1.6757812-10.5844727,1.3095703-21.4794769,15.5146484-23.7294769l3.6210938-0.5732574
				c17.2695312-2.7353516,21.0283203,8.3764648,22.6386719,18.5429688l2.9335938,18.5229492l-15.4589844,2.4482422
				l-2.8896484-18.2441406c-0.7060547-4.456543-2.4736328-6.6035156-6.3730469-5.9863281
				c-3.8994141,0.6181641-4.5214844,3.0004883-3.7939453,7.5966797l9.7490234,61.5576172
				c0.75,4.7353516,2.796875,6.8378906,6.1396484,6.3081055c3.7597656-0.5952148,4.7333984-3.4619141,4.0498047-7.7792969
				L72.086586,236.578125z"/>
			<path d="M125.2858047,228.1523438l15.458992-2.4482422l3.7939453,23.9545898
				c1.7646484,11.1416016-0.2089844,23.0180664-15.25,25.4003906l-3.4824295,0.5512695
				c-16.015625,2.5366211-21.1669922-8.3540039-22.8212891-18.7993164l-10.0136719-63.2290039
				c-1.6767578-10.5844727,1.3085938-21.4790039,15.5146484-23.7290039l3.6210938-0.5737305
				c17.2695389-2.7348633,21.0273514,8.3764648,22.6377029,18.5429688l2.9335938,18.5229492l-15.4580154,2.4482422
				l-2.8896484-18.2441406c-0.7060547-4.456543-2.4736328-6.6035156-6.3730469-5.9858398
				c-3.9003906,0.6176758-4.5224609,3-3.7949219,7.5961914l9.75,61.5576172c0.75,4.7353516,2.796875,6.8378906,6.1386719,6.3085938
				c3.7607498-0.5957031,4.7343826-3.4624023,4.0507889-7.7797852L125.2858047,228.1523438z"/>
			<path d="M178.4127655,159.7773438l2.3818359,15.0410156l-20.0546875,3.1762695l4.3007812,27.1577148l15.7382812-2.4926758
				l2.4921875,15.7382812l-15.7373047,2.4921875l4.7421875,29.9433594l20.890625-3.3085938l2.4921875,15.7373047
				l-36.6279297,5.8012695l-16.4111328-103.6171875L178.4127655,159.7773438z"/>
			<path d="M310.0104065,138.9350586l2.3818359,15.0410156l-20.0546875,3.1762695l4.3007812,27.1577148l15.7382812-2.4926758
				l2.4921875,15.737793l-15.7373047,2.4926758l4.7421875,29.9433594l20.890625-3.3085938l2.4921875,15.7373047
				l-36.6279297,5.8012695l-16.4111328-103.6171875L310.0104065,138.9350586z"/>
			<path d="M318.7809143,137.5458984l24.09375-3.815918c13.5097656-2.1396484,18.9003906,4.8588867,20.8417969,17.1142578
				l9.9921875,63.0898438c2.0292969,12.8129883-1.4707031,21.3618164-14.4228516,23.4130859l-24.09375,3.815918
				L318.7809143,137.5458984z M348.5475159,223.6293945l3.7597656-0.5952148
				c4.875-0.7719727,5.7314453-3.4775391,4.8486328-9.0483398l-9.2421875-58.3544922
				c-0.9482422-5.9887695-2.8115234-7.8349609-6.7109375-7.2172852l-4.4560547,0.7055664L348.5475159,223.6293945z"/>
			<path d="M387.5777893,126.6499023l6.9082031,83.2792969l-5.1533203,0.815918l-19.0244141-81.3598633L387.5777893,126.6499023z
				 M402.4566956,230.5097656l-14.484375,2.2939453l-2.8232422-17.8266602l14.484375-2.2939453L402.4566956,230.5097656z"/>
		</g>
	</g>
	<path d="M209.8195496,39.7042999l-0.0527344,89.8066406l17.0662537-2.7027893l0.0302734,16.4130859l-32.3865662,5.1290588
		l0.0234375-106.2197266L209.8195496,39.7042999z"/>
	<path d="M248.6522217,33.5977707l-0.0527344,89.8066406l17.0662537-2.7027893l0.0292969,16.4130936l-32.3855896,5.1290588
		l0.0234375-106.2197342L248.6522217,33.5977707z"/>
	<path d="M212.7195129,216.4891968l6.8185577,43.0336914l-15.7371368,2.4938049l-16.4186554-103.6159973l23.4618988-3.7175293
		c11.1414642-1.7654572,16.905426,2.1750488,18.8692169,14.5704041l3.8836212,24.5109558
		c1.9422913,12.2561951-2.4292297,19.8014374-13.1527405,21.500946L212.7195129,216.4891968z M210.358078,201.5172119
		l2.5715027-0.337616c4.8739624-0.7718353,4.9235382-4.0633392,4.239624-8.3806763l-2.6916656-16.9910126
		c-0.6399384-4.0385284-1.961441-6.9700775-6.5570831-6.2422028l-2.5715179,0.4334259L210.358078,201.5172119z"/>
	<path d="M33.3782463,289.7792969l15.2056046-2.4083252L14.9235802,186.4853363l-14.922389,2.3634796L0,295.0658875
		l14.0658779-2.2278137l-0.5853462-19.8945923l14.2347927-2.2545471L33.3782463,289.7792969z M13.0164165,257.1705322
		l-1.1770935-40.0020142l11.386261,38.3850555L13.0164165,257.1705322z"/>
	<path d="M267.9791565,145.5374908l2.3828125,15.0410156l-11.7043152,1.8530273l14.0283203,88.5761719l-15.5986328,2.4702148
		l-14.0283051-88.5761719l-11.7064972,1.8554688l-2.3818359-15.0410156L267.9791565,145.5374908z"/>
</g>
</svg>
