<svg xmlns="http://www.w3.org/2000/svg" version="1.1" viewBox="0 0 24 24">
  <path
    d="M11.23,5.15c.53.05,1.03.31,1.42.69l1.9,1.9s0,0,.01-.01c.37-.35.88-.5,1.4-.45.23.02.45.08.66.18.02-.04.05-.08.09-.12.37-.35.88-.5,1.4-.45.51.05,1,.29,1.38.66.38.37.64.85.72,1.36,0,.01,0,.03,0,.04l.38,5.53c.16,1.74-.39,3.39-1.84,4.84l-.55.55c-.6.6-1.77,1.17-2.94,1.57-1.17.4-2.48.68-3.39.59-.02,0-.04,0-.06-.01-.17,0-.34,0-.51-.02-1.73-.17-3.45-1.02-4.77-2.34l-3.54-3.54c-.39-.39-.64-.89-.69-1.42-.05-.53.11-1.06.48-1.43.22-.22.5-.37.8-.44-.29-.36-.49-.79-.53-1.24-.05-.53.11-1.06.48-1.43.22-.22.5-.37.8-.44-.29-.36-.49-.79-.53-1.24-.05-.53.11-1.06.48-1.43.38-.38.9-.53,1.43-.48.24.02.47.09.69.19.06-.35.21-.67.47-.93.38-.37.9-.53,1.43-.48.46.05.91.25,1.27.55.06-.09.13-.17.21-.25.38-.38.9-.53,1.43-.48ZM8.22,6.32c-.27-.03-.49.06-.63.19-.14.14-.22.35-.19.63.02.22.12.46.28.66h0s.03.04.04.06c.02.03.05.06.08.08l4.22,4.23c.2.2.2.51,0,.71-.2.19-.51.19-.71,0l-4.22-4.23c-.06-.06-.12-.13-.17-.2l-.49-.52c-.24-.24-.53-.37-.81-.4-.27-.03-.49.06-.62.19-.14.14-.22.35-.19.62.03.28.17.57.41.81l3.54,3.54c.19.2.19.51,0,.71-.2.2-.51.19-.71,0l-2.35-2.35s0,0,0,0c-.24-.24-.54-.38-.81-.41-.27-.03-.49.06-.62.19-.14.14-.22.35-.19.62.03.28.17.57.41.81l2.95,2.95c.2.2.2.51,0,.71-.2.2-.51.2-.71,0l-1.76-1.77s0,0,0,0c-.24-.24-.54-.38-.81-.41-.27-.03-.49.06-.62.19-.14.14-.22.35-.19.63.03.28.17.57.41.81l3.54,3.54c1.18,1.18,2.68,1.91,4.16,2.06,1.45.14,3.01-.51,3.94-1.44l.55-.55c1.25-1.25,1.69-2.61,1.55-4.05h0s-.38-5.51-.38-5.51c-.04-.27-.19-.55-.42-.77-.24-.23-.52-.36-.79-.38-.26-.03-.47.05-.61.18-.12.11-.2.28-.21.5v.09l.07,1.24.07,1.24c0,.14-.04.27-.13.36-.02.03-.04.05-.06.08-.2.2-.51.2-.71,0l-5.25-5.24c-.24-.24-.54-.38-.81-.41ZM18.01,7.89c-.24-.02-.44.04-.57.15.33.35.56.79.63,1.26,0,.01,0,.03,0,.04l.38,5.53c.16,1.74-.39,3.39-1.84,4.84l-.15.14c.45-.23.82-.47,1.03-.69l.55-.55c1.25-1.25,1.69-2.61,1.55-4.05h0s-.38-5.51-.38-5.51c-.04-.27-.19-.55-.42-.77-.24-.23-.52-.36-.79-.38ZM11.13,6.14c-.27-.03-.49.06-.62.19-.09.09-.11.13-.12.17,0,.03-.01.08-.01.15l3.74,3.74v-.05s-.07-1.24-.07-1.24h0s0-.19,0-.19c0-.08.01-.16.03-.23l-2.13-2.13c-.24-.24-.54-.38-.81-.41Z"/>
  <path
    d="M15,2.92c.21-.18.53-.15.7.06.18.21.15.53-.06.7l-1.18.99c-.21.18-.53.15-.7-.06-.18-.21-.15-.53.06-.7l1.19-.99ZM12.54,1.84c.09-.26.38-.4.64-.3.26.09.39.38.3.64l-.52,1.46c-.09.26-.38.4-.64.3-.26-.09-.4-.38-.3-.64l.52-1.46ZM10.33,1.32c.27-.03.52.17.55.45l.16,1.54c.03.27-.17.52-.45.55-.27.03-.52-.17-.55-.45l-.16-1.54c-.03-.27.17-.52.45-.55Z"/>
</svg>
