<svg xmlns="http://www.w3.org/2000/svg" version="1.1" viewBox="0 0 24 24">
  <path
    d="M4.81,14.53c-.27-.27-.6-.43-.91-.46-.31-.03-.55.06-.7.22-.15.15-.25.4-.22.7.03.31.19.64.46.91l3.78,3.78c1.32,1.32,3.01,2.15,4.68,2.31,1.62.16,3.39-.57,4.43-1.62l.62-.62c1.41-1.41,1.9-2.94,1.74-4.55h0s-.43-6.19-.43-6.19c-.05-.3-.21-.62-.47-.87-.27-.25-.59-.4-.89-.43-.3-.03-.53.06-.69.2-.13.13-.23.32-.24.56v.11l.08,1.39.08,1.39c0,.16-.05.3-.14.41-.02.03-.04.06-.07.09-.22.22-.57.22-.79,0l-5.89-5.89c-.27-.27-.6-.43-.91-.46-.31-.03-.55.06-.7.22-.15.15-.25.4-.22.7.02.25.13.51.31.75h.01s.03.05.04.07c.03.03.06.06.09.1l4.75,4.75c.22.22.22.58,0,.79-.22.22-.58.22-.79,0l-4.75-4.75c-.07-.07-.13-.14-.2-.22l-.55-.58c-.27-.26-.6-.42-.91-.45-.31-.03-.55.06-.7.22-.15.15-.25.4-.22.7.03.31.19.64.46.91l3.97,3.97c.22.22.22.58,0,.79-.22.22-.58.22-.79,0l-2.64-2.64s0,0,0,0c-.27-.27-.6-.43-.91-.46-.31-.03-.55.06-.7.22-.15.15-.25.4-.22.7.03.31.19.64.46.91l3.31,3.31c.22.22.22.58,0,.79-.22.22-.58.22-.79,0M19.3,7.28c-.27-.03-.49.04-.64.17.37.4.63.89.71,1.42,0,.01,0,.03,0,.04l.43,6.21c.18,1.96-.44,3.81-2.07,5.44l-.16.16c.51-.26.92-.53,1.16-.77l.62-.62c1.41-1.41,1.9-2.94,1.74-4.55h0s-.43-6.19-.43-6.19c-.05-.3-.21-.62-.47-.87-.27-.25-.59-.4-.89-.43ZM11.57,5.31c-.31-.03-.55.06-.7.22-.1.1-.12.15-.13.19,0,.03-.01.09-.01.17l4.2,4.2v-.05s-.08-1.39-.08-1.39h0s0-.22,0-.22c0-.09.01-.18.03-.26l-2.39-2.39c-.27-.27-.6-.43-.91-.46Z"/>
  <path
    d="M14.99,3.13c.23-.15.54-.1.69.13.15.23.09.54-.13.69l-1.28.87c-.23.16-.54.1-.69-.13-.15-.23-.1-.54.13-.69l1.28-.87ZM12.66,1.81c.12-.25.42-.36.67-.24.25.12.35.42.24.67l-.66,1.4c-.12.25-.42.36-.67.24-.25-.12-.36-.42-.24-.67l.66-1.4ZM10.51,1.07c.28,0,.5.22.5.5v1.55c0,.28-.22.5-.5.5-.28,0-.5-.22-.5-.5v-1.54c0-.28.22-.5.5-.5Z"/>
</svg>
