<svg width="17" height="16" viewBox="0 0 17 16" fill="none" xmlns="http://www.w3.org/2000/svg">
  <path
    d="M2.83862 14.6667V2.66667C2.83862 2.56317 2.86272 2.46109 2.909 2.36852C2.95529 2.27595 3.02249 2.19543 3.10529 2.13333C3.79767 1.61404 4.63981 1.33333 5.50529 1.33333C7.50529 1.33333 8.83862 2.66667 10.394 2.66667C11.2828 2.66667 11.9644 2.48889 12.4386 2.13333C12.5377 2.05905 12.6554 2.01381 12.7788 2.00269C12.9021 1.99157 13.026 2.01501 13.1368 2.07038C13.2475 2.12575 13.3406 2.21086 13.4057 2.31618C13.4708 2.4215 13.5053 2.54286 13.5053 2.66667V9.33333C13.5053 9.43683 13.4812 9.5389 13.4349 9.63147C13.3886 9.72404 13.3214 9.80457 13.2386 9.86666C12.5462 10.386 11.7041 10.6667 10.8386 10.6667C8.83862 10.6667 7.50529 9.33333 5.50529 9.33333C4.52137 9.33336 3.57197 9.69603 2.83862 10.352"
    fill="currentColor"/>
  <path
    d="M2.83862 14.6667V2.66667C2.83862 2.56317 2.86272 2.46109 2.909 2.36852C2.95529 2.27595 3.02249 2.19543 3.10529 2.13333C3.79767 1.61404 4.63981 1.33333 5.50529 1.33333C7.50529 1.33333 8.83862 2.66667 10.394 2.66667C11.2828 2.66667 11.9644 2.48889 12.4386 2.13333C12.5377 2.05905 12.6554 2.01381 12.7788 2.00269C12.9021 1.99157 13.026 2.01501 13.1368 2.07038C13.2475 2.12575 13.3406 2.21086 13.4057 2.31618C13.4708 2.4215 13.5053 2.54286 13.5053 2.66667V9.33333C13.5053 9.43683 13.4812 9.5389 13.4349 9.63147C13.3886 9.72404 13.3214 9.80457 13.2386 9.86667C12.5462 10.386 11.7041 10.6667 10.8386 10.6667C8.83862 10.6667 7.50529 9.33333 5.50529 9.33333C4.52137 9.33336 3.57197 9.69603 2.83862 10.352"
    stroke="currentColor" stroke-linecap="round" stroke-linejoin="round"/>
</svg>
