<svg width="48" height="48" viewBox="0 0 48 48" fill="none" xmlns="http://www.w3.org/2000/svg">
<path d="M24.2 40.1433C24.9766 40.1433 25.7215 40.4519 26.2706 41.001C26.8198 41.5502 27.1283 42.295 27.1283 43.0717C27.1283 43.8483 26.8198 44.5931 26.2706 45.1423C25.7215 45.6915 24.9766 46 24.2 46C23.4234 46 22.6785 45.6915 22.1294 45.1423C21.5802 44.5931 21.2717 43.8483 21.2717 43.0717C21.2717 42.295 21.5802 41.5502 22.1294 41.001C22.6785 40.4519 23.4234 40.1433 24.2 40.1433ZM13.6417 40.1433C14.4183 40.1433 15.1631 40.4519 15.7123 41.001C16.2615 41.5502 16.57 42.295 16.57 43.0717C16.57 43.8483 16.2615 44.5931 15.7123 45.1423C15.1631 45.6915 14.4183 46 13.6417 46C12.865 46 12.1202 45.6915 11.571 45.1423C11.0219 44.5931 10.7133 43.8483 10.7133 43.0717C10.7133 42.295 11.0219 41.5502 11.571 41.001C12.1202 40.4519 12.865 40.1433 13.6417 40.1433ZM34.76 40.1433C35.5366 40.1433 36.2815 40.4519 36.8306 41.001C37.3798 41.5502 37.6883 42.295 37.6883 43.0717C37.6883 43.8483 37.3798 44.5931 36.8306 45.1423C36.2815 45.6915 35.5366 46 34.76 46C33.9834 46 33.2385 45.6915 32.6894 45.1423C32.1402 44.5931 31.8317 43.8483 31.8317 43.0717C31.8317 42.295 32.1402 41.5502 32.6894 41.001C33.2385 40.4519 33.9834 40.1433 34.76 40.1433ZM24.2033 6C33.7033 6 41.4067 12.7767 41.4067 21.1367C41.4067 29.4967 33.7033 36.275 24.2033 36.275C21.6129 36.2825 19.048 35.7625 16.665 34.7467L8.04667 36.9017L9.88833 29.535C8.065 27.1317 7 24.2433 7 21.1367C7 12.7767 14.7033 6 24.2033 6ZM24.2017 13.0583C23.5613 13.0581 22.9271 13.184 22.3353 13.4289C21.7436 13.6738 21.2058 14.0328 20.7529 14.4855C20.2999 14.9382 19.9405 15.4757 19.6952 16.0672C19.4499 16.6588 19.3236 17.2929 19.3233 17.9333V19.8833H19.1317C19.0288 19.8833 18.9269 19.9036 18.8319 19.943C18.7369 19.9823 18.6505 20.04 18.5778 20.1128C18.505 20.1855 18.4473 20.2719 18.408 20.3669C18.3686 20.4619 18.3483 20.5638 18.3483 20.6667V27.5433C18.3483 27.9767 18.6983 28.3283 19.1317 28.3283H29.275C29.7083 28.3283 30.0583 27.9783 30.0583 27.545V20.6633C30.0583 20.4556 29.9758 20.2563 29.8289 20.1094C29.682 19.9625 29.4828 19.88 29.275 19.88H29.0833V17.93C29.0827 17.2894 28.9558 16.6551 28.7101 16.0635C28.4643 15.4719 28.1044 14.9345 27.651 14.482C27.1975 14.0294 26.6594 13.6706 26.0672 13.4261C25.4751 13.1815 24.8406 13.056 24.2 13.0567L24.2017 13.0583ZM24.2017 15.0083C25.8217 15.0083 27.1317 16.3183 27.1317 17.9317V19.8817H21.275V17.9317C21.275 16.3183 22.585 15.0083 24.2017 15.0083Z" fill="black"/>
</svg>
