<svg width="48" height="48" viewBox="0 0 48 48" fill="none" xmlns="http://www.w3.org/2000/svg">
<path d="M24 21.7768C22.1883 18.2535 17.2567 11.6885 12.67 8.45179C8.27667 5.35012 6.60167 5.88679 5.50333 6.38512C4.23167 6.95679 4 8.91012 4 10.0568C4 11.2068 4.63 19.4735 5.04 20.8551C6.39833 25.4151 11.2283 26.9551 15.6783 26.4618C15.905 26.4285 16.1367 26.3968 16.37 26.3685C16.14 26.4051 15.91 26.4351 15.6783 26.4618C9.15833 27.4285 3.36667 29.8035 10.9617 38.2585C19.3167 46.9085 22.4117 36.4035 24 31.0785C25.5883 36.4035 27.4167 46.5301 36.8883 38.2585C44 31.0785 38.8417 27.4285 32.3217 26.4618C32.0904 26.4362 31.8598 26.4051 31.63 26.3685C31.8633 26.3968 32.095 26.4285 32.3217 26.4618C36.7717 26.9568 41.6017 25.4151 42.96 20.8551C43.37 19.4751 44 11.2051 44 10.0585C44 8.90846 43.7683 6.95679 42.4967 6.38179C41.3983 5.88512 39.7233 5.34846 35.33 8.44846C30.7433 11.6901 25.8117 18.2551 24 21.7768Z" fill="black"/>
</svg>
