<svg width="48" height="48" viewBox="0 0 48 48" fill="none" xmlns="http://www.w3.org/2000/svg">
<path d="M23.9066 4.00005C18.6185 4.02473 13.5554 6.14276 9.82482 9.89081C6.09426 13.6389 3.99994 18.7118 4 24C4 29.3043 6.10713 34.3914 9.85786 38.1421C13.6086 41.8929 18.6957 44 24 44C29.3043 44 34.3914 41.8929 38.1421 38.1421C41.8928 34.3914 43.9999 29.3043 43.9999 24C43.9999 18.6957 41.8928 13.6086 38.1421 9.85791C34.3914 6.10719 29.3043 4.00005 24 4.00005C23.9689 3.99998 23.9378 3.99998 23.9066 4.00005ZM32.1766 16.04C32.3433 16.0367 32.7116 16.0784 32.9516 16.2734C33.1111 16.4119 33.2128 16.6052 33.2366 16.815C33.2633 16.97 33.2966 17.325 33.27 17.6017C32.97 20.765 31.6666 28.4384 31.0033 31.98C30.7233 33.48 30.1716 33.9817 29.6366 34.03C28.4766 34.1383 27.595 33.2633 26.47 32.5267C24.71 31.3717 23.715 30.6534 22.0066 29.5267C20.0316 28.2267 21.3116 27.51 22.4366 26.3434C22.7316 26.0367 27.8483 21.3817 27.9483 20.96C27.96 20.9067 27.9716 20.71 27.855 20.6067C27.7383 20.5034 27.565 20.5384 27.44 20.5667C27.2633 20.6067 24.4516 22.4667 19.005 26.1417C18.205 26.6917 17.4833 26.9584 16.835 26.9417C16.1217 26.9284 14.7483 26.54 13.7267 26.2084C12.4733 25.8 11.4783 25.585 11.565 24.8934C11.61 24.5334 12.1067 24.165 13.0533 23.7884C18.8833 21.2484 22.77 19.5734 24.7166 18.765C30.27 16.455 31.425 16.0534 32.1766 16.04Z" fill="black"/>
</svg>
