<svg width="48" height="48" viewBox="0 0 48 48" fill="none" xmlns="http://www.w3.org/2000/svg">
<path d="M42.7125 14.855C42.1292 10.5583 38.3509 7.17167 33.8725 6.515C33.1158 6.40333 30.2525 6 23.6208 6H23.5708C16.9375 6 15.5125 6.40333 14.7575 6.515C10.4025 7.15334 6.42578 10.1967 5.46078 14.545C4.99911 16.6867 4.94911 19.0617 5.03411 21.2384C5.15745 24.3617 5.18078 27.48 5.46745 30.59C5.66412 32.6567 6.00912 34.7067 6.50078 36.7234C7.41745 40.4517 11.1291 43.5534 14.7675 44.8184C18.6608 46.1384 22.8492 46.3567 26.8608 45.4517C27.3025 45.3501 27.7392 45.2317 28.1708 45.0967C29.1458 44.7901 30.2875 44.4467 31.1275 43.8417C31.1388 43.8334 31.1481 43.8226 31.1547 43.8102C31.1613 43.7978 31.1651 43.7841 31.1658 43.7701V40.7551C31.1658 40.7419 31.1628 40.7289 31.1571 40.7171C31.1513 40.7052 31.1429 40.6948 31.1325 40.6867C31.1219 40.6782 31.1094 40.6723 31.0961 40.6694C31.0828 40.6665 31.069 40.6668 31.0558 40.6701C28.4842 41.2786 25.8501 41.5834 23.2075 41.5784C18.6575 41.5784 17.4358 39.4384 17.0841 38.5484C16.8027 37.7791 16.624 36.9761 16.5525 36.1601C16.5518 36.1463 16.5543 36.1325 16.56 36.1198C16.5656 36.1072 16.5741 36.0961 16.5848 36.0873C16.5955 36.0785 16.6081 36.0724 16.6216 36.0694C16.6351 36.0664 16.6491 36.0667 16.6625 36.0701C19.1908 36.6751 21.7825 36.9801 24.3825 36.9801C25.0092 36.9801 25.6325 36.9801 26.2575 36.9634C28.8742 36.8901 31.6308 36.7567 34.2042 36.2601C34.2675 36.2467 34.3325 36.2351 34.3875 36.2201C38.4459 35.4467 42.3092 33.0201 42.7025 26.88C42.7159 26.6384 42.7525 24.3467 42.7525 24.0967C42.7559 23.2434 43.0309 18.0467 42.7125 14.855ZM36.4658 30.1801H32.1975V19.8167C32.1975 17.635 31.2808 16.5234 29.4142 16.5234C27.3642 16.5234 26.3375 17.84 26.3375 20.44V26.1117H22.0942V20.4384C22.0942 17.8384 21.0658 16.5217 19.0141 16.5217C17.1608 16.5217 16.2341 17.635 16.2308 19.8167V30.1801H11.9691V19.5034C11.9691 17.32 12.5308 15.5867 13.6541 14.3034C14.8141 13.02 16.3341 12.3633 18.2208 12.3633C20.4058 12.3633 22.0575 13.1967 23.1575 14.86L24.2208 16.6267L25.2842 14.86C26.3842 13.195 28.0342 12.3633 30.2175 12.3633C32.1008 12.3633 33.6225 13.0217 34.7842 14.3034C35.9092 15.5867 36.4708 17.32 36.4708 19.5034L36.4658 30.1801Z" fill="black"/>
</svg>
