<svg width="48" height="48" viewBox="0 0 48 48" fill="none" xmlns="http://www.w3.org/2000/svg">
<path d="M13.8454 15.1831H6.21686C5.87829 15.1831 5.60396 15.4576 5.60396 15.796V40.3033C5.60396 40.6419 5.87829 40.9162 6.21686 40.9162H13.8454C14.184 40.9162 14.4583 40.6419 14.4583 40.3033V15.796C14.4583 15.4576 14.184 15.1831 13.8454 15.1831Z" fill="black"/>
<path d="M10.0339 3C7.25818 3 5 5.25573 5 8.02838C5 10.8023 7.25818 13.0588 10.0339 13.0588C12.8074 13.0588 15.0637 10.8021 15.0637 8.02838C15.0639 5.25573 12.8074 3 10.0339 3Z" fill="black"/>
<path d="M33.2492 14.5741C30.1853 14.5741 27.9204 15.8912 26.5466 17.3878V15.7961C26.5466 15.4577 26.2723 15.1832 25.9337 15.1832H18.628C18.2895 15.1832 18.0151 15.4577 18.0151 15.7961V40.3034C18.0151 40.642 18.2895 40.9163 18.628 40.9163H26.2399C26.5785 40.9163 26.8528 40.642 26.8528 40.3034V28.178C26.8528 24.092 27.9627 22.5002 30.811 22.5002C33.913 22.5002 34.1595 25.052 34.1595 28.3882V40.3035C34.1595 40.6421 34.4338 40.9164 34.7724 40.9164H42.3871C42.7257 40.9164 43 40.6421 43 40.3035V26.8608C43 20.7851 41.8415 14.5741 33.2492 14.5741Z" fill="black"/>
</svg>
