<?xml version="1.0" encoding="utf-8"?>
<!-- Generator: Adobe Illustrator 27.1.1, SVG Export Plug-In . SVG Version: 6.00 Build 0)  -->
<svg version="1.1" id="Ebene_1" xmlns="http://www.w3.org/2000/svg" xmlns:xlink="http://www.w3.org/1999/xlink" x="0px" y="0px"
	 viewBox="0 0 50 50" style="enable-background:new 0 0 50 50;" xml:space="preserve">
<style type="text/css">
	.st0{fill:#6ACDDB;}
	.st1{fill:#2AB8CB;}
	.st2{fill:#1D1D1B;stroke:#FFFFFF;stroke-miterlimit:10;}
	.st3{fill:#1D1D1B;stroke:#FFFFFF;stroke-linecap:round;stroke-linejoin:round;stroke-miterlimit:10;}
</style>
<g>
	<rect x="5" y="21.95" class="st0" width="40" height="25"/>
	<rect x="4" y="13" class="st1" width="42" height="9"/>
	<line class="st2" x1="25" y1="13" x2="25" y2="47"/>
	<line class="st2" x1="5" y1="28.97" x2="45" y2="28.97"/>
	<g>
		<path class="st3" d="M33.34,19.97c0,0-5.85-7.02-11.71-8.19s-8.19-4.68-7.02-7.02s3.51-2.34,5.85,0s4.68,8.19,4.68,8.19"/>
		<path class="st3" d="M16.66,19.97c0,0,5.85-7.02,11.71-8.19s8.19-4.68,7.02-7.02c-1.17-2.34-3.51-2.34-5.85,0
			s-4.68,8.19-4.68,8.19"/>
	</g>
</g>
</svg>
