<?xml version="1.0" encoding="utf-8"?>
<!-- Generator: Adobe Illustrator 26.0.3, SVG Export Plug-In . SVG Version: 6.00 Build 0)  -->
<svg version="1.1" id="Ebene_1" xmlns="http://www.w3.org/2000/svg" xmlns:xlink="http://www.w3.org/1999/xlink" x="0px" y="0px"
	 viewBox="0 0 50 50" style="enable-background:new 0 0 50 50;" xml:space="preserve">
<g>
	<rect x="5" y="21.948" style="fill:#6ACDDB;" width="40" height="25"/>
	<rect x="4" y="13" style="fill:#2AB8CB;" width="42" height="9"/>
	<line style="fill:none;stroke:#1D1D1B;stroke-miterlimit:10;" x1="25" y1="13" x2="25" y2="47"/>
	<line style="fill:none;stroke:#1D1D1B;stroke-miterlimit:10;" x1="5" y1="28.97" x2="45" y2="28.97"/>
	<g>
		<path style="fill:none;stroke:#1D1D1B;stroke-linecap:round;stroke-linejoin:round;stroke-miterlimit:10;" d="M33.34,19.973
			c0,0-5.853-7.023-11.706-8.194s-8.194-4.682-7.023-7.023s3.512-2.341,5.853,0s4.682,8.194,4.682,8.194"/>
		<path style="fill:none;stroke:#1D1D1B;stroke-linecap:round;stroke-linejoin:round;stroke-miterlimit:10;" d="M16.66,19.973
			c0,0,5.853-7.023,11.706-8.194s8.194-4.682,7.023-7.023c-1.171-2.341-3.512-2.341-5.853,0s-4.682,8.194-4.682,8.194"/>
	</g>
</g>
</svg>
