<?xml version="1.0" encoding="utf-8"?>
<!-- Generator: Adobe Illustrator 26.0.3, SVG Export Plug-In . SVG Version: 6.00 Build 0)  -->
<svg version="1.1" id="Ebene_1" xmlns="http://www.w3.org/2000/svg" xmlns:xlink="http://www.w3.org/1999/xlink" x="0px" y="0px"
	 viewBox="0 0 50 50" style="enable-background:new 0 0 50 50;" xml:space="preserve">
<g>
	<g>
		<g>
			<circle style="fill:#CCCCCC;" cx="40.364" cy="13.7" r="4.893"/>
		</g>
		<g>
			<path style="fill:#CCCCCC;" d="M42.406,20.064c-0.828-0.254-1.421-0.314-1.631-0.329c-0.087-0.006-0.384-0.025-0.738-0.008
				c0,0-1.146,0.083-2.359,0.564c-2.476,0.981-5.797,3.623-6.163,10.748c0,0,1.175,1.513,8.791,1.494
				c0.008,0,0.015,0.001,0.022,0.001c7.704,0.032,8.887-1.495,8.887-1.495C48.815,23.271,44.903,20.831,42.406,20.064z"/>
		</g>
	</g>
	<path style="fill:#FF7F0E;" d="M35.965,15.571c-0.148-0.253-0.341-0.635-0.477-1.127c-0.387-1.4-0.249-3.47,1.045-4.367
		c0.193-0.134,0.479-0.289,0.886-0.377c0.131-0.244,0.392-0.65,0.859-0.951c0.992-0.638,2.167-0.334,3.074-0.098
		c1.011,0.264,1.937,0.787,2.306,1.196c0.052,0.058,0.219,0.253,0.486,0.48c0.297,0.252,0.346,0.227,0.569,0.425
		c0.213,0.189,0.606,0.537,0.597,0.95c-0.003,0.115-0.029,0.148-0.036,0.338c-0.009,0.237,0.034,0.314-0.014,0.467
		c-0.029,0.091-0.073,0.158-0.103,0.197c-0.02-0.099-0.057-0.229-0.127-0.371c-0.073-0.148-0.157-0.26-0.225-0.338
		c-0.8,0.056-1.431,0.199-1.87,0.324c-0.759,0.216-1.27,0.471-2.206,0.559c-0.636,0.06-0.881-0.013-1.014-0.064
		c-0.68-0.261-0.986-0.94-1.088-1.202c-0.074,0.185-0.17,0.475-0.205,0.842c-0.036,0.38,0.02,0.571,0.018,0.922
		c0,0-0.005,0.592-0.214,1.156c-0.346,0.93-1.315,1.4-1.664,1.55C36.363,15.913,36.164,15.742,35.965,15.571z"/>
	<path style="fill:#FF7F0E;" d="M43.711,15.75c0.157-0.151,0.39-0.321,0.677-0.327c0.207-0.004,0.341,0.078,0.491,0.135
		c0.254,0.096,0.641,0.149,1.22-0.046c-0.343,0.825-1.031,1.298-1.628,1.203c-0.119-0.019-0.378-0.083-0.647-0.364
		c-0.084,0.168-0.245,0.435-0.539,0.653c-0.607,0.451-1.31,0.347-1.526,0.315c-1.039-0.153-1.607-0.987-1.709-1.144
		c1.077,0.505,1.638,0.403,1.952,0.211c0.398-0.244,0.554-0.728,1.04-0.798C43.318,15.548,43.561,15.661,43.711,15.75z"/>
</g>
<g>
	<g>
		<g>
			<circle style="fill:#9F9F9F;" cx="32.744" cy="19.656" r="4.893"/>
		</g>
		<g>
			<path style="fill:#9F9F9F;" d="M34.786,26.02c-0.828-0.254-1.421-0.314-1.631-0.329c-0.087-0.006-0.384-0.025-0.738-0.008
				c0,0-1.146,0.083-2.359,0.564c-2.476,0.981-5.797,3.623-6.163,10.748c0,0,1.175,1.513,8.791,1.494
				c0.008,0,0.015,0.001,0.022,0.001c7.704,0.032,8.887-1.495,8.887-1.495C41.195,29.226,37.284,26.786,34.786,26.02z"/>
		</g>
	</g>
	<path style="fill:#1F77B4;" d="M36.206,16.888c0.052,0.064,0.134,0.153,0.252,0.235c0.156,0.108,0.269,0.131,0.377,0.184
		c0.134,0.066,0.302,0.2,0.443,0.503c0.086-0.054,0.238-0.169,0.301-0.359c0.069-0.207,0.01-0.431-0.135-0.689
		c-0.882-1.573-2.559-2.347-2.559-2.347c-0.909-0.42-1.674-0.516-1.962-0.544c-0.746-0.073-1.37,0.01-1.794,0.1
		c0.024-0.093,0.205-0.853-0.272-1.41c-0.395-0.46-0.975-0.473-1.382-0.482c-0.345-0.008-1.497-0.033-1.887,0.76
		c-0.29,0.589,0.002,1.3,0.341,1.704c0.46,0.548,1.098,0.637,1.258,0.655c-0.294,0.283-0.709,0.751-1.027,1.426
		c-0.222,0.472-0.575,1.219-0.438,2.106c0.218,1.411,1.585,2.605,2.077,2.39c0.048-0.021,0.057-0.026,0.163-0.164
		c0.423-0.547,0.776-0.527,1.052-0.888c0.101-0.132,0.224-0.347,0.276-0.688c1.098-0.896,2.007-1.133,2.64-1.18
		c0.475-0.035,1.066,0,1.603-0.397C35.905,17.53,36.1,17.158,36.206,16.888z"/>
</g>
<g>
	<g>
		<g>
			<circle style="fill:#CCCCCC;" cx="9.528" cy="13.7" r="4.893"/>
		</g>
		<g>
			<path style="fill:#CCCCCC;" d="M11.57,20.064c-0.828-0.254-1.421-0.314-1.631-0.329C9.851,19.73,9.555,19.711,9.2,19.728
				c0,0-1.146,0.083-2.359,0.564c-2.476,0.981-5.797,3.623-6.163,10.748c0,0,1.175,1.513,8.791,1.494
				c0.008,0,0.015,0.001,0.022,0.001c7.704,0.032,8.887-1.495,8.887-1.495C17.979,23.271,14.067,20.831,11.57,20.064z"/>
		</g>
	</g>
	<path style="fill:#FF7F0E;" d="M6.648,17.655C6.22,17.308,5.12,16.32,4.776,14.681c-0.134-0.64-0.116-1.207-0.062-1.634
		c0.371-0.015,0.791-0.062,1.245-0.168c1.331-0.31,2.293-0.967,2.864-1.443c0.265,0.342,0.883,1.037,1.922,1.406
		c0.541,0.192,1.027,0.236,1.377,0.237c0.019,0.31,0.049,0.637,0.095,0.977c0.104,0.771,0.265,1.464,0.445,2.068
		c0.261-0.084,0.716-0.229,1.287-0.408c1.112-0.349,1.163-0.355,1.25-0.449c0.459-0.498,0.056-1.576-0.749-3.733
		c-0.107-0.286-0.333-0.797-0.747-1.396c-0.065-0.093-0.139-0.187-0.235-0.293c-0.652-0.722-1.408-1.059-1.918-1.162
		c-0.007-0.001-0.012-0.002-0.016-0.003C11.25,8.626,10.72,8.57,10.036,8.786C9.908,8.701,9.718,8.59,9.472,8.501
		C8.532,8.16,7.335,8.336,6.521,8.952c-0.58,0.439-1.031,1.207-1.851,2.808c-0.64,1.251-0.96,1.876-1.114,2.618
		c-0.174,0.843-0.551,2.669,0.444,3.405C4.945,18.483,6.499,17.729,6.648,17.655z"/>
</g>
<g>
	<g>
		<circle style="fill:#9F9F9F;" cx="17.264" cy="19.656" r="4.893"/>
	</g>
	<g>
		<path style="fill:#9F9F9F;" d="M19.306,26.02c-0.828-0.254-1.421-0.314-1.631-0.329c-0.087-0.006-0.384-0.025-0.738-0.008
			c0,0-1.146,0.083-2.359,0.564c-2.476,0.981-5.797,3.623-6.163,10.748c0,0,1.175,1.513,8.791,1.494
			c0.008,0,0.015,0.001,0.022,0.001c7.704,0.032,8.887-1.495,8.887-1.495C25.715,29.226,21.803,26.786,19.306,26.02z"/>
	</g>
</g>
<path style="fill:#1F77B4;" d="M13.129,17.435c0.099-0.069,0.499-0.327,1.416-0.157c1.151,0.213,1.41,0.783,2.279,1.054
	c0.515,0.16,1.292,0.23,2.404-0.225c-0.019,0.185-0.066,0.865,0.389,1.5c0.309,0.432,0.7,0.636,0.893,0.72
	c0.625-0.379,1.249-0.757,1.874-1.136c-0.013-0.446-0.11-2.403-1.407-3.704c-0.289-0.29-0.819-0.824-1.684-1.007
	c-0.425-0.09-0.79-0.067-1.03-0.033c-0.176-0.105-0.432-0.237-0.759-0.339c-0.183-0.057-0.938-0.281-1.873-0.079
	c-0.659,0.142-1.062,0.416-1.821,0.931c-0.741,0.503-1.132,0.775-1.431,1.317c-0.146,0.264-0.504,0.912-0.235,1.512
	c0.112,0.25,0.295,0.409,0.422,0.499C12.62,18.089,12.76,17.692,13.129,17.435z"/>
<g>
	<g>
		<g>
			<circle style="fill:#7F7F7F;" cx="25" cy="24.334" r="4.893"/>
		</g>
		<g>
			<path style="fill:#7F7F7F;" d="M27.042,30.698c-0.828-0.254-1.421-0.314-1.631-0.329c-0.087-0.006-0.384-0.025-0.738-0.008
				c0,0-1.146,0.083-2.359,0.564c-2.476,0.981-5.797,3.623-6.163,10.748c0,0,1.175,1.513,8.791,1.494
				c0.008,0,0.015,0.001,0.022,0.001c7.704,0.032,8.887-1.495,8.887-1.495C33.451,33.905,29.539,31.464,27.042,30.698z"/>
		</g>
	</g>
	<path style="fill:#FF7F0E;" d="M30.589,21.204c-1.16-2.061-3.268-2.935-4.433-3.208c-0.634-0.149-1.643-0.371-2.686,0.106
		c-0.423,0.194-0.727,0.445-0.917,0.629c-0.444,0.124-1.11,0.373-1.763,0.898c-1.316,1.059-1.681,2.515-1.837,3.179
		c-0.369,1.57-0.054,2.584,0.133,4.106c0.621,5.065-1.212,7.41,0.202,8.553c0.772,0.624,2.029,0.502,2.797,0.085
		c1.14-0.619,1.404-2,1.566-2.887c0.293-1.61-0.103-2.977-0.42-3.771c-0.31-0.137-0.684-0.333-1.076-0.618
		c-0.459-0.333-0.8-0.681-1.042-0.968c0.021-0.591,0.041-1.186,0.059-1.784c0.014-0.482,0.027-0.963,0.039-1.441
		c0.33-0.194,0.727-0.48,1.1-0.898c1-1.121,1.154-2.434,1.186-2.959c1.743-0.075,2.436,0.362,2.737,0.804
		c0.201,0.295,0.127,0.445,0.5,1.195c0.278,0.559,0.554,1.099,1.064,1.455c0.758,0.53,1.686,0.407,2.082,0.328
		c0.022,0.467-0.003,1.271-0.37,2.17c-0.344,0.843-0.83,1.378-1.026,1.581c-0.606,0.625-1.246,0.949-1.632,1.11
		c0.338,1.806,0.402,3.007,0.392,3.791c-0.003,0.212-0.014,0.619,0.163,1.102c0.342,0.933,1.12,1.427,1.364,1.578
		c0.302,0.186,0.783,0.483,1.468,0.489c0.211,0.002,0.934,0.009,1.477-0.493c0.269-0.249,0.505-0.633,0.607-1.383
		c0.22-1.629-0.537-2.447-0.849-4.247c-0.169-0.975,0.016-0.946-0.024-2.767C31.384,24.019,31.351,22.558,30.589,21.204z"/>
</g>
</svg>
