<?xml version="1.0" encoding="utf-8"?>
<!-- Generator: Adobe Illustrator 27.1.1, SVG Export Plug-In . SVG Version: 6.00 Build 0)  -->
<svg version="1.1" id="Ebene_1" xmlns="http://www.w3.org/2000/svg" xmlns:xlink="http://www.w3.org/1999/xlink" x="0px" y="0px"
	 viewBox="0 0 50 50" style="enable-background:new 0 0 50 50;" xml:space="preserve">
<style type="text/css">
	.st0{fill:#D2D2D2;}
	.st1{fill:#A5A5A5;}
	.st2{fill:#6ACDDB;}
	.st3{fill:#2AB8CB;}
	.st4{fill:#1D1D1B;stroke:#FFFFFF;stroke-miterlimit:10;}
	.st5{fill:#1D1D1B;stroke:#FFFFFF;stroke-linecap:round;stroke-linejoin:round;stroke-miterlimit:10;}
	.st6{fill:#7F7F7F;}
</style>
<g>
	<polygon class="st0" points="50,18.99 9.18,27.16 6.12,33.79 	"/>
	<polygon class="st1" points="50,18.99 6.12,33.79 7.65,36.34 	"/>
	<g>
		
			<rect x="8.7" y="16.9" transform="matrix(0.9592 -0.2826 0.2826 0.9592 -6.2147 7.1234)" class="st2" width="25.78" height="16.4"/>
		
			<rect x="5.04" y="11.5" transform="matrix(0.9592 -0.2826 0.2826 0.9592 -3.3256 5.7991)" class="st3" width="26.79" height="5.86"/>
		<g>
			<line class="st4" x1="17.61" y1="11.62" x2="23.9" y2="32.97"/>
			<line class="st4" x1="8.23" y1="25.37" x2="32.95" y2="18.09"/>
			<g>
				<path class="st5" d="M24.13,14c0,0-4.88-3.26-8.69-2.92c-3.81,0.34-5.89-1.4-5.6-3.05s1.74-2.08,3.6-1.06s4.37,4.19,4.37,4.19"
					/>
				<path class="st5" d="M13.87,17.03c0,0,2.33-5.38,5.72-7.17s4.19-4.37,3.05-5.6s-2.59-0.8-3.6,1.06c-1.02,1.87-1.4,5.89-1.4,5.89
					"/>
			</g>
		</g>
	</g>
	<polygon class="st0" points="50,18.99 5.1,37.36 0,48.08 	"/>
	<polygon class="st6" points="50,18.99 10.3,42.1 13.78,47.06 	"/>
</g>
</svg>
