<?xml version="1.0" encoding="utf-8"?>
<!-- Generator: Adobe Illustrator 26.0.3, SVG Export Plug-In . SVG Version: 6.00 Build 0)  -->
<svg version="1.1" id="Ebene_1" xmlns="http://www.w3.org/2000/svg" xmlns:xlink="http://www.w3.org/1999/xlink" x="0px" y="0px"
	 viewBox="0 0 50 50" style="enable-background:new 0 0 50 50;" xml:space="preserve">
<g>
	<polygon style="fill:#D2D2D2;" points="50,18.995 9.184,27.158 6.122,33.791 	"/>
	<polygon style="fill:#A5A5A5;" points="50,18.995 6.122,33.791 7.653,36.342 	"/>
	<g>
		
			<rect x="8.696" y="16.902" transform="matrix(0.9592 -0.2826 0.2826 0.9592 -6.2147 7.1234)" style="fill:#6ACDDB;" width="25.776" height="16.403"/>
		
			<rect x="5.044" y="11.498" transform="matrix(0.9592 -0.2826 0.2826 0.9592 -3.3256 5.7991)" style="fill:#2AB8CB;" width="26.79" height="5.858"/>
		<g>
			<line style="fill:none;stroke:#1D1D1B;stroke-miterlimit:10;" x1="17.611" y1="11.617" x2="23.902" y2="32.971"/>
			<line style="fill:none;stroke:#1D1D1B;stroke-miterlimit:10;" x1="8.228" y1="25.374" x2="32.954" y2="18.09"/>
			<g>
				<path style="fill:none;stroke:#1D1D1B;stroke-linecap:round;stroke-linejoin:round;stroke-miterlimit:10;" d="M24.135,14.001
					c0,0-4.876-3.261-8.69-2.92c-3.814,0.341-5.892-1.396-5.596-3.049s1.737-2.078,3.602-1.061s4.368,4.194,4.368,4.194"/>
				<path style="fill:none;stroke:#1D1D1B;stroke-linecap:round;stroke-linejoin:round;stroke-miterlimit:10;" d="M13.868,17.026
					c0,0,2.329-5.384,5.719-7.166s4.194-4.368,3.049-5.596S20.05,3.46,19.034,5.326c-1.016,1.865-1.396,5.892-1.396,5.892"/>
			</g>
		</g>
	</g>
	<polygon style="fill:#D2D2D2;" points="50,18.995 5.102,37.362 0,48.076 	"/>
	<polygon style="fill:#7F7F7F;" points="50,18.995 10.299,42.096 13.776,47.056 	"/>
</g>
</svg>
