<?xml version="1.0" encoding="UTF-8"?>
<svg id="Layer_1" data-name="Layer 1" xmlns="http://www.w3.org/2000/svg" viewBox="0 0 64 64">
  <defs>
    <style>
      .cls-1 {
        fill: none;
      }

      .cls-2 {
        fill: #ece92b;
      }

      .cls-3 {
        fill: #050504;
      }
    </style>
  </defs>
  <path class="cls-1" d="M44.18,45.07c-.17.02-1.19.08-1.23,0h0c.04.07,1.06.01,1.23,0,7.06-.82,11.86-6.81,11.58-13.42.27,6.61-4.53,12.6-11.58,13.42Z"/>
  <path class="cls-1" d="M42.24,24.44c-.25,8.56-.16,17.13-.47,25.7-.03.87.17,3.52-.14,4.12-.14.27-.37.21-.49.32h0c.12-.11.35-.05.49-.32.31-.6.11-3.26.14-4.12.31-8.57.23-17.14.47-25.7.06-1.96.25-3.97.38-5.92,0,0,0,0,0,0-.13,1.96-.33,3.96-.38,5.92Z"/>
  <path class="cls-1" d="M13,55.97c-.99-.47-2.03-.99-2.63-1.93h0c.59.94,1.64,1.46,2.63,1.93,6.15,2.91,12.67,3.01,19.32,1.99,2.5-.38,6.99-1.74,8.82-3.37h0c-1.82,1.63-6.32,2.99-8.82,3.37-6.65,1.02-13.17.92-19.32-1.99Z"/>
  <path class="cls-1" d="M50.76,31.11c-.67-3.42-4.62-4.95-7.66-4.15h0c3.04-.8,7.02.85,7.66,4.15.62,3.19-.96,6.47-3.98,7.87,3.02-1.4,4.63-4.56,3.98-7.87Z"/>
  <path class="cls-1" d="M31.81,17.38c1.64.37,3.34.37,4.95.88.24.08.97.35,1.15.46.23.14.34.44.36.45h0c.18.09,3.56-1.15,3.82-1.42.8-.84.11-1.38-.58-1.87-1.14-.82-2.74-1.26-4.1-1.59-.84-.2-6.68-1.28-7.02-.99.81,1.29,2.19,2.35,1.42,4.08Z"/>
  <path class="cls-1" d="M14.1,20.11c2.96-1.56,6.37-2.6,9.74-2.64.01-.26-.28-.4-.46-.53-1.19-.86-2.92-1.17-3.64-2.67-3.1.71-6.88,1.55-8.9,4.2-.1.94,2.57,1.44,3.25,1.64Z"/>
  <path class="cls-1" d="M49.92,31.57c-.51-3.02-4.08-4.57-6.83-3.7l-.09,11.14c4.04-.1,7.64-3.15,6.92-7.44Z"/>
  <polygon class="cls-3" points="19.75 14.27 19.75 14.27 19.75 14.27 19.75 14.27"/>
  <path class="cls-3" d="M53.44,23.5c-2.68-2.39-6.57-3.48-10.05-2.42-.09-1.68.66-4.06-.61-5.41-1.06-1.12-3.36-1.83-4.83-2.19-2.61-.64-5.43-1.06-8.12-1.12.12-4.04,5.31-3.92,7.88-5.63.72-.48,2.01-1.68,1.73-2.63-.77-.34-.77.36-1.18.82-2.34,2.65-8.9,2.57-9.46,6.66-.35,2.53,4.02,4.1,1.54,6.38-.24.22-2.44,1.61-2.7,1.67-1.21.25-2.58.05-3.8.04.84-.7,1.41-1.2,1.02-2.4-.67-2.04-6.15-2.09-4.39-5.95,1.82-3.98,7.89-3.94,10.48-6.97.25-.29,1.03-1.44.55-1.74h0c-.59-.37-.98.77-1.27,1.13-1.59,1.97-5.05,2.58-7.19,3.81-1.93,1.12-4.25,3.41-3.77,5.86-2.11.62-4.51,1.18-6.45,2.23-.73.4-2.85,1.99-3.01,2.77-.16.79.02,2.14-.02,3.02-.23,5.1-.42,10.25-.48,15.36-.07,5.87.18,11.75.11,17.62.08.46,1.63,1.57,2.07,1.83,8,4.73,20.4,3.89,28.61.16,2.11-.96,4.22-1.84,6.31-2.79,1.16-.53,4.46-2.19,4.9-3.37.75-1.97-1.76-2.27-3.09-2.47-1.48-.23-2.06-.12-3.49,0-.28.02-1.9.1-1.95-.07l.1-1.64c6.76-.05,13.33-5.58,13.75-12.47.2-3.24-.72-7.81-3.22-10.05ZM30.39,13.3c.34-.29,6.18.79,7.02.99,1.37.33,2.96.76,4.1,1.59.68.49,1.38,1.02.58,1.87-.26.27-3.63,1.51-3.82,1.42h0s-.13-.31-.36-.45c-.18-.11-.91-.39-1.15-.46-1.61-.52-3.32-.51-4.95-.88.77-1.73-.61-2.78-1.42-4.08ZM19.75,14.27s0,0,0,0h0s0,0,0,0c.71,1.5,2.45,1.81,3.64,2.67.18.13.47.28.46.53-3.37.04-6.78,1.08-9.74,2.64-.68-.2-3.36-.7-3.25-1.64,2.02-2.65,5.79-3.5,8.9-4.2ZM42.24,24.44c-.25,8.56-.16,17.13-.47,25.7-.03.87.17,3.52-.14,4.12-.14.27-.37.21-.49.32h0c-1.82,1.63-6.32,2.99-8.82,3.37-6.65,1.02-13.17.92-19.32-1.99-.99-.47-2.03-.99-2.63-1.93h0s0,0,0,0c.03-3.6-.17-7.22-.19-10.81-.04-7.77.37-15.54.48-23.29.92.39,1.87.74,2.82,1.02,4.82,1.37,10.4,1,15.35.61,4.29-.34,8.84-1.09,12.87-2.59.32-.12.63-.28.92-.45,0,0,0,0,0,0,0,0,0,0,0,0-.13,1.96-.33,3.97-.38,5.92ZM43.09,27.87c2.75-.87,6.31.68,6.83,3.7.73,4.28-2.88,7.34-6.92,7.44l.09-11.14ZM44.18,45.07c-.17.02-1.19.08-1.23.01h0s.06-5.12.06-5.12h0c1.22-.22,2.32-.36,3.47-.84.1-.04.19-.09.29-.13,3.02-1.4,4.61-4.68,3.98-7.87-.64-3.3-4.62-4.95-7.66-4.15h0s0,0,0,0l.28-4.89c.09-.1,1.7-.5,1.94-.52,3.76-.37,7.96,2,9.41,5.49.64,1.53.97,3.09,1.03,4.62.27,6.61-4.53,12.6-11.58,13.42Z"/>
  <path class="cls-2" d="M41.62,54.27c.31-.6.11-3.25.14-4.12.31-8.57.23-17.14.47-25.7.06-1.96.25-3.96.38-5.92-.29.17-.6.33-.92.45-4.03,1.5-8.58,2.25-12.87,2.59-4.95.4-10.53.77-15.35-.61-.96-.27-1.91-.63-2.82-1.02-.11,7.75-.52,15.52-.48,23.29.02,3.59.21,7.21.19,10.81.59.94,1.64,1.46,2.63,1.93,6.15,2.91,12.67,3.01,19.32,1.99,2.5-.38,6.99-1.74,8.82-3.37h0c.12-.11.35-.05.49-.32Z"/>
  <path class="cls-2" d="M10.66,19.94c.92.39,1.87.74,2.82,1.02,4.82,1.37,10.4,1,15.35.61,4.29-.34,8.84-1.09,12.87-2.59.32-.12.63-.28.92-.45,0,0,0,0,0,0-.29.17-.61.33-.92.45-4.03,1.5-8.58,2.25-12.87,2.59-4.95.4-10.53.77-15.35-.61-.96-.27-1.91-.63-2.82-1.02-.11,7.75-.52,15.52-.48,23.29.02,3.59.21,7.22.19,10.81,0,0,0,0,0,0,.03-3.6-.17-7.22-.19-10.81-.04-7.77.36-15.54.48-23.29Z"/>
  <path class="cls-2" d="M45.32,21.55c-.25.02-1.85.42-1.94.52l-.28,4.89c3.04-.8,6.99.73,7.66,4.15.65,3.32-.96,6.48-3.98,7.87-.1.04-.19.09-.29.13-1.15.48-2.25.62-3.47.84h0s-.06,5.12-.06,5.12c.04.07,1.06,0,1.23,0,7.06-.82,11.85-6.81,11.58-13.42-.06-1.52-.39-3.08-1.03-4.62-1.45-3.49-5.66-5.85-9.41-5.49Z"/>
  <rect class="cls-2" x="40.42" y="42.52" width="5.12" height="0" transform="translate(0 85.03) rotate(-89.37)"/>
  <path class="cls-2" d="M54.73,27.03c-1.45-3.49-5.66-5.85-9.41-5.49-.25.02-1.85.42-1.94.52l-.28,4.89h0l.28-4.89c.09-.1,1.7-.5,1.94-.52,3.76-.37,7.96,2,9.41,5.49.64,1.53.97,3.09,1.03,4.62-.06-1.52-.39-3.08-1.03-4.62Z"/>
  <path class="cls-2" d="M46.48,39.12c.1-.04.19-.09.29-.13-.1.04-.19.09-.29.13-1.15.48-2.25.62-3.47.84h0c1.22-.22,2.32-.36,3.47-.84Z"/>
</svg>