<?xml version="1.0" encoding="UTF-8"?>
<svg id="Layer_1" xmlns="http://www.w3.org/2000/svg" version="1.1" viewBox="0 0 64 64">
  <!-- Generator: Adobe Illustrator 30.1.0, SVG Export Plug-In . SVG Version: 2.1.1 Build 136)  -->
  <defs>
    <style>
      .st0 {
        fill: #d8d8da;
      }

      .st1 {
        fill: #d7d9db;
      }

      .st2 {
        fill: #f05daa;
      }

      .st3 {
        fill: #d7d8da;
      }

      .st4 {
        fill: #fff;
      }
    </style>
  </defs>
  <path class="st0" d="M10.48,47.67l.7.32.36-.77-.72-.33c-.82-.33-.81-.66-.8-1.39l.12-10.65c0-.49.09-.71.5-.94.73-.42,8.56-3,11.77-3.77v-.68l-.04-.19c-3,.7-11.26,3.39-12.15,3.9-.75.43-.91.98-.92,1.67l-.12,10.65c-.01.77-.03,1.64,1.31,2.19Z"/>
  <path class="st0" d="M15.29,49.13l-.33.79,8.82,3.69c.19.08.37.14.55.17l.13-.84c-.11-.02-.22-.05-.34-.11l-8.82-3.69Z"/>
  <polygon points="46.28 54.75 45.96 56.93 46.34 54.76 46.28 54.75"/>
  <polygon points="45.44 60.54 50.67 58.19 45.47 60.35 45.44 60.54"/>
  <path d="M9.62,53.81l.78-1.64-1.01,2.13,1.62,1.68.2-.46c-.39-.52-.91-1.13-1.58-1.71Z"/>
  <polygon points="55.44 56.05 50.79 55.39 55.22 56.15 55.44 56.05"/>
  <path class="st0" d="M57.7,30.13c-2.65.56-5.18,1.14-7.78,1.9l-5.65,1.51-2.69.82-2.68.83-3.24,1.02-4.96,1.58-4.5,1.57c-.12,1.08-.16,2.14-.23,3.29l-.16,2.84-.24,3.75-.22,4.53,24.51-8.54.77-.27,13.33-4.64.03-11.83-6.3,1.65Z"/>
  <path class="st4" d="M25.49,32.96l2.95-.77c.38-1.97.53-3.92.31-5.92-.24-2.21-.51-4.31-1.07-6.45-.09-.33-.32-1.03.12-1.17,1.18-.32,2.32-.7,3.49-1.09l1.55-.52,3.96-1.25,2.11-.56,1.73-.54,8.04-2.28c.21-.06.48-.2.62-.14.66.27,1.45,2.71,1.69,3.5.91,3.13,1.11,6.33.98,9.68l2.16-.58.23-4.44c.14-2.84-.36-5.63-1.17-8.35-.66-2.2-1.88-4.11-3.31-5.85-.12-.14-.53-.16-.68-.11-.58.2.57,2.13-1.74,3.51-.21.13-.48.36-.72.3-.18-.04-.43-.34-.49-.58-.07-.26.04-.63.19-.83.12-.17.61-.09.79-.18.57-.29.74-1.27.57-1.82l-4.01.94c.26,1.75-.69,3.58-2.5,3.83-.49.07-.5-.76-.41-1.08.1-.37.63-.33,1.04-.49.71-.28.87-1.35.69-2.02l-5.65,1.46c.28,2.05-.22,3.16-1.96,4-.27.13-.54.35-.84.27-.25-.07-.49-.4-.47-.71.03-.28.16-.62.31-.75.15-.13.65,0,.85-.07.92-.27,1.2-1.55.93-2.42l-1.9.51-4.22,1.24c.63,1.79.02,3.51-1.52,4.4-.35.2-.59.44-.96.23-.28-.15-.48-.49-.41-.86.04-.22.2-.51.32-.63.11-.12.6.03.75-.04.89-.4,1.24-1.81.73-2.7l-6.98,2.47c2.27,2.57,2.99,5.42,3.44,8.77.4,3.45.49,6.52.44,10.1Z"/>
  <path class="st4" d="M49.44,54.04c2.04.3,3.92.65,6,.75-2.55-2.11-4.73-5.25-5.43-8.38l-6.78,2.37-2.14,3.69c1.98.58,3.82.9,5.79,1.19l2.57.38Z"/>
  <path class="st3" d="M23.22,33.59l1.07-.36c.14-1.71.1-3.33.02-5.06-.17-4.11-.49-10.66-3.9-13.51l-1.63,1.98c1.29,1.63,2.66,3.56,3.34,5.57,1.44,4.22,1.21,6.8,1.09,11.38Z"/>
  <polygon class="st4" points="45.36 60.39 45.47 60.35 45.96 56.93 45.36 60.39"/>
  <polygon class="st4" points="50.79 55.39 48.88 55.06 46.36 54.64 46.34 54.76 48.81 55.1 50.79 55.39"/>
  <polygon class="st4" points="55.22 56.15 50.67 58.19 55.48 56.19 55.22 56.15"/>
  <polygon class="st4" points="50.79 55.39 48.81 55.1 46.34 54.76 45.96 56.93 45.47 60.35 50.67 58.19 55.22 56.15 50.79 55.39"/>
  <path class="st4" d="M39.79,52.54l1.67-3.14-3.17,1.1c.54,2.1,1.36,4.09,2.57,5.88,1,1.49,1.96,2.91,3.42,4.05l.86-5.83-4.56-1.06c-.46-.23-.77-.47-.79-.99Z"/>
  <path class="st2" d="M33.48,24.63c-.26-1.98-.6-4.35-1.55-6.05l-1.52.55-1.55.5.33,1.46c.1.46.18.92.25,1.41l.19,1.43.27,1.8.93-.23,2.65-.85Z"/>
  <path class="st2" d="M41.14,22.12c.54-.16,1-.34,1.44-.57-.33-2.02-.81-3.91-1.52-5.78l-3.32,1.08c.62,1.87,1.11,3.85,1.38,5.87l2.02-.6Z"/>
  <path class="st2" d="M34.26,21.7l.27,1.35.21,1.03.42-.12c.93-.26,1.75-.51,2.69-.82,0-.74-.05-1.32-.22-1.98l-.68-2.58c-.13-.51-.26-.86-.49-1.44l-2.53.82c-.28.09-.65.21-.79.31.38.61.77,1.77.89,2.33l.24,1.1Z"/>
  <path class="st4" d="M42.9,28.17c.1-1.94.04-3.57-.14-5.32l-3.53,1.13c.11,1.78.11,3.39.05,5.24l3.62-1.04Z"/>
  <path class="st2" d="M43.76,21.09c.02.1.36.09.46.06l2.66-.81-.27-1.38-.2-.9c-.25-1.16-.56-2.27-.98-3.47l-3.17.86c.6,1.75,1.07,3.43,1.41,5.2l.08.45Z"/>
  <path class="st4" d="M33.66,25.86l-2.41.74-1.3.38c.01,1.69-.05,3.17-.32,4.86l3.88-1c.21-1.69.26-3.27.15-4.98Z"/>
  <path class="st4" d="M47.5,26.73l-.07-.85c-.12-1.48-.14-2.84-.29-4.35l-3.24.94c.14,1.87.21,3.58.17,5.37l3.42-1.12Z"/>
  <path class="st4" d="M38.04,29.63c.19-1.75.17-3.44.04-5.28l-1.21.34c-.7.2-1.4.41-2.08.69.13,1.8.09,3.4-.05,5.13l3.3-.88Z"/>
  <path class="st2" d="M50.56,19.21c-.22-2.02-.76-3.71-1.57-5.62-.72.15-1.23.29-1.86.5l-.49.16c.33.84.57,1.57.75,2.41l.73,3.31c.92-.22,1.64-.43,2.44-.76Z"/>
  <path class="st4" d="M48.67,26.42l2.2-.66c.09-1.8.09-3.52-.09-5.3l-2.5.74.23,3.35c.05.65.04,1.25.15,1.87Z"/>
  <path class="st0" d="M21.5,35.23c-1.21-.11-2.21.67-2.36,1.86l.99.26c.34-.72.94-.86,1.59-.68.56.16.84.66.87,1.37l1.83.43c.05-1.73-1.27-3.1-2.92-3.24Z"/>
  <path class="st0" d="M15.26,45.77c.5.01,1.04-.28,1.26-.86.35-.93-.13-2.08-1.08-2.3-.6-.14-1.17.29-1.38.72-.24.48-.22,1.06.02,1.56.24.49.7.88,1.18.89Z"/>
  <path class="st0" d="M15.17,34.81c.42.19.58.69.77,1.21.31.11.73.22,1.14.3.13-.93-.08-2.21-1.04-2.65-1.31-.6-2.81.16-3.51,1.44l1.08.32c.37-.56.92-.92,1.55-.63Z"/>
  <path class="st0" d="M18.2,45.44c.46-1.43.13-3.1-.98-4.12-.58-.54-1.45-.61-1.93.1.56.17,1.15.32,1.57.71,1.25,1.15,1.15,2.97.1,4.16.79.14.95-.4,1.24-.85Z"/>
  <path class="st4" d="M7.48,53.6c-2.01-1.36-5.96-3.77-7.2-1.98-.82,1.19.32,2.7,1.23,3.72,1.45,1.64,3.24,2.65,5.05,3.75,1,.61,2.11.79,2.93-.34.38-.53.72-1.12,1.04-1.73,0,0-1.04-2.06-3.05-3.42Z"/>
  <polygon class="st1" points="11.2 55.52 11.82 54.07 11.2 55.52 11.2 55.52"/>
  <path class="st1" d="M13.41,46.04l-3.01,6.13-.78,1.64c.66.58,1.19,1.19,1.58,1.71l.62-1.45,3.32-7.19c-.72-.14-1.22-.4-1.73-.84Z"/>
  <path class="st0" d="M56.02,23.84c.03.13.12.24.24.29.12.05.26.05.38-.02.71-.4,1.6-.44,2.44-.1.89.36,1.57,1.1,1.83,1.97l.08.28c.07.26.11.39.3.5.47.34.9.63,1.29.88l1.1-.32c-.5-.29-1.11-.69-1.86-1.23,0-.02-.01-.05-.02-.08l-.08-.29c-.33-1.12-1.2-2.07-2.33-2.52-.91-.37-1.88-.39-2.72-.06-.25-.51-.69-.91-1.29-1.35l-.04.05v1c.4.35.59.64.67.98Z"/>
  <path class="st4" d="M25.36,11.47c0-.84.31-1.19.73-1.38.63-.28,1.42-.12,2,.42l1.13-.33c-.9-1.41-2.43-1.56-3.39-1.13-.65.29-1.69,1.26-1.44,2.73l.97-.31Z"/>
  <path class="st4" d="M32.66,9.19c.02-.84.33-1.18.76-1.36.63-.27,1.42-.09,1.99.46l1.14-.3c-.87-1.43-2.39-1.61-3.36-1.2-.65.27-1.72,1.22-1.5,2.69l.98-.29Z"/>
  <path class="st4" d="M39.61,7.32c-.11-.85.45-1.25.9-1.37.66-.19,1.42.07,1.92.69l1.12-.27c-.7-1.52-2.14-1.77-3.15-1.48-.68.2-2.11,1.09-1.81,2.72l1.02-.28Z"/>
  <path class="st4" d="M44.94,6.03c-.04-.93.44-1.27.86-1.4.62-.2,1.33.06,1.8.67l1.05-.27c-.64-1.51-2-1.76-2.95-1.46-.64.2-1.93.95-1.68,2.68l.92-.22Z"/>
</svg>