<?xml version="1.0" encoding="UTF-8"?>
<svg id="Layer_1" data-name="Layer 1" xmlns="http://www.w3.org/2000/svg" viewBox="0 0 64 64">
  <defs>
    <style>
      .cls-1 {
        fill: none;
      }

      .cls-2 {
        fill: #f7449b;
      }

      .cls-3 {
        fill: #040303;
      }

      .cls-4 {
        fill: #d0d2d3;
      }
    </style>
  </defs>
  <path class="cls-1" d="M16.66,35.57c-.21-.05-.43-.11-.55-.14l.55.14Z"/>
  <path class="cls-1" d="M37.03,23.73l-1.21.34c-.7.2-1.4.42-2.07.68.14,1.82.09,3.37-.05,5.12l1.59-.43,1.7-.44c.17-1.77.16-3.41.03-5.27Z"/>
  <polygon class="cls-1" points="10 55.32 10.81 53.41 14.12 46.23 10.81 53.41 10 55.32"/>
  <path class="cls-1" d="M32.45,30.21c.21-1.68.26-3.27.15-4.97l-2.41.73-1.3.38c.01,1.68-.05,3.16-.33,4.85h.02s3.87-.99,3.87-.99Z"/>
  <path class="cls-1" d="M14.76,34.07c.14,0,.29.02.45.09-.15-.07-.3-.1-.45-.09Z"/>
  <path class="cls-1" d="M49.69,19.86l-2.49.75.24,3.33c.05.65.05,1.25.16,1.86l2.18-.65c.09-1.8.09-3.52-.09-5.29Z"/>
  <path class="cls-1" d="M14.18,45.1c.57.07,1.16-.31,1.35-.93h-.01c-.19.61-.77.99-1.34.93Z"/>
  <path class="cls-1" d="M14.12,46.23c-.72-.15-1.21-.41-1.73-.84.52.43,1.01.7,1.73.84Z"/>
  <path class="cls-1" d="M41.84,27.55c.1-1.93.05-3.57-.14-5.31l-3.53,1.13c.11,1.79.11,3.38.06,5.22l3.61-1.04Z"/>
  <polygon class="cls-1" points="32.92 19.95 32.92 19.95 33.64 23.58 32.92 19.95 32.92 19.95"/>
  <path class="cls-1" d="M36.92,22.54c-.81.28-1.63.5-2.48.78.85-.27,1.65-.5,2.48-.78Z"/>
  <path class="cls-1" d="M45.37,17.22l.52,2.58h0s-.52-2.59-.52-2.59c-.27-1.1-.52-2.11-.98-3.26l-3.26.87s0,0,0,.01l3.25-.87c.46,1.14.71,2.15.98,3.26Z"/>
  <polygon class="cls-1" points="35.46 16.49 31.99 17.57 35.46 16.49 35.46 16.49"/>
  <path class="cls-1" d="M14.6,42c-.18-.07-.36-.09-.53-.07.17-.02.35,0,.52.07.81.32,1.2,1.31.93,2.17h.01c.27-.86-.11-1.85-.93-2.17Z"/>
  <path class="cls-1" d="M27.85,19.33c-.05-.21.12-.43.32-.49.94-.27,1.66-.52,2.64-.88,0,0,0,0,0-.01-.98.36-1.71.61-2.64.88-.19.06-.36.27-.32.49.41,1.93.7,3.76.9,5.74,0,0,0,0,0,0-.2-1.97-.5-3.8-.9-5.73Z"/>
  <path class="cls-1" d="M38.06,22.17c-.31-2.13-.81-4.01-1.45-5.99l3.39-1.05s0,0,0,0l-3.4,1.05c.64,1.97,1.14,3.85,1.45,5.99h.01Z"/>
  <path class="cls-1" d="M47.96,13c.59,1.46,1.13,2.87,1.38,4.41-.25-1.54-.78-2.94-1.38-4.41Z"/>
  <path class="cls-1" d="M23.25,27.07c-.17-3.96-.58-10.3-3.88-13.01,3.3,2.71,3.71,9.06,3.88,13.01Z"/>
  <path class="cls-1" d="M17.18,35.33c0,.13-.02.25-.03.37.02-.12.03-.24.03-.37Z"/>
  <path class="cls-1" d="M23.34,29.85c0,.91,0,1.82-.09,2.76.08-.94.1-1.85.09-2.76Z"/>
  <path class="cls-1" d="M17.15,35.7s-.02,0-.05-.01h.05Z"/>
  <path class="cls-1" d="M46.42,26.11l-.07-.85c-.12-1.48-.14-2.84-.28-4.34l-3.23.94c.14,1.86.2,3.57.17,5.37l3.41-1.12Z"/>
  <path class="cls-1" d="M29.59,37.19l5.04-1.6,3.23-1.02,2.58-.8,2.87-.88,5.36-1.42c2.68-.79,5.3-1.39,8.05-1.98l6.15-1.61v-.02l-6.16,1.62c-2.74.58-5.37,1.18-8.05,1.98l-5.36,1.42-2.87.88-2.58.8-3.23,1.02-5.04,1.6-4.41,1.54c-.11.97-.16,1.93-.21,2.97h.01c.06-1.03.1-1.99.21-2.96l4.41-1.54Z"/>
  <path class="cls-1" d="M34.29,7.79c-.33-.62-.94-.9-1.59-.7-.47.15-.9.72-.94,1.38l2.54-.68h-.01Z"/>
  <path class="cls-1" d="M41.19,5.98c-.28-.63-.92-1.12-1.59-.83-.54.23-.86.75-.89,1.44l2.49-.6h0Z"/>
  <path class="cls-1" d="M38.77,51.88c.44-1.15,1.07-2.12,1.63-3.15l-3.19,1.13c.53,1.98,1.27,3.68,2.25,5.37l1.19,1.71c.72,1.05,1.52,1.97,2.56,2.81l.87-5.81c-.92-.28-5.78-.79-5.3-2.05Z"/>
  <path class="cls-1" d="M42.15,48.12l-2.14,3.68c1.98.58,3.82.89,5.78,1.19l2.57.38c2.03.31,3.91.64,5.99.75-2.54-2.1-4.72-5.24-5.43-8.36l-6.77,2.36Z"/>
  <polygon class="cls-1" points="45.19 54.09 44.36 59.86 54.32 55.38 47.72 54.44 45.19 54.09"/>
  <path class="cls-1" d="M45.17,3.94c-.45.21-.6.86-.59,1.35l1.89-.49c-.14-.57-.71-1.14-1.3-.86Z"/>
  <path class="cls-1" d="M24.45,32.34l2.96-.79c.35-2.03.51-3.92.29-5.9-.24-2.2-.51-4.31-1.06-6.44-.09-.33-.33-1.03.12-1.16,1.19-.33,2.32-.7,3.48-1.1l1.47-.5,4.05-1.28,2.11-.55,1.73-.53,8.02-2.27c.2-.06.49-.19.62-.14.12.05.35.26.42.38,1.42,2.52,2.22,6.61,2.25,9.46l.03,3.31,2.11-.58.23-4.43c.15-2.84-.36-5.62-1.18-8.34-.66-2.2-1.88-4.1-3.3-5.84-.11-.14-.53-.16-.68-.11-.58.2.58,2.12-1.74,3.5-.2.12-.49.36-.71.31-.37-.09-.72-.76-.36-1.36.14-.21.63-.17.85-.27.62-.29.66-1.19.59-1.8l-3.99.94c.03,1.67-.21,2.64-1.65,3.55-.31.19-.8.44-1.12.16-.38-.33-.28-1.03.11-1.31l.86-.12c.57-.53.79-1.3.58-2.05l-5.64,1.46c.27,2.01-.23,3.19-1.96,3.99-.32.15-.58.41-.94.23-.24-.11-.37-.47-.35-.77.15-1.32,1.14-.26,1.73-1.07.44-.61.53-1.3.37-2.07l-2.01.55-4.11,1.21c.61,1.75.06,3.47-1.46,4.34-.34.19-.59.46-.93.32-.34-.15-.58-.47-.5-.9.05-.24.19-.51.33-.63.14-.12.68.02.84-.08v.02c.89-.57,1.06-1.83.62-2.66-2.4.78-4.62,1.57-6.96,2.48,1.1,1.29,1.81,2.48,2.33,3.92,1.48,4.1,1.57,10.38,1.54,14.93Z"/>
  <path class="cls-1" d="M19.22,35c.43-.5,1.1-.78,1.84-.73-.74-.06-1.41.22-1.84.73Z"/>
  <path class="cls-1" d="M17.18,44.78c.47-1.42.12-3.1-.98-4.11,1.11,1.03,1.45,2.7.98,4.11Z"/>
  <path class="cls-1" d="M14.47,40.54c-.07.06-.13.14-.19.22.49.16,1.04.29,1.44.61-.38-.32-.95-.45-1.44-.61.06-.09.12-.16.19-.22Z"/>
  <path class="cls-1" d="M15.71,41.37c.52.42.83.95.97,1.51-.14-.57-.45-1.09-.97-1.51Z"/>
  <polygon class="cls-1" points="24.8 44.85 24.98 41.71 24.97 41.7 24.79 44.84 24.55 48.58 24.33 53.1 24.34 53.1 24.56 48.59 24.8 44.85"/>
  <path class="cls-1" d="M25.03,9.68c-.38.19-.89.67-.89,1.25l2.74-.93c-.49-.5-1.21-.63-1.84-.33Z"/>
  <polygon class="cls-3" points="45.89 19.79 45.89 19.79 45.89 19.8 45.89 19.79"/>
  <rect class="cls-3" x="45.89" y="19.79" width="0" height=".01" transform="translate(-3.67 13.37) rotate(-15.95)"/>
  <path class="cls-3" d="M60.86,25.76c-1.1-1.83-2.66-2.12-4.67-2.22-.28-.92-.98-1.51-1.9-1.72.33-3-.06-5.82-.59-8.65-.41-2.17-1.18-4.13-2.36-5.98-.81-1.27-1.97-3.52-3.65-2.69-.33-.53-.63-1.03-1.06-1.4-.77-.66-1.85-.54-2.52.2-.53.6-.67,1.35-.7,2.19-.31.09-.69.16-.98.16-.43-.86-1.07-1.47-2-1.66-1.14-.24-2.23.44-2.62,1.56-.16.44-.24.89-.36,1.38l-1.98.5c-.62-.94-1.51-1.68-2.66-1.54-1.41.18-2.27,1.47-2.28,2.94l-2.44.73c-.85-1.04-2.11-1.47-3.33-1.03-1.11.4-1.85,1.49-1.86,2.81l-3.15,1.18c-.34.14-.69.21-.93.51l-1.97,2.4c-.32.38-.4.78-.05,1.19,2.45,2.9,3.46,5.06,4.11,8.82.26,1.49.21,2.96.21,4.5-1.99.63-3.81,1.21-5.76,1.65-1.04.23-2.17.25-3.07,1.42l-2.78.47c-.68.12-.7.78-.7,1.32l-.23,11.97c-.02.79.02,1.47,1.1,1.6l-1.42,2.95-.76,1.58c-1.42-1.09-5.98-3.81-7.23-1.91-.8,1.21.49,2.79,1.38,3.79h.02c1.44,1.59,3.21,2.58,4.97,3.65,1.03.62,2.03.69,2.89-.35.59-.92,1.15-1.94,1.65-2.98l2.4-4.95,9.57,4.22c.43.19.87.09,1.31-.07l11.69-4.08c.72,2.76,1.96,5.1,3.56,7.31,1.01,1.39,2.09,2.63,3.54,3.57.37.31.7.23,1.12.05l12.69-5.73c.21-.25.14-.68,0-.96-.23-.46-2.53-.72-5.3-5.01-.81-1.27-1.46-2.53-1.75-4.07l13.1-4.58c.5-.17.88-.52.88-1.07l.02-12.31c.01-1.3-2.77-1.05-3.14-1.67ZM45.17,3.94c.59-.28,1.16.29,1.3.86l-1.89.49c-.01-.49.14-1.13.59-1.35ZM39.6,5.16c.68-.29,1.31.19,1.59.83h0s-2.49.61-2.49.61c.03-.69.35-1.21.89-1.44ZM32.69,7.09c.66-.2,1.27.08,1.59.7h.01l-2.54.68c.03-.66.46-1.23.94-1.38ZM25.03,9.68c.63-.31,1.36-.17,1.84.33l-2.74.93c0-.59.51-1.06.89-1.25ZM27.55,11.01c.44.83.27,2.09-.63,2.66v-.02c-.15.1-.69-.05-.83.08-.14.12-.28.4-.33.63-.08.43.16.76.5.9.34.15.59-.12.93-.32,1.51-.87,2.07-2.59,1.46-4.34l4.11-1.21,2.01-.55c.16.77.07,1.46-.37,2.07-.59.81-1.58-.25-1.73,1.07-.02.29.11.66.35.77.36.18.62-.08.94-.23,1.73-.8,2.23-1.98,1.96-3.99l5.64-1.46c.21.75-.01,1.51-.58,2.05l-.86.12c-.4.28-.5.98-.11,1.31.32.28.81.03,1.12-.16,1.44-.9,1.68-1.88,1.65-3.55l3.99-.94c.07.61.03,1.5-.59,1.8-.21.1-.71.06-.85.27-.36.6-.01,1.27.36,1.36.23.06.51-.18.71-.31,2.32-1.38,1.16-3.3,1.74-3.5.15-.05.57-.02.68.11,1.42,1.74,2.64,3.64,3.3,5.84.81,2.72,1.32,5.5,1.18,8.34l-.23,4.43-2.11.58-.03-3.31c-.03-2.85-.83-6.94-2.25-9.46-.07-.12-.29-.34-.42-.38-.14-.06-.42.08-.62.14l-8.02,2.27-1.73.53-2.11.55-4.05,1.28-1.47.5c-1.16.4-2.29.77-3.48,1.1-.45.14-.21.84-.12,1.16.55,2.14.83,4.24,1.06,6.44.21,1.98.06,3.87-.29,5.9l-2.96.79c.03-4.55-.06-10.83-1.54-14.93-.52-1.45-1.23-2.63-2.33-3.92,2.34-.9,4.57-1.7,6.96-2.48ZM47.6,25.81h-.01.01c-.11-.61-.11-1.21-.16-1.86l-.24-3.33,2.49-.75c.18,1.77.18,3.49.09,5.29l-2.18.65s0,0,0,0ZM42.84,21.86l3.23-.94c.15,1.5.16,2.86.28,4.34l.07.85-3.41,1.12c.03-1.8-.03-3.5-.17-5.37ZM38.17,23.36l3.53-1.13c.18,1.74.24,3.38.14,5.31l-3.61,1.04c.06-1.84.06-3.44-.06-5.22ZM37.01,28.99h-.01s0,0,0,0l-1.7.44-1.59.43c.14-1.75.18-3.3.05-5.12.67-.26,1.37-.47,2.07-.68l1.21-.34c.12,1.86.14,3.5-.03,5.27h.01ZM28.89,26.36l1.3-.38,2.41-.73c.11,1.71.07,3.29-.15,4.97l-3.87,1.01h-.02c.28-1.7.34-3.18.33-4.86ZM27.84,19.32c-.05-.21.12-.43.32-.49.94-.27,1.66-.52,2.64-.88,0,0,0,0,0,.01,0,0,0,0,0,0,1.06,1.11,1.4,4.44,1.68,6.07h-.01c-.87.37-3.02,1.14-3.73,1.04,0,0,0,0,0-.01,0,0,0,0,0,0-.2-1.98-.5-3.81-.9-5.74ZM31.99,17.57l3.47-1.07h0c.73,2.03,1.23,3.89,1.46,6.05-.83.28-1.63.51-2.48.78l-.8.26-.72-3.63s0,0,0,0c-.17-.82-.51-1.51-.93-2.38ZM36.6,16.19l3.4-1.05s0,0,0,0h.01c.81,1.9,1.22,3.81,1.59,5.93h-.01l-3.54,1.11s0,0,0,0h-.01c-.31-2.13-.8-4.02-1.45-5.99ZM41.13,14.83h0s0,0,0-.01l3.26-.87c.46,1.14.71,2.16.98,3.26l.52,2.59h0s0,.01,0,.01h0s0,0,0,0l-3.2.93c-.4-2.06-.83-3.9-1.56-5.9ZM46.01,15.06c-.11-.47-.33-.89-.5-1.42.79-.29,1.51-.5,2.45-.63.6,1.47,1.13,2.87,1.38,4.41l.21,1.3-2.53.76-1.02-4.41ZM21.11,21.61c-.66-1.91-2.01-3.92-3.35-5.55l1.62-2c3.3,2.71,3.71,9.05,3.88,13.01.04.94.08,1.86.09,2.78,0,.91,0,1.82-.09,2.76l-1.06.33c.1-4.48.37-7.04-1.09-11.33ZM16.11,33.04c.84.39,1.11,1.4,1.07,2.29,0,.13-.02.25-.03.37h-.05c-.08-.03-.25-.08-.44-.12l-.55-.14c-.06-.02-.11-.03-.11-.03-.18-.55-.34-1.04-.79-1.24-.15-.07-.3-.09-.45-.09-.43.02-.81.33-1.08.73l-1.07-.32c.69-1.28,2.2-2.05,3.5-1.45ZM10.81,53.41l-.81,1.91-1.62-1.68,1.01-2.12,3.01-6.11c.52.43,1.01.69,1.73.84l-3.31,7.18ZM15.53,44.17c-.19.62-.78,1-1.35.93-.11-.01-.22-.04-.32-.08-.78-.35-1.13-1.24-.94-2.06.14-.54.61-.97,1.14-1.03.17-.02.36,0,.53.07.81.32,1.2,1.31.93,2.17h.01ZM17.18,44.78c-.28.45-.43.99-1.23.85.69-.77.96-1.81.73-2.75-.14-.57-.45-1.09-.97-1.51-.4-.32-.95-.45-1.44-.61.06-.09.12-.16.19-.22.28-.25.64-.32.99-.25.26.05.52.19.73.39,1.11,1.02,1.46,2.69.98,4.11ZM22.17,37.09c-.02-.71-.33-1.2-.87-1.37-.66-.2-1.25-.02-1.58.68l-.99-.26c.06-.45.23-.83.5-1.14.43-.51,1.1-.78,1.84-.73,1.65.14,2.98,1.49,2.94,3.24l-1.83-.43ZM43.21,59.74s0,0,0,0h-.01s0,0,0,0c-1.04-.83-1.84-1.76-2.56-2.81l-1.19-1.71c-.98-1.68-1.72-3.39-2.25-5.37l3.19-1.13c-.55,1.03-1.19,2-1.63,3.15-.47,1.25,4.39,1.76,5.3,2.05l-.87,5.81ZM44.36,59.86l.84-5.78,2.53.35,6.6.95h.02s.01,0,.01,0h-.03s-9.96,4.48-9.96,4.48ZM54.35,54.12c-2.08-.1-3.96-.44-5.99-.75l-2.57-.38c-1.96-.29-3.8-.61-5.78-1.19l2.14-3.68,6.77-2.36c.7,3.12,2.88,6.26,5.43,8.36ZM62.89,39.67l-13.22,4.6-1.04.37-24.29,8.47v-.02s-.01,0-.01,0l.23-4.52.24-3.74.18-3.14h-.01c.06-1.05.1-2.01.21-2.98l4.41-1.54,5.04-1.6,3.23-1.02,2.58-.8,2.87-.88,5.36-1.42c2.68-.8,5.31-1.4,8.05-1.98l6.16-1.62v.02h.02s0,11.81,0,11.81Z"/>
  <polygon class="cls-3" points="43.21 59.75 43.21 59.74 43.2 59.76 43.21 59.75"/>
  <polygon class="cls-3" points="54.34 55.37 54.32 55.38 54.35 55.39 54.34 55.37"/>
  <polygon class="cls-3" points="37.01 28.99 37 29 37 29 37.01 28.99"/>
  <polygon class="cls-3" points="47.6 25.81 47.6 25.8 47.59 25.81 47.6 25.81"/>
  <path class="cls-4" d="M49.66,44.26l13.21-4.6v-11.79l-6.15,1.61c-2.75.59-5.37,1.19-8.05,1.98l-5.36,1.42-2.87.88-2.58.8-3.23,1.02-5.04,1.6-4.41,1.54c-.11.97-.16,1.93-.21,2.97h.01s-.18,3.15-.18,3.15l-.24,3.74-.23,4.51,24.28-8.46,1.04-.37Z"/>
  <polygon class="cls-4" points="62.87 39.66 49.66 44.26 48.62 44.64 24.34 53.1 24.34 53.11 48.63 44.65 49.67 44.27 62.89 39.67 62.89 27.86 62.87 27.87 62.87 39.66"/>
  <path class="cls-4" d="M22.19,32.94l1.06-.33c.08-.94.1-1.85.09-2.76,0-.91-.05-1.83-.09-2.78-.17-3.94-.58-10.3-3.88-13.01l-1.62,2c1.33,1.63,2.69,3.64,3.35,5.55,1.46,4.28,1.19,6.85,1.09,11.33Z"/>
  <path class="cls-4" d="M23.25,27.07c.04.95.08,1.86.09,2.78,0-.92-.05-1.83-.09-2.78Z"/>
  <path class="cls-2" d="M27.85,19.33c.41,1.93.7,3.76.9,5.73.72.11,2.86-.66,3.72-1.05h.01c-.28-1.6-.62-4.93-1.68-6.05-.98.36-1.71.61-2.64.88-.19.06-.36.27-.32.49Z"/>
  <path class="cls-2" d="M28.76,25.06s0,0,0,.01c.71.1,2.86-.67,3.73-1.05h-.01c-.86.38-3,1.15-3.72,1.04Z"/>
  <path class="cls-2" d="M32.5,24.03c-.28-1.63-.62-4.96-1.68-6.07,0,0,0,0,0,0,1.05,1.12,1.39,4.45,1.68,6.06h.01Z"/>
  <path class="cls-2" d="M38.06,22.17l3.53-1.1h.01c-.36-2.11-.77-4.03-1.59-5.93l-3.39,1.05c.63,1.98,1.14,3.85,1.45,5.99Z"/>
  <polygon class="cls-2" points="38.06 22.17 38.06 22.18 41.6 21.07 41.59 21.07 38.06 22.17"/>
  <path class="cls-2" d="M41.61,21.07c-.37-2.12-.78-4.04-1.59-5.93h-.01c.82,1.9,1.23,3.82,1.59,5.93h.01Z"/>
  <path class="cls-2" d="M32.92,19.95l.72,3.63.8-.26c.85-.28,1.66-.5,2.48-.78-.24-2.16-.73-4.01-1.46-6.05l-3.47,1.07c.42.87.77,1.56.93,2.38,0,0,0,0,0,0Z"/>
  <path class="cls-2" d="M31.99,17.57c.42.87.76,1.56.93,2.38-.16-.82-.51-1.51-.93-2.38Z"/>
  <path class="cls-2" d="M35.46,16.49h0c.72,2.03,1.22,3.89,1.46,6.05-.23-2.16-.72-4.01-1.46-6.05Z"/>
  <path class="cls-2" d="M45.89,19.79l-.52-2.58c-.27-1.11-.52-2.11-.98-3.26l-3.25.87c.73,2,1.16,3.84,1.56,5.89l3.19-.93Z"/>
  <path class="cls-2" d="M45.89,19.8h0s-3.19.91-3.19.91c-.39-2.05-.82-3.89-1.56-5.89h0c.73,2,1.16,3.84,1.56,5.9l3.2-.93Z"/>
  <polygon class="cls-2" points="45.89 19.82 45.89 19.8 45.89 19.8 45.89 19.82"/>
  <path class="cls-4" d="M9.39,51.51l-1.01,2.12,1.62,1.68.81-1.91,3.31-7.18c-.72-.14-1.21-.41-1.73-.84l-3.01,6.11Z"/>
  <path class="cls-2" d="M49.56,18.71l-.21-1.3c-.25-1.54-.79-2.95-1.38-4.41-.94.14-1.66.34-2.45.63.17.53.38.95.5,1.42l1.02,4.41,2.53-.76Z"/>
  <path class="cls-4" d="M21.06,34.27c-.74-.06-1.41.22-1.84.73-.26.3-.44.69-.5,1.14l.99.26c.33-.7.93-.88,1.58-.68.54.16.85.66.87,1.37l1.83.43c.05-1.74-1.29-3.11-2.94-3.24Z"/>
  <path class="cls-4" d="M18.72,36.14c.06-.45.24-.84.5-1.14-.26.3-.44.69-.5,1.14Z"/>
  <path class="cls-4" d="M21.06,34.27c1.65.14,2.98,1.5,2.94,3.24.05-1.75-1.29-3.11-2.94-3.24Z"/>
  <path class="cls-4" d="M21.3,35.72c.54.17.85.66.87,1.37-.02-.71-.33-1.21-.87-1.37Z"/>
  <path class="cls-4" d="M14.58,42c-.17-.07-.35-.09-.52-.07-.53.06-.99.5-1.13,1.03-.2.81.16,1.71.94,2.06.1.05.21.07.31.08.57.06,1.15-.32,1.34-.93h-.01c.27-.86-.11-1.85-.93-2.17Z"/>
  <path class="cls-4" d="M12.93,42.96c.14-.53.6-.97,1.13-1.03-.53.06-1,.49-1.14,1.03-.19.81.16,1.71.94,2.06.1.05.21.07.32.08-.1-.01-.21-.04-.31-.08-.78-.35-1.14-1.24-.94-2.06Z"/>
  <path class="cls-4" d="M14.76,34.07c.14,0,.29.02.45.09.45.2.61.69.79,1.24l.11.03c.13.03.34.09.55.14l.44.11s.05.01.05.01c.02-.12.03-.24.03-.37.04-.88-.23-1.89-1.07-2.29-1.3-.6-2.81.17-3.5,1.45l1.07.32c.27-.41.65-.72,1.08-.73Z"/>
  <path class="cls-4" d="M16.11,35.43l-.11-.03s.05.01.11.03Z"/>
  <path class="cls-4" d="M17.18,35.33c.04-.88-.23-1.9-1.07-2.29.84.4,1.11,1.41,1.07,2.29Z"/>
  <path class="cls-4" d="M13.68,34.8c.27-.41.65-.72,1.08-.73-.43.01-.81.33-1.08.73Z"/>
  <path class="cls-4" d="M17.1,35.68l-.44-.11c.18.05.35.09.44.11Z"/>
  <path class="cls-4" d="M16.2,40.67c-.21-.2-.47-.33-.73-.39-.35-.07-.72,0-.99.25-.07.06-.13.14-.19.22.49.16,1.05.29,1.44.61.52.42.83.95.97,1.51.23.94-.05,1.98-.73,2.75.8.15.95-.4,1.23-.85.46-1.41.12-3.09-.98-4.11Z"/>
  <path class="cls-4" d="M15.47,40.28c-.35-.07-.72,0-.99.25.28-.25.64-.32.99-.25Z"/>
</svg>