<?xml version="1.0" encoding="UTF-8"?>
<svg id="Layer_1" data-name="Layer 1" xmlns="http://www.w3.org/2000/svg" viewBox="0 0 64 64">
  <defs>
    <style>
      .cls-1 {
        fill: #c6c7c8;
      }

      .cls-2 {
        fill: #fff;
      }

      .cls-3 {
        fill: #3bfaff;
      }

      .cls-4 {
        fill: #040303;
      }
    </style>
  </defs>
  <path class="cls-4" d="M37.82,15h23.42c.6,0,1.19.82,1.42,1.3,1.76,3.53,1.59,11.66.53,15.43-.31,1.07-.8,2.67-2.11,2.78h-10.8c-1-.15-1.5-1.39-1.76-2.24h-2.51c-.75.62-1.88.96-2.64,1.48-1.28.88-3.02,3.4-4.56,3.68-.84.15-1.74,0-2.45-.48-1.12.69-2.48.73-3.57,0-.99.65-2.06.67-3.15.24-.15-.06-.3-.23-.45-.26-.24-.04-.69.14-.72.41-.11.87.12,2,0,2.87-.09.62-.82.67-.85.8.04.47-.04,1.01,0,1.47.06.65.72,1.32.94,2.02.62,2.1,0,2.76-1.12,4.31-.75,1.06-.31,1.82-.44,2.99-.2,1.88-2.91,1.91-3.1-.16-.1-1.02.27-1.85-.36-2.75-.96-1.37-1.51-1.6-1.36-3.55.1-1.21.77-1.65,1.03-2.54.16-.52.02-1.23.05-1.8-.04-.11-.84-.33-.84-.79v-5.71c-2.13,1.72-4.54.29-4.74-2.28.16-2.78-.2-5.78,0-8.54.09-1.17.5-2.25,1.39-3.03L6.05,8.21c-1.59-.14-3.28.19-4.79-.49-1.59-.71-1.88-2.36-.18-3.16,1.47-.69,3.34-.44,4.92-.52,2.79-1.99,6.46-2.79,9.82-3.32,7.33-1.14,16.64-1.03,23.82.95,2.42.67,8.18,2.53,5.84,5.96l-7.65,7.38h0ZM22.81,4.69c-3.14.13-11.72,1-13.7,3.55-.11.14-.35.46-.23.63.18.29,3.59,1.17,4.14,1.3,7.11,1.59,16.17,1.63,23.34.31,1.56-.29,4.11-.8,5.5-1.49.54-.28-.16-.9-.47-1.17-3.49-2.96-14.1-3.29-18.59-3.12ZM5.27,4.9h-2.06c-.21,0-.82.12-1.06.18-.89.21-2.04.87-.86,1.67.33.22,1.32.55,1.7.55h2.21c-.39-.8-.47-1.67.07-2.41h0ZM41.79,9.95c-4.26,1.45-8.76,2-13.24,2.18s-8.71.05-13.04-.64c-2.16-.34-4.27-.86-6.34-1.54l14.02,13.44c.66.43,3.92.43,4.58,0l14.02-13.44h.01ZM28.96,23.47h1.2c.1,0,.73.3.85.39.67.49.79,1.34.63,2.1-.41,1.94-4.14,5.01-5.48,6.72-1.85,2.36.8,4.7,2.94,3.25.72-.49,1.73-1.54,2.41-2.17.3-.28,1.85-1.88,2.06-1.9.63.14,1.21.56,1.82.82,3.62,1.5,7.24,1.04,10.37-1.28h5.74c.18-.07.37-1.3.41-1.54.62-3.52.62-8.55-.4-11.98-.17-.56-.58-1.91-1.24-2.02h-13.42l-7.91,7.61h.02ZM61.17,15.86h-9.52c.85,1.76,1.22,3.76,1.4,5.71.22,2.53.19,5.31-.18,7.82-.21,1.48-.56,2.92-1.22,4.26h9.6c.27,0,.67-.85.78-1.09,1.53-3.46,1.43-11.08.33-14.7-.15-.5-.63-1.9-1.18-2.01h0ZM19.62,21.3c-.67.55-.99,1.42-1.06,2.28-.22,2.79.17,5.88,0,8.7.23,2.61,3.4,2.93,3.88.31v-8.62l-2.59-2.6-.22-.06h0ZM27.64,29.8v-5.47c-1.42.38-2.91.22-4.35.07v15.7c1.41.33,2.93.35,4.35,0v-2.86c-1.21-.1-2.38-.79-2.79-1.99-.82-2.37,1.56-3.83,2.79-5.44h0ZM35.25,33.49l-1.55-.66-3.73,3.5c1.49.88,2.54-.24,3.57-1.17.57-.51,1.18-1.11,1.71-1.67ZM37.97,34.27l-1.81-.37-2.7,2.43c1.91,1.06,3.28-.89,4.51-2.06ZM41.63,34.19c-.82.15-1.66.26-2.49.19l-2.09,1.94c1.93,1.08,3.34-.98,4.58-2.14ZM26.79,41.8c-.85.14-1.79.12-2.64,0,.04.6,0,1.04-.24,1.58-.56,1.25-1.02,1.4-.85,3.04.14,1.29,1.59,1.87,1.71,3.26.05.61-.13,1.7.03,2.22.18.58,1.15.6,1.33,0s-.06-1.76.07-2.5c.22-1.23,1.68-1.76,1.75-3.38.07-1.77-1.34-2.53-1.17-4.23Z"/>
  <path d="M25.28,55.1c.26-.06.48-.02.58.24-.08-.28.95,1.63,2.01,5.22,1.38,4.65-6.33,4.67-4.74-.16.56-1.72,1.38-3.38,1.97-5.11l.19-.2h-.01ZM25.55,56.79c-.2-.03-.12.03-.16.11-.31.62-1.59,3.88-1.63,4.43-.18,2.64,3.91,2.49,3.4-.29,0,0-1.62-4.25-1.62-4.25Z"/>
  <path class="cls-2" d="M28.96,23.47l7.91-7.6h13.42c.66.1,1.08,1.45,1.24,2.01,1.02,3.42,1.01,8.46.4,11.98-.04.24-.23,1.47-.41,1.53h-5.74c-3.14,2.33-6.75,2.78-10.37,1.3-.61-.26-1.19-.68-1.82-.82-.21.03-1.76,1.63-2.06,1.9-.68.63-1.7,1.68-2.41,2.17-2.15,1.43-4.78-.89-2.94-3.25,1.34-1.71,5.06-4.78,5.48-6.72.17-.77.04-1.62-.63-2.1-.12-.09-.75-.39-.85-.39h-1.22Z"/>
  <path class="cls-1" d="M41.79,9.95l-14.02,13.44c-.66.43-3.92.43-4.58,0l-14.02-13.44c2.07.68,4.19,1.2,6.34,1.54,4.33.68,8.67.81,13.04.64s8.98-.73,13.24-2.18h-.01Z"/>
  <path class="cls-1" d="M61.17,15.86c.55.1,1.03,1.5,1.18,2.01,1.11,3.61,1.19,11.23-.33,14.7-.11.23-.51,1.09-.78,1.09h-9.6c.66-1.34,1-2.78,1.22-4.26.37-2.51.4-5.29.18-7.82-.18-1.96-.55-3.94-1.4-5.71h9.52Z"/>
  <path class="cls-3" d="M22.81,4.69c4.48-.18,15.1.16,18.59,3.12.31.26,1.01.89.47,1.17-1.38.7-3.94,1.2-5.5,1.49-7.16,1.31-16.23,1.29-23.34-.31-.55-.13-3.96-1.01-4.14-1.3-.11-.17.13-.49.23-.63,1.98-2.55,10.56-3.42,13.7-3.55Z"/>
  <path class="cls-1" d="M27.64,29.8c-1.24,1.62-3.62,3.06-2.79,5.44.41,1.2,1.57,1.88,2.79,1.99v2.86c-1.41.35-2.93.34-4.35,0v-15.7c1.45.15,2.92.31,4.35-.07v5.47h0Z"/>
  <path class="cls-2" d="M19.62,21.3l.22.06,2.59,2.6v8.62c-.48,2.62-3.65,2.31-3.88-.31.17-2.83-.22-5.91,0-8.7.07-.86.39-1.73,1.06-2.28h0Z"/>
  <path class="cls-2" d="M26.79,41.8c-.17,1.7,1.24,2.45,1.17,4.23-.06,1.62-1.53,2.15-1.75,3.38-.13.72.12,1.88-.07,2.5s-1.15.58-1.33,0c-.16-.52.02-1.62-.03-2.22-.12-1.39-1.57-1.97-1.71-3.26-.18-1.64.28-1.79.85-3.04.24-.54.29-.99.24-1.58.85.12,1.8.14,2.64,0ZM25.37,45.24c-.6.11-.49,1.12.21,1,.58-.1.48-1.12-.21-1Z"/>
  <path class="cls-2" d="M5.27,4.9c-.55.74-.47,1.62-.07,2.41h-2.21c-.37,0-1.37-.33-1.7-.55-1.18-.81-.03-1.47.86-1.67.24-.05.85-.18,1.06-.18h2.06Z"/>
  <path class="cls-2" d="M35.25,33.49c-.53.56-1.13,1.16-1.71,1.67-1.03.91-2.08,2.04-3.57,1.17l3.73-3.5s1.55.66,1.55.66Z"/>
  <path class="cls-2" d="M37.97,34.27c-1.22,1.16-2.59,3.12-4.51,2.06l2.7-2.43s1.81.37,1.81.37Z"/>
  <path class="cls-2" d="M41.63,34.19c-1.24,1.16-2.65,3.22-4.58,2.14l2.09-1.94c.82.06,1.67-.04,2.49-.19Z"/>
  <path class="cls-3" d="M25.55,56.79l1.62,4.25c.51,2.77-3.58,2.92-3.4.29.04-.55,1.32-3.82,1.63-4.43.04-.09-.04-.15.16-.11Z"/>
  <path d="M25.37,45.24c.69-.12.8.9.21,1-.7.12-.81-.89-.21-1Z"/>
</svg>