<?xml version="1.0" encoding="UTF-8"?>
<svg id="Layer_1" data-name="Layer 1" xmlns="http://www.w3.org/2000/svg" viewBox="0 0 64 64">
  <defs>
    <style>
      .cls-1 {
        fill: none;
      }

      .cls-2 {
        fill: #fbafce;
      }

      .cls-3 {
        fill: #02f7fa;
      }
    </style>
  </defs>
  <path class="cls-1" d="M37.56,38.5v-1.95s0,0-.01,0v1.95c-.01.3-.3.67-.52.68,0,0,0,0,.01,0,.23,0,.51-.38.52-.69Z"/>
  <path class="cls-1" d="M22.89,14.05c.77-.45,1.56-.68,2.34-1.04,2.12-.98,4.27-1.64,6.5-1.52-2.23-.13-4.39.54-6.52,1.52-.78.36-1.57.59-2.34,1.04-.05.03-.12.05-.18.05.08,0,.15-.02.2-.05Z"/>
  <path class="cls-1" d="M49.06,39.08c0,.13,0,.25-.01.38,0-.13,0-.25.01-.38Z"/>
  <path class="cls-1" d="M48.76,21.06c1.1-1.8,2.74-5.68,3.55-7.69h.01c.7-1.71,3.29-7.24,2.73-7.24-.77,1.57-2.33,5.23-2.94,6.75-.83,2.07-2.65,5.93-3.35,8.18Z"/>
  <path class="cls-1" d="M38.23,13.07l2.83-6.76h-.01c-.97-.85-1.86-1.37-2.85-1.96-.89-.53-1.81-.89-2.76-1.35l-2.53-1.22c-.84-.4-1.77-.43-2.8-.6l-1.86,7.4-.69,2.35c3.49-1.36,7.93-.47,10.66,2.14Z"/>
  <path class="cls-1" d="M50.26,31.76s0-.01,0-.01c-1.16,1.54-5.04,3.24-6.73,3.87h.02c1.68-.63,5.54-2.32,6.71-3.86Z"/>
  <path class="cls-1" d="M36.95,32.24c-.25-1.38-.76-2.97-1.35-4.23.89-.75,1.74-1.61,2.45-2.52,0,0,0,0,0-.01-.71.92-1.56,1.77-2.45,2.52.59,1.26,1.1,2.85,1.35,4.23.1.39.27.87.32,1.25l.2,1.76s0,0,0,0l-.2-1.75c-.04-.38-.23-.86-.32-1.25Z"/>
  <path class="cls-1" d="M40.76,17.55c.41,2.52-.22,4.92-1.99,6.85.6.82,1.07,1.89,1.95,2.4.97.57,2.21-.03,3-.61.66-.49,1.27-.77,2.05-1.08-.41-.99-.46-1.97-.04-2.85.25-.53.82-.78,1.38-.96.31-.1.41-.51.55-.81l1.54-3.63,1.31-3.16,1.52-3.58,1.82-4.27-6.16.45-5.12.69c-.51.07-.71.33-.89.75l-2.61,6.24c1.14,1.01,1.49,2.23,1.71,3.59Z"/>
  <path class="cls-1" d="M43.57,35.61h-.02c-1.58.6-2.91,1-4.41,1.04,1.51-.03,2.84-.44,4.44-1.04Z"/>
  <path class="cls-1" d="M13.15,10.58c1.2-.59,2.62-.84,4.06-.8-1.44-.05-2.87.21-4.08.8-.08.04-.16.06-.25.06.09,0,.18-.02.27-.06Z"/>
  <path class="cls-1" d="M49.5,49.24c-.12.05.05.4.19.45.4.15.05-.31,1.3-.43h0c1.18-.83,1.88-2.16,1.95-3.64l-2.38,1c.12,1.16.23,2.1-1.06,2.62Z"/>
  <path class="cls-1" d="M55.87,42.4c-.22,1.53-.57,1.43-1.73,2.5.1,1.42-.36,2.55-1,3.94l2.81-1.71c.8-.48,1.5-1.04,2.18-1.68.69-.74.8-1.85.17-2.61-.56-.67-1.74-1.07-2.43-.44Z"/>
  <path class="cls-1" d="M49.76,21.82l-.47,1.05c-.08.16-.38.48-.53.39l-.55-.29-.87-.47c-.25-.13-.7.36-.74.73h0c-.08.64.1,1.35.46,1.78,1.09.05,1.96.59,2.62,1.55,1.01-1.06,1.6-4.04.09-4.73Z"/>
  <path class="cls-1" d="M23.26,10.47l-1.71-.96c-.24-.13-.5-.25-.76-.35.25.1.5.22.74.35l1.71.96c.6.34,1.08.95,1.55,1.46,0,0,.01,0,.02,0-.47-.51-.94-1.12-1.54-1.45Z"/>
  <path class="cls-1" d="M40.12,27.81c1.42.77,3.11.25,4.32-.68,1.02-.78,2.28-1.19,3.54-.75h-.01c-1.26-.46-2.52-.05-3.54.74-1.21.93-2.9,1.45-4.32.68-.22-.12-.41-.27-.6-.45.19.18.39.34.61.46Z"/>
  <path class="cls-1" d="M17.86,8.54c.16.02.31.03.47.05.14.02.28.04.41.06-.13-.02-.26-.05-.39-.06-.16-.02-.33-.03-.49-.05Z"/>
  <path class="cls-1" d="M28.52,47.16l-.29-2.76-.61-6-.74-5.96-.52-4.09c-.26-2.04-.55-4.02-.73-6.06-.12-1.42-.2-2.74-.59-4.11-.86-.47-1.7-.97-2.63-1.23-.48-.13-.95-.2-1.4-.37-1.29-.5-4.69-1.57-6.03-1.87-1.34-.31-2.59-.86-3.88-1.35l-3.63-1.37c-.47-.17-.88-.51-1.35-.82,1.53-1.13,1.36-.73,2.68-1.92,1.07-.96,2.41-1.53,3.66-2.23,2.11-1.19,4.92-2.1,7.45-2.04-2.53-.06-5.35.85-7.47,2.04-1.25.71-2.58,1.26-3.66,2.23-1.32,1.19-1.16.77-2.68,1.92.47.31.88.63,1.35.82l3.63,1.37c1.3.49,2.53,1.05,3.88,1.35,1.35.31,4.75,1.37,6.03,1.87.45.17.92.24,1.4.37.92.26,1.77.76,2.63,1.23.38,1.38.46,2.7.59,4.11.17,2.04.46,4.02.73,6.06l.52,4.09.74,5.96.61,6,.29,2.76c.29,2.78.23,5.1.62,7.66.15.96.27,1.82.33,2.81,0,0,.01,0,.02,0-.04-.99-.17-1.85-.33-2.8-.39-2.56-.33-4.88-.62-7.66Z"/>
  <path d="M45.78,25.09s0,0-.01,0c0,0,0,0,0,0h.01Z"/>
  <path d="M59.68,42.87c-.7-1.48-2.34-2.14-3.85-1.86.08-3.13-.12-5.57-.8-8.44-.41-1.77-1.5-3.94-3.31-4.56l-1.2-.41.9-1.68c.63-1.19.8-4.3-1.1-5.17l1.97-4.27,1.56-3.66,1.56-4.03.87-2.29c.11-.28,0-.5-.2-.78-.25-.37-.51-.87-1.06-.92-1.34-.12-2.64-.04-3.98.05l-3.78.28c-1.62.12-3.34.69-4.95.6-1.17-.84-2.4-1.74-3.65-2.47-.93-.53-1.83-.87-2.79-1.34l-2.51-1.22c-.33-.16-3.6-.89-4.11-.64l-.82,3.08-1.34,5.31c-.41-1.22-.95-2.04-1.93-2.69-.57-.37-1.13-.92-1.77-1.19-3.79-1.67-8.16-.38-11.65,1.48-1.43.76-2.77,1.5-4.07,2.47l-3.01,2.26c-.48.36-.63.77-.58,1.41.16,1.94.37,3.83.59,5.79l1.11,10.17,1.83,16.5.69,6.33c.26.23.61.39,1.02.55l.43,3.5c.07.55.15,1.23.44,1.67.49.75,1.4.99,2.22.9.69-.08,1.6-.41,1.85-1.23.22-.75.16-1.62.26-2.5l10.8,4.82.37,2.79c.09.64.26,1.44.64,1.92.56.71,1.49.61,2.27.58,2.75-.13,2.33-3.68,2.55-5.73,1.16-.5,2.27-1,3.37-1.61l2.83-1.57,6.63-3.2c.34,1.18.33,2.43,1.11,3.36.57.66,1.81.45,2.61.05.68-.33,1.35-1.12,1.43-2.06v.03s.2-2.35.2-2.35c1.53.55,3.8-.57,5.12-1.44,1.8-1.18,4.69-2.54,5.33-4.63.16-.53.12-1.42-.13-1.94ZM49.67,26.55c-.65-.96-1.53-1.49-2.62-1.55-.36-.43-.53-1.13-.46-1.77h0c.04-.38.49-.87.74-.74l.87.47.55.29c.15.09.46-.23.53-.39l.47-1.05c1.52.69.93,3.67-.09,4.73ZM48.79,31.61h-.01c-2.42,1.66-8.42,4.75-11.32,3.64h0s0,0,0-.01l-.2-1.76c-.04-.38-.22-.86-.32-1.25-.25-1.38-.76-2.97-1.35-4.23.89-.75,1.74-1.6,2.45-2.52,0,0,0,0,0,.01,0,0,0,0,0,0,.48.6.91,1.33,1.46,1.85.18.17.38.33.6.45,1.42.77,3.11.25,4.32-.68,1.02-.8,2.28-1.2,3.54-.75h.01s0,.01,0,.01l1.28,1.35c.22.24,1.21,2.73-.47,3.88ZM55.05,6.13c.57,0-2.03,5.53-2.73,7.24h-.01c-.82,2.01-2.45,5.89-3.55,7.69.7-2.25,2.52-6.1,3.35-8.18.61-1.52,2.17-5.18,2.94-6.75ZM42.55,6.97l5.12-.69,6.16-.45-1.82,4.27-1.52,3.58-1.31,3.16-1.54,3.63c-.13.29-.24.71-.55.81-.57.17-1.13.43-1.38.96-.41.88-.37,1.86.04,2.85,0,0,0,0,.01,0h-.01s0,0,0,0c-.78.31-1.39.6-2.05,1.08-.78.58-2.03,1.18-3,.61-.88-.51-1.35-1.58-1.95-2.4,1.78-1.93,2.41-4.33,1.99-6.85-.22-1.35-.57-2.57-1.71-3.59l2.61-6.24c.19-.43.38-.69.89-.75ZM28.25,8.58l1.86-7.4c1.04.17,1.96.2,2.8.6l2.53,1.22c.95.46,1.86.82,2.76,1.35.98.59,1.87,1.11,2.85,1.95h.01s-2.83,6.77-2.83,6.77c-2.74-2.61-7.17-3.5-10.66-2.14l.69-2.35ZM44.6,50.34l-7.86,3.68c-.71.33-1.33.66-1.96,1.1-1.62,1.1-3.46,1.82-5.31,2.51,0,0,0,0,0,0,0,0-.01,0-.02,0-.05-.99-.17-1.85-.33-2.81-.39-2.56-.33-4.88-.62-7.66l-.29-2.76-.61-6-.74-5.96-.52-4.09c-.27-2.04-.56-4.02-.73-6.06-.13-1.41-.21-2.73-.59-4.11-.86-.47-1.71-.97-2.63-1.23-.48-.13-.95-.2-1.4-.37-1.28-.5-4.68-1.57-6.03-1.87-1.35-.31-2.58-.86-3.88-1.35l-3.63-1.37c-.47-.19-.88-.51-1.35-.82,1.53-1.14,1.36-.73,2.68-1.92,1.08-.97,2.41-1.53,3.66-2.23,2.12-1.19,4.94-2.1,7.47-2.04.37,0,.73.04,1.08.09,1.35.2,2.41.76,3.47,1.55.95.71,1.57,1.48,1.5,2.79-.03.6.15,1.37-.19,1.95-.14.24-.71.47-.97.59,0,0,0,0,0,0,0,0-.01,0-.02,0-.47-.51-.95-1.12-1.55-1.46l-1.71-.96c-.23-.13-.48-.25-.74-.35-.65-.25-1.35-.4-2.05-.51-.14-.02-.28-.05-.41-.06-.16-.02-.31-.03-.47-.05-1.84-.17-3.67.04-5.28.93-.25.14-.38.61-.31.82.08.21.34.36.6.36.08,0,.17-.02.25-.06,1.21-.59,2.64-.85,4.08-.8,2.41.07,4.86.98,6.42,2.54-.59.24-1.99.82-1.55,1.52.11.16.38.27.6.26.07,0,.13-.02.18-.05.77-.45,1.56-.68,2.34-1.04,2.13-.98,4.29-1.64,6.52-1.52.75.04,1.51.17,2.28.41,1.69.52,2.95,1.42,4.13,2.7.83.9,1.32,1.73,1.47,3.05.23,1.94.04,3.92-1.3,5.46-1.91,2.18-.7,1.77-3.86,4.27-.16.13-.35.48-.34.65.01.17.35.41.46.59.7,1.16.95,2.44,1.26,3.73.52,2.13.68,4.14.57,6.3,0,.21.42.51.62.52.23-.01.51-.38.52-.68v-1.95s0,0,.01,0h0c.55.08,1.07.11,1.57.1,1.5-.03,2.83-.44,4.41-1.04h-.02c1.69-.63,5.57-2.33,6.73-3.87,0,0,0,.01,0,.01,0,0,0,0,.01-.01,1.55,1.95,1.23,5.16-1.17,6.57-.02.25-.03.51-.04.77,0,.13,0,.25-.01.38-.01.88.03,1.77.07,2.67l.27,5.61c-.69.87-3.67,2.07-4.8,2.59ZM50.98,49.27h0c-1.24.11-.89.57-1.3.41-.13-.04-.31-.39-.19-.45,1.29-.51,1.18-1.46,1.06-2.62l2.38-1c-.08,1.48-.77,2.81-1.95,3.65ZM58.13,45.44c-.68.64-1.38,1.2-2.18,1.68l-2.81,1.71c.64-1.38,1.1-2.52,1-3.94,1.17-1.07,1.52-.97,1.73-2.5.69-.63,1.87-.23,2.43.44.62.75.51,1.86-.17,2.61Z"/>
  <path class="cls-2" d="M36.72,54.02l7.86-3.68c1.12-.52,4.11-1.72,4.8-2.59l-.27-5.61c-.05-.9-.07-1.79-.05-2.67,0-.13,0-.25.01-.38,0-.26,0-.51.02-.77,2.39-1.41,2.71-4.61,1.18-6.56-1.17,1.53-5.03,3.22-6.71,3.86h.02c-1.59.6-2.92,1.01-4.44,1.04-.5.01-1.02-.02-1.57-.1v1.95c-.01.31-.29.69-.52.69,0,0,0,0-.01,0,0,0,0,0,0,0-.2,0-.64-.31-.63-.52.11-2.15-.04-4.18-.57-6.3-.32-1.3-.58-2.57-1.26-3.73-.1-.17-.44-.41-.46-.59-.02-.17.17-.52.34-.65,3.15-2.52,1.95-2.09,3.86-4.27,1.34-1.54,1.54-3.52,1.3-5.46-.16-1.32-.65-2.15-1.47-3.05-1.18-1.29-2.43-2.18-4.13-2.7-.76-.23-1.51-.36-2.25-.41-2.23-.12-4.38.54-6.5,1.52-.78.36-1.57.59-2.34,1.04-.06.03-.13.05-.2.05-.23.02-.52-.08-.63-.26-.45-.7.96-1.28,1.55-1.52-1.55-1.56-4-2.47-6.4-2.54-1.44-.04-2.86.21-4.06.8-.09.04-.18.06-.27.06-.27.01-.55-.13-.62-.36-.08-.2.05-.68.31-.82,1.62-.9,3.45-1.12,5.3-.93.16.02.33.03.49.05.13.02.26.04.39.06.7.11,1.4.26,2.05.51.26.1.51.22.76.35l1.71.96c.6.34,1.07.94,1.54,1.45.27-.12.82-.35.95-.58.34-.58.16-1.35.19-1.95.07-1.31-.56-2.08-1.5-2.79-1.06-.78-2.11-1.35-3.47-1.55-.34-.05-.7-.08-1.06-.09-2.52-.06-5.33.85-7.45,2.04-1.25.71-2.59,1.28-3.66,2.23-1.32,1.19-1.16.78-2.68,1.92.47.31.88.64,1.35.82l3.63,1.37c1.29.49,2.54,1.05,3.88,1.35,1.34.31,4.74,1.37,6.03,1.87.45.17.92.24,1.4.37.93.26,1.77.76,2.63,1.23.39,1.37.47,2.69.59,4.11.19,2.04.47,4.02.73,6.06l.52,4.09.74,5.96.61,6,.29,2.76c.29,2.78.23,5.1.62,7.66.15.96.28,1.82.33,2.8,1.85-.68,3.68-1.4,5.29-2.5.63-.44,1.25-.76,1.96-1.1Z"/>
  <path class="cls-2" d="M24.44,6.6c.95.71,1.57,1.48,1.5,2.79-.02.6.15,1.37-.19,1.95-.14.24-.69.46-.95.58,0,0,0,0,0,0,.26-.12.83-.35.97-.59.34-.58.15-1.35.19-1.95.07-1.31-.56-2.08-1.5-2.79-1.06-.78-2.11-1.35-3.47-1.55-.35-.05-.71-.08-1.08-.09.36,0,.71.04,1.06.09,1.35.2,2.41.76,3.47,1.55Z"/>
  <path class="cls-2" d="M49.05,39.46c-.01.88,0,1.77.05,2.67l.27,5.61c-.69.87-3.67,2.07-4.8,2.59l-7.86,3.68c-.71.34-1.33.67-1.96,1.1-1.61,1.1-3.44,1.81-5.29,2.5,0,0,0,0,0,0,1.85-.69,3.68-1.41,5.31-2.51.63-.44,1.25-.77,1.96-1.1l7.86-3.68c1.12-.52,4.11-1.72,4.8-2.59l-.27-5.61c-.05-.89-.09-1.79-.07-2.67Z"/>
  <path class="cls-2" d="M20.79,9.16c-.65-.26-1.34-.41-2.05-.51.7.11,1.39.26,2.05.51Z"/>
  <path class="cls-2" d="M22.06,13.84c.11.18.39.29.63.26-.23.01-.5-.1-.6-.26-.45-.7.96-1.28,1.55-1.52-1.56-1.56-4.01-2.47-6.42-2.54,2.4.08,4.85.99,6.4,2.54-.59.24-1.99.82-1.55,1.52Z"/>
  <path class="cls-2" d="M12.56,9.47c-.25.14-.38.62-.31.82.07.22.35.37.62.36-.26,0-.52-.15-.6-.36-.08-.21.05-.68.31-.82,1.61-.89,3.44-1.11,5.28-.93-1.85-.19-3.68.03-5.3.93Z"/>
  <path class="cls-2" d="M49.08,38.31c-.02.25-.01.51-.02.77,0-.26.02-.51.04-.77,2.4-1.42,2.71-4.62,1.17-6.57,0,0,0,0-.01.01,1.54,1.95,1.22,5.14-1.18,6.56Z"/>
  <path class="cls-2" d="M38.12,14.6c.82.9,1.31,1.73,1.47,3.05.24,1.94.04,3.92-1.3,5.46-1.91,2.18-.71,1.76-3.86,4.27-.16.13-.36.48-.34.65.02.17.36.41.46.59.69,1.16.95,2.43,1.26,3.73.52,2.13.68,4.15.57,6.3-.01.22.44.52.63.52,0,0,0,0,0,0-.2,0-.62-.31-.62-.52.11-2.16-.04-4.18-.57-6.3-.32-1.29-.57-2.57-1.26-3.73-.11-.17-.45-.41-.46-.59-.01-.17.17-.52.34-.65,3.16-2.51,1.95-2.09,3.86-4.27,1.34-1.54,1.53-3.52,1.3-5.46-.15-1.32-.64-2.15-1.47-3.05-1.18-1.29-2.44-2.18-4.13-2.7-.77-.24-1.53-.36-2.28-.41.74.04,1.49.17,2.25.41,1.7.52,2.95,1.42,4.13,2.7Z"/>
  <path class="cls-2" d="M39.13,36.65c-.5.01-1.02-.02-1.57-.1h0c.55.08,1.07.11,1.57.1Z"/>
  <path class="cls-3" d="M49.25,27.72l-1.27-1.34c-1.26-.44-2.52-.03-3.54.75-1.21.93-2.9,1.45-4.32.68-.22-.12-.42-.28-.61-.46-.55-.53-.98-1.25-1.46-1.85-.71.9-1.56,1.76-2.45,2.52.59,1.26,1.1,2.85,1.35,4.23.09.39.27.87.32,1.25l.2,1.75c2.91,1.1,8.89-1.99,11.31-3.65h.01c1.68-1.14.69-3.63.47-3.87Z"/>
  <path class="cls-3" d="M39.51,27.35c-.55-.53-.98-1.25-1.46-1.85,0,0,0,0,0,0,.48.6.91,1.33,1.46,1.85Z"/>
  <path class="cls-3" d="M47.98,26.38s0,0,0,0l1.27,1.34c.22.24,1.21,2.73-.47,3.88h.01c1.68-1.14.69-3.63.47-3.87l-1.28-1.35Z"/>
  <path class="cls-3" d="M37.46,35.24h0c2.9,1.12,8.9-1.98,11.32-3.64h-.01c-2.42,1.66-8.39,4.75-11.31,3.64Z"/>
</svg>