<?xml version="1.0" encoding="UTF-8"?>
<svg id="Layer_1" xmlns="http://www.w3.org/2000/svg" version="1.1" viewBox="0 0 64 64">
  <!-- Generator: Adobe Illustrator 30.1.0, SVG Export Plug-In . SVG Version: 2.1.1 Build 136)  -->
  <defs>
    <style>
      .st0 {
        fill: #fb449d;
      }

      .st1 {
        fill: #030102;
      }

      .st2 {
        fill: #fff;
      }

      .st3 {
        fill: #f8449c;
      }
    </style>
  </defs>
  <path class="st1" d="M24.47,18.42l-.9,4.05-1.17,4.67c-.5,1.99-1.17,3.8-1.83,5.81h.02c.65-2,1.33-3.82,1.82-5.8l1.17-4.67.9-4.05.35-1.82,1.31-5.79c.21-.94.31-2.72.42-3.72,1.33-.08,2.62-.09,4.02-.08,0,0,0,0,0,0-1.4,0-2.69,0-4.03.08-.1,1-.2,2.77-.42,3.72l-1.31,5.79-.35,1.82Z"/>
  <path class="st1" d="M29.01,17.3c-.22.85-.51,1.64-.82,2.47l-1.3,3.45-2.17,5.12-1.99,4.51c.58.06,1.01.11,1.37.11-.36,0-.78-.05-1.36-.11l1.99-4.51,2.17-5.12,1.3-3.45c.31-.82.6-1.62.82-2.47.31-1.2.71-2.31,1.14-3.47.56-1.55,1.32-5.1,1.39-6.8l3.36-.03h0s-3.37.03-3.37.03c-.07,1.71-.83,5.25-1.39,6.8-.42,1.16-.82,2.27-1.14,3.47Z"/>
  <path class="st1" d="M9.52,50.13h0c-.56,1.82-1.06,3.34-1.09,5.31h0c.03-1.97.53-3.49,1.09-5.31Z"/>
  <path class="st1" d="M21.14,7.15l-.3,3.58c-.08.71-.14,1.42-.26,2.14l-.67,3.88-1.48,7.56c-.62,3.15-3.76,13.15-5.05,16.24l-1.02,2.47-.94,2.14c-.73,1.65-1.37,3.25-1.9,4.98h0c.54-1.74,1.18-3.34,1.9-4.99l.94-2.14,1.02-2.47c1.28-3.09,4.43-13.09,5.05-16.24l1.48-7.56.67-3.88c.13-.72.18-1.43.26-2.14l.3-3.58-3.39.02-3.42.06s0,0,0,0l3.41-.06,3.39-.02Z"/>
  <path class="st1" d="M25.32,9.99l-1.33,5.96-.51,2.48-.54,2.51-1.33,5.48c-.83,3.43-2.03,6.7-3.45,9.93-.18.41-.32.73-.47,1.17-.36,1.06-.86,2.06-1.3,3.08l-1.59,3.66-1.77,4.01c-.77,1.74-1.41,3.42-2.29,5.16h0c.88-1.74,1.52-3.41,2.29-5.15l1.77-4.01,1.59-3.66c.44-1.03.94-2.02,1.3-3.08.15-.44.3-.77.47-1.17,1.42-3.22,2.61-6.5,3.45-9.93l1.33-5.48.54-2.51.51-2.48,1.33-5.96c.15-.67.21-2.19.18-2.91h0c.05.72-.02,2.23-.18,2.9Z"/>
  <path class="st1" d="M10.74,53.46c-.42.83-.62,1.67-.95,2.5-.07-.01-.13-.04-.18-.08.05.05.11.08.19.09.33-.82.54-1.66.95-2.5h0Z"/>
  <path class="st1" d="M6.85,41.44l.1-6.32.11-8.3.09-5.89.11-8.2.06-5.41,2.59-.06,3.46-.05c.06.42.12.86.16,1.32-.04-.46-.1-.91-.16-1.32l-3.46.05-2.59.06-.06,5.41-.11,8.2-.09,5.89-.11,8.3-.1,6.32-.11,7.89c0,.58-.03,1.14-.04,1.7,0-.55.03-1.11.04-1.69l.11-7.89Z"/>
  <path class="st2" d="M29.72,25.49c-.19.51-.52,1.12-.52,1.67l-.02,4.06c1.68,0,3.27.08,4.84-.26,2.66-.58,4.24-2.32,5.02-4.86h0c.8-2.62.83-5.77.49-8.5-.22-1.83-.66-3.59-1.72-5.1-.63-.91-1.45-1.6-2.57-1.98l-1.33,4.35c3.08,1.51,4.25,5.4,2.34,8.32-1.41,2.16-4.04,3.05-6.55,2.29Z"/>
  <path class="st2" d="M24.14,41.18c-.99.25-1.92.26-2.93.35-.29.03-.63.58-.37.81.59.54,2.51.4,3.4-.04,1-.48,1.75-1.17,2.3-2.17l.43-.81c.32-.6.41-1.38.53-2.06.02-.1.3-1.54.12-2.67,0-.07-.46-1.73-.66-1.8l-.47.62c-.43.19-.91.47-1.37.57-1.63.38-3.31-.37-4.38.26-.26.16-.26.81.06.91.54.18,1.14.15,1.73.14l2.25-.04c.21,0,.53.26.52.61-.02.45-.27.54-.44.54-1.23-.05-2.16.07-3.26.03-.74-.03-2.5-.18-2.63,1.02.03.82,4.71.18,5.41.07.3-.05.62.14.7.38.06.18-.11.66-.35.71-1.62.33-3.89.51-5.57.36-.12,0-.23,0-.3,0s-.14.25-.14.33h.03c.04.46.42.93.94.97,1.21.09,2.4.04,3.61-.14.29-.05.66-.06.9.07.36.21.19.9-.06.96Z"/>
  <polygon class="st1" points="10.69 56.51 12.22 55.95 12.21 55.95 10.69 56.5 10.69 56.51"/>
  <path class="st1" d="M14.9,51.22c.23-1.14.53-2.21.9-3.32l1.94-5.8.47-1.31-.55-.67h0s.55.67.55.67l-.47,1.31-1.94,5.8c-.38,1.12-.66,2.18-.9,3.32l-.96,4.7s0,0,0,0l.96-4.7Z"/>
  <path class="st1" d="M12.21,55.95s.09-.02.13-.03c-.05.01-.09.01-.14.03h0Z"/>
  <path class="st1" d="M19.61,41.58c-.02.32-.07.84.09,1.16.36.71,1.1,1.01,1.87,1.12l-1.49,3.81c-.6,1.53-1.04,3.05-1.28,4.73h0c.25-1.69.69-3.19,1.28-4.73l1.49-3.81c-.78-.11-1.51-.41-1.87-1.12-.17-.32-.11-.84-.09-1.16,0-.12-.3-.22-.48-.2.18-.02.48.08.47.2Z"/>
  <path class="st1" d="M17.86,55.81c-.39.77-1.05,1.21-1.92,1.2,0,0,0,0,0,0,.86,0,1.53-.42,1.92-1.2.51-1.03.78-2.19.96-3.41h0c-.18,1.22-.44,2.37-.96,3.41Z"/>
  <path class="st0" d="M7.74,52.46l.69-4.11.53-3.01c.55-3.19,1.28-6.28,2.06-9.42l.66-2.64c.86-3.48,1.2-6.97,1.81-10.51.47-2.79.9-5.42,1.02-8.24.09-2.15.32-5.14-.16-7.3h-.01c.48,2.16.25,5.16.16,7.31-.12,2.83-.54,5.46-1.02,8.24-.61,3.54-.95,7.03-1.81,10.51l-.66,2.64c-.78,3.14-1.5,6.22-2.06,9.42l-.53,3.01-.69,4.11-.43,2.99h1.13s0-.01,0-.02h-1.12l.43-2.98Z"/>
  <path class="st0" d="M9.5,50.15c.54-1.73,1.17-3.32,1.9-4.98l.94-2.14,1.02-2.47c1.29-3.09,4.43-13.09,5.05-16.24l1.48-7.56.67-3.88c.12-.72.18-1.43.26-2.14l.3-3.58-3.39.02-3.41.06c.48,2.16.25,5.16.16,7.3-.12,2.83-.54,5.46-1.02,8.24-.61,3.54-.95,7.03-1.81,10.51l-.66,2.64c-.78,3.14-1.5,6.22-2.06,9.42l-.53,3.01-.69,4.11-.43,2.98h1.12c.03-1.97.53-3.49,1.09-5.3h0Z"/>
  <path class="st0" d="M7.7,46.95l1.24-6.36,1.64-6.87c.61-2.54,1.04-5.03,1.42-7.62l.58-3.96c.23-1.56.61-3.04.72-4.62l.32-4.75c.09-1.28.05-2.82-.08-4.23.13,1.41.16,2.94.08,4.22l-.32,4.75c-.11,1.58-.49,3.06-.72,4.62l-.58,3.96c-.38,2.59-.81,5.08-1.42,7.62l-1.64,6.87-1.24,6.36-.64,3.69h0s.64-3.68.64-3.68Z"/>
  <path class="st0" d="M6.85,51.86l-.12.81c-.03-.56-.03-1.1-.02-1.65,0,.55,0,1.1.02,1.66l.12-.81.22-1.24h0s-.22,1.23-.22,1.23Z"/>
  <path class="st0" d="M8.94,40.58l1.64-6.87c.61-2.54,1.04-5.03,1.42-7.62l.58-3.96c.23-1.56.61-3.04.72-4.62l.32-4.75c.08-1.28.05-2.81-.08-4.22-.04-.46-.1-.9-.16-1.32l-3.46.05-2.59.06-.06,5.41-.11,8.2-.09,5.89-.11,8.3-.1,6.32-.11,7.89c0,.58-.03,1.14-.04,1.69,0,.55,0,1.1.02,1.65l.12-.81.22-1.24h0s.64-3.68.64-3.68l1.24-6.36Z"/>
  <path class="st3" d="M10.28,50.81c.62-1.98,1.36-3.83,2.19-5.72l.95-2.16c.55-1.27,1.04-2.51,1.5-3.83l1.14-3.28,1.34-4.32c.73-2.35,1.48-4.63,1.95-7.07l1.43-7.32.84-5.03.39-4.24c.02-.19.09-.59.25-.7l3.23-.04s0,0,0,0l-3.24.04c-.16.11-.23.51-.25.7l-.39,4.24-.84,5.03-1.43,7.32c-.47,2.43-1.22,4.71-1.95,7.07l-1.34,4.32-1.14,3.28c-.45,1.31-.94,2.56-1.5,3.83l-.95,2.16c-.83,1.89-1.57,3.75-2.19,5.72-.21.69-1.42,4.46-.66,5.08-.75-.65.45-4.39.67-5.07Z"/>
  <path class="st3" d="M10.74,53.46h0c.88-1.75,1.52-3.43,2.29-5.17l1.77-4.01,1.59-3.66c.44-1.02.94-2.02,1.3-3.08.15-.44.3-.77.47-1.17,1.42-3.23,2.62-6.5,3.45-9.93l1.33-5.48.54-2.51.51-2.48,1.33-5.96c.16-.67.22-2.18.18-2.9l-3.23.04c-.16.11-.23.51-.25.7l-.39,4.24-.84,5.03-1.43,7.32c-.47,2.44-1.22,4.72-1.95,7.07l-1.34,4.32-1.14,3.28c-.46,1.32-.95,2.56-1.5,3.83l-.95,2.16c-.83,1.89-1.57,3.75-2.19,5.72-.22.68-1.41,4.43-.67,5.07.05.04.11.07.18.08.33-.83.54-1.67.95-2.5Z"/>
  <path class="st3" d="M33.21,13.96c-.53,1.77-1.08,3.47-1.84,5.16l-1.27,2.85c-.76,1.7-1.39,3.35-1.96,5.13-.46,1.45-1.07,2.81-1.71,4.17-.16.34-.57.54-.45,1.04h0c-.13-.51.3-.7.45-1.04.65-1.37,1.26-2.72,1.71-4.17.56-1.78,1.2-3.43,1.96-5.13l1.27-2.85c.75-1.69,1.31-3.39,1.84-5.16l1.26-4.2c.18-.61.31-2.11.45-2.77h0c-.14.66-.27,2.15-.45,2.77l-1.26,4.2Z"/>
  <path class="st3" d="M24.11,32.95c.61,0,1.07-.14,1.87-.62h0c-.79.48-1.25.62-1.86.62Z"/>
  <path class="st3" d="M30.16,13.82c-.42,1.16-.82,2.27-1.14,3.47-.22.85-.51,1.64-.82,2.47l-1.3,3.45-2.17,5.12-1.99,4.51c.58.06,1,.11,1.36.11.61,0,1.07-.15,1.86-.62h0c-.12-.5.3-.7.45-1.04.64-1.37,1.25-2.72,1.71-4.17.56-1.78,1.2-3.43,1.96-5.13l1.27-2.85c.76-1.69,1.31-3.39,1.84-5.16l1.26-4.2c.18-.62.31-2.11.45-2.77l-3.36.03c-.07,1.71-.83,5.25-1.39,6.8Z"/>
  <path class="st3" d="M28.98,14.26l-1.07,3.4-2.02,5.55-.54,1.34-2.67,6.02-.95,2.23h.02s.95-2.22.95-2.22l2.67-6.02.54-1.34,2.02-5.55,1.07-3.4c.3-.95.65-1.84.91-2.79.33-1.17.62-3.2.69-4.46,0,0-.01,0-.02,0-.07,1.26-.36,3.28-.69,4.45-.27.96-.62,1.85-.91,2.79Z"/>
  <path class="st3" d="M20.6,32.95s0,0,0,.01l1.13-.18h-.02s-1.1.16-1.1.16Z"/>
  <path class="st3" d="M26.15,10.82l-1.31,5.79-.35,1.82-.9,4.05-1.17,4.67c-.5,1.98-1.18,3.8-1.82,5.79l1.1-.17h.02s.95-2.22.95-2.22l2.67-6.02.54-1.34,2.02-5.55,1.07-3.4c.3-.94.65-1.83.91-2.79.33-1.17.62-3.19.69-4.45-1.4,0-2.68,0-4.02.08-.1,1-.2,2.78-.42,3.72Z"/>
  <path class="st3" d="M14.86,56.41c.36-2.62,1.01-5.55,1.79-8.06.73-2.34,1.49-4.65,2.36-6.91.02-.04.07-.06.13-.06-.06,0-.12.03-.13.06-.88,2.25-1.63,4.57-2.36,6.91-.78,2.51-1.43,5.44-1.79,8.06-.06.44.77.6,1.09.6,0,0,0,0,0,0-.33-.01-1.15-.16-1.08-.6Z"/>
  <path class="st3" d="M17.86,55.81c.52-1.03.78-2.19.96-3.41h0c.24-1.68.68-3.19,1.28-4.73l1.49-3.81c-.78-.11-1.51-.41-1.87-1.12-.17-.32-.11-.84-.09-1.16,0-.12-.29-.22-.47-.2-.06,0-.11.03-.13.06-.88,2.25-1.63,4.57-2.36,6.91-.78,2.51-1.43,5.44-1.79,8.06-.06.44.76.59,1.08.6.87,0,1.53-.43,1.92-1.2Z"/>
  <path class="st3" d="M13.57,49.56c.43-1.15.93-2.23,1.44-3.37l1.4-3.14,1.24-2.93h0s-1.25,2.93-1.25,2.93l-1.4,3.14c-.51,1.14-1,2.22-1.44,3.37-.47,1.23-.97,2.38-1.59,3.55-.56,1.07-.9,2.19-1.29,3.41h.01c.4-1.23.73-2.34,1.29-3.41.62-1.16,1.12-2.32,1.59-3.55Z"/>
  <path class="st3" d="M12.34,55.93c.51-.13,1.12-.03,1.59,0h0c-.48-.04-1.08-.13-1.59,0Z"/>
  <path class="st3" d="M15.79,47.89l1.94-5.8.47-1.31-.55-.67-1.24,2.93-1.4,3.14c-.51,1.14-1.01,2.22-1.44,3.37-.47,1.23-.97,2.38-1.59,3.55-.56,1.07-.89,2.18-1.29,3.4l1.52-.55h0s.09-.02.14-.03c.5-.14,1.11-.04,1.59,0l.96-4.7c.24-1.14.53-2.21.9-3.32Z"/>
  <path class="st2" d="M59.05,53.12l-4.22-2.23-7.61-16.32c-.05-.11-.16-.19-.27-.24-.06-.02-.14-.03-.21-.02l-3.24.04c-1.47.04-4.54-.3-6.11-.58l-1.01-.17v-.12l2.44-.49,2.42-.58c.78-.2,1.49-.43,2.25-.68l.21-.07c8.08-2.66,11.48-7.2,10.39-13.85-.49-3.03-1.85-5.33-4.16-7.04-1.61-1.2-3.47-2.04-5.69-2.57l-1.09-.27c-.87-.21-2.8-.51-3.72-.59l-3.56-.31-.08.92,3.56.31c.88.08,2.77.37,3.58.57l1.09.27c2.1.5,3.85,1.29,5.35,2.42,2.1,1.55,3.35,3.66,3.8,6.44,1.02,6.22-2.09,10.3-9.77,12.83l-.21.07c-.74.24-1.45.47-2.19.66l-3.9.89-1.27.23c-.22.04-.38.23-.38.45v.9c0,.22.16.42.38.46l1.39.24c1.6.28,4.75.63,6.28.59l3-.03,7.54,16.18c.04.09.11.17.2.21l4.11,2.17v1h-16.72l-8.2-20.23c-.06-.14-.17-.24-.32-.28-.14-.03-.3,0-.41.1l-3.88,3.31c-.1.09-.16.22-.16.35v11.32c0,.07.02.15.05.21l.95,1.85c.04.08.11.15.19.2l4.13,2.19v.99h-14.88v.92h15.35c.26,0,.46-.21.46-.46v-1.73c0-.17-.09-.33-.25-.41l-4.25-2.25-.83-1.62v-11l3.23-2.75,8.08,19.92c.07.17.24.29.43.29h17.5c.26,0,.46-.21.46-.46v-1.74c0-.17-.09-.33-.25-.41Z"/>
</svg>