<?xml version="1.0" encoding="UTF-8"?>
<svg id="Layer_1" data-name="Layer 1" xmlns="http://www.w3.org/2000/svg" viewBox="0 0 64 64">
  <defs>
    <style>
      .cls-1 {
        fill: none;
      }

      .cls-2 {
        fill: #fb449d;
      }

      .cls-3 {
        fill: #030102;
      }

      .cls-4 {
        fill: #f8449c;
      }
    </style>
  </defs>
  <path class="cls-1" d="M11.73,54.31c-.41.82-.61,1.65-.94,2.47-.07-.01-.12-.04-.17-.08.05.04.11.08.18.09.33-.81.53-1.64.94-2.47h0Z"/>
  <polygon class="cls-1" points="11.67 57.32 13.19 56.77 13.18 56.77 11.67 57.32 11.67 57.32"/>
  <path class="cls-1" d="M16.73,48.81l1.92-5.73.47-1.3-.55-.67h0s.54.67.54.67l-.47,1.3-1.92,5.73c-.37,1.1-.66,2.15-.89,3.29l-.95,4.64s0,0,0,0l.95-4.64c.23-1.13.52-2.18.89-3.28Z"/>
  <path class="cls-1" d="M16.87,57.81s0,0,0,0c.85,0,1.51-.42,1.9-1.19.5-1.02.77-2.16.95-3.37h0c-.17,1.2-.44,2.35-.95,3.37-.38.77-1.04,1.19-1.89,1.19Z"/>
  <path class="cls-1" d="M13.18,56.77s.08-.02.13-.03c-.04.01-.09.01-.13.03h0Z"/>
  <path class="cls-1" d="M10.51,51.02c-.55,1.79-1.05,3.29-1.08,5.24h0c.03-1.94.52-3.45,1.08-5.25h0Z"/>
  <path class="cls-1" d="M25.29,19.68l-.89,4.01-1.16,4.62c-.49,1.96-1.16,3.76-1.81,5.74h.02c.64-1.98,1.31-3.77,1.8-5.73l1.16-4.62.89-4.01.35-1.8,1.3-5.72c.21-.93.31-1.78.41-2.76,1.32-.08,2.59-.09,3.97-.08,0,0,0,0,0,0-1.39,0-2.66,0-3.99.08-.1.99-.2,1.82-.41,2.76l-1.3,5.72-.35,1.8Z"/>
  <path class="cls-1" d="M7.88,42.43l.1-6.24.11-8.2.09-5.82.11-8.1.06-4.43,2.56-.05,3.42-.05c.06.42.12.81.16,1.19-.04-.38-.1-.77-.16-1.19l-3.42.05-2.56.05-.06,4.43-.11,8.1-.09,5.82-.11,8.2-.1,6.24-.11,7.8c0,.58-.03,1.13-.04,1.68,0-.55.03-1.1.04-1.67l.11-7.8Z"/>
  <path class="cls-1" d="M22,9.45l-.3,2.63c-.08.7-.14,1.41-.26,2.12l-.67,3.83-1.46,7.47c-.61,3.11-3.71,12.99-4.99,16.05l-1.01,2.45-.93,2.12c-.72,1.63-1.35,3.21-1.88,4.92h0c.53-1.72,1.17-3.3,1.88-4.93l.93-2.12,1.01-2.45c1.27-3.06,4.38-12.94,4.99-16.05l1.46-7.47.67-3.83c.13-.71.18-1.41.26-2.12l.3-2.63-3.35.02-3.38.05s0,0,0,0l3.37-.05,3.35-.02Z"/>
  <path class="cls-1" d="M24.82,17.24l-.5,2.45-.54,2.48-1.31,5.42c-.82,3.39-2.01,6.62-3.41,9.82-.17.4-.32.72-.47,1.16-.36,1.05-.85,2.03-1.29,3.05l-1.57,3.61-1.75,3.96c-.76,1.72-1.4,3.38-2.26,5.1h0c.87-1.72,1.51-3.37,2.26-5.09l1.75-3.96,1.57-3.61c.44-1.02.93-2,1.29-3.05.15-.44.29-.76.47-1.16,1.41-3.18,2.58-6.42,3.41-9.82l1.31-5.42.54-2.48.5-2.45,1.31-5.89c.15-.67.21-1.25.17-1.96h0c.04.71-.02,1.29-.17,1.95l-1.31,5.89Z"/>
  <path class="cls-1" d="M27.76,33.89l-.47.61c-.43.19-.9.47-1.35.57-1.62.37-3.27-.36-4.33.26-.26.16-.26.8.05.9.54.17,1.12.15,1.71.14l2.23-.04c.21,0,.52.26.51.6-.02.45-.26.54-.44.53-1.21-.05-2.14.07-3.22.03-.73-.03-2.47-.17-2.6,1.01.03.81,4.65.17,5.35.07.3-.05.61.14.69.37.06.18-.11.66-.35.7-1.6.33-3.84.5-5.5.36-.12,0-.23,0-.3,0-.07,0-.14.25-.14.33h.03c.04.46.42.92.93.96,1.2.09,2.37.04,3.57-.14.28-.05.66-.06.89.07.36.21.19.89-.05.95-.98.25-1.9.26-2.89.35-.28.03-.62.57-.36.8.58.54,2.48.39,3.36-.04.99-.47,1.73-1.16,2.27-2.14l.43-.8c.32-.59.4-1.37.52-2.03.02-.1.29-1.52.12-2.64,0-.07-.46-1.71-.65-1.78Z"/>
  <path class="cls-1" d="M39.69,27.27h0c.79-2.59.82-5.7.48-8.4-.22-1.81-.66-3.55-1.7-5.04-.62-.9-1.43-1.58-2.54-1.95l-1.31,4.3c3.05,1.5,4.2,5.34,2.31,8.22-1.4,2.14-4,3.01-6.47,2.26-.19.5-.51,1.1-.51,1.65l-.02,4.01c1.66,0,3.23.08,4.78-.26,2.63-.57,4.19-2.29,4.96-4.8Z"/>
  <path class="cls-1" d="M25.55,29.48l2.14-5.06,1.29-3.41c.31-.81.59-1.6.81-2.44.31-1.19.7-2.28,1.12-3.43.56-1.53,1.3-4.12,1.38-5.81l3.32-.03h0s-3.33.03-3.33.03c-.07,1.69-.82,4.28-1.38,5.81-.42,1.15-.81,2.24-1.12,3.43-.22.84-.5,1.62-.81,2.44l-1.29,3.41-2.14,5.06-1.96,4.45c.58.06.99.11,1.36.11-.36,0-.77-.05-1.35-.11l1.96-4.45Z"/>
  <path class="cls-1" d="M20.59,43.71c-.16-.32-.11-.83-.09-1.15,0-.12-.3-.22-.48-.2.18-.02.48.08.47.2-.02.32-.07.83.09,1.15.36.7,1.09.99,1.85,1.1l-1.47,3.77c-.59,1.51-1.03,3.01-1.27,4.67h0c.25-1.67.68-3.16,1.27-4.67l1.47-3.77c-.77-.11-1.5-.4-1.85-1.1Z"/>
  <path class="cls-3" d="M54.95,52.1l-7.58-16.27h-.02s-3.24.05-3.24.05c-1.51.02-4.62-.31-6.12-.57l-1.38-.24v-.89l1.26-.23,1.51-.32,1.34-.3,1.04-.26c.82-.21,1.59-.47,2.4-.73,6.34-2.09,11.18-5.78,9.96-13.19-.45-2.75-1.66-4.98-3.93-6.66-1.63-1.21-3.49-1.99-5.46-2.46l-1.08-.26c-.82-.2-2.72-.49-3.6-.57l-3.52-.31-.27-.6h-12.87l-6.62.1-4.98.1-3.75.05c-.31,0-.61.24-.61.6l-.68,47.62c0,.29.2.55.36.65.72.47,1.72-.75,2.86,0,.2.14.42.6.64.73,1.39.79,2.68-1.19,4.21-.38.26.14.51.57.78.69.83.37,1.83.36,2.66-.02.98-.44,1.46-1.36,1.77-2.35h15.17v-1.71l-4.33-2.29-.94-1.82v-11.19l3.83-3.27,4.5,11.1,3.72,9.18h17.29v-1.72l-4.31-2.27ZM27.35,9.4c1.33-.08,2.6-.09,3.99-.08,0,0,0,0,0,0,0,0,.01,0,.02,0-.07,1.24-.36,2.34-.68,3.49-.26.94-.61,1.82-.9,2.76l-1.06,3.36-2,5.48-.54,1.32-2.64,5.95-.94,2.2h-.02s-1.11.16-1.11.16c0,0,0,0,0-.01h-.02c.65-1.98,1.31-3.77,1.81-5.74l1.16-4.62.89-4.01.35-1.8,1.3-5.72c.21-.94.31-1.78.41-2.76ZM7.87,52.74l-.12.8c-.03-.55-.03-1.09-.02-1.64,0-.55.03-1.1.04-1.68l.11-7.8.1-6.24.11-8.2.09-5.82.11-8.1.06-4.43,2.56-.05,3.42-.05c.06.42.12.82.16,1.19.13,1.13.17,2.13.08,3.39l-.32,4.7c-.11,1.56-.48,3.02-.71,4.56l-.57,3.91c-.37,2.55-.8,5.02-1.41,7.53l-1.62,6.79-1.22,6.29-.63,3.65h0s-.22,1.21-.22,1.21ZM9.44,56.26h0s0,.01,0,.02h-1.11l.43-2.96.68-4.06.52-2.97c.55-3.16,1.27-6.2,2.03-9.31l.65-2.61c.85-3.44,1.19-6.89,1.79-10.38.47-2.76.89-5.36,1-8.15.09-2.13.32-4.18-.16-6.31h.01s0,0,0,0l3.38-.05,3.35-.02-.3,2.63c-.07.7-.13,1.41-.26,2.12l-.67,3.83-1.46,7.47c-.61,3.11-3.72,12.99-4.99,16.05l-1.01,2.45-.93,2.12c-.71,1.62-1.35,3.21-1.88,4.92h0c-.56,1.79-1.05,3.29-1.08,5.24ZM10.79,56.79c-.07-.01-.13-.04-.18-.09-.76-.61.44-4.34.65-5.02.61-1.95,1.34-3.79,2.16-5.66l.94-2.14c.56-1.26,1.04-2.49,1.49-3.79l1.13-3.24,1.32-4.27c.72-2.34,1.46-4.59,1.93-6.99l1.41-7.24.83-4.97.38-3.28c.02-.19.09-.58.25-.69l3.2-.04s0,0,0,0h0c.04.71-.03,1.3-.17,1.96l-1.31,5.89-.5,2.45-.54,2.48-1.31,5.42c-.83,3.39-2.01,6.63-3.41,9.82-.17.4-.32.72-.47,1.16-.36,1.05-.85,2.03-1.29,3.05l-1.57,3.61-1.75,3.96c-.76,1.72-1.4,3.38-2.26,5.1h0c-.41.84-.61,1.67-.94,2.48ZM14.88,56.74s0,0,0,0h0c-.46-.02-1.07-.12-1.57,0-.04.01-.09.01-.13.03h0l-1.51.55s0,0,0,0h-.01c.38-1.2.72-2.3,1.28-3.36.61-1.15,1.1-2.29,1.57-3.5.44-1.14.92-2.21,1.42-3.33l1.39-3.1,1.23-2.9h0s0,0,0,0l.55.67-.47,1.3-1.92,5.73c-.37,1.1-.67,2.15-.89,3.28l-.95,4.64ZM20.98,48.59c-.58,1.51-1.02,3-1.27,4.67h0c-.18,1.2-.45,2.35-.95,3.37-.38.77-1.05,1.2-1.9,1.19,0,0,0,0,0,0,0,0,0,0,0,0-.32,0-1.13-.16-1.08-.59.36-2.59.99-5.48,1.77-7.97.72-2.31,1.47-4.6,2.34-6.83.02-.04.07-.06.13-.06.18-.02.48.08.48.2-.02.32-.07.83.09,1.15.36.7,1.09.99,1.85,1.1l-1.47,3.77ZM28.29,38.3c-.12.67-.2,1.44-.52,2.03l-.43.8c-.54.99-1.29,1.67-2.27,2.14-.88.43-2.77.57-3.36.04-.26-.23.08-.78.36-.8.99-.09,1.92-.1,2.89-.35.25-.06.41-.74.05-.95-.23-.14-.6-.12-.89-.07-1.2.17-2.37.23-3.57.14-.51-.04-.89-.5-.93-.96h-.03c0-.08.06-.32.14-.33.07,0,.18,0,.3,0,1.66.15,3.91-.03,5.5-.36.24-.05.41-.52.35-.7-.08-.24-.39-.42-.69-.37-.69.1-5.32.74-5.35-.07.13-1.19,1.87-1.04,2.6-1.01,1.09.05,2.01-.07,3.22-.03.17,0,.42-.08.44-.53,0-.35-.3-.6-.51-.6l-2.23.04c-.58,0-1.17.04-1.71-.14-.31-.1-.31-.75-.05-.9,1.06-.62,2.71.12,4.33-.26.45-.1.92-.37,1.35-.57l.47-.61c.19.07.64,1.71.65,1.78.17,1.11-.1,2.54-.12,2.64ZM28.93,28.27c-.45,1.43-1.05,2.77-1.69,4.12-.16.34-.57.53-.45,1.03h0c-.79.47-1.24.62-1.85.62-.36,0-.78-.05-1.36-.11l1.96-4.45,2.14-5.06,1.29-3.41c.31-.81.59-1.6.81-2.44.31-1.19.7-2.28,1.12-3.43.56-1.53,1.3-4.12,1.38-5.81l3.33-.03h0s0,0,0,0c-.14.66-.26,1.22-.45,1.82l-1.24,4.15c-.52,1.75-1.08,3.43-1.82,5.1l-1.26,2.82c-.75,1.68-1.38,3.31-1.93,5.07ZM29.95,32.33l.02-4.01c0-.55.32-1.15.51-1.65,2.47.75,5.07-.13,6.47-2.26,1.89-2.88.74-6.73-2.31-8.22l1.31-4.3c1.1.37,1.92,1.05,2.54,1.95,1.04,1.49,1.48,3.23,1.7,5.04.34,2.7.31,5.81-.48,8.4h0c-.78,2.52-2.34,4.23-4.96,4.81-1.55.34-3.12.26-4.78.26Z"/>
  <path class="cls-2" d="M10.5,51.03c.53-1.71,1.16-3.28,1.88-4.92l.93-2.12,1.01-2.45c1.28-3.06,4.38-12.94,4.99-16.05l1.46-7.47.67-3.83c.12-.71.17-1.41.26-2.12l.3-2.63-3.35.02-3.37.05c.47,2.13.24,4.18.15,6.31-.12,2.79-.54,5.39-1,8.15-.6,3.49-.94,6.94-1.79,10.38l-.65,2.61c-.77,3.1-1.49,6.15-2.03,9.31l-.52,2.97-.68,4.06-.43,2.95h1.11c.03-1.94.52-3.45,1.08-5.24h0Z"/>
  <path class="cls-2" d="M8.76,53.31l.68-4.06.52-2.97c.55-3.16,1.27-6.2,2.03-9.31l.65-2.61c.85-3.44,1.19-6.89,1.79-10.38.47-2.76.89-5.36,1-8.15.09-2.12.32-4.17-.15-6.31h-.01c.47,2.14.25,4.19.16,6.31-.12,2.79-.53,5.39-1,8.15-.6,3.49-.94,6.94-1.79,10.38l-.65,2.61c-.77,3.1-1.49,6.15-2.03,9.31l-.52,2.97-.68,4.06-.43,2.96h1.11s0-.01,0-.02h-1.11l.43-2.95Z"/>
  <path class="cls-2" d="M9.95,41.58l1.62-6.79c.6-2.51,1.03-4.97,1.41-7.53l.57-3.91c.23-1.54.6-3,.71-4.56l.32-4.7c.08-1.26.05-2.25-.08-3.38-.04-.38-.1-.77-.16-1.19l-3.42.05-2.56.05-.06,4.43-.11,8.1-.09,5.82-.11,8.2-.1,6.24-.11,7.8c0,.57-.03,1.12-.04,1.67,0,.54,0,1.08.02,1.63l.12-.8.22-1.22h0s.63-3.64.63-3.64l1.22-6.29Z"/>
  <path class="cls-2" d="M8.72,47.88l1.22-6.29,1.62-6.79c.6-2.51,1.03-4.97,1.41-7.53l.57-3.91c.23-1.54.6-3,.71-4.56l.32-4.7c.09-1.25.05-2.25-.08-3.39.13,1.13.16,2.12.08,3.38l-.32,4.7c-.11,1.56-.48,3.02-.71,4.56l-.57,3.91c-.37,2.56-.8,5.02-1.41,7.53l-1.62,6.79-1.22,6.29-.63,3.65h0s.63-3.64.63-3.64Z"/>
  <path class="cls-2" d="M7.87,52.73l-.12.8c-.03-.55-.03-1.09-.02-1.63,0,.55,0,1.09.02,1.64l.12-.8.22-1.22h0s-.22,1.21-.22,1.21Z"/>
  <path class="cls-4" d="M11.73,54.31h0c.87-1.73,1.51-3.39,2.26-5.11l1.75-3.96,1.57-3.61c.44-1.01.93-2,1.29-3.05.15-.44.29-.76.47-1.16,1.41-3.19,2.59-6.42,3.41-9.82l1.31-5.42.54-2.48.5-2.45,1.31-5.89c.15-.66.22-1.25.17-1.95l-3.19.04c-.16.11-.23.5-.25.69l-.38,3.28-.83,4.97-1.41,7.24c-.47,2.41-1.2,4.66-1.93,6.99l-1.32,4.27-1.13,3.24c-.46,1.3-.94,2.53-1.49,3.79l-.94,2.14c-.82,1.87-1.55,3.7-2.16,5.66-.21.67-1.4,4.37-.66,5.01.05.04.11.07.17.08.33-.82.53-1.65.94-2.47Z"/>
  <path class="cls-4" d="M11.27,51.69c.61-1.95,1.34-3.79,2.16-5.66l.94-2.14c.55-1.26,1.03-2.48,1.49-3.79l1.13-3.24,1.32-4.27c.72-2.33,1.46-4.58,1.93-6.99l1.41-7.24.83-4.97.38-3.28c.02-.19.09-.58.25-.69l3.19-.04s0,0,0,0l-3.2.04c-.16.11-.23.5-.25.69l-.38,3.28-.83,4.97-1.41,7.24c-.47,2.4-1.2,4.65-1.93,6.99l-1.32,4.27-1.13,3.24c-.45,1.3-.93,2.53-1.49,3.79l-.94,2.14c-.82,1.87-1.55,3.7-2.16,5.66-.21.69-1.41,4.41-.65,5.02-.74-.64.44-4.34.66-5.01Z"/>
  <path class="cls-4" d="M27.23,32.39c.63-1.35,1.23-2.69,1.69-4.12.56-1.76,1.19-3.39,1.93-5.07l1.26-2.82c.75-1.67,1.3-3.35,1.82-5.1l1.24-4.15c.18-.61.31-1.18.45-1.82l-3.32.03c-.07,1.69-.82,4.28-1.38,5.81-.42,1.15-.81,2.24-1.12,3.43-.22.84-.5,1.62-.81,2.44l-1.29,3.41-2.14,5.06-1.96,4.45c.57.06.99.11,1.35.11.6,0,1.05-.14,1.84-.62h0c-.12-.49.29-.69.45-1.03Z"/>
  <path class="cls-4" d="M24.93,34.04c.61,0,1.06-.14,1.85-.62h0c-.79.47-1.24.61-1.84.62Z"/>
  <path class="cls-4" d="M32.12,20.37c.74-1.67,1.3-3.35,1.82-5.1l1.24-4.15c.18-.6.31-1.17.45-1.82h0c-.14.65-.26,1.21-.45,1.82l-1.24,4.15c-.52,1.75-1.07,3.43-1.82,5.1l-1.26,2.82c-.75,1.68-1.38,3.31-1.93,5.07-.46,1.43-1.06,2.77-1.69,4.12-.16.34-.57.54-.45,1.03h0c-.13-.5.29-.69.45-1.03.64-1.35,1.24-2.69,1.69-4.12.56-1.76,1.19-3.39,1.93-5.07l1.26-2.82Z"/>
  <path class="cls-4" d="M26.95,12.17l-1.3,5.72-.35,1.8-.89,4.01-1.16,4.62c-.49,1.96-1.17,3.75-1.8,5.73l1.09-.17h.02s.94-2.19.94-2.19l2.64-5.95.54-1.32,2-5.48,1.06-3.36c.29-.93.64-1.81.9-2.76.33-1.16.61-2.25.68-3.49-1.38,0-2.65,0-3.97.08-.1.99-.2,1.83-.41,2.76Z"/>
  <path class="cls-4" d="M21.47,34.04s0,0,0,.01l1.11-.17h-.02s-1.09.16-1.09.16Z"/>
  <path class="cls-4" d="M29.75,15.56l-1.06,3.36-2,5.48-.54,1.32-2.64,5.95-.94,2.2h.02s.94-2.19.94-2.19l2.64-5.95.54-1.32,2-5.48,1.06-3.36c.29-.94.64-1.82.9-2.76.33-1.16.61-2.25.68-3.49,0,0-.01,0-.02,0-.07,1.24-.36,2.33-.68,3.49-.26.95-.61,1.82-.9,2.76Z"/>
  <path class="cls-4" d="M20.97,48.59l1.47-3.77c-.77-.11-1.5-.4-1.85-1.1-.16-.32-.11-.83-.09-1.15,0-.12-.29-.22-.47-.2-.06,0-.11.03-.12.06-.87,2.23-1.62,4.52-2.34,6.83-.78,2.48-1.41,5.37-1.77,7.97-.06.44.75.58,1.07.59.86,0,1.51-.42,1.89-1.19.51-1.02.78-2.16.95-3.37h0c.24-1.66.68-3.16,1.27-4.67Z"/>
  <path class="cls-4" d="M15.79,57.22c.36-2.59.99-5.48,1.77-7.97.72-2.31,1.47-4.6,2.34-6.83.02-.04.06-.06.12-.06-.06,0-.11.03-.13.06-.87,2.23-1.62,4.52-2.34,6.83-.78,2.48-1.41,5.37-1.77,7.97-.05.44.76.59,1.08.59,0,0,0,0,0,0-.32-.01-1.13-.16-1.07-.59Z"/>
  <path class="cls-4" d="M16.72,48.81l1.92-5.73.47-1.3-.54-.66-1.23,2.89-1.39,3.1c-.5,1.12-.99,2.19-1.42,3.33-.47,1.21-.96,2.35-1.57,3.5-.56,1.06-.88,2.15-1.28,3.36l1.5-.54h0s.09-.02.13-.03c.5-.13,1.1-.04,1.57,0l.95-4.64c.24-1.13.52-2.18.89-3.29Z"/>
  <path class="cls-4" d="M14.52,50.45c.43-1.14.92-2.21,1.42-3.33l1.39-3.1,1.23-2.89h0s-1.23,2.89-1.23,2.89l-1.39,3.1c-.5,1.12-.99,2.19-1.42,3.33-.47,1.21-.96,2.35-1.57,3.5-.56,1.06-.89,2.16-1.28,3.37h.01c.39-1.22.72-2.31,1.28-3.37.61-1.15,1.1-2.29,1.57-3.5Z"/>
  <path class="cls-4" d="M13.3,56.74c.51-.13,1.11-.03,1.57,0h0c-.47-.04-1.07-.13-1.57,0Z"/>
</svg>